<svg xmlns="http://www.w3.org/2000/svg" id="_bottom" stroke-width="0" xmlns:xlink="http://www.w3.org/1999/xlink" stroke-linecap="round" stroke-linejoin="round" viewBox="10 10.51 1000 570"><defs><circle id="tool-T1-pad-1012" r="7.5"/><circle id="tool-T2-pad-1013" r="11.81"/><circle id="tool-T3-pad-1014" r="26"/><path id="tool-D10-pad-1023" d="M50 20.711L20.711 50h-41.422L-50 20.711v-41.422L-20.711-50h41.422L50-20.711z"/><circle id="tool-D11-pad-1024" r="19.685"/><path id="tool-D12-pad-1025" d="M42.5 17.604L17.604 42.5h-35.208L-42.5 17.604v-35.208L-17.604-42.5h35.208L42.5-17.604z"/><circle id="tool-D14-pad-1027" r="14.5"/><path id="tool-D10-pad-1037" d="M53 21.953L21.953 53h-43.906L-53 21.953v-43.906L-21.953-53h43.906L53-21.953z"/><circle id="tool-D11-pad-1038" r="22.685"/><path id="tool-D12-pad-1039" d="M45.5 18.847L18.847 45.5h-37.694L-45.5 18.847v-37.694L-18.847-45.5h37.694L45.5-18.847z"/><circle id="tool-D13-pad-1040" r="17.5"/><g id="_bottom-cu" fill="currentColor" stroke="currentColor"><use x="910" y="175.51" xlink:href="#tool-D10-pad-1023"/><use x="184.37" y="213.11" xlink:href="#tool-D11-pad-1024"/><use x="184.37" y="287.91" xlink:href="#tool-D11-pad-1024"/><use x="535" y="485.51" xlink:href="#tool-D12-pad-1025"/><use x="815" y="490.51" xlink:href="#tool-D12-pad-1025"/><use x="675" y="120.51" xlink:href="#tool-D12-pad-1025"/><path fill="none" stroke-width="12" d="M31 31.51v528h958v-528H31m0 2.97h958m0 11.99H31m0 11.98h958m0 11.99H707.66m-8.43-8.43l34.27 34.27v48.46l-34.27 34.27h-48.46l-34.27-34.27V96.28l34.27-34.27h48.46m20.41 20.41H989m0 11.99H731.63m1.87 11.98H989m0 11.99h-42.8m-8.86-8.87L976 148.17v54.68l-38.66 38.66h-54.68L844 202.85v-54.68l38.66-38.66h54.68m20.85 20.85H989m0 11.99h-18.83m5.83 11.98h13m0 11.99h-13m0 11.98h13m0 11.99h-13m0 11.98h13m0 11.99h-24.41m-11.98 11.98H989m0 11.99h-48.38M989 250.21H31m0-11.98h128.02m-2.37-2.37l4.97 4.97 5.85 3.9 6.49 2.69 6.9 1.38h3.51v-71.37 35.68h-35.68v-3.51l1.37-6.9 2.69-6.49 3.9-5.85 4.97-4.97 5.85-3.9 6.49-2.69 6.9-1.37h7.02l6.9 1.37 6.49 2.69 5.85 3.9 4.97 4.97 3.9 5.85 2.69 6.49 1.37 6.9v7.02l-1.37 6.9-2.69 6.49-3.9 5.85-4.97 4.97-5.85 3.9-6.49 2.69-6.9 1.38h-3.51v-35.69h35.68-71.37l.01 3.51 1.37 6.9 2.69 6.49 3.9 5.85m-5.46-9.62H31m0-11.98h117.69m1.54-11.99H31m0-11.98h125.73m19.71-11.99H31m0-11.98h607.08m11.98 11.98H192.3m-15.03 73.93h14.2l13.11 5.43 10.04 10.04 5.43 13.12v14.19l-5.43 13.12-10.04 10.04-13.11 5.43h-14.2l-13.11-5.43-10.04-10.04-5.43-13.12v-14.19l5.43-13.12 10.04-10.04 13.11-5.43m-17.65 9.97H31m0 11.98h120.43m-2.74 11.99H31m0 11.98h118.99m6.14 11.99H31m0 11.98h142.71m21.32 0H989m0-11.98H212.61m6.14-11.99H989m0-11.98H220.05m-2.74-11.99H989m0-11.98H209.12m.6-23.97h669.66m-11.99-11.99H217.56m2.49-11.98h635.36M844 202.27H218.51m-6.5-11.98H844m0-11.99H699.94m11.98-11.98H844m0-11.99H723.91m9.59-11.98h116.33m11.98-11.99H733.5m0-11.98h140.3M642.34 70.44H31m0 11.98h599.36m-11.99 11.99H31m0 11.98h585.5m0 11.99H31m0 11.98h585.5m0 11.99H31m0 11.98h595.09M989 334.11H31m0 11.98h958m0 11.99H31m0 11.99h958m0 11.98H31m0 11.99h958m0 11.98H31m0 11.99h958m0 11.98H562.21m-2.98-2.98l34.27 34.27v18.23H541v-52.5h18.23M541 429.99h-12m0-2.98v52.5h12v12h52.5v18.23l-34.27 34.27H541v-52.5h-12v-12h-52.5v-18.23l34.27-34.27H529m0 14.97h12m0 11.98h-12m0 11.99h12m0 11.98h-12m0 11.99H31m0 11.98h445.5m0 7.84v-18.23H529v52.5h-18.23l-34.27-34.27m4.14 4.15H31m0 11.98h461.63m11.98 11.99H31m0 11.98h958m0-11.98H850.39m-11.16 11.15h-48.46l-34.27-34.27v-48.46l34.27-34.27h48.46l34.27 34.27v48.46l-34.27 34.27m23.14-23.14H989m0-11.98H873.5m0-11.99H989m0-11.98H873.5m0-11.99H989m0-11.98H873.17m-11.99-11.99H989m0-11.98H849.2m-68.4 0H574.2m11.98 11.98h182.64m-11.99 11.99H593.5m0 11.98h163m0 11.99H541m0 11.98h-12m0 11.99h12m0 11.98h-12m0 11.99h12m24.39 0h214.22m-11.98-11.99H577.37m11.99-11.98H756.5m0-11.99h-163m-97.7-59.92H31m0 11.98h452.82m-7.32 11.99H31m0 11.98h445.5m31.29-47.94H31"/><use x="250" y="150.51" xlink:href="#tool-D14-pad-1027"/><use x="560" y="210.51" xlink:href="#tool-D14-pad-1027"/><use x="580" y="260.51" xlink:href="#tool-D14-pad-1027"/></g><mask id="_bottom_mech-mask" fill="#fff" fill-rule="evenodd" stroke="#fff"><path d="M10 10.51h1000v570H10z"/><g id="_bottom-drl" fill="#000" stroke="#000"><use x="2500" y="1505.1" xlink:href="#tool-T1-pad-1012"/><use x="5600" y="2105.1" xlink:href="#tool-T1-pad-1012"/><use x="5800" y="2605.1" xlink:href="#tool-T1-pad-1012"/><use x="1843.7" y="2879.1" xlink:href="#tool-T2-pad-1013"/><use x="1843.7" y="2131.1" xlink:href="#tool-T2-pad-1013"/><use x="5350" y="4855.1" xlink:href="#tool-T3-pad-1014"/><use x="8150" y="4905.1" xlink:href="#tool-T3-pad-1014"/><use x="9100" y="1755.1" xlink:href="#tool-T3-pad-1014"/><use x="6750" y="1205.1" xlink:href="#tool-T3-pad-1014"/></g></mask></defs><g mask="url(#_bottom_mech-mask)" transform="rotate(180 510 295.51)"><path fill="currentColor" d="M10 10.51h1000v570H10z" class="_board-fr4"/><use class="_board-cu" xlink:href="#_bottom-cu"/><defs><g id="_bottom-sm" fill="currentColor" stroke="currentColor"><use x="910" y="175.51" xlink:href="#tool-D10-pad-1037"/><use x="184.37" y="213.11" xlink:href="#tool-D11-pad-1038"/><use x="184.37" y="287.91" xlink:href="#tool-D11-pad-1038"/><use x="535" y="485.51" xlink:href="#tool-D12-pad-1039"/><use x="815" y="490.51" xlink:href="#tool-D12-pad-1039"/><use x="675" y="120.51" xlink:href="#tool-D12-pad-1039"/><use x="250" y="150.51" xlink:href="#tool-D13-pad-1040"/><use x="560" y="210.51" xlink:href="#tool-D13-pad-1040"/><use x="580" y="260.51" xlink:href="#tool-D13-pad-1040"/></g><mask id="_bottom-sm_mask" color="#000"><path fill="#fff" d="M10 10.51h1000v570H10z"/><use xlink:href="#_bottom-sm"/></mask><mask id="_bottom-cu_finish-mask" color="#fff"><use xlink:href="#_bottom-cu"/></mask></defs><path fill="currentColor" d="M10 10.51h1000v570H10z" class="_board-sm" mask="url(#_bottom-sm_mask)"/><use class="_board-cf" mask="url(#_bottom-cu_finish-mask)" xlink:href="#_bottom-sm"/></g><style>._board-fr4{color:#4d542c}._board-cu{color:#d3d3d3}._board-cf{color:#daa520}._board-sm{color:#2e0051;opacity:.9}._board-ss{color:#fff}._board-sp{color:silver;opacity:0}._board-out{color:#000}</style></svg>