<svg xmlns="http://www.w3.org/2000/svg" id="_top" stroke-width="0" xmlns:xlink="http://www.w3.org/1999/xlink" stroke-linecap="round" stroke-linejoin="round" viewBox="10 10.51 1000 570"><defs><path id="tool-D10-pad-1000" d="M-17.715-11.81h35.43v23.62h-35.43z"/><path id="tool-D11-pad-1001" d="M-23.62-19.685h47.24v39.37h-47.24z"/><path id="tool-D12-pad-1002" d="M-19.685-23.62h39.37v47.24h-39.37z"/><path id="tool-D13-pad-1003" d="M50 20.711L20.711 50h-41.422L-50 20.711v-41.422L-20.711-50h41.422L50-20.711z"/><circle id="tool-D14-pad-1004" r="19.685"/><path id="tool-D15-pad-1005" d="M42.5 17.604L17.604 42.5h-35.208L-42.5 17.604v-35.208L-17.604-42.5h35.208L42.5-17.604z"/><path id="tool-D16-pad-1006" d="M-19.685-27.56h39.37v55.12h-39.37z"/><path id="tool-D17-pad-1007" d="M-37.4-20h74.8v40h-74.8z"/><circle id="tool-D21-pad-1011" r="14.5"/><circle id="tool-T1-pad-1012" r="7.5"/><circle id="tool-T2-pad-1013" r="11.81"/><circle id="tool-T3-pad-1014" r="26"/><circle id="tool-D14-pad-1021" r="3.935"/><path id="tool-D10-pad-1028" d="M-20.715-14.81h41.43v29.62h-41.43z"/><path id="tool-D11-pad-1029" d="M-26.62-22.685h53.24v45.37h-53.24z"/><path id="tool-D12-pad-1030" d="M-22.685-26.62h45.37v53.24h-45.37z"/><path id="tool-D13-pad-1031" d="M53 21.953L21.953 53h-43.906L-53 21.953v-43.906L-21.953-53h43.906L53-21.953z"/><circle id="tool-D14-pad-1032" r="22.685"/><path id="tool-D15-pad-1033" d="M45.5 18.847L18.847 45.5h-37.694L-45.5 18.847v-37.694L-18.847-45.5h37.694L45.5-18.847z"/><path id="tool-D16-pad-1034" d="M-22.685-30.56h45.37v61.12h-45.37z"/><path id="tool-D17-pad-1035" d="M-40.4-23h80.8v46h-80.8z"/><circle id="tool-D18-pad-1036" r="17.5"/><g id="_top-cu" fill="currentColor" stroke="currentColor"><use x="624.72" y="223.11" xlink:href="#tool-D10-pad-1000"/><use x="624.72" y="260.51" xlink:href="#tool-D10-pad-1000"/><use x="624.72" y="297.91" xlink:href="#tool-D10-pad-1000"/><use x="715.28" y="297.91" xlink:href="#tool-D10-pad-1000"/><use x="715.28" y="260.51" xlink:href="#tool-D10-pad-1000"/><use x="715.28" y="223.11" xlink:href="#tool-D10-pad-1000"/><use x="800" y="219.88" xlink:href="#tool-D11-pad-1001"/><use x="800" y="296.14" xlink:href="#tool-D11-pad-1001"/><use x="910" y="296.14" xlink:href="#tool-D11-pad-1001"/><use x="910" y="374.88" xlink:href="#tool-D11-pad-1001"/><use x="800" y="374.88" xlink:href="#tool-D11-pad-1001"/><use x="530" y="349.88" xlink:href="#tool-D11-pad-1001"/><use x="530" y="271.14" xlink:href="#tool-D11-pad-1001"/><use x="560" y="169.88" xlink:href="#tool-D11-pad-1001"/><use x="560" y="91.14" xlink:href="#tool-D11-pad-1001"/><use x="800" y="141.14" xlink:href="#tool-D11-pad-1001"/><use x="434.37" y="285.51" xlink:href="#tool-D12-pad-1002"/><use x="355.63" y="285.51" xlink:href="#tool-D12-pad-1002"/><use x="355.63" y="380.51" xlink:href="#tool-D12-pad-1002"/><use x="434.37" y="380.51" xlink:href="#tool-D12-pad-1002"/><use x="630.63" y="375.51" xlink:href="#tool-D12-pad-1002"/><use x="709.37" y="375.51" xlink:href="#tool-D12-pad-1002"/><use x="910" y="175.51" xlink:href="#tool-D13-pad-1003"/><use x="184.37" y="213.11" xlink:href="#tool-D14-pad-1004"/><use x="184.37" y="287.91" xlink:href="#tool-D14-pad-1004"/><use x="535" y="485.51" xlink:href="#tool-D15-pad-1005"/><use x="815" y="490.51" xlink:href="#tool-D15-pad-1005"/><use x="675" y="120.51" xlink:href="#tool-D15-pad-1005"/><use x="707.4" y="442.2" xlink:href="#tool-D16-pad-1006"/><use x="632.6" y="442.2" xlink:href="#tool-D16-pad-1006"/><use x="670" y="528.82" xlink:href="#tool-D16-pad-1006"/><use x="309.61" y="185.51" xlink:href="#tool-D17-pad-1007"/><use x="470.39" y="135.51" xlink:href="#tool-D17-pad-1007"/><use x="309.61" y="85.51" xlink:href="#tool-D17-pad-1007"/><path fill="none" stroke-width="12" d="M250 150.51l45 35h14.61M530 271.14l10.63-10.63h84.09m0 37.4H582.6l-22.6 22.6h-.63L530 349.88m193.03-46.34v-5.63m0 5.63L780 360.51h5.63L800 374.88h110m0-78.74V175.51m-110 44.37l-40.63 40.63h5L800 296.14m-40.63-35.63h-44.09"/><path fill="none" stroke-width="16" d="M715.28 297.91h7.75"/><path fill="none" stroke-width="10" d="M670 265.51v65h-75l-15 15v35l-10 10H444.37l-10-10H410l-15-15v-225l-55-55h-30.39m124.76 70.63L450 140.51h15.39l5-5H495l35-35h20.63l9.37-9.37h20.63L625 135.51v87.32l-.28.28m45.28 42.4l5-5h40.28m0-37.4v-37.87L760 140.51h39.37l.63.63m-125-20.63h-5l-45 15m-65 34.37v40.63m-125.63-54.37v129.37m-78.74 0v95m-2.4-92.6H184.37m168.86 0l2.4-2.4m114.76-150l-5-5m204.61 200v5.63l39.37 39.37-1.97 1.97v64.72m-74.8 0v-11.69l-55 55H535m97.6-55v-53.03l-1.97-1.97.37.37m76 2l2.37-2.37m105.63 115l-48.31 38.31H670"/><use x="250" y="150.51" xlink:href="#tool-D21-pad-1011"/><use x="560" y="210.51" xlink:href="#tool-D21-pad-1011"/><use x="580" y="260.51" xlink:href="#tool-D21-pad-1011"/></g><mask id="_top_mech-mask" fill="#fff" fill-rule="evenodd" stroke="#fff"><path d="M10 10.51h1000v570H10z"/><g id="_top-drl" fill="#000" stroke="#000"><use x="2500" y="1505.1" xlink:href="#tool-T1-pad-1012"/><use x="5600" y="2105.1" xlink:href="#tool-T1-pad-1012"/><use x="5800" y="2605.1" xlink:href="#tool-T1-pad-1012"/><use x="1843.7" y="2879.1" xlink:href="#tool-T2-pad-1013"/><use x="1843.7" y="2131.1" xlink:href="#tool-T2-pad-1013"/><use x="5350" y="4855.1" xlink:href="#tool-T3-pad-1014"/><use x="8150" y="4905.1" xlink:href="#tool-T3-pad-1014"/><use x="9100" y="1755.1" xlink:href="#tool-T3-pad-1014"/><use x="6750" y="1205.1" xlink:href="#tool-T3-pad-1014"/></g></mask></defs><g mask="url(#_top_mech-mask)" transform="matrix(1 0 0 -1 0 591.02)"><path fill="currentColor" d="M10 10.51h1000v570H10z" class="_board-fr4"/><use class="_board-cu" xlink:href="#_top-cu"/><defs><g id="_top-sm" fill="currentColor" stroke="currentColor"><use x="624.72" y="223.11" xlink:href="#tool-D10-pad-1028"/><use x="624.72" y="260.51" xlink:href="#tool-D10-pad-1028"/><use x="624.72" y="297.91" xlink:href="#tool-D10-pad-1028"/><use x="715.28" y="297.91" xlink:href="#tool-D10-pad-1028"/><use x="715.28" y="260.51" xlink:href="#tool-D10-pad-1028"/><use x="715.28" y="223.11" xlink:href="#tool-D10-pad-1028"/><use x="800" y="219.88" xlink:href="#tool-D11-pad-1029"/><use x="800" y="296.14" xlink:href="#tool-D11-pad-1029"/><use x="910" y="296.14" xlink:href="#tool-D11-pad-1029"/><use x="910" y="374.88" xlink:href="#tool-D11-pad-1029"/><use x="800" y="374.88" xlink:href="#tool-D11-pad-1029"/><use x="530" y="349.88" xlink:href="#tool-D11-pad-1029"/><use x="530" y="271.14" xlink:href="#tool-D11-pad-1029"/><use x="560" y="169.88" xlink:href="#tool-D11-pad-1029"/><use x="560" y="91.14" xlink:href="#tool-D11-pad-1029"/><use x="800" y="141.14" xlink:href="#tool-D11-pad-1029"/><use x="434.37" y="285.51" xlink:href="#tool-D12-pad-1030"/><use x="355.63" y="285.51" xlink:href="#tool-D12-pad-1030"/><use x="355.63" y="380.51" xlink:href="#tool-D12-pad-1030"/><use x="434.37" y="380.51" xlink:href="#tool-D12-pad-1030"/><use x="630.63" y="375.51" xlink:href="#tool-D12-pad-1030"/><use x="709.37" y="375.51" xlink:href="#tool-D12-pad-1030"/><use x="910" y="175.51" xlink:href="#tool-D13-pad-1031"/><use x="184.37" y="213.11" xlink:href="#tool-D14-pad-1032"/><use x="184.37" y="287.91" xlink:href="#tool-D14-pad-1032"/><use x="535" y="485.51" xlink:href="#tool-D15-pad-1033"/><use x="815" y="490.51" xlink:href="#tool-D15-pad-1033"/><use x="675" y="120.51" xlink:href="#tool-D15-pad-1033"/><use x="707.4" y="442.2" xlink:href="#tool-D16-pad-1034"/><use x="632.6" y="442.2" xlink:href="#tool-D16-pad-1034"/><use x="670" y="528.82" xlink:href="#tool-D16-pad-1034"/><use x="309.61" y="185.51" xlink:href="#tool-D17-pad-1035"/><use x="470.39" y="135.51" xlink:href="#tool-D17-pad-1035"/><use x="309.61" y="85.51" xlink:href="#tool-D17-pad-1035"/><use x="250" y="150.51" xlink:href="#tool-D18-pad-1036"/><use x="560" y="210.51" xlink:href="#tool-D18-pad-1036"/><use x="580" y="260.51" xlink:href="#tool-D18-pad-1036"/></g><mask id="_top-sm_mask" color="#000"><path fill="#fff" d="M10 10.51h1000v570H10z"/><use xlink:href="#_top-sm"/></mask><mask id="_top-cu_finish-mask" color="#fff"><use xlink:href="#_top-cu"/></mask></defs><g mask="url(#_top-sm_mask)"><path fill="currentColor" d="M10 10.51h1000v570H10z" class="_board-sm"/><g id="_top-ss" fill="currentColor" stroke="currentColor" class="_board-ss"><path fill="none" d="M10 10.51v570h1000v-570H10"/><path fill="none" stroke-width="2" d="M125.75 106.51v18.02l6.01-6.01 6 6.01v-18.02m6.41 0v18.02m0-12.01l12.01 12.01m6.4-6.01l6.01 6.01v-18.02m6 0h-12.01m-6.4 0l-9.01 9.01m91.98-61.5V38.67l7.67-7.67 7.68 7.67v15.35m7.67 0h11.51l3.84-3.84v-7.67l-3.84-3.84h-11.51m0-7.67v23.02m23.02-7.67l7.67 7.67V31m-7.67 0h15.35m-23.02 0l-7.68 7.67m278.54-1.22l3-3h6.01l3 3m6.4 6.01h12.01m-3 9l-9.01-9m-6.4 6l-3 3h-6.01l-3-3V37.45m27.42-3v18.01m36.29 17.07h12.01m-6.01 0V51.51m12.42 3l3-3h6l3.01 3v15.02m6.4 0l12.01-18.02v18.02m6.41 0V51.51h12.01m6.4 0v18.02h9.01l3-3.01v-6l-3-3h-9.01m-12.41 3h-6m0 9.01h12.01m24.82-6.01V51.51m12.01 0v12.01l-6.01 6.01-6-6.01m0-3h12.01m6.4 9.01h9.01l3-3.01V54.51l-3-3h-9.01v18.02m65.8 14.92v18.01h9.01l3-3v-6l-3-3.01h-9.01m6 0l6.01-6m6.4 0l12.01 12.01v3l-3 3h-6l-3.01-3m0-15.01h12.01M881 96.51v12.01l6.01 6.01 6-6.01V96.51m6.41 0v18.02l12.01-18.02v18.02m6.4 0h12.01m-6 0V96.51m12.41 0h12.01m-6.01 0v18.02l-6-6.01m-43.24-3H881m-202.57 70.99h-12.01l12.01 12.01v3l-3 3.01h-6l-3.01-3.01m-6.4 3.01v-15.02l-3-3h-6.01l-3 3v15.02m.91-125V51.51m-18.41 3v15.02m-180.98 249.6h-6.01l-3 3.01m-6.4 0l-3.01-3.01h-6l-3 3.01v12.01l3 3h6l3.01-3m6.4 0l3 3h6.01l3-3v-3.01l-3-3 3-3v-3l-3-3.01m0 9.01h-3m67.09 60.43h12.01m6.41 0h12.01m-6.01 0v18.02l-6-6m-18.42 6v-18.02m54.44-1.68l3.01-3h6l3 3m6.41-3h12.01m-6.01 0v18.02l-6-6.01m-6.41 3l-3 3.01h-6l-3.01-3.01v-12.01m-115.53 30.25l-3-3.01h-6.01l-3 3.01m-6.4-3.01l-6.01 6.01m3 0h-9m0-6.01v18.02h9l3.01-3v-6.01l-3.01-3m9.41 9.01l3 3h6.01l3-3v-3.01l-3-3 3-3v-3m-3 6h-3M606 529.51l3-3h6.01l3 3v15.02m6.41-6.01l6 6.01v-18.02m-6 0h12.01m-30.43 3v15.02m-20.91-5.02l-3-3h-9.01v18.02h9.01l3-3.01v-12.01m-18.42-3v12.01l-6 6.01-6.01-6.01v-12.01m-6.4 9.01l-3.01-3h-9m0-6.01v18.02h9l3.01-3.01v-6m6.4 0h12.01m-36.83-6.01v12.01l-3 3.01h-9.01v-18.02h9.01l3 3m-18.41-3v18.02m-12.01 0l12.01-18.02m-12.01 0v18.02m-6.41-3.01l-3 3.01H484l-3-3.01v-12.01l3-3h6.01l3 3v6.01h-6m-121.75-2l-4-4h-12.01m8 0l8.01-8.01m-16.01 0v24.02h12.01l4-4v-8.01m-23.94-12.01h-16.01v24.02h16.01m-8.01-12.01h-8m-7.93 12.01h-16.02m-7.92 0h-16.02m-7.95 0h-8.01m4.01 0v-24.02m4 0h-8.01m-7.92 0v24.02l-8.01-8-8.01 8v-24.02m-7.92 4.01v4l-4.01 4h-8l-4.01 4.01v4l4.01 4h8l4.01-4m-23.94 4v-24.02l-16.02 24.02v-24.02m-7.92 0v16.02l-8.01 8-8.01-8v-16.02m-7.92 0l-8.01 8.01m4 0l4.01 4v8.01l-4.01 4h-12.01v-24.02m0 8.01h12.01m11.93 4h16.02m31.86-8l4.01-4.01h8l4.01 4.01m55.83-4.01v24.02m23.94 0v-24.02m-175.53 24.02h-16.02m8.01 0v-24.02m-39.88 0v24.02l-8-8-8.01 8v-24.02m-15.93 12.01H46m0-12.01v24.02h16.01m703.99 4v-12.01l6.01-6.01 6 6.01v12.01m6.41-3.01v-12.01l3-3h6l3.01 3m6.4 0l3-3h6.01l3 3m6.41-3v18.02h9l3.01-3.01v-6l-3.01-3h-9m-6.41 9l-3 3.01h-6.01l-3-3.01v-12.01m-6.4 12.01l-3.01 3.01h-6l-3-3.01m55.24-3v-12.01m12.01 0v12.01l-6 6.01-6.01-6.01m0-3h12.01m6.41 9.01h9.01l3-3.01v-12.01l-3-3h-9.01v18.02m43.3-132.07l-3-3v-12.01l3-3h6.01l3 3m6.4 0l3.01-3h6l3 3v6.01l-3 3h-3l-6.01-3v9h12.01m-18.41-3l-3 3h-6.01m-82.58-18.01h-12.01m6.01 0v18.01l-6.01-6m-6.4 3v-6l-3-3.01h-9.01m0-6v18.01h9.01l3-3m-6.01-9.01l6.01-6"/><path fill="none" stroke-width="8" d="M464.96 236.06v-53.3m0 43.3V44.96m0-10v53.31m-63.17-20l.02.93.06.92.1.92.14.92.17.91.22.9.25.89.29.88.33.86.37.85.4.84.44.81.47.8.51.78.53.75.57.73.6.71.63.68.66.65.69.62.71.59.74.56.75.53.79.5.8.46.82.43.84.4.85.35.87.32.88.28.9.25.9.2.91.17.92.13.92.09.93.05.92.01.93-.03.92-.07.92-.11.91-.15.91-.18.9-.23.89-.26.87-.3.87-.34.84-.38.83-.41.81-.44.8-.48.77-.52.75-.54.72-.58.7-.61.67-.64.65-.66.61-.69.59-.72.55-.74.52-.77.49-.79.45-.8.42-.83.39-.84.35-.86.31-.87.27-.89.23-.89.2-.91.16-.91.12-.92.08-.92.04-.93v-.92l-.04-.93-.08-.92-.12-.92-.16-.91-.2-.91-.23-.89-.27-.89-.31-.87-.35-.86-.39-.84-.42-.83-.45-.8-.49-.79-.52-.77-.55-.74-.59-.72-.61-.69-.65-.66-.67-.64-.7-.61-.72-.58-.75-.54-.77-.52-.79-.48-.82-.44-.83-.41-.84-.38-.87-.34-.87-.3-.89-.26-.9-.23-.91-.18-.91-.15-.92-.11-.92-.07-.93-.03-.92.01-.93.05-.92.09-.92.13-.91.17-.9.2-.9.25-.88.28-.87.32-.85.35-.84.4-.82.43-.8.46-.79.5-.75.53-.74.56-.71.59-.69.62-.66.65-.63.68-.6.71-.57.73-.53.75-.51.78-.47.8-.44.81-.4.84-.37.85-.33.86-.29.88-.25.89-.22.9-.17.91-.14.92-.1.92-.06.92-.02.93m8.88 12.79l25.59-25.59m28.7-20.51H316.02v201.1h148.94M240 375.51l-60 20m-20 0l-15-10-15 10m-20 0l-60-20m40 10l-10 50v40l20 30 20-30h50l20 30 20-30v-40l-10-50-30-20h-50l-30 20m20 25l-60 15m60 10v10m30-30h10m30-5l60 15m-60 10v10m-149.17-195l.03 2.8.11 2.8.17 2.8.24 2.79.31 2.79.38 2.77.44 2.77.51 2.75.58 2.74.65 2.73.72 2.71.78 2.69.84 2.67.91 2.65.98 2.63 1.04 2.6 1.1 2.58 1.17 2.54 1.23 2.52 1.29 2.49 1.35 2.45 1.41 2.43 1.47 2.38 1.53 2.35 1.59 2.31 1.64 2.27 1.69 2.23 1.76 2.19 1.8 2.14 1.86 2.1 1.9 2.05 1.96 2.01 2.01 1.96 2.05 1.9 2.1 1.86 2.14 1.8 2.19 1.76 2.23 1.69 2.27 1.64 2.31 1.59 2.35 1.53 2.38 1.47 2.43 1.41 2.45 1.35 2.49 1.29 2.52 1.23 2.54 1.17 2.58 1.1 2.6 1.04 2.63.98 2.65.91 2.67.84 2.69.78 2.71.72 2.73.65 2.74.58 2.75.51 2.77.44 2.77.38 2.79.31 2.79.24 2.8.17 2.8.11 2.8.03 2.8-.03 2.8-.11 2.8-.17 2.79-.24 2.79-.31 2.77-.38 2.77-.44 2.75-.51 2.74-.58 2.73-.65 2.71-.72 2.69-.78 2.67-.84 2.65-.91 2.63-.98 2.6-1.04 2.58-1.1 2.54-1.17 2.52-1.23 2.49-1.29 2.45-1.35 2.43-1.41 2.38-1.47 2.35-1.53 2.31-1.59 2.27-1.64 2.23-1.69 2.19-1.76 2.14-1.8 2.1-1.86 2.05-1.9 2.01-1.96 1.96-2.01 1.9-2.05 1.86-2.1 1.8-2.14 1.76-2.19 1.69-2.23 1.64-2.27 1.59-2.31 1.53-2.35 1.47-2.38 1.41-2.43 1.35-2.45 1.29-2.49 1.23-2.52 1.17-2.54 1.1-2.58 1.04-2.6.98-2.63.91-2.65.84-2.67.78-2.69.72-2.71.65-2.73.58-2.74.51-2.75.44-2.77.38-2.77.31-2.79.24-2.79.17-2.8.11-2.8.03-2.8-.03-2.8-.11-2.8-.17-2.8-.24-2.79-.31-2.79-.38-2.77-.44-2.77-.51-2.75-.58-2.74-.65-2.73-.72-2.71-.78-2.69-.84-2.67-.91-2.65-.98-2.63-1.04-2.6-1.1-2.58-1.17-2.54-1.23-2.52-1.29-2.49-1.35-2.45-1.41-2.43-1.47-2.38-1.53-2.35-1.59-2.31-1.64-2.27-1.69-2.23-1.76-2.19-1.8-2.14-1.86-2.1-1.9-2.05-1.96-2.01-2.01-1.96-2.05-1.9-2.1-1.86-2.14-1.8-2.19-1.76-2.23-1.69-2.27-1.64-2.31-1.59-2.35-1.53-2.38-1.47-2.43-1.41-2.45-1.35-2.49-1.29-2.52-1.23-2.54-1.17-2.58-1.1-2.6-1.04-2.63-.98-2.65-.91-2.67-.84-2.69-.78-2.71-.72-2.73-.65-2.74-.58-2.75-.51-2.77-.44-2.77-.38-2.79-.31-2.79-.24-2.8-.17-2.8-.11-2.8-.03-2.8.03-2.8.11-2.8.17-2.79.24-2.79.31-2.77.38-2.77.44-2.75.51-2.74.58-2.73.65-2.71.72-2.69.78-2.67.84-2.65.91-2.63.98-2.6 1.04-2.58 1.1-2.54 1.17-2.52 1.23-2.49 1.29-2.45 1.35-2.43 1.41-2.38 1.47-2.35 1.53-2.31 1.59-2.27 1.64-2.23 1.69-2.19 1.76-2.14 1.8-2.1 1.86-2.05 1.9-2.01 1.96-1.96 2.01-1.9 2.05-1.86 2.1-1.8 2.14-1.76 2.19-1.69 2.23-1.64 2.27-1.59 2.31-1.53 2.35-1.47 2.38-1.41 2.43-1.35 2.45-1.29 2.49-1.23 2.52-1.17 2.54-1.1 2.58-1.04 2.6-.98 2.63-.91 2.65-.84 2.67-.78 2.69-.72 2.71-.65 2.73-.58 2.74-.51 2.75-.44 2.77-.38 2.77-.31 2.79-.24 2.79-.17 2.8-.11 2.8-.03 2.8"/><path fill="none" stroke-width="6" d="M614 459.51v52h112v-52H614m25.25-142.97h61.5m0-112.01h-61.5"/><use x="650.31" y="305.79" xlink:href="#tool-D14-pad-1021"/><path fill="none" stroke-width="2.36" d="M605.04 345.98v59.06h129.92v-59.06H605.04m-45.51 29.49h-59.06V245.55h59.06v129.92m-99.57-24.49v59.06H330.04v-59.06h129.92m0-35.94v-59.06H330.04v59.06h129.92m70.51-119.57h59.06V65.55h-59.06v129.92m240 50V115.55h59.06v129.92h-59.06m0 25.08h59.06v129.92h-59.06V270.55m110 0h59.06v129.92h-59.06V270.55"/></g></g><use class="_board-cf" mask="url(#_top-cu_finish-mask)" xlink:href="#_top-sm"/></g><style>._board-fr4{color:#4d542c}._board-cu{color:#d3d3d3}._board-cf{color:#daa520}._board-sm{color:#2e0051;opacity:.9}._board-ss{color:#fff}._board-sp{color:silver;opacity:0}._board-out{color:#000}</style></svg>