<svg xmlns="http://www.w3.org/2000/svg" id="_bottom" stroke-width="0" xmlns:xlink="http://www.w3.org/1999/xlink" stroke-linecap="round" stroke-linejoin="round" viewBox="2151.6 2728.3 1336.6 574.8"><defs><mask id="gerber-mask_1015" color="#000"><path fill="#fff" d="M2159.7 2736.5h1320.4V3295H2159.7z"/><path d="M3132.8 3002.9h-24.6l.4-2.9 3-7.3 4.8-6.2 6.3-4.8 7.3-3.1 2.8-.3v24.6m0 0zM2569 2991.1h-24.6v-24.6l2.8.3 7.3 3.1 6.3 4.8 4.8 6.2 3 7.3.4 2.9m0 0zM2869.3 3271l-9-1.1-8.4-3.5-7.2-5.6-5.6-7.2-3.4-8.4-1.2-9 1.2-9 3.4-8.4 5.6-7.2 7.1-5.5.3-4.9-21.7-21.7h-109.9l-3.9-.8-3.3-2.2-59.1-59.1-2.2-3.3-.8-3.9v-70.1l-4.9-2.1-6.3-4.8-4.8-6.3-3-7.3-1-7.8 1-7.8 3-7.3 4.8-6.3 6.3-4.8 7.3-3 7.8-1 7.8 1 7.3 3 6.3 4.8 4.8 6.3 3 7.3 1.1 7.8-1.1 7.8-3 7.3-4.8 6.3-6.3 4.8-4.9 2.1v65.9l53.1 53.1h109.9l3.9.8 3.4 2.2 34.6 34.6 2.2 3.3.6 3 7.4 3.1 7.2 5.5 5.6 7.2 3.4 8.4 1.2 9-1.2 9-3.4 8.4-5.6 7.2-7.2 5.6-8.4 3.5-9 1.1m0 0zM2631.2 3105.2h-61.6v-24l.9-4.4 2.5-3.8 2.6-1.8.5-5-40.4-40.4 3.7.5 5-.6v-24.6h24.6l-.4 2.8-3 7.3-.6.7 46.2 46.2 3.3 4.9 1.2 5.9v.7h3.9l4.4.9 3.8 2.5 2.5 3.8.9 4.4v24m0 0zM2534.4 3025.7l-2.9-.4-7.3-3-6.2-4.8-4.8-6.3-3.1-7.3-.3-2.8h24.6v24.6m0 0zM3435.9 3015.5h-29.1l.5-4 3.5-8.4 5.5-7.3 7.2-5.5 8.4-3.5 4-.5v29.2m0 0zM2983.2 2848.5l-2.8-.4-7.3-3-6.3-4.8-4.8-6.3-3-7.3-.4-2.8h24.6v24.6m0 0zM2983.2 2813.9h-24.6l.4-2.8 3-7.3 4.8-6.3 6.3-4.8 7.3-3 2.8-.4v24.6m0 0zM3253.9 2845.2l-7.8-1-7.3-3-6.3-4.8-4.8-6.3-3-7.3-1-7.8 1-7.9 3-7.3 4.8-6.2 6.3-4.8 7.3-3.1 7.8-1 7.9 1 7.3 3.1 6.2 4.8 4.8 6.2 3.1 7.3 1 7.9-1 7.8-3.1 7.3-4.8 6.3-6.2 4.8-7.3 3-7.9 1m0 0zM2993.2 2848.5v-24.6h24.6l-.4 2.8-3 7.3-4.8 6.3-6.3 4.8-7.3 3-2.8.4m0 0zM2534.4 2991.1h-24.6l.3-2.9 3.1-7.3 4.8-6.2 6.2-4.8 7.3-3.1 2.9-.3v24.6m0 0zM2259.8 2960l-6.9-1-6.5-2.6-5.6-4.3-4.2-5.6-2.7-6.5-5.4.7-1.5 3.6-4.8 6.2-6.3 4.8-7.3 3.1-7.8 1-7.8-1-7.3-3.1-6.3-4.8-4.8-6.2-3-7.3-1.1-7.9 1.1-7.8 3-7.3 4.8-6.3 6.3-4.8 4.9-2v-64.6l.8-3.9 1.2-1.8-.2-.4-8.3-6.4-6.4-8.4-4.1-9.7-1.3-10.4 1.3-10.5 4.1-9.7 6.4-8.4 8.3-6.4 9.8-4 10.4-1.4 10.4 1.4 7.6 3.1h11.2l7.6-3.1 10.4-1.4 10.5 1.4 7.6 3.1h11.2l7.5-3.1 10.5-1.4 10.4 1.4 9.8 4 8.3 6.4 6.4 8.4 4.1 9.7 1.3 10.5-1.3 10.4-4.1 9.7-6.4 8.4-8.3 6.4-9.8 4-10.4 1.4-4.4-.6h-38.5l-4.4.6-4.3-.6H2217l-.6.1-5.4 5.4v60.4l4.9 2 6.3 4.8 4.8 6.3 3 7.3.2 1.1 4.9.7 1.5-3.5 4.2-5.5 5.6-4.3 6.5-2.7 6.9-.9 7 .9 6.5 2.7 5.6 4.3 4.2 5.5 2.7 6.5.9 7-.9 6.9-2.7 6.5-4.2 5.6-5.6 4.3-6.5 2.6-7 1m0 0zM2905.5 2979.1l-7.8-1.1-7.3-3-6.3-4.8-4.8-6.3-3-7.2-1-7.9 1-7.8 2-4.9-32.1-32.2h-145.4l-3.9-.8-3.3-2.2-39.1-39.1-4.9 2.1-7.9 1-7.8-1-7.3-3-6.3-4.9-4.8-6.2-3-7.3-1-7.9 1-7.8 3-7.3 4.8-6.3 6.3-4.8 7.3-3 7.8-1 7.9 1 7.3 3 6.2 4.8 4.8 6.3 3.1 7.3 1 7.8-1 7.9-2.1 4.9 36.1 36.1h145.4l3.9.8 3.3 2.2 35.1 35.1 5-2 7.8-1 7.8 1 7.3 3 6.3 4.8 4.8 6.3 3 7.3 1.1 7.8-1.1 7.9-3 7.2-4.8 6.3-6.3 4.8-7.3 3-7.8 1.1m0 0zM3132.8 3037.5l-2.8-.4-7.3-3-6.3-4.8-4.8-6.3-3-7.3-.4-2.8h24.6v24.6m0 0zM2669.3 3271l-9-1.1-8.4-3.5-7.2-5.6-5.6-7.2-3.4-8.4-1.2-9 1.2-9 3.4-8.4 5.6-7.2 7.2-5.5 8.4-3.5 9-1.2 9 1.2 8.4 3.5 7.2 5.5 5.6 7.2 3.4 8.4 1.2 9-1.2 9-3.4 8.4-5.6 7.2-7.2 5.6-8.4 3.5-9 1.1m0 0zM2569.3 3271l-9-1.1-8.4-3.5-7.2-5.6-5.6-7.2-3.4-8.4-1.2-9 1.2-9 3.4-8.4 5.6-7.2 7.2-5.5 8.4-3.5 9-1.2 9 1.2 8.4 3.5 7.2 5.5 5.6 7.2 3.4 8.4 1.2 9-1.2 9-3.4 8.4-5.6 7.2-7.2 5.6-8.4 3.5-9 1.1m0 0zM2469.3 3271l-9-1.1-8.4-3.5-7.2-5.6-5.6-7.2-3.4-8.4-1.2-9 1.2-9 3.4-8.4 5.6-7.2 7.2-5.5 8.4-3.5 9-1.2 9 1.2 8.4 3.5 7.2 5.5 5.6 7.2 3.4 8.4 1.2 9-1.2 9-3.4 8.4-5.6 7.2-7.2 5.6-8.4 3.5-9 1.1m0 0zM2259.8 3286.4l-10.4-1.4-2.8-1.1h-20.7l-2.9 1.1-10.4 1.4-10.4-1.4-9.8-4-8.3-6.4-6.4-8.4-4.1-9.7-1.3-10.4 1.3-10.5 4.1-9.7 6.4-8.4 8.3-6.4 8.6-3.5 1-4.9-8.4-8.5-2.2-3.3-.8-3.9v-40.6l-4.9-2.1-6.3-4.8-4.8-6.3-3-7.3-1.1-7.8 1.1-7.8 3-7.3 4.8-6.3 6.3-4.8 7.3-3 7.8-1 7.8 1 7.3 3 6.3 4.8 4.8 6.3 1.5 3.7 5-.6.4-2.8 2.7-6.5 4.2-5.6 5.6-4.2 6.5-2.7 6.9-.9 7 .9 6.5 2.7 5.6 4.2 4.2 5.6 2.7 6.5.9 6.9-.9 7-2.7 6.5-4.2 5.5-5.6 4.3-6.5 2.7-7 .9-6.9-.9-6.5-2.7-5.6-4.3-4.2-5.5-1.1-2.5-4.9.6-.6 4.1-3 7.3-4.8 6.3-6.3 4.8-4.9 2.1v36.4l25.5 25.5h10.1l2.8-1.2 10.4-1.4 10.5 1.4 2.8 1.2h20.7l2.8-1.2 10.5-1.4 10.4 1.4 9.8 4 8.3 6.4 6.4 8.4 4.1 9.7 1.3 10.5-1.3 10.4-4.1 9.7-6.4 8.4-8.3 6.4-9.8 4-10.4 1.4-10.5-1.4-2.8-1.1h-20.7l-2.8 1.1-10.5 1.4m0 0zM2969.3 3271l-9-1.1-8.4-3.5-7.2-5.6-5.6-7.2-3.4-8.4-1.2-9 1.2-9 3.4-8.4 1-1.3-240.6-240.6-2.7 1.1-7.8 1.1-7.9-1.1-7.3-3-6.2-4.8-4.8-6.3-3.1-7.2-1-7.9 1-7.8 3.1-7.3 4.8-6.3 6.2-4.8 7.3-3 7.9-1 7.8 1 7.3 3 6.3 4.8 4.8 6.3 3 7.3 1 7.8-1 7.9-3 7.1 240.6 240.6 4.5-1.8 9-1.2 9 1.2 8.4 3.5 7.2 5.5 5.6 7.2 3.4 8.4 1.2 9-1.2 9-3.4 8.4-5.6 7.2-7.2 5.6-8.4 3.5-9 1.1m0 0z"/><path d="M2769.3 3271l-9-1.1-8.4-3.5-7.2-5.6-5.6-7.2-3.4-8.4-1.2-9 1.2-9 3.4-8.4 5.6-7.2 7.2-5.5 8.4-3.5 9-1.2 9 1.2 8.4 3.5 7.2 5.5 5.6 7.2 3.4 8.4 1.2 9-1.2 9-3.4 8.4-5.6 7.2-7.2 5.6-8.4 3.5-9 1.1m0 0zM3253.9 3258.6l-7.8-1-7.3-3-6.3-4.9-4.8-6.2-3-7.3-1-7.9 1-7.8 3-7.3 4.8-6.3 6.3-4.8 7.3-3 7.8-1 7.9 1 7.3 3 6.2 4.8 4.8 6.3 3.1 7.3 1 7.8-1 7.9-3.1 7.3-4.8 6.2-6.2 4.9-7.3 3-7.9 1m0 0zM2385.8 3231l-7.8-1-7.3-3-6.3-4.8-4.8-6.3-3-7.3-1-7.8 1-7.8 3-7.3 4.8-6.3 6.1-4.7v-40.8l1.2-5.9 3.3-5 23.6-23.6 5-3.3 5.8-1.2h46v-13.7l.9-4.4 2.5-3.8 3.8-2.5 4.4-.9h38.4l4.5.9 3.7 2.5 2.5 3.8.9 4.4v58.1l-.9 4.4-2.5 3.8-3.7 2.5-4.5.9H2467l-4.4-.9-3.8-2.5-2.5-3.8-.9-4.4v-13.8h-39.6l-14.7 14.7v34.5l6.1 4.7 4.8 6.3 3.1 7.3 1 7.8-1 7.8-3.1 7.3-4.8 6.3-6.2 4.8-7.3 3-7.9 1m0 0zM3435.9 3054.6l-4-.5-8.4-3.5-7.2-5.5-5.5-7.2-3.5-8.4-.5-4h29.1v29.1m0 0zM3142.8 3037.5v-24.6h24.6l-.4 2.8-3 7.3-4.8 6.3-6.3 4.8-7.3 3-2.8.4m0 0zM3069.3 3271l-9-1.1-8.4-3.5-7.2-5.6-5.6-7.2-3.4-8.4-1.2-9 1.2-9 3.4-8.4 1-1.3-22-22h-53.9l-3.9-.7-3.4-2.2-201.1-201.1-2.2-3.3-.7-3.9v-7.5l-4.2-1.8-6.3-4.8-4.8-6.3-3-7.2-1.1-7.9 1.1-7.8 3-7.3 4.8-6.3 6.3-4.8 7.2-3 7.9-1 7.8 1 7.3 3 6.3 4.8 4.8 6.3 3 7.3 1 7.8-1 7.9-3 7.2-4.8 6.3-6.3 4.8-5.6 2.4v2.6l38.7 38.7 4.6-1.9v-44l-3.4-2.6-4.8-6.3-3-7.3-1-7.8 1-7.8 3-7.3 4.8-6.3 6.3-4.8 7.3-3 7.8-1 7.9 1 7.3 3 6.2 4.8 4.8 6.3 3.1 7.3 1 7.8-1 7.8-3.1 7.3-4.8 6.3-6.2 4.8-7.3 3-5.5.8v36.7l139.7 139.7h141.4l3.9.7 3.3 2.2 43.6 43.6h34.9v69h-69v-69l1.5-3.7-22.4-22.5h-80.4l-1.9 4.7 24.2 24.2 4.5-1.8 9-1.2 9 1.2 8.4 3.5 7.2 5.5 5.6 7.2 3.4 8.4 1.2 9-1.2 9-3.4 8.4-5.6 7.2-7.2 5.6-8.4 3.5-9 1.1m0 0zM2619.6 3150.9h-14.2v-35.7h25.8v24.1l-.9 4.4-2.5 3.8-3.8 2.5-4.4.9m0 0zM2595.4 3150.9h-14.2l-4.4-.9-3.8-2.5-2.5-3.8-.9-4.4v-24.1h25.8v35.7m0 0z"/></mask><circle id="tool-D17-pad-1007" r="29.55"/><path id="tool-D18-pad-1008" d="M-29.55-29.55h59.1v59.1h-59.1z"/><path id="tool-D19-pad-1009" d="M-29.55-29.55h59.1v59.1h-59.1z"/><circle id="tool-D20-pad-1010" r="15.75"/><rect id="tool-D21-pad-1011" width="157.5" height="65" x="-78.75" y="-32.5" rx="32.5" ry="32.5"/><circle id="tool-D22-pad-1012" r="35"/><circle id="tool-D23-pad-1013" r="25"/><g id="tool-D24-pad-1014"><path d="M-35.45-19.2h70.9v38.4h-70.9z" transform="rotate(270)"/><path d="M-29.05-25.6h58.1v51.2h-58.1z" transform="rotate(270)"/><circle cx="-19.2" cy="-29" r="6.4"/><circle cx="-19.2" cy="29" r="6.4"/><circle cx="19.2" cy="29" r="6.4"/><circle cx="19.2" cy="-29" r="6.4"/></g><circle id="tool-D34-pad-1073" r="33.55"/><path id="tool-D35-pad-1074" d="M-33.55-33.55h67.1v67.1h-67.1z"/><path id="tool-D36-pad-1075" d="M-33.55-33.55h67.1v67.1h-67.1z"/><circle id="tool-D37-pad-1076" r="19.75"/><rect id="tool-D38-pad-1077" width="165.5" height="73" x="-82.75" y="-36.5" rx="36.5" ry="36.5"/><circle id="tool-D39-pad-1078" r="39"/><circle id="tool-D40-pad-1079" r="29"/><g id="tool-D41-pad-1080"><path d="M-39.45-19.2h78.9v38.4h-78.9z" transform="rotate(270)"/><path d="M-29.05-29.6h58.1v59.2h-58.1z" transform="rotate(270)"/><circle cx="-19.2" cy="-29" r="10.4"/><circle cx="-19.2" cy="29" r="10.4"/><circle cx="19.2" cy="29" r="10.4"/><circle cx="19.2" cy="-29" r="10.4"/></g><circle id="tool-T1-pad-1179" r="14"/><circle id="tool-T2-pad-1180" r="17.7"/><circle id="tool-T3-pad-1181" r="20.65"/><circle id="tool-T4-pad-1182" r="32"/><circle id="tool-T5-pad-1183" r="21.65"/><g id="_bottom-cu" fill="currentColor" stroke="currentColor"><path d="M3324.6 3187.2h-104.1v.4l-9.3-1.9-7.8-5.2-5.3-7.9-1.8-9.2h.3v-76.8h-.3l1.8-9.2 5.3-7.9 7.8-5.2 9.3-1.9v.4h135.8v-.4l9.2 1.9 7.9 5.2 5.2 7.9 1.9 9.2h-.3v173h26.2V3185.9h70.1l3.6-3.5V3126l-5-.4-.5 3.9-3.5 8.4-5.5 7.2-7.2 5.5-8.4 3.5-9.1 1.2-9-1.2-8.4-3.5-7.2-5.5-5.5-7.2-3.5-8.4-1.2-9 1.2-9 3.5-8.4 5.5-7.3 7.2-5.5 8.4-3.5 9-1.2 9.1 1.2 8.4 3.5 7.2 5.5 5.5 7.3 3.5 8.4.5 3.8 5-.3v-89l-5-.4-.5 3.9-3.5 8.4-5.5 7.2-7.2 5.5-8.4 3.5-4.1.5V2986.3l4.1.5 8.4 3.5 7.2 5.5 5.5 7.3 3.5 8.4.5 3.8 5-.3v-89l-5-.4-.5 3.9-3.5 8.4-5.5 7.2-7.2 5.5-8.4 3.5-9.1 1.2-9-1.2-7.2-3-3.8 3.9v24.2l-.8 3.9-2.2 3.3-31.9 31.9-3.3 2.2-3.9.8H3198l-3.9-.8-3.4-2.2-19-19.1-4.5 2.2.2 1.5h-24.6v-24.6l2.8.3 6.7.4 3.6-3.4v-32.4l-4.7-1.6-3.8 5-6.3 4.8-7.3 3-7.8 1.1-7.9-1.1-7.3-3-6.2-4.8-4.8-6.3-3-7.3-1.1-7.8 1.1-7.8 3-7.3.5-.8-67.8-67.8-3.3-4.9-1.2-5.9v-21.2l-12.6-12.7-3.8 3.3 2.8 3.7 3 7.3.4 2.8h-24.6v-24.6l2.8.4 7.3 3 3.7 2.8 3.3-3.8-14.4-14.3h-539.1l-41.7 41.7 1 7.7-1 7.6 56.3 56.4 3.4 4.9 1.1 5.9v68.4l6.1 4.7 4.8 6.2 3.1 7.3 1 7.9-1 7.8-3.1 7.3-4.8 6.3-6.2 4.8-7.3 3-7.9 1-7.8-1-7.3-3-6.3-4.8-4.8-6.3-3-7.3-1-7.8 1-7.9 3-7.3 4.8-6.2 6.1-4.7v-62.1l-51.9-51.9-7.6 1-7.8-1-7.3-3-6.3-4.8-4.8-6.3-3-7.3-1-7.8 1-7.9 3-7.3 4.8-6.2 6.3-4.8 7.3-3.1 7.8-1 7.6 1 46.3-46.2 4.9-3.3 1-.2 4.9-1h551.7l5.9 1.2 5 3.3 41 41 3.3 5 1.2 5.8v21.3l71 71 4.2.6 7.3 3 6.3 4.8 3.8 5 4.7-1.7v-32l-40.8-40.8-4.9 2-7.8 1-7.9-1-7.3-3-6.2-4.8-4.8-6.3-3.1-7.3-1-7.8 1-7.8 3.1-7.3 4.8-6.3 6.2-4.8 7.3-3 7.9-1.1 7.8 1.1 7.3 3 6.3 4.8 4.8 6.3 3 7.3 1 7.8-1 7.8-2.1 5 41.8 41.7 4.6-1.9v-23.9l-6-2.5-6.3-4.8-4.8-6.3-3-7.3-1-7.8 1-7.8 3-7.3 4.8-6.3 6.3-4.8 7.3-3 7.8-1.1 7.9 1.1 7.3 3 6.2 4.8 4.8 6.3 3.1 7.3 1 7.8-1 7.8-3.1 7.3-4.8 6.3-6.2 4.8-3.9 1.6v29.9l4.8 1.5 2.3-3.5 7.8-5.2 9.3-1.8v.3h104.1v-119.6H2159.7V3295h1164.9v-107.8m0 0z" mask="url(#gerber-mask_1015)"/><path fill="none" stroke-width="10" d="M3173.2 2807.1l12.9 12.9m-359.3 144.6l15.7-15.8m-15.7 15.8v55.1m23.6-126l39.4 39.4m-189-39.4h149.6m39.4 39.4v15.7l3.9 4M2200.8 3187l59 59.1m-59-128v68.9m0-350.7l39-39.1m-39 39.1v92.8m965.3-58.3v108.4m-63.7-172.1l63.7 63.7m-524.4-36.2l59.1 59.1m263.4 291.7h58.2m-321.6-221.6l268.5 268.5m-268.5-287.4v18.9m62.3-14.3l.7-.7m-.7.7v34.8l201.1 201.1m58.2 0l46.9 46.9m48.8-66.9l51.2 51.1m-196.9-51.1h145.7m-291.3-145.7l145.6 145.7m196.9 51.1v15.8m-300-28.4v28.4m-34.7-63l34.7 34.6m-148.8-34.6h114.1m-173.2-59.1l59.1 59.1m-59.1-157.5v98.4m524.7-290.2v150.9m-20 8.3l31.9 31.9h180.8l31.9-31.9m0-28.4v28.4m0-28.4l30.2-30.3m-254.8 50.4l20.1 20.2h164.3l20.2-20.2m0-100.1v100.1m0-100.1l50.2-50.3"/><path fill="none" stroke-width="20" d="M3043.3 2830.7l82.7 82.7m-82.7-110.3v27.6m-41.1-68.6l41.1 41m-503.9 193v11.8l61 61m525.6-155.5v11.8m-675.5-163.1h551.7m-401.8 306.8v41.3m-214.6-283.4l64.7-64.7m10.1 139.5v94.5m-74.8-169.3l74.8 74.8m-51.2 208.6h76.8m-100.4 23.7l23.6-23.7m-23.6 23.7v66.9"/><use x="3440.9" y="2820.5" xlink:href="#tool-D17-pad-1007"/><use x="3440.9" y="2920.5" xlink:href="#tool-D17-pad-1007"/><use x="3440.9" y="3020.5" xlink:href="#tool-D17-pad-1007"/><use x="3440.9" y="3120.5" xlink:href="#tool-D17-pad-1007"/><use x="3069.3" y="3236.2" xlink:href="#tool-D17-pad-1007"/><use x="2969.3" y="3236.2" xlink:href="#tool-D17-pad-1007"/><use x="2869.3" y="3236.2" xlink:href="#tool-D17-pad-1007"/><use x="2769.3" y="3236.2" xlink:href="#tool-D17-pad-1007"/><use x="2669.3" y="3236.2" xlink:href="#tool-D17-pad-1007"/><use x="2569.3" y="3236.2" xlink:href="#tool-D17-pad-1007"/><use x="2469.3" y="3236.2" xlink:href="#tool-D17-pad-1007"/><use x="3440.9" y="3220.5" xlink:href="#tool-D18-pad-1008"/><use x="3169.3" y="3236.2" xlink:href="#tool-D19-pad-1009"/><use x="2259.8" y="2933.1" xlink:href="#tool-D20-pad-1010"/><use x="2259.8" y="3110.2" xlink:href="#tool-D20-pad-1010"/><use x="2259.8" y="2797.2" xlink:href="#tool-D21-pad-1011"/><use x="2259.8" y="3246.1" xlink:href="#tool-D21-pad-1011"/><use x="2307.1" y="3246.1" xlink:href="#tool-D22-pad-1012"/><use x="2212.6" y="3246.1" xlink:href="#tool-D22-pad-1012"/><use x="2259.8" y="3246.1" xlink:href="#tool-D22-pad-1012"/><use x="2259.8" y="2795.3" xlink:href="#tool-D22-pad-1012"/><use x="2212.6" y="2795.3" xlink:href="#tool-D22-pad-1012"/><use x="2307.1" y="2795.3" xlink:href="#tool-D22-pad-1012"/><use x="2539.4" y="2996.1" xlink:href="#tool-D23-pad-1013"/><use x="2834.6" y="2948.8" xlink:href="#tool-D23-pad-1013"/><use x="3126" y="2925.2" xlink:href="#tool-D23-pad-1013"/><use x="2641.7" y="2834.6" xlink:href="#tool-D23-pad-1013"/><use x="2460.6" y="2996.1" xlink:href="#tool-D23-pad-1013"/><use x="2385.8" y="2826.8" xlink:href="#tool-D23-pad-1013"/><use x="2385.8" y="3200.8" xlink:href="#tool-D23-pad-1013"/><use x="2200.8" y="2929.1" xlink:href="#tool-D23-pad-1013"/><use x="2200.8" y="3118.1" xlink:href="#tool-D23-pad-1013"/><use x="2661.4" y="3011.8" xlink:href="#tool-D23-pad-1013"/><use x="2905.5" y="2948.8" xlink:href="#tool-D23-pad-1013"/><use x="2689" y="2948.8" xlink:href="#tool-D23-pad-1013"/><use x="2763.8" y="2948.8" xlink:href="#tool-D23-pad-1013"/><use x="2988.2" y="2818.9" xlink:href="#tool-D23-pad-1013"/><use x="3102.4" y="2807.1" xlink:href="#tool-D23-pad-1013"/><use x="3185" y="2807.1" xlink:href="#tool-D23-pad-1013"/><use x="3137.8" y="3007.9" xlink:href="#tool-D23-pad-1013"/><use x="3253.9" y="3228.3" xlink:href="#tool-D23-pad-1013"/><use x="3253.9" y="2815" xlink:href="#tool-D23-pad-1013"/><use x="2600.4" y="3110.2" xlink:href="#tool-D24-pad-1014"/><use x="2486.2" y="3110.2" xlink:href="#tool-D24-pad-1014"/></g><mask id="_bottom_mech-mask" fill="#fff" fill-rule="evenodd" stroke="#fff"><path d="M3372 2956.7v-181.1h116.2v492.1H3372v-181.1a15.7 15.7 0 0 0-15.7-15.7h-135.8a15.7 15.7 0 0 0-15.8 15.7v76.8a15.7 15.7 0 0 0 15.8 15.7h112.2v124H2151.6v-574.8h1181.1v135.9h-112.2a15.7 15.7 0 0 0-15.8 15.7v76.8a15.7 15.7 0 0 0 15.8 15.7h135.8a15.7 15.7 0 0 0 15.7-15.7"/><g id="_bottom-drl" fill="#000" stroke="#000"><use x="3185" y="2807.1" xlink:href="#tool-T1-pad-1179"/><use x="3126" y="2925.2" xlink:href="#tool-T1-pad-1179"/><use x="3137.8" y="3007.9" xlink:href="#tool-T1-pad-1179"/><use x="3102.4" y="2807.1" xlink:href="#tool-T1-pad-1179"/><use x="2988.2" y="2818.9" xlink:href="#tool-T1-pad-1179"/><use x="2905.5" y="2948.8" xlink:href="#tool-T1-pad-1179"/><use x="2834.6" y="2948.8" xlink:href="#tool-T1-pad-1179"/><use x="2763.8" y="2948.8" xlink:href="#tool-T1-pad-1179"/><use x="2689" y="2948.8" xlink:href="#tool-T1-pad-1179"/><use x="2661.4" y="3011.8" xlink:href="#tool-T1-pad-1179"/><use x="2539.4" y="2996.1" xlink:href="#tool-T1-pad-1179"/><use x="2460.6" y="2996.1" xlink:href="#tool-T1-pad-1179"/><use x="2385.8" y="2826.8" xlink:href="#tool-T1-pad-1179"/><use x="2641.7" y="2834.6" xlink:href="#tool-T1-pad-1179"/><use x="2200.8" y="2929.1" xlink:href="#tool-T1-pad-1179"/><use x="2200.8" y="3118.1" xlink:href="#tool-T1-pad-1179"/><use x="2385.8" y="3200.8" xlink:href="#tool-T1-pad-1179"/><use x="3440.9" y="2820.5" xlink:href="#tool-T2-pad-1180"/><use x="3440.9" y="2920.5" xlink:href="#tool-T2-pad-1180"/><use x="3440.9" y="3020.5" xlink:href="#tool-T2-pad-1180"/><use x="3440.9" y="3120.5" xlink:href="#tool-T2-pad-1180"/><use x="3069.3" y="3236.2" xlink:href="#tool-T2-pad-1180"/><use x="2969.3" y="3236.2" xlink:href="#tool-T2-pad-1180"/><use x="2869.3" y="3236.2" xlink:href="#tool-T2-pad-1180"/><use x="2769.3" y="3236.2" xlink:href="#tool-T2-pad-1180"/><use x="2669.3" y="3236.2" xlink:href="#tool-T2-pad-1180"/><use x="2569.3" y="3236.2" xlink:href="#tool-T2-pad-1180"/><use x="2469.3" y="3236.2" xlink:href="#tool-T2-pad-1180"/><use x="3169.3" y="3236.2" xlink:href="#tool-T2-pad-1180"/><use x="3440.9" y="3220.5" xlink:href="#tool-T2-pad-1180"/><use x="3253.9" y="2815" xlink:href="#tool-T3-pad-1181"/><use x="3253.9" y="3228.3" xlink:href="#tool-T3-pad-1181"/><use x="2212.6" y="2795.3" xlink:href="#tool-T4-pad-1182"/><use x="2259.8" y="2795.3" xlink:href="#tool-T4-pad-1182"/><use x="2307.1" y="2795.3" xlink:href="#tool-T4-pad-1182"/><use x="2307.1" y="3246.1" xlink:href="#tool-T4-pad-1182"/><use x="2259.8" y="3246.1" xlink:href="#tool-T4-pad-1182"/><use x="2212.6" y="3246.1" xlink:href="#tool-T4-pad-1182"/><use x="2259.8" y="2933.1" xlink:href="#tool-T5-pad-1183"/><use x="2259.8" y="3110.2" xlink:href="#tool-T5-pad-1183"/></g></mask></defs><g mask="url(#_bottom_mech-mask)" transform="rotate(180 2819.9 3015.7)"><path fill="currentColor" d="M2151.6 2728.3h1336.6v574.8H2151.6z" class="_board-fr4"/><use class="_board-cu" xlink:href="#_bottom-cu"/><defs><g id="_bottom-sm" fill="currentColor" stroke="currentColor"><use x="3440.9" y="2820.5" xlink:href="#tool-D34-pad-1073"/><use x="3440.9" y="2920.5" xlink:href="#tool-D34-pad-1073"/><use x="3440.9" y="3020.5" xlink:href="#tool-D34-pad-1073"/><use x="3440.9" y="3120.5" xlink:href="#tool-D34-pad-1073"/><use x="3069.3" y="3236.2" xlink:href="#tool-D34-pad-1073"/><use x="2969.3" y="3236.2" xlink:href="#tool-D34-pad-1073"/><use x="2869.3" y="3236.2" xlink:href="#tool-D34-pad-1073"/><use x="2769.3" y="3236.2" xlink:href="#tool-D34-pad-1073"/><use x="2669.3" y="3236.2" xlink:href="#tool-D34-pad-1073"/><use x="2569.3" y="3236.2" xlink:href="#tool-D34-pad-1073"/><use x="2469.3" y="3236.2" xlink:href="#tool-D34-pad-1073"/><use x="3440.9" y="3220.5" xlink:href="#tool-D35-pad-1074"/><use x="3169.3" y="3236.2" xlink:href="#tool-D36-pad-1075"/><use x="2259.8" y="2933.1" xlink:href="#tool-D37-pad-1076"/><use x="2259.8" y="3110.2" xlink:href="#tool-D37-pad-1076"/><use x="2259.8" y="2797.2" xlink:href="#tool-D38-pad-1077"/><use x="2259.8" y="3246.1" xlink:href="#tool-D38-pad-1077"/><use x="2307.1" y="3246.1" xlink:href="#tool-D39-pad-1078"/><use x="2212.6" y="3246.1" xlink:href="#tool-D39-pad-1078"/><use x="2259.8" y="3246.1" xlink:href="#tool-D39-pad-1078"/><use x="2259.8" y="2795.3" xlink:href="#tool-D39-pad-1078"/><use x="2212.6" y="2795.3" xlink:href="#tool-D39-pad-1078"/><use x="2307.1" y="2795.3" xlink:href="#tool-D39-pad-1078"/><use x="2539.4" y="2996.1" xlink:href="#tool-D40-pad-1079"/><use x="2834.6" y="2948.8" xlink:href="#tool-D40-pad-1079"/><use x="3126" y="2925.2" xlink:href="#tool-D40-pad-1079"/><use x="2641.7" y="2834.6" xlink:href="#tool-D40-pad-1079"/><use x="2460.6" y="2996.1" xlink:href="#tool-D40-pad-1079"/><use x="2385.8" y="2826.8" xlink:href="#tool-D40-pad-1079"/><use x="2385.8" y="3200.8" xlink:href="#tool-D40-pad-1079"/><use x="2200.8" y="2929.1" xlink:href="#tool-D40-pad-1079"/><use x="2200.8" y="3118.1" xlink:href="#tool-D40-pad-1079"/><use x="2661.4" y="3011.8" xlink:href="#tool-D40-pad-1079"/><use x="2905.5" y="2948.8" xlink:href="#tool-D40-pad-1079"/><use x="2689" y="2948.8" xlink:href="#tool-D40-pad-1079"/><use x="2763.8" y="2948.8" xlink:href="#tool-D40-pad-1079"/><use x="2988.2" y="2818.9" xlink:href="#tool-D40-pad-1079"/><use x="3102.4" y="2807.1" xlink:href="#tool-D40-pad-1079"/><use x="3185" y="2807.1" xlink:href="#tool-D40-pad-1079"/><use x="3137.8" y="3007.9" xlink:href="#tool-D40-pad-1079"/><use x="3253.9" y="3228.3" xlink:href="#tool-D40-pad-1079"/><use x="3253.9" y="2815" xlink:href="#tool-D40-pad-1079"/><use x="2600.4" y="3110.2" xlink:href="#tool-D41-pad-1080"/><use x="2486.2" y="3110.2" xlink:href="#tool-D41-pad-1080"/></g><mask id="_bottom-sm_mask" color="#000"><path fill="#fff" d="M2151.6 2728.3h1336.6v574.8H2151.6z"/><use xlink:href="#_bottom-sm"/></mask><mask id="_bottom-cu_finish-mask" color="#fff"><use xlink:href="#_bottom-cu"/></mask></defs><g mask="url(#_bottom-sm_mask)"><path fill="currentColor" d="M2151.6 2728.3h1336.6v574.8H2151.6z" class="_board-sm"/><g id="_bottom-ss" fill="currentColor" stroke="currentColor" class="_board-ss"><path fill="none" stroke-width="10" d="M2586.6 2969.4v-60h-30l-10 10v40l10 10h30m-60-60h-20 10v60l10-10m64-120.8v60h-30l-10-10v-20l10-10h30m-20 0l-20-20m-60 0h40l-40 40v10l10 10h20l10-10m16-70.9l10 10h20l10-10v-40l-10-10h-20l-10 10m-60 50h40v-30l-20 10h-10l-10-10v-20l10-10h20l10 10m604.5 331.9l-10 10v20l10 10h40l10-10v-20l-10-10m10-50h-60l30 30v-40m-84.2-155.9v60h-30l-10-10v-20l10-10h30m-20 0l-20-20m-20 0H2987h10v60l9.9-10m51.5 78.7l10 10h20l10-10v-40l-10-10h-20l-10 10m-20 40l-10 10h-19.9l-10-10v-10l10-10h10-10l-10-10v-10l10-10h19.9l10 10m64 132.7l-40-60m0 60l40-60m-60 60h-40 20v-60m-40 0h-20 10v60l10-10m-601.1 29.7h40v-30h-20 20v-30m-60 0h-20 10v60l10-10"/><path fill="none" stroke-width="5" d="M2524.3 3075.2h38m-39 70h40"/></g></g><use class="_board-cf" mask="url(#_bottom-cu_finish-mask)" xlink:href="#_bottom-sm"/></g><style>._board-fr4{color:#4d542c}._board-cu{color:#d3d3d3}._board-cf{color:#daa520}._board-sm{color:#ff6;opacity:.5}._board-ss{color:#000}._board-sp{color:silver;opacity:0}._board-out{color:#000}</style></svg>