<svg xmlns="http://www.w3.org/2000/svg" id="_bottom" stroke-width="0" xmlns:xlink="http://www.w3.org/1999/xlink" stroke-linecap="round" stroke-linejoin="round" viewBox="215900 -113030 22860 12700"><defs><path id="tool-D11-pad-1001" d="M-1375-500h2750V500h-2750z"/><path id="tool-D12-pad-1002" d="M-1016-863.6h2032V863.6h-2032z"/><rect id="tool-D13-pad-1003" width="2032" height="1727.2" x="-1016" y="-863.6" rx="863.6" ry="863.6"/><circle id="tool-D14-pad-1004" r="350"/><path id="tool-D11-pad-1009" d="M-1575-700h3150V700h-3150z"/><path id="tool-D12-pad-1010" d="M-1216-1063.6h2432v2127.2h-2432z"/><rect id="tool-D13-pad-1011" width="2432" height="2127.2" x="-1216" y="-1063.6" rx="1063.6" ry="1063.6"/><circle id="tool-T1-pad-1039" r="250"/><circle id="tool-T2-pad-1040" r="508"/><g id="_bottom-cu" fill="currentColor" stroke="currentColor"><use x="230205" y="-108680" xlink:href="#tool-D11-pad-1001"/><use x="224455" y="-108680" xlink:href="#tool-D11-pad-1001"/><use x="224455" y="-104680" xlink:href="#tool-D11-pad-1001"/><use x="230205" y="-104680" xlink:href="#tool-D11-pad-1001"/><use x="218440" y="-102870" xlink:href="#tool-D12-pad-1002"/><use x="218440" y="-105410" xlink:href="#tool-D13-pad-1003"/><use x="218440" y="-107950" xlink:href="#tool-D13-pad-1003"/><use x="218440" y="-110490" xlink:href="#tool-D13-pad-1003"/><use x="236220" y="-110490" xlink:href="#tool-D12-pad-1002"/><use x="236220" y="-107950" xlink:href="#tool-D13-pad-1003"/><use x="236220" y="-105410" xlink:href="#tool-D13-pad-1003"/><use x="236220" y="-102870" xlink:href="#tool-D13-pad-1003"/><use x="233175" y="-103745" xlink:href="#tool-D14-pad-1004"/><use x="230415" y="-103475" xlink:href="#tool-D14-pad-1004"/><use x="228230" y="-105600" xlink:href="#tool-D14-pad-1004"/><use x="227435" y="-105155" xlink:href="#tool-D14-pad-1004"/><path fill="none" stroke-width="250" d="M232905-103475h-2490m2760-270l-270 270"/><path fill="none" stroke-width="254" d="M230415-103475l230-230"/><path fill="none" stroke-width="250" d="M224455-108680h-5285m0 0l-730 730m11765-730h-5750"/><path fill="none" stroke-width="254" d="M230205-108680h5155m0 0l705 705m0 0l155 25m-7990 2350l1990-1990m0 0v-810m0 0l-15-280"/><path fill="none" stroke-width="250" d="M234060-104680v1920"/><path fill="none" stroke-width="508" d="M230205-104680h3855"/><path fill="none" stroke-width="250" d="M234170-102870h2050m-2160 110l110-110m-13690-1810v1630"/><path fill="none" stroke-width="508" d="M224455-104680h-3975"/><path fill="none" stroke-width="250" d="M220300-102870h-1860m2040-180l-180 180m7135-2285v450m-10 10v15m10-25l-10 10m-2970 15h2970m0 0h2780"/><path fill="none" stroke-width="508" d="M236220-102870v-2650"/><path fill="none" stroke-width="250" d="M236220-105520l40-40m0 0l-40 150m-380 2510h60m0 0l20 20m0 0l300 10m-6360-1810l80-80m0 0l265 80"/><path fill="none" stroke-width="508" d="M218440-102870v-2580"/><path fill="none" stroke-width="250" d="M218440-105450l90-90m0 0l-90 130m310 2460l-310 80"/><path d="M238050-101894.092v-9571.816l-854.092-854.092h-19731.816l-854.092 854.092V-107950h146.655l114.074-573.489 324.856-486.181 314.781-210.33-314.781-210.33-324.856-486.181-114.074-573.489 114.074-573.489 324.856-486.181 486.181-324.856 573.489-114.074h369.49l573.489 114.074 486.181 324.856 324.856 486.181 114.074 573.489-114.074 573.489-318.395 476.511h2800.404l128.047-194.927 211.033-142.45 249.64-50.063h2750l242.123 46.977 212.804 139.79 135.457 200.673h1820.896l128.047-194.927 211.033-142.45 249.64-50.063h2750l242.123 46.977 212.804 139.79 134.107 198.673h2424.506l-36.98-184.4v-1727.2l46.977-242.123 139.79-212.804 211.033-142.45 249.64-50.063h2032l242.123 46.977 212.804 139.79 142.45 211.033 50.063 249.64v1727.2l-46.977 242.123-139.79 212.804-211.033 142.45-38.603 7.741 17.378 11.612 324.856 486.181 114.074 573.489-114.074 573.489-324.856 486.181-309.484 206.791 415.801 371.503 253.977 527.245 2.649 15.765-121.141 232.026H236347v-20h-254v20h-1359.217l-121.141-232.026 2.649-15.765 253.977-527.245 415.801-371.503-309.484-206.791-324.856-486.181-107.709-541.489h-2375.614l-126.733 192.927-211.033 142.45-249.64 50.063h-609.426l-46.578 234.165-165.181 247.21L229522.63-105815h396.62l158.75 158.75v849.25h254v-849.25l158.75-158.75h1215.559l233.389 96.673 178.629 178.628 96.673 233.389v340.56l-158.75 158.75H230058v254h20v20h254v-20h1724.25l158.75 158.75v159.25h96.693l27.778-67.229 276.843-277.326 361.898-150.273 391.857-.342 362.16 149.641 277.326 276.843 150.273 361.898.342 391.857-132.595 320.905h585.067l2.649-15.765 253.977-527.245 411.84-367.964-411.84-367.964-253.977-527.245-2.649-15.765 121.141-232.026H236093v2286h254v-2286h1359.217l121.141 232.026-2.649 15.765-253.977 527.245-411.84 367.964 411.84 367.964 253.977 527.245 2.649 15.765-121.141 232.026h-2972.434l-121.141-232.026h-585.067l-17.046 41.255-276.843 277.326-361.898 150.273-240.751.21L232905-102715h-1856.889l-74.425 74.555-311.801 129.471h3950.757l121.141-232.026H236093v1213.924h254V-102743h1359.217l121.141 232.026-2.649 15.765-253.977 527.245-436.412 389.918-552.407 193.23-234.913-144.26h-254l-234.913 144.26-552.407-193.23-436.412-389.918-253.977-527.245-2.649-15.765h-3950.757l-50.097 20.802-391.857.342-362.16-149.641-277.326-276.843-150.273-361.898-.233-266.788h-726.248l-233.389-96.673-178.629-178.628-96.673-233.389v-340.56l158.748-158.748H228195v-61.972l-160.069.14-362.16-149.641-277.326-276.843-150.273-361.898-.342-391.857 149.641-362.16 276.843-277.326 361.898-150.273 104.077-.091 947.641-947.641H228830l-242.123-46.977-212.804-139.79-135.457-200.673h-1820.896l-128.047 194.927-211.033 142.45-249.64 50.063h-2750l-242.123-46.977-212.804-139.79-135.457-200.673h-2372.238l-108.107 543.489-324.856 486.181-309.484 206.791 415.801 371.503 253.977 527.245 2.649 15.765-121.141 232.026H218567v-20h-254v20h-1359.217l-121.141-232.026 2.649-15.765 253.977-527.245 415.801-371.503-309.484-206.791-324.856-486.181-114.074-573.489H216610v4794.25h179v-704.16l96.673-233.389 178.629-178.628 197.559-81.832-172.593-154.205-253.977-527.245-2.649-15.765 121.141-232.026H218313v2286h254v-2286h1359.217l121.141 232.026-2.649 15.765-33.459 69.459H222445v-340.56l96.673-233.389 178.629-178.628 233.389-96.673h1215.559l158.75 158.75v849.25h254v-849.25l158.75-158.75h1215.559l233.389 96.673 178.629 178.628 96.673 233.389v340.56l-158.75 158.75h-3702.5l-158.75-158.75h-2433.75l-220.518 457.786-172.593 154.205 197.559 81.832 178.629 178.628 16.407 39.609H222445v-340.56l158.75-158.75H224328v849.25h254v-849.25h1724.25l158.75 158.75v340.56l-96.673 233.389-178.629 178.628-233.389 96.673h-1215.559l-158.75-158.75h-254l-158.75 158.75h-1215.559l-233.389-96.673-178.629-178.628-96.673-233.389h-2434.266l80.266 193.78v704.16l-158.75 158.75h-2984.5l-158.75-158.75h-179v1261.658l14.002 14.002H216789v-704.16l158.75-158.75H218313v1212.85h254V-102743h1365.25l158.75 158.75v704.16l-96.673 233.389-178.629 178.628-233.389 96.673h-856.559l-158.75-158.75h-254l-158.75 158.75h-856.559l-233.389-96.673-178.629-178.628-96.673-233.389h-164.998l840.09 840.09h19731.816l854.092-854.092z"/><path fill="none" stroke-width="254" d="M238050-101894.092v-9571.816l-854.092-854.092h-19731.816l-854.092 854.092V-107950h146.655l114.074-573.489 324.856-486.181 314.781-210.33-314.781-210.33-324.856-486.181-114.074-573.489 114.074-573.489 324.856-486.181 486.181-324.856 573.489-114.074h369.49l573.489 114.074 486.181 324.856 324.856 486.181 114.074 573.489-114.074 573.489-318.395 476.511h2800.404l128.047-194.927 211.033-142.45 249.64-50.063h2750l242.123 46.977 212.804 139.79 135.457 200.673h1820.896l128.047-194.927 211.033-142.45 249.64-50.063h2750l242.123 46.977 212.804 139.79 134.107 198.673h2424.506l-36.98-184.4v-1727.2l46.977-242.123 139.79-212.804 211.033-142.45 249.64-50.063h2032l242.123 46.977 212.804 139.79 142.45 211.033 50.063 249.64v1727.2l-46.977 242.123-139.79 212.804-211.033 142.45-38.603 7.741 17.378 11.612 324.856 486.181 114.074 573.489-114.074 573.489-324.856 486.181-309.484 206.791 415.801 371.503 253.977 527.245 2.649 15.765-121.141 232.026H236347v-20h-254v20h-1359.217l-121.141-232.026 2.649-15.765 253.977-527.245 415.801-371.503-309.484-206.791-324.856-486.181-107.709-541.489h-2375.614l-126.733 192.927-211.033 142.45-249.64 50.063h-609.426l-46.578 234.165-165.181 247.21L229522.63-105815h396.62l158.75 158.75v849.25h254v-849.25l158.75-158.75h1215.559l233.389 96.673 178.629 178.628 96.673 233.389v340.56l-158.75 158.75H230058v254h20v20h254v-20h1724.25l158.75 158.75v159.25h96.693l27.778-67.229 276.843-277.326 361.898-150.273 391.857-.342 362.16 149.641 277.326 276.843 150.273 361.898.342 391.857-132.595 320.905h585.067l2.649-15.765 253.977-527.245 411.84-367.964-411.84-367.964-253.977-527.245-2.649-15.765 121.141-232.026H236093v2286h254v-2286h1359.217l121.141 232.026-2.649 15.765-253.977 527.245-411.84 367.964 411.84 367.964 253.977 527.245 2.649 15.765-121.141 232.026h-2972.434l-121.141-232.026h-585.067l-17.046 41.255-276.843 277.326-361.898 150.273-240.751.21L232905-102715h-1856.889l-74.425 74.555-311.801 129.471h3950.757l121.141-232.026H236093v1213.924h254V-102743h1359.217l121.141 232.026-2.649 15.765-253.977 527.245-436.412 389.918-552.407 193.23-234.913-144.26h-254l-234.913 144.26-552.407-193.23-436.412-389.918-253.977-527.245-2.649-15.765h-3950.757l-50.097 20.802-391.857.342-362.16-149.641-277.326-276.843-150.273-361.898-.233-266.788h-726.248l-233.389-96.673-178.629-178.628-96.673-233.389v-340.56l158.748-158.748H228195v-61.972l-160.069.14-362.16-149.641-277.326-276.843-150.273-361.898-.342-391.857 149.641-362.16 276.843-277.326 361.898-150.273 104.077-.091 947.641-947.641H228830l-242.123-46.977-212.804-139.79-135.457-200.673h-1820.896l-128.047 194.927-211.033 142.45-249.64 50.063h-2750l-242.123-46.977-212.804-139.79-135.457-200.673h-2372.238l-108.107 543.489-324.856 486.181-309.484 206.791 415.801 371.503 253.977 527.245 2.649 15.765-121.141 232.026H218567v-20h-254v20h-1359.217l-121.141-232.026 2.649-15.765 253.977-527.245 415.801-371.503-309.484-206.791-324.856-486.181-114.074-573.489H216610v4794.25h179v-704.16l96.673-233.389 178.629-178.628 197.559-81.832-172.593-154.205-253.977-527.245-2.649-15.765 121.141-232.026H218313v2286h254v-2286h1359.217l121.141 232.026-2.649 15.765-33.459 69.459H222445v-340.56l96.673-233.389 178.629-178.628 233.389-96.673h1215.559l158.75 158.75v849.25h254v-849.25l158.75-158.75h1215.559l233.389 96.673 178.629 178.628 96.673 233.389v340.56l-158.75 158.75h-3702.5l-158.75-158.75h-2433.75l-220.518 457.786-172.593 154.205 197.559 81.832 178.629 178.628 16.407 39.609H222445v-340.56l158.75-158.75H224328v849.25h254v-849.25h1724.25l158.75 158.75v340.56l-96.673 233.389-178.629 178.628-233.389 96.673h-1215.559l-158.75-158.75h-254l-158.75 158.75h-1215.559l-233.389-96.673-178.629-178.628-96.673-233.389h-2434.266l80.266 193.78v704.16l-158.75 158.75h-2984.5l-158.75-158.75h-179v1261.658l14.002 14.002H216789v-704.16l158.75-158.75H218313v1212.85h254V-102743h1365.25l158.75 158.75v704.16l-96.673 233.389-178.629 178.628-233.389 96.673h-856.559l-158.75-158.75h-254l-158.75 158.75h-856.559l-233.389-96.673-178.629-178.628-96.673-233.389h-164.998l840.09 840.09h19731.816l854.092-854.092"/></g><mask id="_bottom_mech-mask" fill="#fff" fill-rule="evenodd" stroke="#fff"><path d="M237490-100330l1270-1270v-10160l-1270-1270h-20320l-1270 1270v10160l1270 1270z"/><g id="_bottom-drl" fill="#000" stroke="#000"><use x="227435" y="-105155" xlink:href="#tool-T1-pad-1039"/><use x="228230" y="-105600" xlink:href="#tool-T1-pad-1039"/><use x="230415" y="-103475" xlink:href="#tool-T1-pad-1039"/><use x="233175" y="-103745" xlink:href="#tool-T1-pad-1039"/><use x="218440" y="-102870" xlink:href="#tool-T2-pad-1040"/><use x="218440" y="-105410" xlink:href="#tool-T2-pad-1040"/><use x="218440" y="-107950" xlink:href="#tool-T2-pad-1040"/><use x="218440" y="-110490" xlink:href="#tool-T2-pad-1040"/><use x="236220" y="-102870" xlink:href="#tool-T2-pad-1040"/><use x="236220" y="-105410" xlink:href="#tool-T2-pad-1040"/><use x="236220" y="-107950" xlink:href="#tool-T2-pad-1040"/><use x="236220" y="-110490" xlink:href="#tool-T2-pad-1040"/></g></mask></defs><g mask="url(#_bottom_mech-mask)" transform="rotate(180 227330 -106680)"><path fill="currentColor" d="M215900-113030h22860v12700h-22860z" class="_board-fr4"/><use class="_board-cu" xlink:href="#_bottom-cu"/><defs><g id="_bottom-sm" fill="currentColor" stroke="currentColor"><use x="230205" y="-108680" xlink:href="#tool-D11-pad-1009"/><use x="224455" y="-108680" xlink:href="#tool-D11-pad-1009"/><use x="224455" y="-104680" xlink:href="#tool-D11-pad-1009"/><use x="230205" y="-104680" xlink:href="#tool-D11-pad-1009"/><use x="218440" y="-102870" xlink:href="#tool-D12-pad-1010"/><use x="218440" y="-105410" xlink:href="#tool-D13-pad-1011"/><use x="218440" y="-107950" xlink:href="#tool-D13-pad-1011"/><use x="218440" y="-110490" xlink:href="#tool-D13-pad-1011"/><use x="236220" y="-110490" xlink:href="#tool-D12-pad-1010"/><use x="236220" y="-107950" xlink:href="#tool-D13-pad-1011"/><use x="236220" y="-105410" xlink:href="#tool-D13-pad-1011"/><use x="236220" y="-102870" xlink:href="#tool-D13-pad-1011"/></g><mask id="_bottom-sm_mask" color="#000"><path fill="#fff" d="M215900-113030h22860v12700h-22860z"/><use xlink:href="#_bottom-sm"/></mask><mask id="_bottom-cu_finish-mask" color="#fff"><use xlink:href="#_bottom-cu"/></mask></defs><g mask="url(#_bottom-sm_mask)"><path fill="currentColor" d="M215900-113030h22860v12700h-22860z" class="_board-sm"/><g id="_bottom-ss" fill="currentColor" stroke="currentColor" class="_board-ss"><path fill="none" stroke-width="250" d="M234700.81-109957.381l-333.333-1000-333.334 1000m-476.19-1000l95.238 47.619 47.619 47.619 47.619 95.238v285.715l-47.619 95.238-47.619 47.619-95.238 47.619h-142.858l-95.238-47.619-47.619-47.619-47.619-95.238v-285.715l47.619-95.238 47.619-47.619 95.238-47.619h142.858m-1190.477 666.667v-666.667m428.572 666.667v-523.81l-47.619-95.238-95.238-47.619h-142.858l-95.238 47.619-47.619 47.619m-333.333 571.429h-380.952m238.095 333.333v-857.143l-47.619-95.238-95.238-47.619h-95.238m2755.142 3083.81l-142.857-47.619-47.619-47.62-47.619-95.238v-142.857l47.619-95.238 47.619-47.619 95.238-47.619h380.953v1000h-333.334l-95.238-47.619-47.619-47.619-47.619-95.238v-95.238l47.619-95.238 47.619-47.619 95.238-47.619h333.334m-1000 476.19v-809.524l-47.619-95.238-47.619-47.619-95.238-47.619h-190.477l-95.238 47.619-47.619 47.619-47.619 95.238v809.524m-333.333 0h-571.429m285.715-1000v1000m1685.713 2452.381l95.238 47.619h142.857l142.858-47.619 95.238-95.238 47.619-95.238 47.619-190.476v-142.858l-47.619-190.476-47.619-95.238-95.238-95.238-142.858-47.619h-95.238l-142.857 47.619-47.619 47.619v333.333h190.476m-619.047-428.571v1000l-571.429-1000v1000m-476.19-1000v1000H232475l-142.858-47.619-95.238-95.238-47.619-95.238-47.619-190.476v-142.858l47.619-190.476 47.619-95.238 95.238-95.238 142.858-47.619h238.095m1423.809 3652.381l95.238 47.619h142.857l142.858-47.619 95.238-95.238 47.619-95.238 47.619-190.476v-142.858l-47.619-190.476-47.619-95.238-95.238-95.238-142.858-47.619h-95.238l-142.857 47.619-47.619 47.619v333.333h190.476m-619.047-428.571v1000l-571.429-1000v1000m-476.19-1000v1000H232375l-142.858-47.619-95.238-95.238-47.619-95.238-47.619-190.476v-142.858l47.619-190.476 47.619-95.238 95.238-95.238 142.858-47.619h238.095m-10350.286-6760l-333.333-1000-333.334 1000m-333.333-1000v666.667m0 333.333l47.619-47.619-47.619-47.619-47.619 47.619 47.619 47.619v-95.238m-476.19-238.095v-666.667m0 571.429l-47.619 47.619-95.238 47.619h-142.858l-95.238-47.619-47.619-95.238v-523.81m1750.286 2983.81l-142.857-47.619-47.619-47.62-47.619-95.238v-142.857l47.619-95.238 47.619-47.619 95.238-47.619h380.953v1000h-333.334l-95.238-47.619-47.619-47.619-47.619-95.238v-95.238l47.619-95.238 47.619-47.619 95.238-47.619h333.334m-1000 476.19v-809.524l-47.619-95.238-47.619-47.619-95.238-47.619h-190.477l-95.238 47.619-47.619 47.619-47.619 95.238v809.524m-333.333 0h-571.429m285.715-1000v1000m1885.713 2552.381l95.238 47.619h142.857l142.858-47.619 95.238-95.238 47.619-95.238 47.619-190.476v-142.858l-47.619-190.476-47.619-95.238-95.238-95.238-142.858-47.619h-95.238l-142.857 47.619-47.619 47.619v333.333h190.476m-619.047-428.571v1000l-571.429-1000v1000m-476.19-1000v1000H220375l-142.858-47.619-95.238-95.238-47.619-95.238-47.619-190.476v-142.858l47.619-190.476 47.619-95.238 95.238-95.238 142.858-47.619h238.095m1523.809 3552.381l95.238 47.619h142.857l142.858-47.619 95.238-95.238 47.619-95.238 47.619-190.476v-142.858l-47.619-190.476-47.619-95.238-95.238-95.238-142.858-47.619h-95.238l-142.857 47.619-47.619 47.619v333.333h190.476m-619.047-428.571v1000l-571.429-1000v1000m-476.19-1000v1000H220375l-142.858-47.619-95.238-95.238-47.619-95.238-47.619-190.476v-142.858l47.619-190.476 47.619-95.238 95.238-95.238 142.858-47.619h238.095"/><path fill="none" stroke-width="150" d="M230330-109680v200m0 5800v-200m-6000 200v-200m0-5800v200m0 1600v2400m6000-2400v2400m0-4200h-6000m0 6000h6000m-1300-3000a1700 1700 0 0 1-3400 0 1700 1700 0 0 1 3400 0m-1366.667-4404.762l-142.857-47.619h-238.096l-95.238 47.619-47.619 47.619-47.619 95.238v95.238l47.619 95.238 47.619 47.619 95.238 47.62 190.477 47.619 95.238 47.619 47.619 47.619 47.619 95.238v95.238l-47.619 95.238-47.619 47.619-95.238 47.619h-238.096l-142.857-47.619m-333.333 47.619l-238.095-1000-190.477 714.286-190.476-714.286-238.095 1000m-904.762-1000h571.429m-285.714 0v1000l95.238-142.857 95.238-95.238 95.238-47.619"/></g></g><use class="_board-cf" mask="url(#_bottom-cu_finish-mask)" xlink:href="#_bottom-sm"/></g><style>._board-fr4{color:#4d542c}._board-cu{color:#d3d3d3}._board-cf{color:silver}._board-sm{color:#c36b00;opacity:.9}._board-ss{color:#fff}._board-sp{color:silver;opacity:0}._board-out{color:#000}</style></svg>