<svg xmlns="http://www.w3.org/2000/svg" id="_top" stroke-width="0" xmlns:xlink="http://www.w3.org/1999/xlink" stroke-linecap="round" stroke-linejoin="round" viewBox="215900 -113030 22860 12700"><defs><path id="tool-D11-pad-1018" d="M-600-375H600v750H-600z"/><path id="tool-D12-pad-1019" d="M-295-225h590v450h-590z"/><path id="tool-D13-pad-1020" d="M-850-325H850v650H-850z"/><path id="tool-D14-pad-1021" d="M-450-600h900V600h-900z"/><path id="tool-D15-pad-1022" d="M-600-450H600v900H-600z"/><path id="tool-D16-pad-1023" d="M-1016-863.6h2032V863.6h-2032z"/><rect id="tool-D17-pad-1024" width="2032" height="1727.2" x="-1016" y="-863.6" rx="863.6" ry="863.6"/><circle id="tool-D18-pad-1025" r="350"/><path id="tool-D11-pad-1030" d="M-800-575H800V575H-800z"/><path id="tool-D12-pad-1031" d="M-495-425h990v850h-990z"/><path id="tool-D13-pad-1032" d="M-1050-525h2100V525h-2100z"/><path id="tool-D14-pad-1033" d="M-650-800H650V800H-650z"/><path id="tool-D15-pad-1034" d="M-800-650H800V650H-800z"/><path id="tool-D16-pad-1035" d="M-1216-1063.6h2432v2127.2h-2432z"/><rect id="tool-D17-pad-1036" width="2432" height="2127.2" x="-1216" y="-1063.6" rx="1063.6" ry="1063.6"/><circle id="tool-T1-pad-1039" r="250"/><circle id="tool-T2-pad-1040" r="508"/><g id="_top-cu" fill="currentColor" stroke="currentColor"><use x="223310" y="-102000" xlink:href="#tool-D11-pad-1018"/><use x="221410" y="-102000" xlink:href="#tool-D11-pad-1018"/><use x="225335" y="-102000" xlink:href="#tool-D12-pad-1019"/><use x="227445" y="-102000" xlink:href="#tool-D12-pad-1019"/><use x="225350" y="-105095" xlink:href="#tool-D13-pad-1020"/><use x="225350" y="-106365" xlink:href="#tool-D13-pad-1020"/><use x="225350" y="-107635" xlink:href="#tool-D13-pad-1020"/><use x="225350" y="-108905" xlink:href="#tool-D13-pad-1020"/><use x="232650" y="-108905" xlink:href="#tool-D13-pad-1020"/><use x="232650" y="-107635" xlink:href="#tool-D13-pad-1020"/><use x="232650" y="-106365" xlink:href="#tool-D13-pad-1020"/><use x="232650" y="-105095" xlink:href="#tool-D13-pad-1020"/><use x="221000" y="-110100" xlink:href="#tool-D14-pad-1021"/><use x="221000" y="-107900" xlink:href="#tool-D14-pad-1021"/><use x="223000" y="-110100" xlink:href="#tool-D14-pad-1021"/><use x="223000" y="-107900" xlink:href="#tool-D14-pad-1021"/><use x="230900" y="-102000" xlink:href="#tool-D15-pad-1022"/><use x="233100" y="-102000" xlink:href="#tool-D15-pad-1022"/><use x="227530" y="-111150" xlink:href="#tool-D15-pad-1022"/><use x="225330" y="-111150" xlink:href="#tool-D15-pad-1022"/><use x="218440" y="-102870" xlink:href="#tool-D16-pad-1023"/><use x="218440" y="-105410" xlink:href="#tool-D17-pad-1024"/><use x="218440" y="-107950" xlink:href="#tool-D17-pad-1024"/><use x="218440" y="-110490" xlink:href="#tool-D17-pad-1024"/><use x="236220" y="-110490" xlink:href="#tool-D16-pad-1023"/><use x="236220" y="-107950" xlink:href="#tool-D17-pad-1024"/><use x="236220" y="-105410" xlink:href="#tool-D17-pad-1024"/><use x="236220" y="-102870" xlink:href="#tool-D17-pad-1024"/><use x="230370" y="-111090" xlink:href="#tool-D11-pad-1018"/><use x="232270" y="-111090" xlink:href="#tool-D11-pad-1018"/><use x="233175" y="-103745" xlink:href="#tool-D18-pad-1025"/><use x="230415" y="-103475" xlink:href="#tool-D18-pad-1025"/><use x="228230" y="-105600" xlink:href="#tool-D18-pad-1025"/><use x="227435" y="-105155" xlink:href="#tool-D18-pad-1025"/><path fill="none" stroke-width="250" d="M232650-105095v825m0 0l525 525"/><path fill="none" stroke-width="254" d="M223310-102000h680m6265-1635l160 160m-2420-160h2260m-4580 2320l2320-2320m-3320 2320h1000m-1685-685l685 685m7975-3780v-1285m0 0l35-35m0 0l-35 50m175 1310l-175-40m-7300-3810h-1345m0 0l-870 870m0 0l-135 135"/><path fill="none" stroke-width="250" d="M223000-107900v5630m0 0l380 380m0 0l-70-110"/><path fill="none" stroke-width="254" d="M225335-102000h75m0 0l2820-2820m0 0v-780"/><path fill="none" stroke-width="250" d="M221000-107900v4320m350 350v1260m-350-1610l350 350m0 1260l60-30m70-10l-70 10m-2970-5950h2470m0 0l50 50m0 0h40m9370-3190v2810m-1900 1900v-70m1900-1830l-1900 1900m4630 4380h-180m0 0l-4450-4450m0 0l30 30m0 0h-2990m0 0l-160 55m6920-5350v625m-525.012-1150.012L232270-111715m-4590 565l1090.012-1090.012m0 0h2974.976M227530-111150h150"/><path fill="none" stroke-width="508" d="M232270-111090v750m0 0l430 430m0 0v940"/><path fill="none" stroke-width="250" d="M232700-108970l-50 65"/><path fill="none" stroke-width="508" d="M232650-107635v-1305"/><path fill="none" stroke-width="250" d="M232650-108940l60-60"/><path fill="none" stroke-width="508" d="M232710-109000h1920m0 0l1510-1510"/><path fill="none" stroke-width="250" d="M236140-110510l80 20m-10890-660h150m0 0l775.001 775.001m7705 9150h-2135m-5570-9150h2519.998m0 0l670-670m0-680.002l65-65m-65 745.002v-680.002m65-65h1720.002m0 0l65 65m2730 10435.002l-65 65m-2665-10500.002v7425.004m0 0l1524.996 1524.996m0 0h1140.004M231050-102000h-150m3060.001-775.001l65 65m0 0v1420.002m-2200 65L231050-102000m-3605 0h2145m0 0h1280m0 0l70 70m0 0l-40-70m-5550-3095h2025m0 0l60-60"/><path fill="none" stroke-width="508" d="M227345-108965v760m-560 560h-1440m-1082.988-2150.988h2252m0 0L227345-108965m-3387-1135l304.012 304.012M223000-110100h958m3387 1895l-560 560"/><path fill="none" stroke-width="254" d="M225345-107645l5 10"/><path fill="none" stroke-width="250" d="M223000-110100v30m1760 2400h520m0 0l70 35"/><path fill="none" stroke-width="508" d="M221000-110100h2030"/><path fill="none" stroke-width="250" d="M223030-110100l10 10m0 0l-40-10"/><path fill="none" stroke-width="508" d="M218440-110490h2600"/><path fill="none" stroke-width="250" d="M221040-110490l-10 10m0 0v390m0 0l-30-10"/><path d="M220355.073-101164.327l-142.45-211.033-50.063-249.64v-750l46.977-242.123 139.79-212.804 194.592-131.352-81.32-81.32-164.747-246.562L220240-103580v-3164.125l-144.927-95.202-142.45-211.033-28.004-139.64h-39.971l-200.233 299.67-309.484 206.791 415.801 371.503 253.977 527.245 2.649 15.765-121.141 232.026H218567v-20h-254v20h-1359.217l-121.141-232.026 2.649-15.765 253.977-527.245 415.801-371.503-309.484-206.791-324.856-486.181-114.074-573.489 114.074-573.489 324.856-486.181 314.781-210.33-314.781-210.33-324.856-486.181-114.074-573.489 114.074-573.489 324.856-486.181 486.181-324.856 573.489-114.074h369.49l573.489 114.074 486.181 324.856 114.038 170.67H221040l158.663 31.56H221450l242.123 46.977 212.804 139.79 95.367 141.282 89.033-135.536 211.033-142.45 249.64-50.063h900l242.123 46.977 212.804 139.79 125.623 186.104 52.01 10.345V-111600l46.977-242.123 139.79-212.804 211.033-142.45 249.64-50.063h1200l242.123 46.977 212.804 139.79 44.687 66.202 39.713-60.456 211.033-142.45 249.64-50.063h772.638l72.56-72.56h-10311.106l-854.092 854.092v8310.158h179v-704.16l96.673-233.389 178.629-178.628 197.559-81.832-172.593-154.205-253.977-527.245-2.649-15.765 121.141-232.026H218313v2286h254v-2286h1359.217l121.141 232.026-2.649 15.765-253.977 527.245-172.593 154.205 197.559 81.832 178.629 178.628 96.673 233.389v704.16l-158.75 158.75h-2984.5l-158.75-158.75h-179v1261.658l14.002 14.002H216789v-704.16l158.75-158.75H218313v1212.85h254V-102743h1365.25l158.75 158.75v704.16l-96.673 233.389-178.629 178.628-233.389 96.673h-856.559l-158.75-158.75h-254l-158.75 158.75h-856.559l-233.389-96.673-178.629-178.628-96.673-233.389h-164.998l840.09 840.09h3080.245l-189.264-124.327z"/><path fill="none" stroke-width="254" d="M220355.073-101164.327l-142.45-211.033-50.063-249.64v-750l46.977-242.123 139.79-212.804 194.592-131.352-81.32-81.32-164.747-246.562L220240-103580v-3164.125l-144.927-95.202-142.45-211.033-28.004-139.64h-39.971l-200.233 299.67-309.484 206.791 415.801 371.503 253.977 527.245 2.649 15.765-121.141 232.026H218567v-20h-254v20h-1359.217l-121.141-232.026 2.649-15.765 253.977-527.245 415.801-371.503-309.484-206.791-324.856-486.181-114.074-573.489 114.074-573.489 324.856-486.181 314.781-210.33-314.781-210.33-324.856-486.181-114.074-573.489 114.074-573.489 324.856-486.181 486.181-324.856 573.489-114.074h369.49l573.489 114.074 486.181 324.856 114.038 170.67H221040l158.663 31.56H221450l242.123 46.977 212.804 139.79 95.367 141.282 89.033-135.536 211.033-142.45 249.64-50.063h900l242.123 46.977 212.804 139.79 125.623 186.104 52.01 10.345V-111600l46.977-242.123 139.79-212.804 211.033-142.45 249.64-50.063h1200l242.123 46.977 212.804 139.79 44.687 66.202 39.713-60.456 211.033-142.45 249.64-50.063h772.638l72.56-72.56h-10311.106l-854.092 854.092v8310.158h179v-704.16l96.673-233.389 178.629-178.628 197.559-81.832-172.593-154.205-253.977-527.245-2.649-15.765 121.141-232.026H218313v2286h254v-2286h1359.217l121.141 232.026-2.649 15.765-253.977 527.245-172.593 154.205 197.559 81.832 178.629 178.628 96.673 233.389v704.16l-158.75 158.75h-2984.5l-158.75-158.75h-179v1261.658l14.002 14.002H216789v-704.16l158.75-158.75H218313v1212.85h254V-102743h1365.25l158.75 158.75v704.16l-96.673 233.389-178.629 178.628-233.389 96.673h-856.559l-158.75-158.75h-254l-158.75 158.75h-856.559l-233.389-96.673-178.629-178.628-96.673-233.389h-164.998l840.09 840.09h3080.245l-189.264-124.327"/><path d="M238050-101894.092v-9571.816l-854.092-854.092h-4456.106l67.599 67.599 98.124 146.854 206.598 40.084 212.804 139.79 142.45 211.033 50.063 249.64v750l-46.977 242.123-48.542 73.896 99.408 148.775L233589-109910v21h672.764l294.796-294.796v-1169.804l46.977-242.123 139.79-212.804 211.033-142.45 249.64-50.063h2032l242.123 46.977 212.804 139.79 142.45 211.033 50.063 249.64v1727.2l-46.977 242.123-139.79 212.804-211.033 142.45-38.603 7.741 17.378 11.612 324.856 486.181 114.074 573.489-114.074 573.489-324.856 486.181-309.484 206.791 415.801 371.503 253.977 527.245 2.649 15.765-121.141 232.026H236347v-20h-254v20h-1359.217l-121.141-232.026 2.649-15.765 253.977-527.245 415.801-371.503-309.484-206.791-324.856-486.181-114.074-573.489 32.025-161h-451.522l30.282 151v650l-46.977 242.123-44.214 67.308 41.128 60.929 50.063 249.64v650l-46.977 242.123-44.214 67.308 41.128 60.929 50.063 249.64v650l-46.977 242.123-124.948 190.21 34.04 33.981 150.273 361.898.342 391.857-20.903 50.589 111.573 22.193 246.562 164.747 65 65 164.747 246.562.763 3.838h5.87l-121.14-232.024 2.649-15.765 253.977-527.245 411.84-367.964-411.84-367.964-253.977-527.245-2.649-15.765 121.141-232.026H236093v2286h254v-2286h1359.217l121.141 232.026-2.649 15.765-253.977 527.245-411.84 367.964 411.84 367.964 253.977 527.245 2.649 15.765-121.141 232.026H236073v254h20v1213.924h254V-102743h1359.217l121.141 232.026-2.649 15.765-253.977 527.245-436.412 389.918-552.407 193.23-234.913-144.26h-254l-234.913 144.26-552.407-193.23-436.412-389.918-84.267-174.935v852.9l-49.728 249.999h2460.635l854.092-854.092z"/><path fill="none" stroke-width="254" d="M238050-101894.092v-9571.816l-854.092-854.092h-4456.106l67.599 67.599 98.124 146.854 206.598 40.084 212.804 139.79 142.45 211.033 50.063 249.64v750l-46.977 242.123-48.542 73.896 99.408 148.775L233589-109910v21h672.764l294.796-294.796v-1169.804l46.977-242.123 139.79-212.804 211.033-142.45 249.64-50.063h2032l242.123 46.977 212.804 139.79 142.45 211.033 50.063 249.64v1727.2l-46.977 242.123-139.79 212.804-211.033 142.45-38.603 7.741 17.378 11.612 324.856 486.181 114.074 573.489-114.074 573.489-324.856 486.181-309.484 206.791 415.801 371.503 253.977 527.245 2.649 15.765-121.141 232.026H236347v-20h-254v20h-1359.217l-121.141-232.026 2.649-15.765 253.977-527.245 415.801-371.503-309.484-206.791-324.856-486.181-114.074-573.489 32.025-161h-451.522l30.282 151v650l-46.977 242.123-44.214 67.308 41.128 60.929 50.063 249.64v650l-46.977 242.123-44.214 67.308 41.128 60.929 50.063 249.64v650l-46.977 242.123-124.948 190.21 34.04 33.981 150.273 361.898.342 391.857-20.903 50.589 111.573 22.193 246.562 164.747 65 65 164.747 246.562.763 3.838h5.87l-121.14-232.024 2.649-15.765 253.977-527.245 411.84-367.964-411.84-367.964-253.977-527.245-2.649-15.765 121.141-232.026H236093v2286h254v-2286h1359.217l121.141 232.026-2.649 15.765-253.977 527.245-411.84 367.964 411.84 367.964 253.977 527.245 2.649 15.765-121.141 232.026H236073v254h20v1213.924h254V-102743h1359.217l121.141 232.026-2.649 15.765-253.977 527.245-436.412 389.918-552.407 193.23-234.913-144.26h-254l-234.913 144.26-552.407-193.23-436.412-389.918-84.267-174.935v852.9l-49.728 249.999h2460.635l854.092-854.092"/><path d="M224579.327-102679.927l211.033-142.45 249.64-50.063h164.81l2184.25-2184.251-143.888-346.521-.224-256.788h-457.04l47.092 113.69v165.56l-158.75 158.75H225477v-20h-254v20h-1199.25l-158.75-158.75v-165.56l76.954-185.783-39.331-58.267-50.063-249.64v-650l25.864-133.304-118.424 79.937v2099.677h105v-165.56l158.75-158.75H225223v674.25h254v-674.25h1199.25l158.75 158.75v165.56l-96.673 233.389-178.629 178.628-233.389 96.673h-690.559l-158.75-158.75h-254l-158.75 158.75h-690.559l-233.389-96.673-178.629-178.628-96.673-233.389h-105v1621.25h150l242.123 46.977 212.804 139.79 142.45 211.033 8.334 41.557 63.616-96.844z"/><path fill="none" stroke-width="254" d="M224579.327-102679.927l211.033-142.45 249.64-50.063h164.81l2184.25-2184.251-143.888-346.521-.224-256.788h-457.04l47.092 113.69v165.56l-158.75 158.75H225477v-20h-254v20h-1199.25l-158.75-158.75v-165.56l76.954-185.783-39.331-58.267-50.063-249.64v-650l25.864-133.304-118.424 79.937v2099.677h105v-165.56l158.75-158.75H225223v674.25h254v-674.25h1199.25l158.75 158.75v165.56l-96.673 233.389-178.629 178.628-233.389 96.673h-690.559l-158.75-158.75h-254l-158.75 158.75h-690.559l-233.389-96.673-178.629-178.628-96.673-233.389h-105v1621.25h150l242.123 46.977 212.804 139.79 142.45 211.033 8.334 41.557 63.616-96.844"/></g><mask id="_top_mech-mask" fill="#fff" fill-rule="evenodd" stroke="#fff"><path d="M237490-100330l1270-1270v-10160l-1270-1270h-20320l-1270 1270v10160l1270 1270z"/><g id="_top-drl" fill="#000" stroke="#000"><use x="227435" y="-105155" xlink:href="#tool-T1-pad-1039"/><use x="228230" y="-105600" xlink:href="#tool-T1-pad-1039"/><use x="230415" y="-103475" xlink:href="#tool-T1-pad-1039"/><use x="233175" y="-103745" xlink:href="#tool-T1-pad-1039"/><use x="218440" y="-102870" xlink:href="#tool-T2-pad-1040"/><use x="218440" y="-105410" xlink:href="#tool-T2-pad-1040"/><use x="218440" y="-107950" xlink:href="#tool-T2-pad-1040"/><use x="218440" y="-110490" xlink:href="#tool-T2-pad-1040"/><use x="236220" y="-102870" xlink:href="#tool-T2-pad-1040"/><use x="236220" y="-105410" xlink:href="#tool-T2-pad-1040"/><use x="236220" y="-107950" xlink:href="#tool-T2-pad-1040"/><use x="236220" y="-110490" xlink:href="#tool-T2-pad-1040"/></g></mask></defs><g mask="url(#_top_mech-mask)" transform="matrix(1 0 0 -1 0 -213360)"><path fill="currentColor" d="M215900-113030h22860v12700h-22860z" class="_board-fr4"/><use class="_board-cu" xlink:href="#_top-cu"/><defs><g id="_top-sm" fill="currentColor" stroke="currentColor"><use x="223310" y="-102000" xlink:href="#tool-D11-pad-1030"/><use x="221410" y="-102000" xlink:href="#tool-D11-pad-1030"/><use x="225335" y="-102000" xlink:href="#tool-D12-pad-1031"/><use x="227445" y="-102000" xlink:href="#tool-D12-pad-1031"/><use x="225350" y="-105095" xlink:href="#tool-D13-pad-1032"/><use x="225350" y="-106365" xlink:href="#tool-D13-pad-1032"/><use x="225350" y="-107635" xlink:href="#tool-D13-pad-1032"/><use x="225350" y="-108905" xlink:href="#tool-D13-pad-1032"/><use x="232650" y="-108905" xlink:href="#tool-D13-pad-1032"/><use x="232650" y="-107635" xlink:href="#tool-D13-pad-1032"/><use x="232650" y="-106365" xlink:href="#tool-D13-pad-1032"/><use x="232650" y="-105095" xlink:href="#tool-D13-pad-1032"/><use x="221000" y="-110100" xlink:href="#tool-D14-pad-1033"/><use x="221000" y="-107900" xlink:href="#tool-D14-pad-1033"/><use x="223000" y="-110100" xlink:href="#tool-D14-pad-1033"/><use x="223000" y="-107900" xlink:href="#tool-D14-pad-1033"/><use x="230900" y="-102000" xlink:href="#tool-D15-pad-1034"/><use x="233100" y="-102000" xlink:href="#tool-D15-pad-1034"/><use x="227530" y="-111150" xlink:href="#tool-D15-pad-1034"/><use x="225330" y="-111150" xlink:href="#tool-D15-pad-1034"/><use x="218440" y="-102870" xlink:href="#tool-D16-pad-1035"/><use x="218440" y="-105410" xlink:href="#tool-D17-pad-1036"/><use x="218440" y="-107950" xlink:href="#tool-D17-pad-1036"/><use x="218440" y="-110490" xlink:href="#tool-D17-pad-1036"/><use x="236220" y="-110490" xlink:href="#tool-D16-pad-1035"/><use x="236220" y="-107950" xlink:href="#tool-D17-pad-1036"/><use x="236220" y="-105410" xlink:href="#tool-D17-pad-1036"/><use x="236220" y="-102870" xlink:href="#tool-D17-pad-1036"/><use x="230370" y="-111090" xlink:href="#tool-D11-pad-1030"/><use x="232270" y="-111090" xlink:href="#tool-D11-pad-1030"/></g><mask id="_top-sm_mask" color="#000"><path fill="#fff" d="M215900-113030h22860v12700h-22860z"/><use xlink:href="#_top-sm"/></mask><mask id="_top-cu_finish-mask" color="#fff"><use xlink:href="#_top-cu"/></mask></defs><g mask="url(#_top-sm_mask)"><path fill="currentColor" d="M215900-113030h22860v12700h-22860z" class="_board-sm"/><path id="_top-ss" fill="none" stroke="currentColor" stroke-width="150" d="M222710-102600h-700m0 1200h700m3930-600h250m-750 0h-250m250 0l500 350m0 0v-700m0 0l-500 350m0 350v-700m-1050-450h2400m-2400 1600h2400m-1240-3045v-300m5500 300v-300m0-5210v300m-5500-300v300m0 5210h5500m-5500-5510h5500m-5500 5210h-1750m-2825-3955v-1000m-1350 0v1000m3350 0v-1000m-1350 0v1000m10175 5825h-1000m0 1350h1000m-6570-9150h1000m0-1350h-1000m-8760 7685v-7620m2540 7620v-7620m280 10440v-1550m-2820-8890h2540m0 7620h-2540m-280 1270v1550m0 0h3100m17500-7900v7620m-2540-7620v7620m-280-10440v1550m2820 8890h-2540m0-7620h2540m280-1270v-1550m0 0h-3100m-3700 1550h700m0-1200h-700m-8846.666 7692.857l-47.619-47.619-142.857-47.619h-95.238l-142.858 47.619-95.238 95.238-47.619 95.238-47.619 190.476v142.858l47.619 190.476 47.619 95.238 95.238 95.238 142.858 47.619h95.238l142.857-47.619 47.619-47.619m952.381-904.762h-571.429m285.714 0v1000l-95.238-142.857-95.238-95.238-95.238-47.619m3177.619-724.286v1000H225920l142.858-47.619 95.238-95.238 47.619-95.238 47.619-190.476v-142.858l-47.619-190.476-47.619-95.238-95.238-95.238-142.858-47.619h-238.095m1523.81 0h-571.429m285.714 0v1000l-95.238-142.857-95.238-95.238-95.238-47.619m2450.476-649.524l-95.238 47.619-95.238 95.238-142.857 142.857-95.239 47.619h-95.238m47.619-238.095l-95.238 47.619-95.238 95.238-47.619 190.476v333.334l47.619 190.476 95.238 95.238 95.238 47.619h190.477l95.238-47.619 95.238-95.238 47.619-190.476v-333.334l-47.619-190.476-95.238-95.238-95.238-47.619h-190.477m1380.953 0h-571.429m285.714 0v1000l-95.238-142.857-95.238-95.238-95.238-47.619m-8165.714-8938.571l-476.191-333.334m476.191-238.095h-1000v380.953l47.619 95.238 47.619 47.619 95.238 47.619h142.857l95.238-47.619 47.619-47.619 47.619-95.238v-380.953m476.191 1523.81v-571.429m0 285.714h-1000l142.857-95.238 95.238-95.238 47.619-95.238m2684.286-320.952l-476.191-333.334m476.191-238.095h-1000v380.953l47.619 95.238 47.619 47.619 95.238 47.619h142.857l95.238-47.619 47.619-47.619 47.619-95.238v-380.953m-428.571 952.381l-47.619 47.619-47.619 95.238v238.096l47.619 95.238 47.619 47.619 95.238 47.619h95.238l142.857-47.619 571.429-571.429v619.048m8960.953 7031.904l-333.334 476.191m-238.095-476.191v1000h380.953l95.238-47.619 47.619-47.619 47.619-95.238v-142.857l-47.619-95.238-47.619-47.619-95.238-47.619h-380.953m904.762 523.809h619.048l-333.334-380.952h142.858l95.238-47.619 47.619-47.619 47.619-95.239v-238.095l-47.619-95.238-47.619-47.619-95.238-47.619h-285.715l-95.238 47.619-47.619 47.619m-4933.333-8885.238l-333.334 476.191m-238.095-476.191v1000h380.953l95.238-47.619 47.619-47.619 47.619-95.238v-142.857l-47.619-95.238-47.619-47.619-95.238-47.619h-380.953m1428.572 190.476v-666.667m-238.096 1047.619l-238.095-714.286h619.048m-7620.953 7800.953h-1000v380.953l47.619 95.238 47.619 47.619 95.238 47.619h142.857l95.238-47.619 47.619-47.619 47.619-95.238v-380.953m476.191 1523.81v-571.429m0 285.714h-1000l142.857-95.238 95.238-95.238 47.619-95.238m14454.286-532.381h-1000v380.953l47.619 95.238 47.619 47.619 95.238 47.619h142.857l95.238-47.619 47.619-47.619 47.619-95.238v-380.953m-428.571 952.381l-47.619 47.619-47.619 95.238v238.096l47.619 95.238 47.619 47.619 95.238 47.619h95.238l142.857-47.619 571.429-571.429v619.048m-2219.047-9882.858l-47.619-47.619-142.857-47.619h-95.238l-142.858 47.619-95.238 95.238-47.619 95.238-47.619 190.476v142.858l47.619 190.476 47.619 95.238 95.238 95.238 142.858 47.619h95.238l142.857-47.619 47.619-47.619m380.952 0l47.619 47.619 95.238 47.619h238.096l95.238-47.619 47.619-47.619 47.619-95.238v-95.238l-47.619-142.857-571.429-571.429h619.048" class="_board-ss"/></g><use class="_board-cf" mask="url(#_top-cu_finish-mask)" xlink:href="#_top-sm"/></g><style>._board-fr4{color:#4d542c}._board-cu{color:#d3d3d3}._board-cf{color:silver}._board-sm{color:#c36b00;opacity:.9}._board-ss{color:#fff}._board-sp{color:silver;opacity:0}._board-out{color:#000}</style></svg>