<svg xmlns="http://www.w3.org/2000/svg" id="_bottom" stroke-width="0" xmlns:xlink="http://www.w3.org/1999/xlink" stroke-linecap="round" stroke-linejoin="round" viewBox="840 965 2710 2110"><defs><circle id="tool-T1-pad-1035" r="12"/><circle id="tool-T2-pad-1036" r="16.75"/><circle id="tool-T3-pad-1037" r="18.7"/><circle id="tool-T4-pad-1038" r="25.6"/><circle id="tool-T5-pad-1039" r="43.3"/><circle id="tool-T6-pad-1040" r="63"/><path id="tool-D12-pad-1064" d="M30.5 12.633L12.633 30.5h-25.266L-30.5 12.633v-25.266L-12.633-30.5h25.266L30.5-12.633z"/><path id="tool-D13-pad-1065" d="M78.75 32.619L32.619 78.75h-65.238L-78.75 32.619v-65.238l46.131-46.131h65.238L78.75-32.619z"/><circle id="tool-D14-pad-1066" r="38.4"/><path id="tool-D15-pad-1067" d="M33 13.669L13.669 33h-27.338L-33 13.669v-27.338L-13.669-33h27.338L33-13.669z"/><circle id="tool-D16-pad-1068" r="63.3"/><path id="tool-D20-pad-1072" d="M22 9.113L9.113 22H-9.113L-22 9.113V-9.113L-9.113-22H9.113L22-9.113z"/><circle id="tool-D10-pad-1104" r="65"/><path id="tool-D12-pad-1106" d="M32.5 13.462L13.462 32.5h-26.924L-32.5 13.462v-26.924L-13.462-32.5h26.924L32.5-13.462z"/><path id="tool-D13-pad-1107" d="M80.75 33.448L33.448 80.75h-66.896L-80.75 33.448v-66.896l47.302-47.302h66.896L80.75-33.448z"/><circle id="tool-D14-pad-1108" r="40.4"/><path id="tool-D15-pad-1109" d="M35 14.497L14.497 35h-28.994L-35 14.497v-28.994L-14.497-35h28.994L35-14.497z"/><circle id="tool-D16-pad-1110" r="65.3"/><path id="tool-D18-pad-1112" d="M-3-36h6v72h-6z"/><g id="_bottom-cu" fill="currentColor" stroke="currentColor"><path fill="none" stroke-width="5" d="M890.5 1132.3l18 18h4.5l4.5-4.5v-9l-4.5-4.5m-22.5 0v18m4.5 11.5l18 18h-18l-4.5-4.5v-9l4.5-4.5h18l4.5 4.5v9l-4.5 4.5m-4.5 11.4l9 9.1h-27m0 9v-18.1m0 29.5v18m0-9h27l-9-9m-4.5 29.5v18m-9 11.4l-4.5 4.5v9.1l4.5 4.5h4.5l4.5-4.5v-4.6m0 4.6l4.5 4.5h4.5l4.5-4.5v-9.1l-4.5-4.5m-9 29.5v18m-9 11.5h18l4.5 4.5v9l-4.5 4.5-18-18-4.5 4.5v9l4.5 4.5h18m0 11.4l4.5 4.5v9l-4.5 4.6h-4.5l-18-18.1v18.1"/><path fill="none" stroke-width="56" d="M1945 1084v-28m100 0v28m100 0v-28m100 0v28m100 0v-28m100 0v28m100 0v-28m100 0v28m200 0v-28m100 0v28m100 0v-28m100 0v28m100 0v-28m100 0v28m-25 367v28m-100 0v-28m-100 0v28m-100 0v-28m-100 0v28m-100 0v-28m-100 0v28m-100 0v-28m-100 0v28m-100 0v-28m-100 0v28m-100 0v-28m-100 0v28m-100 0v-28m0 300v28m100 0v-28m100 0v28m100 0v-28m100 0v28m100 0v-28m100 0v28m100 0v-28m100 0v28m100 0v-28m100 0v28m100 0v-28m100 0v28m100 0v-28m25 1205v28m-100 0v-28m-100 0v28m-100 0v-28m-100 0v28m-100 0v-28m-100 0v28m-100 0v-28m-160 0v28m-100 0v-28m-100 0v28m-100 0v-28m-100 0v28m-100 0v-28m-100 0v28m-100 0v-28m-100 0v28m-100 0v-28"/><use x="1565" y="2840" xlink:href="#tool-D12-pad-1064"/><use x="1665" y="2840" xlink:href="#tool-D12-pad-1064"/><use x="1665" y="2740" xlink:href="#tool-D12-pad-1064"/><use x="1565" y="2740" xlink:href="#tool-D12-pad-1064"/><use x="1465" y="2740" xlink:href="#tool-D12-pad-1064"/><use x="1465" y="2840" xlink:href="#tool-D12-pad-1064"/><use x="3350" y="2170" xlink:href="#tool-D12-pad-1064"/><use x="3450" y="2170" xlink:href="#tool-D12-pad-1064"/><use x="3450" y="2070" xlink:href="#tool-D12-pad-1064"/><use x="3350" y="2070" xlink:href="#tool-D12-pad-1064"/><use x="3350" y="1970" xlink:href="#tool-D12-pad-1064"/><use x="3450" y="1970" xlink:href="#tool-D12-pad-1064"/><use x="1305" y="1297" xlink:href="#tool-D13-pad-1065"/><use x="1069" y="1297" xlink:href="#tool-D13-pad-1065"/><use x="1187" y="1100" xlink:href="#tool-D13-pad-1065"/><use x="1157" y="1100" xlink:href="#tool-D14-pad-1066"/><use x="1217" y="1100" xlink:href="#tool-D14-pad-1066"/><use x="1305" y="1267" xlink:href="#tool-D14-pad-1066"/><use x="1305" y="1327" xlink:href="#tool-D14-pad-1066"/><use x="1069" y="1327" xlink:href="#tool-D14-pad-1066"/><use x="1069" y="1267" xlink:href="#tool-D14-pad-1066"/><use x="1490" y="2000" xlink:href="#tool-D15-pad-1067"/><use x="1690" y="2000" xlink:href="#tool-D15-pad-1067"/><use x="1180.4" y="2420.8" xlink:href="#tool-D15-pad-1067"/><use x="1101.7" y="2420.8" xlink:href="#tool-D15-pad-1067"/><use x="1101.7" y="2519.2" xlink:href="#tool-D15-pad-1067"/><use x="1180.4" y="2519.2" xlink:href="#tool-D15-pad-1067"/><use x="1565" y="2540" xlink:href="#tool-D15-pad-1067"/><use x="1665" y="2540" xlink:href="#tool-D15-pad-1067"/><use x="1665" y="2640" xlink:href="#tool-D15-pad-1067"/><use x="1565" y="2640" xlink:href="#tool-D15-pad-1067"/><use x="995" y="2706.2" xlink:href="#tool-D16-pad-1068"/><use x="995" y="2233.8" xlink:href="#tool-D16-pad-1068"/><path fill="none" stroke-width="4.6" d="M1244.3 2599.2h41.4v-58.4h-41.4v58.4m0-53.9h41.4m0 4.5h-41.4m0 4.5h41.4m0 4.5h-41.4m0 4.5h41.4m0 4.5h-41.4m0 4.5h41.4m0 4.5h-41.4m0 4.5h41.4m0 4.5h-41.4m0 4.5h41.4m0 4.5h-41.4m60 4.4h41.4v-58.4h-41.4v58.4m0-53.9h41.4m0 4.5h-41.4m0 4.5h41.4m0 4.5h-41.4m0 4.5h41.4m0 4.5h-41.4m0 4.5h41.4m0 4.5h-41.4m0 4.5h41.4m0 4.5h-41.4m0 4.5h41.4m0 4.5h-41.4"/><path fill="none" stroke-width="32" d="M1265 2570l-25 25h-170l-50-50v-100l24.2-24.2h57.5M950 2280l45-45v-1.2m-45 46.2v380l45 45v1.2M1320 1620l190-190 280-280h519l37-37-1-43m360 205h-755l-10 10m-633 10l-2 2m1400-22l20 20h20"/><path fill="none" stroke-width="24" d="M2070 1385h-75l-25 25v150l-120 120v50m-70 50h-55l-40 40h-45l-25 25h-45l-45-45h-105l-90 90h-115l-20-70m25 285h-100m100 0l100 100m-218.3 215.8l-.8-.8m.8 99.2l-.8.8m-54.7 135l-51.2 51.2m670 33.8l10-10h25v-5l50-50v-50l55-55h25l-76.7-76.7v-355l71.7-71.7v-6.6l-25-25v-235l-20-20m265-625l5-5m-5 5v-85"/><use x="1995" y="1215" xlink:href="#tool-D20-pad-1072"/><use x="1940" y="1285" xlink:href="#tool-D20-pad-1072"/><use x="2070" y="1385" xlink:href="#tool-D20-pad-1072"/><use x="1915" y="1530" xlink:href="#tool-D20-pad-1072"/><use x="1710" y="1425" xlink:href="#tool-D20-pad-1072"/><use x="1510" y="1430" xlink:href="#tool-D20-pad-1072"/><use x="1295" y="1470" xlink:href="#tool-D20-pad-1072"/><use x="1195" y="1495" xlink:href="#tool-D20-pad-1072"/><use x="1145" y="1570" xlink:href="#tool-D20-pad-1072"/><use x="1045" y="1545" xlink:href="#tool-D20-pad-1072"/><use x="945" y="1495" xlink:href="#tool-D20-pad-1072"/><use x="945" y="1655" xlink:href="#tool-D20-pad-1072"/><use x="1045" y="1770" xlink:href="#tool-D20-pad-1072"/><use x="1145" y="1745" xlink:href="#tool-D20-pad-1072"/><use x="1195" y="1820" xlink:href="#tool-D20-pad-1072"/><use x="1312.5" y="1822.5" xlink:href="#tool-D20-pad-1072"/><use x="1120" y="1920" xlink:href="#tool-D20-pad-1072"/><use x="945" y="1820" xlink:href="#tool-D20-pad-1072"/><use x="1320" y="1945" xlink:href="#tool-D20-pad-1072"/><use x="1120" y="2105" xlink:href="#tool-D20-pad-1072"/><use x="1320" y="2205" xlink:href="#tool-D20-pad-1072"/><use x="1583" y="2293" xlink:href="#tool-D20-pad-1072"/><use x="1835" y="2450" xlink:href="#tool-D20-pad-1072"/><use x="1830" y="2570" xlink:href="#tool-D20-pad-1072"/><use x="1720" y="2585" xlink:href="#tool-D20-pad-1072"/><use x="2040" y="2451" xlink:href="#tool-D20-pad-1072"/><use x="2051" y="2321" xlink:href="#tool-D20-pad-1072"/><use x="2025" y="2210" xlink:href="#tool-D20-pad-1072"/><use x="2100" y="2155" xlink:href="#tool-D20-pad-1072"/><use x="2140" y="2200" xlink:href="#tool-D20-pad-1072"/><use x="2035" y="2125" xlink:href="#tool-D20-pad-1072"/><use x="1865" y="2145" xlink:href="#tool-D20-pad-1072"/><use x="1825" y="2060" xlink:href="#tool-D20-pad-1072"/><use x="1862" y="1936" xlink:href="#tool-D20-pad-1072"/><use x="1905" y="1815" xlink:href="#tool-D20-pad-1072"/><use x="1755" y="1825" xlink:href="#tool-D20-pad-1072"/><use x="1850" y="1730" xlink:href="#tool-D20-pad-1072"/><use x="1725" y="1695" xlink:href="#tool-D20-pad-1072"/><use x="1590" y="1800" xlink:href="#tool-D20-pad-1072"/><use x="1400" y="1645" xlink:href="#tool-D20-pad-1072"/><use x="1590" y="2000" xlink:href="#tool-D20-pad-1072"/><use x="2120" y="1950" xlink:href="#tool-D20-pad-1072"/><use x="2165" y="1995" xlink:href="#tool-D20-pad-1072"/><use x="2275" y="2085" xlink:href="#tool-D20-pad-1072"/><use x="2551" y="2211" xlink:href="#tool-D20-pad-1072"/><use x="2701" y="2121" xlink:href="#tool-D20-pad-1072"/><use x="2697.5" y="1977.5" xlink:href="#tool-D20-pad-1072"/><use x="2767.5" y="1982.5" xlink:href="#tool-D20-pad-1072"/><use x="2870" y="1820" xlink:href="#tool-D20-pad-1072"/><use x="3180" y="1690" xlink:href="#tool-D20-pad-1072"/><use x="3280" y="1650" xlink:href="#tool-D20-pad-1072"/><use x="3492" y="1667" xlink:href="#tool-D20-pad-1072"/><use x="3491" y="1391" xlink:href="#tool-D20-pad-1072"/><use x="2745" y="1295" xlink:href="#tool-D20-pad-1072"/><use x="2745" y="1070" xlink:href="#tool-D20-pad-1072"/><use x="2330" y="1615" xlink:href="#tool-D20-pad-1072"/><use x="2466" y="1676" xlink:href="#tool-D20-pad-1072"/><use x="3185" y="1945" xlink:href="#tool-D20-pad-1072"/><use x="3185" y="2070" xlink:href="#tool-D20-pad-1072"/><use x="3063" y="2203" xlink:href="#tool-D20-pad-1072"/><use x="3255" y="2265" xlink:href="#tool-D20-pad-1072"/><use x="3391" y="2566" xlink:href="#tool-D20-pad-1072"/><use x="3391" y="2836" xlink:href="#tool-D20-pad-1072"/><use x="2995" y="2905" xlink:href="#tool-D20-pad-1072"/><use x="2565" y="2970" xlink:href="#tool-D20-pad-1072"/><use x="2060" y="2590" xlink:href="#tool-D20-pad-1072"/><use x="1735" y="2805" xlink:href="#tool-D20-pad-1072"/><use x="1840" y="2905" xlink:href="#tool-D20-pad-1072"/><use x="1255" y="2935" xlink:href="#tool-D20-pad-1072"/><use x="1195" y="2846.4" xlink:href="#tool-D20-pad-1072"/><use x="1501" y="1241" xlink:href="#tool-D20-pad-1072"/><use x="1691" y="1081" xlink:href="#tool-D20-pad-1072"/><path fill="none" stroke-width="12" d="M1210 1470H882v670h388v-297.8l-1.5-1.5v-36.4l25.8-25.8h7.2l43.5-43.5v-130l-135-135m9.6 9.6H882m0 11.8h349.4m11.9 11.9H882m0 11.8h373.1m11.9 11.9H882m0 11.8h396.8m11.9 11.9H882m0 11.8h420.5m11.9 11.9H882m0 11.8h444.2m11.9 11.9H882m0 11.8h463m0 11.9H882m0 11.8h463m0 11.9H882m0 11.8h463m0 11.9H882m0 11.8h463m0 11.9H882m0 11.8h463m0 11.9H882m0 11.8h463m-5.3 11.9H882m0 11.8h445.9M1316 1764H882m0 11.8h422.2m-19.1 11.9H882m0 11.8h391.3m-4.8 11.9H882m0 11.8h386.5m0 11.9H882m0 11.8h388m0 11.9H882m0 11.8h388m0 11.9H882m0 11.8h388m0 11.9H882m0 11.8h388m0 11.9H882m0 11.8h388m0 11.9H882m0 11.8h388m0 11.9H882m0 11.8h388m0 11.9H882m0 11.8h388m0 11.9H882m0 11.8h388m0 11.9H882m0 11.8h388m0 11.9H882m0 11.8h388m0 11.9H882m0 11.8h388m0 11.9H882m0 11.8h388m-90 289.1l.4.4m0 98.4l-.4.4m90 50.4h55m460 240l25-25h165l185-185v-265l-90-90v-55l-35-35v-30m65 30v75l90 90v295l-200 200h-175m5 30l-125 125h-10m135-125h185l215-215v-350l-80-80m-145 180l-85-85v-370l-75-75v-65l-40-40h-80l-40 40h-70l-15 15m405 580v145l65 65m610-635l27.5 22.5M2670 1955v-245l60-60h550m-100 40h-375l-35 35v255l-2.5 2.5"/><path fill="none" stroke-width="8" d="M884.4 1005l-.9.1-1.6.6-1.2 1.2-.6 1.6-.1.9V1111l1.2-1.2h18.6l2 2 1.9-2h18.6l17.7 17.7v27.6l-.9 1 .9.9v27.6l-3.1 3.2 3.1 3.1v18.7l-5.4 5.4 5.4 5.4v18.6l-13.2 13.2h-.3v9.1l.3.3 13.2 13.2V1302.5l-4.5 4.5-8.8 8.8-.2.2v4.2l.3.4 13.2 13.2v27.6l-.9.9.9.9v27.7l-4.5 4.5-8.7 8.7-4.5 4.4m0 .1h-41.1l-1.2-1.2v36.6h335.2l9.5 4 7.3 7.3 100.9 100.9 135.1-135.1v-8.5l24.6-24.6h8.5l268.5-268.5 13.2-5.5h124.3l-2.8-2.8-7.3-17.7v-47l7.3-17.7 13.5-13.5 17.7-7.3h19l17.7 7.3 13.5 13.5 7.3 17.7v47l-7.3 17.7-2.8 2.8h24.2l-2.8-2.8-7.3-17.7v-47l7.3-17.7 13.5-13.5 17.7-7.3h19l17.7 7.3 13.5 13.5 7.3 17.7v47l-7.3 17.7-2.8 2.8h24.2l-2.8-2.8-7.3-17.7v-47l7.3-17.7 13.5-13.5 17.7-7.3h19l17.7 7.3 13.5 13.5 7.3 17.7v47l-7.3 17.7-2.8 2.8h24.2l-2.8-2.8-7.3-17.7v-47l7.3-17.7 13.5-13.5 17.7-7.3h19l17.7 7.3 13.5 13.5 7.3 17.7v47l-7.3 17.7-2.8 2.8h11.2l8-8-5.1-12.5v-47l7.3-17.7 13.5-13.5 17.7-7.3h19l17.7 7.3 13.5 13.5 7.3 17.7v47l-7.3 17.7-3.6 3.6.1 4.5-.2.4v.5l-2.6 6.2-2.4 6.3-.3.3-.2.4-4.7 4.8-4.7 4.8-.4.2-27.2 27.2-10.1 10.1-13.2 5.5h-262.4l-2.4 1h-12.8l-2.4-1h-231.3L1552 1438.9v8.5l-24.6 24.6h-8.5L1371 1619.9v105.6l8.4-3.5h279l24.6-24.6v-19.8l24.6-24.6h34.8l24.6 24.6v34.8l-6.6 6.6h39.8l7.8 3.2v-9.6l10-10v-29l4.9-11.7 115.1-115.2v-143.1l4.9-11.7 9-9 25-25 11.7-4.9h54l10-10h34.8l24.6 24.6v34.8l-.6.6h18.1l17.7 7.3 13.5 13.5 7.3 17.7v47l-7.3 17.7-5.8 5.8h30.2l-5.8-5.8-7.3-17.7v-47l7.3-17.7 13.5-13.5 17.7-7.3h19l10.5 4.3 60.5-57.4 3.6-3.6.4-.2.3-.2 4.8-1.9 4.8-2h.4l.3-.1 5.3.1h260.2l10.3 4.3 15.7 15.7h49l10.3 4.3 20 20 7.8 7.8 4.3 10.3v10.7l5.9-3 6.3-2.1 5.8-.9v51.9h8v8h38v13.3l-1 6.5-2.1 6.3-3 5.9-3.9 5.4-4.6 4.6-1.4 1h39.1l-5.8-5.8-7.3-17.7v-47l7.3-17.7 13.5-13.5 17.7-7.3h19l17.7 7.3 13.5 13.5 7.3 17.7v47l-7.3 17.7-5.8 5.8h30.2l-5.8-5.8-7.3-17.7v-47l7.3-17.7 13.5-13.5 17.7-7.3h19l17.7 7.3 13.5 13.5 7.3 17.7v47l-7.3 17.7-5.8 5.8h30.2l-5.8-5.8-7.3-17.7v-47l7.3-17.7 13.5-13.5 17.7-7.3h19l17.7 7.3 13.5 13.5 7.3 17.7v47l-7.3 17.7-5.8 5.8h30.2l-5.8-5.8-7.3-17.7v-47l7.3-17.7 13.5-13.5 17.7-7.3h19l17.7 7.3 13.5 13.5 7.3 17.7v47l-7.3 17.7-5.8 5.8h30.2l-5.8-5.8-7.3-17.7v-47l7.3-17.7 13.5-13.5 17.7-7.3h19l17.7 7.3 13.5 13.5 7.3 17.7v47l-7.3 17.7-5.8 5.8h30.2l-5.8-5.8-7.3-17.7v-47l7.3-17.7 13.5-13.5 17.7-7.3h19l17.7 7.3 13.5 13.5 7.3 17.7v47l-7.3 17.7-10 10 .2.1 100 100 7.8 7.8 4.3 10.3v205.2l.1.2-.1 5.4v5.4l-.1.2v.2l-2.1 4.9-2.1 5-.1.1-.1.2-3.8 3.7h55.3m0-7.8h-49.7m2.7-7.9h47m0-7.8h-46.9m-.1-7.9h47m0-7.8h-47m0-7.9h47m0-7.8h-47m0-7.9h47m0-7.8h-47m0-7.9h47m0-7.8h-47m0-7.9h47m0-7.8h-47m0-7.9h47m0-7.8h-47m0-7.9h47m0-7.8h-47m0-7.9h47m0-7.8h-47m0-7.9h47m0-7.8h-47m0-7.9h47m0-7.8h-47m0-7.9h47m0-7.8h-47m0-7.9h47m0-7.8h-47m0-7.9h47m0-7.8h-47m-2.1-7.9h49.1m0-7.8h-53.9m-7.8-7.9h61.7m0-7.8h-69.6m-7.8-7.9h77.4m0-7.8h-85.3m-7.8-7.9h93.1m0-7.8h-101m-7.8-7.9H3510m0-7.8h-116.7m-7.8-7.9H3510m0-7.8h-132.4m-7.8-7.9H3510m0-7.8h-148.1m-7.8-7.9H3510m0-7.8h-154.8m6.5-7.9H3510m0-7.8h-145.1m3.1-7.9h142m0-7.8h-142m0-7.9h142m0-7.8h-142m0-7.9h142m0-7.8h-142m-.2-7.9H3510m0-7.8h-145.4m-3.3-7.9H3510m0-7.8h-155.7m-8.8-7.9H3510m0-7.8h-813.1m1.1 7.8h14.9m3.1 0h8m0-.5l5.8.9 6.3 2.1 5.9 3 5.4 3.9 4.6 4.6 3.9 5.4 3 5.9 2.1 6.3 1 6.5v13.3h-38v-51.9m3.1.5h67.4m-8.8 7.9h-40.4m7.9 7.8h25.5m-3.3 7.9H2758m2.9 7.8h11.3m-.2 7.9h-10m0 7.8h10m0 7.9h-48m0-7.9h-8m0-7.8h8m0-7.9h-8m0-7.8h8m0-7.9h-8m0-7.8h8m-30.5-23.6H3510m0-7.8h-824.4m-7.8-7.9H3510m0-7.8h-840.1m-13.1-7.9h768.5m1.2.5l-34.2-14.2-26.1-26.1-14.2-34.2v-37l14.2-34.2 26.1-26.1 34.2-14.2h37l34.2 14.2 12.3 12.3v-19l-84.8-84.8-9.9-9.9-5.3-12.8v-67.6l-.1-.9-.6-1.6-1.2-1.2-1.6-.6-.9-.1H1461.5l12.3 12.3 14.2 34.2v37l-14.2 34.2-26.1 26.1-34.2 14.2h-37l-34.2-14.2-26.1-26.1-14.2-34.2v-37l14.2-34.2 12.3-12.3H884.4m-4.4 4.3h266.6m2-2h34.4v40.3l4 1.6 4-1.6v-40.3h34.4l54.3 54.3v34.4h-4.3v8h4.3v34.4l-54.3 54.3H1191v-40.3l-4-1.6-4 1.6v40.3h-34.4l-54.3-54.3V1104h4.3v-8h-4.3v-34.4l54.3-54.3m-9.9 9.8H880m0 7.9h250.9m-7.9 7.8H880m0 7.9h235.2m-7.9 7.8H880m0 7.9h219.5m-5.2 7.8H880m0 7.9h214.3m0 7.8H880m0 7.9h214.3m0 7.8H880m0 7.9h218.6m-4.3 7.8H923.8m7.9 7.9h162.6m0 7.8H939.5m.5 7.9h154.3m4.2 7.8H940m0 7.9h166.4m7.8 7.8H940m0 7.9h182.1m7.8 7.8H940m0 7.9h197.8m7.8 7.8H938.9m1.1 7.9h751.4m-7.8 7.8h-330.5m-7.2-7.2l57.8 57.8v81.8l-57.8 57.8h-81.8l-57.8-57.8v-81.8l57.8-57.8h81.8m15.1 15.1h314.7m-7.8 7.8h-299.1m7.9 7.9H1660m-7.8 7.8h-267.7m7.9 7.9h251.9m-7.8 7.8h-236.3m3.5 7.9h224.9m-7.8 7.8h-217.1m0 7.9h209.2m-7.8 7.8h-201.4m0 7.9h193.5m-7.8 7.8h-185.7m0 7.9h177.8m-7.8 7.8h-170m0 7.9h162.1m-7.8 7.8h-154.3m-1 7.9h147.4m-7.8 7.8h-147.5m-7.8 7.9h147.4m-7.8 7.8h-147.5m-7.8 7.9h147.4m-7.8 7.8h-147.5m-7.8 7.9H1503m-16.3 7.8h-139m-85.4 0H937m3-7.8h86.9m3.7 3.6l-54.3-54.3V1301h40.3l1.6-4-1.6-4h-40.3v-34.4l54.3-54.3h34.4v4.3h8v-4.3h34.4l54.3 54.3v34.4h-40.3l-1.6 4 1.6 4h40.3v34.4l-54.3 54.3H1073v-4.3h-8v4.3h-34.4m-11.6-11.5h-79m0-7.8h71.2m-7.9-7.9h-64M940 1354.7h55.5m-7.9-7.9H940m0-7.8h39.8m-3.5-7.9h-38.9m-7.9-7.8h46.8m0-7.9h-49.2m7.8-7.8h41.4m0-15.7H940m0 7.8h77.1m-40.8-15.7H940m0-7.8h36.3m0-7.9h-42.8m-7-7.8h49.8m5.9-7.9h-55.7m7.8-7.8h55.8m7.8-7.9H940m0-7.8h65.8m7.8-7.9H940m-3.8-7.8h85.3m7.8-7.9H940m-37.8-94.2h-.9m163.7 94.2h8m35.7 0h148.2m-7.9 7.9h-132.5m7.9 7.8h116.8m-7.9 7.9h-101.1m7.9 7.8h85.4m-7.9 7.9h-69.7m7.9 7.8h54m-3.5 7.9h-44.6m0 7.8h44.6m0 7.9h-44.6m0 7.8h44.6m0 7.9h-44.6m0 15.7h44.6m0 7.8h-44.6m0 7.9h44.6m0 7.8h-44.6m-3.5 7.9h49.1m7.9 7.8h-64.8m-7.9 7.9h80.5m7.9 7.8h-96.2m-7.9 7.9h111.9m7.9 7.8H1119m-7.9 7.9h143.3m-28.8 62.8h214.6m-7.8 7.8h-198.9m7.8 7.9h183.2m-7.8 7.8h-167.5m7.8 7.9h151.8m-7.8 7.8h-136.1m7.8 7.9h120.4m-7.8 7.8h-104.7m7.8 7.9h89m-7.8 7.8h-73.3m7.8 7.9h57.6m-7.8 7.8H1312m7.8 7.9h26.2m-7.8 7.8h-10.5m57.4 55h493.8m-7.9 7.8h-493.8m-6.2 7.9h492.2m-7.9 7.8H1371m0 7.9h476.5m-7.9 7.8H1371m0 7.9h460.8m-7.9 7.8h-73.7m7.8 7.9h62.1m-2.1 7.8h-52.1m1.1 7.9h51m0 7.8h-51m0 7.9h51m-5.3 7.8H1767m-3.4 7.9h44.4m-108.2-55H1371m0 7.9h321m-7.9 7.8H1371m0 7.9h312m0 7.8h-312m0 7.9h309.3m-7.8 7.8H1371m0 7.9h293.6m73.7 96.2l-26.2 26.1-9 9-11.7 4.9h-38.1l-11.2 11.1-9 9-11.7 4.9h-57.8l-11.7-4.9-40.2-40.1h-78.4l-76.2 76.1-9 9-11.7 4.9H1296v213.7l27.3 27.3h14.1l24.6 24.6v34.8l-24.6 24.6h-34.8l-7.6-7.6v279.2l6.2 6.2 1-.3h18.8v41.5h8v8h-8v41.5h-18.8l-1-.3-6.2 6.2V2795H880v235.6l.1.9.6 1.6 1.2 1.2 1.6.6.9.1h494.1l-12.3-12.3-14.2-34.2v-37l14.2-34.2 26.1-26.1 34.2-14.2h4.1l-16.1-16.1v-10l-48.3 48.3-7 7-9.2 3.8h-107.3l-1.2.2-1.9.8h-2.9l-2.9.5-2.1-.5h-2.1l-2.7-1.1-2.8-.7-1.7-1.2-2-.8-2-2.1-2.4-1.6-1.1-1.8-13.3-13.3h-24l-24.6-24.6V2829l24.6-24.6h34.8l24.6 24.6v24.1l6.9 6.9h90.7l91.2-91.2 3.6-1.5-8.9-8.9V2744h40.5v-8h8v8h40.5v14.4l-8.9 8.9 3.6 1.5 7 7 23.3 23.3 9.1-9.1-29.1-29.1v-41.8l27.3-27.3-29.8-29.8v-44l28-28-28-28v-44l31-31h44l28 28 28-28h44l31 31v25h19.4l24.6 24.6v.1l10.2-10.2-46-46.1-4.9-11.7v-367.8l4.9-11.7 9-9 47.8-47.9-1.1-1.2-9-9-4.9-11.7v-228.1l-1.3-1.3h-28.4m-5.8 5.8h35.5m0 7.9h-43.4m-7.8 7.8h51.2m0 7.9h-59.1m-10.8 7.8h69.9m0 7.9h-119.8m-7.8 7.8H1768m0 7.9h-136.4m-78.2 0h-160.9m-7.8 7.8H1768m0 7.9h-391.2m-7.8 7.8h399m0 7.9h-406.9m-7.8 7.8H1768m0 7.9h-426.5m-45.5 7.8h472m0 7.9h-472m0 7.8h472m0 7.9h-51.8m-4.2-4.3l31 31v44l-31 31h-44l-31-31v-44l31-31h44m12.1 12.1h43.9m0 7.9h-36.1m7.9 7.8h28.2m0 7.9h-25m0 7.8h25m0 7.9h-25m0 7.8h25m0 7.9h-25m0 7.8h25m0 7.9h-32.8m-7.9 7.8h40.7m1.7 7.9h-50.2m53.5 7.8h-477m0-7.8h164.5m7.5 7.5l-31-31v-44l31-31h44l31 31v44l-31 31h-44m-15.3-15.4H1296m0-7.8h148.8m-7.8-7.9h-141m0-7.8h141m0-7.9h-141m0-7.8h141m0-7.9h-141m0-7.8h141m3.2-7.9H1296m0-7.8h152.1m7.8-7.9H1296m0-7.8h167.8m52.4 0h147.6m-7.9 7.8h-131.8m7.8 7.9h116.2m-7.9 7.8h-100.4m3.2 7.9h94m0 7.8h-94m0 7.9h94m0 7.8h-94m0 7.9h94m0 7.8h-94m-7.8 7.9h109.6m7.9 7.8h-125.4m-7.8 7.9h141m77.6 62.8H1296m0 7.8h434.2m-5.6 7.9H1296m0 7.8h425.4m-.1 7.9h-421.4m7.9 7.8h413.5m0 7.9h-405.7m22 7.8h383.7m0 7.9h-375.8m7.8 7.8h368m0 7.9h-360.1m.8 7.8h359.3m0 7.9H1362m0 7.8h359.3m0 7.9H1362m-3.6 7.8h362.9m0 7.9h-370.8m-7.8 7.8h378.6m0 7.9H1295m0 7.8h426.3m0 7.9H1295m0 7.8h426.3m0 7.9H1295m0 7.8h426.3m0 7.9H1295m0 7.8h426.3m0 7.9H1295m0 7.8h426.3m0 7.9H1295m0 7.8h426.3m0 7.9H1295m0 7.8h426.3m0 7.9H1295m0 7.8h426.3m0 7.9H1295m0 7.8h426.3m0 7.9H1295m0 7.8h426.3m0 7.9H1295m0 7.8h426.3m0 7.9H1295m0 7.8h426.3m0 7.9H1295m0 7.8h426.3m0 7.9H1295m0 7.8h426.3m0 7.9H1295m0 7.8h426.3m0 7.9H1295m0 7.8h242.1m-7.8 7.9H1295m0 7.8h226.4m-7.8 7.9H1295m5.7 7.8H1512m0 7.9h-152.5m-.8-1.4l2.2 3.7 1.1 4.2v27.3h-33v-41.5h18.8l4.2 1.1 3.7 2.2 3 3m3.3 9.2h150m0 7.9h-150m0 7.8h150m1.6 7.9H1362m0 10.4v27.3l-1.1 4.2-2.2 3.7-3 3-3.7 2.2-4.2 1.1H1329V2574h33m0 5.3h167.3m7.9 7.8H1362m0 7.9h173.1m-7.9 7.8h-165.6m-4.3 7.9h162.1m-7.4 7.8h-214.1m-2.9 7.9h217m0 7.8h-217m0 7.9h217m0 7.8h-217m0 7.9h217m3.7 7.8H1295m0 7.9h228.5m7.9 7.8H1295m0 7.9h244.2m-2.6 7.8H1485m-1.6-1.5l26.1 26.1v14.4H1469v-40.5h14.4m9.4 9.4h35.9m-7.8 7.8h-20.2m7.8 7.9h6m0 7.8h-5m5 7.9H1469m0-7.9h-8m0 7.6v-40.5h-14.4l-26.1 26.1v14.4h40.5m0 .3h-166m0 7.8h125.5m0 7.9H1295m0 7.8h126.9m6.7 7.9H1295m0 7.8h124.1m-7.8 7.9H1295m0 7.8h108.4m-7.8 7.9H880m0 7.8h295.1m-7.8 7.9H880m0 7.8h279.4m-6.4 7.9H880m0 7.8h273m0 7.9H880m0 7.8h273m0 7.9H880m0 7.8h278.9m7.8 7.9H880m0 7.8h294.6m31.9 7.9H880m0 7.8h334.3m9.4 7.9H880m0 7.8h486.7m-3.6 7.9H880m0 7.8h479.9m-3.3 7.9H880m0 7.8h473.4m-1.4 7.9H880m0 7.8h472m0 7.9H880m0 7.8h472m0 7.9H880m0 7.8h474.8m3.3 7.9H880m0 7.8h481.3m3.3 7.9H880m0 7.8h490.2m7.8 7.9H882.6m355.3-180.6h102.7m7.9-7.8H1237m0-7.9h119.3m7.9-7.8H1237m-6.4-7.9H1372m7.9-7.8h-157.2m-7.8-7.9h172.8m23.6 47.1h3.2m.9 7.9h-11.9m-7.9 7.8h27.7m1.9 7.9h-37.4m-7.9 7.8h26.3m-16 7.9h-18.1m-7.9 7.8h18.2m-7.9 7.9h-22m184.5 81.9l-13.2 31.8-12.3 12.3h1859l39.5-39.5V2553l5.3-12.8 9.9-9.9 84.8-84.8v-9l-12.3 12.3-34.2 14.2h-37l-34.2-14.2-26.1-26.1-14.2-34.2v-37l14.2-34.2 26.1-26.1 34.2-14.2h37l34.2 14.2 12.3 12.3v-967l-12.3 12.3-34.2 14.2h-37m-20.1-8.3h-807.2m-7.8-7.9h798.9m-7.9-7.8H1652m-7.9 7.8h404.7m42.4 0h212.4m-8.1 7.9H2099m7.9 7.8h180.3m-8.2 7.9h-167m0 7.8h158.7m-8.2 7.9H2112m0 7.8h142.2m-8.3 7.9H2112m33.5 7.8h49m-8.8 7.9h-31.4m7 7.8h17.4m-3.3 7.9h-10.8m3.2 7.8h4.4m-.2 7.9h-4m0 7.8h4m0 7.9h-4m0 7.8h4m0 7.9h-4m0 7.8h4m3.1 7.9h-10.2m-3.2 7.8h16.6m6.5 7.9h-29.6m-217.2 0h-458.7m-7.9 7.8H1938m0 7.9h-474.4m-7.9 7.8H1938m0 7.9h-490.1m-7.9 7.8h493.8m-7.8 7.9h-493.8m-7.9 7.8h493.8m-7.8 7.9h-493.8m-7.9 7.8h493.8m-7.8 7.9h-493.8m-7.9 7.8h493.8m51.3-94.2h-450.9m7.9-7.8h443m0-7.9h-435.2m7.9-7.8H1938m0-7.9h-419.5m16.3-7.8H1938m0-7.9h-395.3m7.8-7.8H1938m0-7.9h-386m5.8-7.8H1938m0-7.9h-372.4m7.9-7.8H1938m0-7.9h-356.7m7.9-7.8h349.6m3.2-7.9h-345m7.9-7.8h343.8m7.8-7.9h-343.8m7.9-7.8h343.8m7.8-7.9h-343.8m7.9-7.8h348.3m-27.2-27.7h-34.8l-24.6-24.6v-34.8l24.6-24.6h10.6l9.6-4h769.4l13.2 5.5 8.5 8.5h28.5l24.6 24.6v34.8l-24.6 24.6h-34.8l-6-6h-3.8l-13.2-5.5-14.5-14.5h-716.7l-16 16m3.7-3.7h741.2m-7.8-7.9H1969m-50.1 7.9h-251.2m-7.9 7.8h1061.9m46.6 0h606.3m-7.9-7.8h-590.6m7.9-7.9h579.2m-3.3-7.8H2787m0-7.9h569.6m-3.2-7.8H2787m0-7.9h565m0-7.8h-566.5m-7.8-7.9H3352m0-7.8h-582.2m-36.3-7.9H3352m2.8-7.8h-629.1m-53.5-120.1l-17.7 7.3h-19l-17.7-7.3-13.5-13.5-7.3-17.7v-47l7.3-17.7 13.5-13.5 17.7-7.3h19l17.7 7.3 13.5 13.5 7.3 17.7v47l-7.3 17.7-13.5 13.5m-5.6 2.3h156.8m-5.6-2.3l17.7 7.3h19l17.7-7.3 13.5-13.5 7.3-17.7v-47l-7.3-17.7-13.5-13.5-17.7-7.3h-19l-17.7 7.3-13.5 13.5-7.3 17.7v47l7.3 17.7 13.5 13.5m-5.5-5.5h-134.6m7.9-7.9h118.8m-3.3-7.8h-112.2m3.2-7.9h105.8m-.9-7.8h-104m0-7.9h104m0-7.8h-104m0-7.9h104m0-7.8h-104m0-7.9h104m2.4-7.8h-108.8m-3.3-7.9h115.4m5.5-7.8h-126.4m-7.8-7.9h142m16.4-7.8h-174.8m-25.2 0h-274.8m16.4 7.8h54.8m.1 0l6.3-2.1 5.8-.9v51.9h8v8h38v13.3l-1 6.5-2.1 6.3-3 5.9-3.9 5.4-4.6 4.6-5.4 3.9-5.9 3-6.3 2.1-5.8.9V1074h-8v51.9l-5.8-.9-6.3-2.1-5.9-3-5.4-3.9-4.6-4.6-3.9-5.4-3-5.9-2.1-6.3-1-6.5V1074h38v-8h-38v-13.3l1-6.5 2.1-6.3 3-5.9 3.9-5.4 4.6-4.6 5.4-3.9 5.9-3m12.1 0h8m0-3l5.8.9 6.3 2.1 5.9 3 5.4 3.9 4.6 4.6 3.9 5.4 3 5.9 2.1 6.3 1 6.5v13.3h-38v-51.9m0 10.9h-8m0 7.8h8m0 7.9h-8m0 7.8h8m0 7.9h-8m0 7.8h8m0 7.9h92m0 1.9v-8h8v8h38v13.3l-1 6.5-2.1 6.3-3 5.9-3.9 5.4-4.6 4.6-5.4 3.9-5.9 3-6.3 2.1-5.8.9V1074h-8v51.9l-5.8-.9-6.3-2.1-5.9-3-5.4-3.9-4.6-4.6-3.9-5.4-3-5.9-2.1-6.3-1-6.5V1074h38m0 5.9h8m0-7.8h48m0 7.8h-10m-.1 7.9h10.1m.9 7.8h-12.5m-3.2 7.9h18.9m3.3 7.8h-27.3m-9 7.9h44.2m11.1 7.8h-244.2m3-7.8h39.7m-9-7.9h-27.3m3.3-7.8h18.9m-3.2-7.9h-12.5m.9-7.8h10.1m-.1-7.9h-10m0-7.8h48m0 7.8h8m0 7.9h-8m0 7.8h8m0 7.9h-8m0 7.8h8m0 7.9h-8m27.1 0h53.8m-9-7.9h-35.8m5.1-7.8h25.6m-3.2-7.9h-19.2m1.5-7.8h16.2m-.1-7.9h-16m0-15.7h16m0 1.8v-13.3l1-6.5 2.1-6.3 3-5.9 3.9-5.4 4.6-4.6 5.4-3.9 5.9-3 6.3-2.1 5.8-.9v51.9h-38m0-9.6h-16m-.7-7.9h17.4m2.1-7.8h-21.6m-4.1-7.9h29.8m6.8-7.8h-43.4m-12.1-7.9h67.6m12.2 0h8m0-3l5.8.9 6.3 2.1 5.9 3 5.4 3.9 4.6 4.6 3.9 5.4 3 5.9 2.1 6.3 1 6.5v13.3h-38v-51.9m0 10.9h-8m0 7.8h8m0 7.9h-8m0 7.8h8m0 7.9h-8m0 7.8h8m0 23.6h-8m0 7.8h8m0 7.9h-8m0 7.8h8m0 7.9h-8m46-55h10m0-7.8h-10m-.7-7.9h10.7m2.4-7.8h-15.2m-4.1-7.9h22.6m5.5-7.8h-34.9m-12.1-7.9h54.8m-199.3 7.9h-34.9m5.5 7.8h22.6m-4.1 7.9h-15.2m2.4 7.8h10.7m-.7 7.9h-10m0 7.8h10m-27.9 70.7h1085.3m7.8 7.8H2367.4m-8 7.9h1116.7m7.8 7.8H2351.5m-7.8 7.9h1148.1m7.8 7.8H2335.8M2325.9 1182h1088.7m-19 7.8H1801.1m-7.8 7.9h1592.5m-7.8 7.8H1785.4m-7.8 7.9h1592.5m-5.5 7.8H1769.7m-7.8 7.9h1599.4m-3.2 7.8H1754m-7.8 7.9h174.7m-7.9 7.8h-174.7m-7.8 7.9h174.7m-7.2 7.8h-175.4m-7.8 7.9H1898m0 7.8h-191.1m-7.8 7.9H1898m0 7.8h-206.8m-7.8 7.9h219.8m7.8 7.8h-235.5m-196.6 86.4H929.1m-6.8 6.7v.1m-42.3 1h591m-3 7.9H880m0 7.8h583.8m-7.9 7.9H880m0 7.8h568.1m-241.8-141.3h-85.4m-47.9 86.4h-8m118-196.3h8m0-7.8h-8m0-7.9h8m0-7.8h-8m0-7.9h8m37.4 31.4h470.9m7.8-7.8h-470.9m7.9-7.9H1715m7.8-7.8h-470.9m7.9-7.9h105.6m-18.9-7.8h-78.9m7.9-7.9h60.7m-7.9-7.8h-48.6m0-7.9h40.8m-5.8-7.8h-35m0-7.9h31.8m-3.3-7.8h-32.8m4.3-7.9h25.3m-3-7.8h-22.3m0-7.9h22.3m0-7.8h-22.3m0-7.9h22.3m0-7.8h-27.5m-7.8-7.9h36.6m3.2-7.8h-47.7m-7.8-7.9h58.8m3.2-7.8h-69.9m-7.8-7.9h81.1m7.8-7.8h-96.8m-36.4 0h-8m0 7.8h8m0 7.9h-8m0 7.8h8m0 7.9h-8m2.2 7.8h3.6m235.8 109.9h306.1m7.8-7.8h-295m10.3-7.9h292.6m7.8-7.8h-292.5m7.8-7.9h292.6m8.3-7.8h-295.1m3.2-7.9h425.9m-3.3-7.8h-419.3m3.2-7.9h412.9m-.9-7.8h-409m0-7.9h409m0-7.8h-409m0-7.9h409m0-7.8h-409m-1.3-7.9H1897m2.4-7.8h-415.9m-3.3-7.9h422.5m5.5-7.8H1477m-3.4-7.9H1916m16.4-7.8h-466.6m491.8 0h74.8m-16.4 7.8h-42m7.8 7.9h26.4m-5.5 7.8h-15.4m3.3 7.9h8.8m-2.4 7.8h-4m0 7.9h4m0 7.8h-4m0 7.9h4m0 7.8h-4m0 7.9h4m.9 7.8h-5.8m-3.2 7.9h12.2m3.3 7.8h-18.8m100 0h18.8m-3.3-7.8h-12.2m3.2-7.9h5.8m-.9-7.8h-4m0-7.9h4m0-7.8h-4m0-7.9h4m0-7.8h-4m0-7.9h4m2.4-7.8h-8.8m-3.3-7.9h15.4m5.5-7.8h-26.4m-7.8-7.9h42m16.4-7.8h-74.8m100 0h74.8m-16.4 7.8h-42m7.8 7.9h26.4m-5.5 7.8h-15.4m3.3 7.9h8.8m-2.4 7.8h-4m0 7.9h4m0 7.8h-4m0 7.9h4m0 7.8h-4m0 7.9h4m.9 7.8h-5.8m-3.2 7.9h12.2m3.3 7.8h-18.8m100 0h11.2m4.3-7.8h-12.2m3.2-7.9h5.8m-.9-7.8h-4m0-7.9h4m0-7.8h-4m0-7.9h4m0-7.8h-4m0-7.9h4m2.4-7.8h-8.8m-3.3-7.9h15.4m5.5-7.8h-26.4m-7.8-7.9h42m16.4-7.8h-74.8m600 0h74.8m3.1-1.3h19l17.7 7.3 13.5 13.5 7.3 17.7v47l-7.3 17.7-13.5 13.5-17.7 7.3h-19l-17.7-7.3-13.5-13.5-7.3-17.7v-47l7.3-17.7 13.5-13.5 17.7-7.3m-19.5 9.1h-42m7.8 7.9h26.4m-5.5 7.8h-15.4m3.3 7.9h8.8m-2.4 7.8h-4m0 7.9h4m0 7.8h-4m0 7.9h4m0 7.8h-4m0 7.9h4m.9 7.8h-5.8m-3.2 7.9h12.2m3.3 7.8h-18.8m-7.9 7.9h34.6m11.1 7.8h-56.8m100 0h56.8m-5.6-2.3l-13.5-13.5-7.3-17.7v-47l7.3-17.7 13.5-13.5 17.7-7.3h19l17.7 7.3 13.5 13.5 7.3 17.7v47l-7.3 17.7-13.5 13.5-17.7 7.3h-19l-17.7-7.3m-5.5-5.5h-34.6m7.9-7.9h18.8m-3.3-7.8h-12.2m3.2-7.9h5.8m-.9-7.8h-4m0-7.9h4m0-7.8h-4m0-7.9h4m0-7.8h-4m0-7.9h4m2.4-7.8h-8.8m-3.3-7.9h15.4m5.5-7.8h-26.4m-7.8-7.9h42m16.4-7.8h-74.8m100 0h74.8m3.1-1.3h19l17.7 7.3 13.5 13.5 7.3 17.7v47l-7.3 17.7-13.5 13.5-17.7 7.3h-19l-17.7-7.3-13.5-13.5-7.3-17.7v-47l7.3-17.7 13.5-13.5 17.7-7.3m-19.5 9.1h-42m7.8 7.9h26.4m-5.5 7.8h-15.4m3.3 7.9h8.8m-2.4 7.8h-4m0 7.9h4m0 7.8h-4m0 7.9h4m0 7.8h-4m0 7.9h4m.9 7.8h-5.8m-3.2 7.9h12.2m3.3 7.8h-18.8m-7.9 7.9h34.6m11.1 7.8h-56.8m100 0h56.8m-5.6-2.3l-13.5-13.5-7.3-17.7v-47l7.3-17.7 13.5-13.5 17.7-7.3h19l17.7 7.3 13.5 13.5 7.3 17.7v47l-7.3 17.7-13.5 13.5-17.7 7.3h-19l-17.7-7.3m-5.5-5.5h-34.6m7.9-7.9h18.8m-3.3-7.8h-12.2m3.2-7.9h5.8m-.9-7.8h-4m0-7.9h4m0-7.8h-4m0-7.9h4m0-7.8h-4m0-7.9h4m2.4-7.8h-8.8m-3.3-7.9h15.4m5.5-7.8h-26.4m-7.8-7.9h42m16.4-7.8h-74.8m100 0h74.8m3.1-1.3h19l17.7 7.3 13.5 13.5 7.3 17.7v47l-7.3 17.7-13.5 13.5-17.7 7.3h-19l-17.7-7.3-13.5-13.5-7.3-17.7v-47l7.3-17.7 13.5-13.5 17.7-7.3m-19.5 9.1h-42m7.8 7.9h26.4m-5.5 7.8h-15.4m3.3 7.9h8.8m-2.4 7.8h-4m0 7.9h4m0 7.8h-4m0 7.9h4m0 7.8h-4m0 7.9h4m.9 7.8h-5.8m-3.2 7.9h12.2m3.3 7.8h-18.8m-7.9 7.9h34.6m11.1 7.8h-56.8m100 0h85.9m-7.8-7.8h-67m7.9-7.9h51.2m-7.8-7.8h-40.1m3.2-7.9h29m-6.6-7.8H3393m0-7.9h18.2m-1.2-7.8h-17m0-7.9h17m0-7.8h-17m0-7.9h17m0-7.8h-19.4m-3.3-7.9h22.7m0-7.8h-28.2m-7.8-7.9h36m0-7.8h-52.4m117.8 172.7h32.1m2.5 7.8h-15.6m9.8 7.9h5.8m-2.4 141.3h2.4m0 7.8h-10.3m10.3 7.9h-26.4m-18.9 7.8h45.3m-215.5 47.1h-49m8.8 7.9h31.4m-7 7.8h-17.4m3.3 7.9h10.8m-3.2 7.8h-4.4m.2 7.9h4m0 7.8h-4m0 7.9h4m0 7.8h-4m0 7.9h4m0 7.8h-4m-3.1 7.9h10.2m3.2 7.8h-16.6m-6.5 7.9h29.6m-100 0h-29.6m6.5-7.9h16.6m-3.2-7.8h-10.2m3.1-7.9h4m0-7.8h-4m0-7.9h4m0-7.8h-4m0-7.9h4m0-7.8h-4m-.2-7.9h4.4m3.2-7.8h-10.8m-3.3-7.9h17.4m7-7.8h-31.4m-8.8-7.9h49m-100 0h-49m8.8 7.9h31.4m-7 7.8h-17.4m3.3 7.9h10.8m-3.2 7.8h-4.4m.2 7.9h4m0 7.8h-4m0 7.9h4m0 7.8h-4m0 7.9h4m0 7.8h-4m-3.1 7.9h10.2m3.2 7.8h-16.6m-6.5 7.9h29.6m-100 0h-29.6m6.5-7.9h16.6m-3.2-7.8h-10.2m3.1-7.9h4m0-7.8h-4m0-7.9h4m0-7.8h-4m0-7.9h4m0-7.8h-4m-.2-7.9h4.4m3.2-7.8h-10.8m-3.3-7.9h17.4m7-7.8h-31.4m-8.8-7.9h49m-100 0h-49m8.8 7.9h31.4m-7 7.8h-17.4m3.3 7.9h10.8m-3.2 7.8h-4.4m.2 7.9h4m0 7.8h-4m0 7.9h4m0 7.8h-4m0 7.9h4m0 7.8h-4m-3.1 7.9h10.2m3.2 7.8h-16.6m-6.5 7.9h29.6m-100 0h-38.3m7.4-7.9h24.4m-3.2-7.8h-16.6m2.6-7.9h10.9m0-7.8h-10m0-7.9h10m-140.7 153.5l-27.9-27.9h-176.8l-32.9 32.9-7.8 7.8-10.3 4.3h-14.2l-14 14h-34.8l-14-14h-182l-40.7 40.7-10.3 4.3h-34l-15 15h12.9l17.7 7.3 13.5 13.5 7.3 17.7v36.9l4 4v-40.9l7.3-17.7 13.5-13.5 17.7-7.3h19l17.7 7.3 13.5 13.5 7.3 17.7v36.9l4 4v-40.9l7.3-17.7 13.5-13.5 17.7-7.3h19l17.7 7.3 13.5 13.5 7.3 17.7v36.9l4 4v-40.9l7.3-17.7 13.5-13.5 17.7-7.3h19l17.7 7.3 13.5 13.5 7.3 17.7v47l-7.3 17.7-7.5 7.4 422.7 422.7 1.1 1.1v-203l4.1-9.9h-31l-20.1-20.1-15.1 15.1h-34.8l-24.6-24.6v-17.8l-.2-.1-2.8-2.7-3-2.5-.6-1.1-.9-1-1.5-3.6-1.9-3.4-.1-1.3-.5-1.2v-3.9l-.4-3.9.4-1.2v-137.7l-2 1.4-5.9 3-6.3 2.1-5.8.9V1769h-8v51.9l-5.8-.9-6.3-2.1-5.9-3-5.4-3.9-4.6-4.6-3.9-5.4-3-5.9-2.1-6.3-1-6.5V1769h38v-8h8v-51.9l5.8.9 6.3 2.1 5.9 3 2 1.4v-11.7l4-9.5 7.3-7.3 49.9-50h-55.8l-10.3-4.3-7.8-7.8m3.5 3.5h-239.6m7.8-7.8h224m-7.9-7.9h-208.2m7.8-7.8h192.6m-7.9-7.9h-176.8m-39.3 39.3h260.3m27 31.4h-583.7m-7.8 7.8h583.6m-7.8 7.9h-584.5m24.2 23.5h-57.2m11.2 7.9h34.8m-7.9 7.8h-19m3.4 7.9h12.2m-3.2 7.8h-5.8m.9 7.9h4m0 7.8h-4m0 7.9h4m0 7.8h-4m.2 7.9h3.8m96.2 0h3.8m0-7.9h-4m0-7.8h4m0-7.9h-4m0-7.8h4m.9-7.9h-5.8m-3.2-7.8h12.2m3.4-7.9h-19m-7.9-7.8h34.8m11.2-7.9h-57.2m-42.6-47.1h583.6m7.9-7.8h-338.9m7.9-7.9h338.8m-47.1 47.1h-623.6m-7.9 7.9H2646m-2 7.8h-102.6m5.8 2.4l-17.7-7.3h-19l-17.7 7.3-13.5 13.5-7.3 17.7v47l7.3 17.7 13.5 13.5 17.7 7.3h19l17.7-7.3 13.5-13.5 7.3-17.7v-47l-7.3-17.7-13.5-13.5m5.4 5.5h44.5m.9-.7l5.9-3 6.3-2.1 5.8-.9v51.9h-38v-13.3l1-6.5 2.1-6.3 3-5.9 3.9-5.4h-27.5m3.4 7.9h18.9m-3.2 7.8h-12.5m.9 7.9h10.1m-.1 7.8h-10m0 7.9h48m0 7.8h8m0 7.9h-8m0 7.8h8m0 7.9h-8m0 7.8h8m0 7.9h-8m0 7.8h8m12.4 0h7.6m0 7.9h-111.2m16.3-7.9h54.5m-12-7.8h-34.7m5.5-7.9h22.5m-4.1-7.8h-15.2m2.4-7.9h10.6m-.6-7.8h-10m0-7.9h10m38-15.7h8m0-7.8h-8m0-7.9h8m0-7.8h-8m0-7.9h8m0-7.8h-8m-18-.7l-5.4 3.9-4.6 4.6m54.9-7.8h1.1m0 117.7h-270.9m-7.8-7.8h41.9m3.3 1.3l-17.7-7.3-13.5-13.5-7.3-17.7v-47l7.3-17.7 13.5-13.5 17.7-7.3h19l17.7 7.3 13.5 13.5 7.3 17.7v47l-7.3 17.7-13.5 13.5-17.7 7.3h-19m-19.6-9.2h-33.5m-.5-7.8h26.2m-5.5-7.9h-15.2m3.2-7.8h8.8m-2.4-7.9h-4m0-7.8h4m0-7.9h-4m0-7.8h4m0-7.9h-4m0-7.8h4m.9-7.9h-5.8m-3.2-7.8h12.2m3.4-7.9h-19m-7.9-7.8h34.8m11.2-7.9h-57.2m-42.8 0h-57.2m11.2 7.9h34.8m-7.9 7.8h-19m3.4 7.9h12.2m-3.2 7.8h-5.8m.9 7.9h4m0 7.8h-4m0 7.9h4m0 7.8h-4m.2 7.9h3.8m109 62.8h263m0 7.8h-255.2m7.9 7.9H2644m0 7.8h-239.5m7.9 7.9H2644m0 7.8h-223.8m7.9 7.9H2644m0 7.8h-208.1m7.9 7.9H2644m0 7.8h-192.4m7.9 7.9H2644m0 7.8h-176.7m7.9 7.9H2644m0 7.8h-161m7.9 7.9H2644m0 7.8h-145.3m7.9 7.9h140.2m6.2 7.8h-138.6m7.9 7.9h133.2m0 7.8h-125.4m7.9 7.9h121m7.8 7.8h-121m7.9 7.9h121m45.6 0h19.4m7.8 7.8h-186m7.9 7.9h209.5m-1.9 7.8h-199.8m7.9 7.9H2777m0 7.8h-184.1m7.9 7.9H2777m0 7.8h-168.4m7.9 7.9H2777m0 7.8h-152.7m7.9 7.9H2777m0 7.8h-137m7.9 7.9H2777m0 7.8h-121.3m7.9 7.9H2777m0 7.8h-105.6m7.9 7.9h97.7m0 7.8h-89.9m7.9 7.9h82m0 7.8h-74.2m7.9 7.9h66.3m0 7.8h-58.5m7.9 7.9h50.6m0 7.8h-42.8m7.9 7.9h34.9m0 7.8h-27.1m7.9 7.9h19.2m0 7.8h-11.4m7.9 7.9h3.5m56 0h99m0 7.8h-99m0 7.9h99m0 7.8h-99m0 7.9h99m0 7.8h-99m0 7.9h99m0 7.8h-99m0 7.9h99m0 1.7v-101.8l-10.7-10.7-4.3-10.3V1827h-6.5l-17.7-7.3-13.5-13.5-7.3-17.7v-47l7.3-17.7 7.8-7.8h-34.2l7.8 7.8 7.3 17.7v47l-7.3 17.7-12.7 12.7v211.7l-4.3 10.3-10.7 10.7v751.8l104.6 104.6h16.9l17.7 7.3 13.5 13.5 7.3 17.7v47l-7.3 17.7-13.5 13.5-17.7 7.3h-19l-17.7-7.3-13.5-13.5-7.3-17.7v-46.9l-6.7-6.7 2.7 6.6v47l-7.3 17.7-13.5 13.5-17.7 7.3h-19l-17.7-7.3-13.5-13.5-7.3-17.7v-47l1.4-3.5-11.7-11.7 6.3 15.2v47l-7.3 17.7-13.5 13.5-17.7 7.3h-19l-17.7-7.3-13.5-13.5-7.3-17.7v-47l1.4-3.5-7.1-7.1-.8-1.8-1.9 1.8 4.4 10.6v47l-7.3 17.7-13.5 13.5-17.7 7.3h-19l-17.7-7.3-13.5-13.5-7.3-17.7v-47l7.3-17.7 13.5-13.5 17.7-7.3h1.9l4.6-4.6v-621.8l-119-119v763.5l2.7 2.7 7.3 17.7v47l-7.3 17.7-13.5 13.5-17.7 7.3h-19l-17.7-7.3-13.5-13.5-7.3-17.7v-45.9l-4 4v41.9l-7.3 17.7-13.5 13.5-17.7 7.3h-19l-17.7-7.3-13.5-13.5-7.3-17.7v-47l2.7-6.6-6.7 6.7v46.9l-7.3 17.7-13.5 13.5-17.7 7.3h-19l-17.7-7.3-13.5-13.5-7.3-17.7v-47l2.7-6.6-6.7 6.7v46.9l-7.3 17.7-13.5 13.5-17.7 7.3h-19l-17.7-7.3-13.5-13.5-7.3-17.7v-47l.6-1.6-4.6 5v43.6l-7.3 17.7-13.5 13.5-17.7 7.3h-19l-17.7-7.3-13.5-13.5-7.3-17.7v-40.9l-4 4v36.9l-7.3 17.7-13.5 13.5-17.7 7.3h-19l-17.7-7.3-13.5-13.5-7.3-17.7v-47l7.3-17.7 13.5-13.5 17.7-7.3h19l5.6 2.3 2.3-2.3H1882v14.4l-1 1v42.6h-38v-13.3l.9-5.7H1833v46.5l-7.3 17.7-13.5 13.5-17.7 7.3h-19l-17.7-7.3-13.5-13.5-7.3-17.7v-28.7l-4 4v24.7l-7.3 17.7-13.5 13.5-17.7 7.3h-19l-17.7-7.3-13.5-13.5-7.3-17.7v-40.8l-4 4.1v36.7l-7.3 17.7-13.5 13.5-17.7 7.3h-19l-17.7-7.3-13.5-13.5-7.3-17.7v-2.6m.7 4.4h-2.5m-3.3 7.9h9.1m3.2 7.8h-15.5m-3.3 7.9h26.6m10.7 7.8h-42.9m-7.8 7.9h1858.9m-3.6-7.9h11.5m-6.6-2l-17.7 7.3h-19l-17.7-7.3-13.5-13.5-7.3-17.7v-31.9l-4-4v35.9l-7.3 17.7-13.5 13.5-17.7 7.3h-19l-17.7-7.3-13.5-13.5-7.3-17.7v-31.9l-4-4v35.9l-7.3 17.7-13.5 13.5-17.7 7.3h-19l-17.7-7.3-13.5-13.5-7.3-17.7v-31.9l-4-4v35.9l-7.3 17.7-13.5 13.5-17.7 7.3h-19l-17.7-7.3-13.5-13.5-7.3-17.7v-47l7.3-17.7 12.7-12.7v-14.5l-85.7-85.7-4.3-10.3v-496.2l4.3-10.3.7-.7m-3 6.1h-96m0 7.9h94m0 7.8h-94m0 7.9h94m0 7.8h-94m0 7.9h94m0 7.8h-94m0 7.9h94m0 7.8h-94m0 7.9h94m0 7.8h-94m0 7.9h94m0 7.8h-94m0 7.9h94m0 7.8h-94m0 7.9h94m0 7.8h-94m0 7.9h94m0 7.8h-94m0 7.9h94m0 7.8h-94m0 7.9h94m0 7.8h-94m0 7.9h94m0 7.8h-94m0 7.9h94m0 7.8h-94m0 7.9h94m0 7.8h-94m0 7.9h94m0 7.8h-94m0 7.9h94m0 7.8h-94m0 7.9h94m0 7.8h-94m0 7.9h94m0 7.8h-94m0 7.9h94m0 7.8h-94m0 7.9h94m0 7.8h-94m0 7.9h94m0 7.8h-94m0 7.9h94m0 7.8h-94m0 7.9h94m0 7.8h-94m0 7.9h94m0 7.8h-94m0 7.9h94m0 7.8h-94m0 7.9h94m0 7.8h-94m0 7.9h94m0 7.8h-94m0 7.9h94m0 7.8h-94m0 7.9h94m0 7.8h-94m0 7.9h94m0 7.8h-94m0 7.9h94m0 7.8h-94m0 7.9h94m.6 7.8h-91.1m7.9 7.9h86.4m7.2 7.8h-85.8m7.9 7.9h85.8m7.8 7.8h-85.8m7.9 7.9h85.8m7.8 7.8h-85.8m7.9 7.9h85.8m7.8 7.8h-85.8m7.9 7.9h85.8m7.8 7.8H2915m7.9 7.9h85.8m7.8 7.8h-85.8m26.2 7.9h60.1m-.7 7.8h-42.6m7.8 7.9h27m-5.7 7.8h-15.6m3.3 7.9h9m-2.5 7.8h-4m0 7.9h4m0 7.8h-4m0 7.9h4m0 7.8h-4m0 7.9h4m.7 7.8h-5.4m-3.3 7.9h12m3.2 7.8h-18.4m-7.8 7.9h34m10.7 7.8h-55.4m-44.6 0h-55.4m10.7-7.8h34m-7.8-7.9h-18.4m3.2-7.8h12m-3.3-7.9h-5.4m.7-7.8h4m0-7.9h-4m0-7.8h4m0-7.9h-4m0-7.8h4m0-7.9h-4m-2.5-7.8h.3m-93.8 7.8h-4m0 7.9h4m0 7.8h-4m0 7.9h4m0 7.8h-4m0 7.9h4m.7 7.8h-5.4m-3.3 7.9h12m3.2 7.8h-18.4m-7.8 7.9h34m10.7 7.8h-55.4m-44.6 0h-55.4m10.7-7.8h34m-7.8-7.9h-18.4m3.2-7.8h12m-3.3-7.9h-5.4m.7-7.8h4m0-7.9h-4m0-7.8h4m0-7.9h-4m0-7.8h4m0-7.9h-4m-2.5-7.8h5.3m-53.8-39.3h-119m0-7.8h119m0-7.9h-119m0-7.8h119m0-7.9h-119m0-7.8h119m0-7.9h-119m0-7.8h119m0-7.9h-119m0-7.8h119m0-7.9h-119m0-7.8h119m0-7.9h-119m0-7.8h119m0-7.9h-119m0-7.8h119m0-7.9h-119m0-7.8h119m0-7.9h-119m0-7.8h119m0-7.9h-119m0-7.8h119m0-7.9h-119m0-7.8h119m0-7.9h-119m0-7.8h119m0-7.9h-119m0-7.8h119m0-7.9h-119m0-7.8h119m0-7.9h-119m0-7.8h119m0-7.9h-119m0-7.8h119m0-7.9h-119m0-7.8h119m0-7.9h-119m0-7.8h119m0-7.9h-119m0-7.8h119m0-7.9h-119m0-7.8h119m0-7.9h-119m0-7.8h119m0-7.9h-119m0-7.8h119m0-7.9h-119m0-7.8h119m0-7.9h-119m0-7.8h119m0-7.9h-119m0-7.8h119m0-7.9h-119m0-7.8h119m0-7.9h-119m0-7.8h119m0-7.9h-119m0-7.8h119m0-7.9h-119m0-7.8h119m0-7.9h-119m0-7.8h119m0-7.9h-119m0-7.8h119m0-7.9h-119m0-7.8h119m0-7.9h-119m0-7.8h119m0-7.9h-119m0-7.8h119m0-7.9h-119m0-7.8h119m0-7.9h-119m0-7.8h119m0-7.9h-119m0-7.8h119m0-7.9h-119m0-7.8h119m0-7.9h-119m0-7.8h118.4m-7.9-7.9H2523m0-7.8h102.7m-7.9-7.9H2523m0-7.8h87m-7.9-7.9H2523m0-7.8h71.3m-7.9-7.9H2523m0-7.8h55.6m-7.9-7.9H2523m0-7.8h39.9m-7.9-7.9h-32m0-7.8h24.2m-7.9-7.9H2523m0-7.8h8.5m-7.9-7.9h-.6m205.2-157h3.6m101.2 47.1h84m0-7.8h-77.9m6-7.9h71.9m0-7.8h-69m0-7.9h69m0-7.8h-69m0-7.9h69m0-7.8h-69m0-7.9h69m0-7.8h-69m0-7.9h69m0-7.8h-69m0-7.9h69m0-7.8h-69m0-7.9h69m0-7.8h-69m0-7.9h69m0-7.8h-69m0-7.9h69m0-7.8h-69m0-7.9h69m0-7.8h-69m0-7.9h69m0-7.8h-69m0-7.9h69m0-7.8h-69m0-7.9h69m0-7.8h-69m0-7.9h69m-9.8-7.8H2848m1.1-7.9h41.8m-7.8-7.8h-26.2m5.5-7.9h15.2m-3.2-7.8h-8.8m2.4-7.9h4m0-7.8h-4m0-7.9h4m0-7.8h-4m0-7.9h4m0-7.8h-4m-.9-7.9h5.8m3.2-7.8h-12.2m-3.4-7.9h19m235.9 180.6h51.1m1.1-1.2h19.8l94.4-94.4-2.5-2.4-7.3-17.7v-47l7.3-17.7 13.5-13.5 17.7-7.3h19l17.5 7.2v-28.6l-25-25v10.8l-24.6 24.6h-34.8l-16-16H3222v27h7.5l17.7 7.3 13.5 13.5 7.3 17.7v47l-7.3 17.7-13.5 13.5-17.7 7.3h-19l-12.7-5.2-124.8 124.8v166.8l13.6 13.6h99l10.3 4.3 7.8 7.8 75 75 4.3 10.3v9.2l14 14v34.8l-24.6 24.6H3248l-2.4 1h-69l-23.6 23.6v44l-4.3 10.3-60.7 60.7v281.8l58.6 58.6h34l10.3 4.3 7.8 7.8 37.9 37.9h4l10.3 4.3 56.4 56.4 8.6 3.6 10.5 10.5 9.1-3.8h19l17.7 7.3 13.5 13.5 7.3 17.7v47l-7.3 17.7-13.5 13.5m5.8-5.8h8.6m-.8-7.9h8.7m-5.5-7.8h13.3m7.7-7.9h-17.7m.7-7.8h17m0-7.9h-17m0-7.8h17m0-7.9h-17m0-7.8h17m0-7.9h-17m-2.5-7.8h19.5m0-7.9h-22.8m-5.7-7.8h28.5m0-7.9h-36.3m-16.8-7.8h53.1m0-7.9h-94.5m8.1 7.9h9.5m-30.2-15.7H3410m0-7.9h-115m-7.8-7.8H3410m0-7.9h-130.7m-7.8-7.8H3410m0-7.9h-146.4m-7.8-7.8H3410m0-7.9h-166.3m-13.6-7.8H3410m0-7.9h-187.8m-7.8-7.8H3410m0-7.9h-203.5m-7.8-7.8H3410m0-7.9h-219.3m-47.7-7.8h267m0-7.9h-274.9m-7.8-7.8H3410m0-7.9h-290.6m-7.8-7.8H3410m0-7.9h-306.3m-7.8-7.8H3410m0-7.9h-322m0-7.8h322m0-7.9h-322m0-7.8h322m0-7.9h-322m0-7.8h322m0-7.9h-322m0-7.8h322m0-7.9h-322m0-7.8h322m0-7.9h-322m0-7.8h322m0-7.9h-322m0-7.8h322m0-7.9h-322m0-7.8h322m0-7.9h-322m0-7.8h322m0-7.9h-322m0-7.8h322m0-7.9h-322m0-7.8h322m0-7.9h-322m0-7.8h324.1m3.4-7.9H3088m0-7.8h335.3m7.9-7.9H3088m0-7.8h351m7.9-7.9H3088m0-7.8h366.7m7.9-7.9H3088m0-7.8h382.4m7.9-7.9H3088m0-7.8h398.1m7.9-7.9h-26.9m18.9-7.8h15.8m-1.1-7.9h9m-1.1-7.8h1.4m-87.1 23.5H3088m0-7.8h316m-14.7-7.9h-300.5m7.8-7.8h284.8m-7.8-7.9h-269.1m7.8-7.8H3366m-3.3-7.9h-242.5m7.8-7.8h231.5m-3.3-7.9h-220.3m7.8-7.8H3353m-1-7.9h-202.1m3.1-7.8h199m0-7.9h-199m0-7.8h199m0-7.9h-199m0-7.8h202.2m3.3-7.9H3153m3.5-7.8h205.2m3.3-7.9h-200.6m7.8-7.8h198.9m7.9-7.9h-104.1m7.8-7.8h104.1m11.2-7.9h-107.4m6.4-7.8h120m56 0h37m0 7.8h-18m11.2 7.9h6.8m0-23.6h-213m0-7.8h213m0-7.9h-213m0-7.8h213m0-7.9h-218.9m-7.8-7.8H3510m0-7.9h-227m-2.6-7.8h46.3m2.4 2.3l-29.6-29.6v-26.8l-55.4-55.4-7.8-7.8-4.3-10.3v-153l-5 5v19.8l-24.6 24.6h-34.8l-24.6-24.6v-34.8l24.6-24.6m-9 9h-51m-7.9 7.9h51.1m-7.8 7.8h-51.1m-7.9 7.9h59m0 7.8h-66.8m-3.2 7.9h70m0 7.8h-70m0 7.9h74.6m7.8 7.8H3073m0 7.9h90.3m43.4 0h25.3m0 7.8h-159m0 7.9h159m0 7.8h-159m0 7.9h159m0 7.8h-159m0 7.9h159m0 7.8h-159m0 7.9h159m0 7.8h-159m0 7.9h159m0 7.8h-159m0 7.9h159m0 7.8h-159m0 7.9h159.8m3.3 7.8H3073m0 7.9h170.7M3251.5 2116.1h-175.8m7.9 7.9h175.8m7.8 7.8h-70.8m7.9 7.9h70.8m7.8 7.8h-70.8m7.9 7.9h70.8m7.8 7.8h-70.8m7.9 7.9h63.8m0 7.8h-56m7.9 7.9h48.1m3.7 7.8h-44m7.9 7.9h43.9m7.9 7.8h-44m54.2 10.2h41.8l29.1-29.1 29.1 29.1h41.8l29.6-29.6v-41.8l-29.1-29.1 29.1-29.1v-41.8l-29.6-29.6h-27.3l-5.1-5h7.5V1974h8v40.5h14.4l26.1-26.1V1974H3454v-8h40.5v-14.4l-26.1-26.1H3454v40.5h-8v-40.5h-14.4l-4.1 4.1v-38.3l23.2-22.5.2-.1 3.8-3.8m-8.1 7.9h63.4m0 7.8h-71.5m-8 7.9h79.5m0 7.8h-82.5m0 7.9h82.5m0 7.8h-82.5m0 7.9h82.5m0 7.8h-39.3m7.8 7.9h31.5m0 7.8h-23.6m7.8 7.9h15.8m0 7.8h-15.5m0 15.7h15.5m0-7.8h-56m0 7.8h-8m0 7.9h8m0 7.8h-8m0 7.9h8m0 7.8h-8m0 7.9h8m14.9 0h41.1m0 7.8h-36.7m7.9 7.9h28.8m0 7.8h-21m7.9 7.9h13.1m0 7.8h-9.5m0 7.9h9.5m0 7.8h-9.5m0 7.9h9.5m0 7.8h-9.5m-1.6 7.9h11.1m0 7.8h-19m-7.8 7.9h26.8m0 7.8h-34.7m.1 7.9h34.6m0 7.8h-26.8m7.9 7.9h18.9m0 7.8h-11.1m1.6 7.9h9.5m0 7.8h-9.5m0 7.9h9.5m0 7.8h-9.5m0 7.9h9.5m0 7.8h-13.2m-7.8 7.9h21m0 7.8h-28.9m-7.8 7.9h36.7m-83.3 0h-53.4m7.8-7.9h37.8m-7.9-7.8h-22m7.8-7.9h6.4m73.5-188.4h33.3m0-7.8h-25.4m7.8-7.9h17.6m0-7.8h-15.5m-40.5-23.6h-8m0-7.8h8m0-7.9h-8m0-7.8h8m0-7.9h-8m-16.7 0h-1.8M3280.4 1810h-23.5m5.5-7.9h15.2m-3.2-7.8h-8.8m2.4-7.9h4m0-7.8h-4m0-7.9h4m0-7.8h-4m0-7.9h4m0-7.8h-4m-.9-7.9h5.8m3.2-7.8h-12.2m-3.4-7.9h19m7.9-7.8h-34.8m-11.2-7.9h57.2m6.4-23.5h42m0 7.8h-125m0-7.8h33m-7.9-7.9H3222m0 23.6h125m0 7.8h-5.6m.5-31.4h-29m7.8-7.8h13.4m-7.9-7.9h-4.2m-49.4 157h-23.5m15.6 7.9h-31.9m16.2 15.7h-70.8m-7.8 7.8h70.8m-7.9 7.9h-70.8m-7.8 7.8h70.8m-7.9 7.9h-70.8m-7.8 7.8h70.8m-7.9 7.9h-70.8m-7.8 7.8h70.8m32.9 47.1h5m0 7.9h-5m0 7.8h5m0 7.9h-9.6m-7.8 7.8h17.4m24.9-141.3h-70.8m7.8-7.8h13.3M2917 2061.2h-84m0 7.8h84m0 7.9h-84m0 7.8h84m0 7.9h-84m0 7.8h84m0 7.9h-84m0 7.8h84m0 7.9h-84m0 7.8h84m0 7.9h-84m0 7.8h84m0 7.9h-84m0 7.8h84m0 7.9h-84m0 7.8h85.4m3.8 7.9H2833m0 7.8h97m2 7.9h-99m0 7.8h99m0 7.9h-99m0 7.8h99m-424.8-400.3h-74.4m16.3-7.9h41.8m-7.8-7.8h-26.2m5.5-7.9h15.2m-3.2-7.8h-8.8m2.4-7.9h4m0-7.8h-4m0-7.9h4m0-7.8h-4m0-7.9h4m0-7.8h-4m-.9-7.9h5.8m3.2-7.8h-12.2m-3.4-7.9h19m7.9-7.8h-34.8m-11.2-7.9h57.2m-190-54.9h-202m7.9-7.9h186.2m-360.5 329.7h-4.2m0-4.2v313.6l73.7 73.8 7.3 7.3 4 9.5v139.4l33.8 33.8h22.6l24.6 24.6v34.8l-24.6 24.6h-34.8l-24.6-24.6v-22.6l-45-45.1-4-9.5v-139.4l-73.7-73.8-7.3-7.3-4-9.5v-114.8l-1.6 1.6H1863v231.6l14 14v34.8l-24.6 24.6h-.8l34.3 34.3 7.8 7.8 4.3 10.3v56.2l-4.3 10.3-7.8 7.8-20 20-10.3 4.3h-39l-3.6 3.6v44l-4.3 10.3-7.8 7.8-27.9 27.9v47l.8.8 14.2-14.1 7.3-7.3 9.5-4h159.4l169.8-169.8v-243.4l-86-86.1-4-9.5v-49.4l-31-31.1-4-9.5v-1.8l-16-16v-34.8l24.6-24.6h30.8L1936 1970.6m0 12.1h12.1m7.8 7.8H1936m0 7.9h27.8m7.8 7.8H1936m0 7.9h43.5m7.8 7.8H1936m0 7.9h59.2m7.8 7.8h-67m0 7.9h74.9m7.8 7.8H1936m0 7.9h90.6m7.8 7.8H1936m0 7.9h106.3m-26.4 7.8H1936m0 7.9h72m-7.8 7.8H1936m0 7.9h57m0 7.8h-57m0 7.9h57m0 7.8h-57m0 7.9h57m5.1 7.8H1936m0 7.9h70m4.3 7.8H1936m0 7.9h78.3m7.8 7.8H1936m0 7.9h94m7.8 7.8H1936m0 7.9h108m0 7.8h-108m0 7.9h108m0 7.8h-108m0 7.9h108m0 7.8h-108m0 7.9h108m3 7.8h-111m0 7.9h117.5m7.8 7.8H1936m0 7.9h133.2m7.8 7.8h-136.4m7.8 7.9h136.5m7.8 7.8h-136.4m7.8 7.9h136.5m7.8 7.8H1972m7.8 7.9h136.5m7.8 7.8h-136.4m7.8 7.9H2132m2 7.8h-130.6m7.8 7.9H2134m0 7.8h-116.1m3.1 7.9h113m0 7.8h-113m0 7.9h113m0 7.8h-113m0 7.9h113m0 7.8h-113m0 7.9h113m0 7.8h-113m0 7.9h113m0 7.8h-113m0 7.9h113m0 7.8h-113m0 7.9h113m0 7.8h-113m0 7.9h113m0 7.8h-113m0 7.9h113m0 7.8h-113m2.2 7.9H2134m0 7.8h-102.9m7.8 7.9h95.1m0 7.8h-87.2m7.8 7.9h79.4m0 7.8h-48.9m7.9 7.9h41m0 7.8h-33.2m1.2 7.9h32m0 7.8h-32m0 7.9h26.3m-7.9 7.8H2102m-3.3 7.9h13.9m-7.9 7.8h-13.8m6 7.9H2083m6 7.8h-218.6m7.8-7.8H2037m-7.9-7.9h-143m7.7-7.8h127.5m-3.3-7.9h-120.9m.9-7.8h120m0-7.9h-120m0-7.8h114.5m-7.9-7.9H1898m0-7.8h98.8m-7.9-7.9H1898m0-7.8h83.1m-7.9-7.9h-77m-4.4-7.8h78m-.8-7.9h-85.1M1876.1 2516.5h92.9m0-7.9h-100.8m-7.8-7.8H1969m0-7.9h-116.5m6.8-7.8H1969m0-7.9h-101.8m7.8-7.8h94m0-7.9h-92m0-7.8h92m0-7.9h-92m0-7.8h92m0-7.9h-94.5m-7.8-7.8H1969m0-7.9h-106m0-7.8h106m0-7.9h-106m0-7.8h106m-7.8-7.9H1863m0-7.8h90.4m-7.9-7.9H1863m0-7.8h74.7m-7.9-7.9H1863m0-7.8h59m-7.9-7.9H1863m0-7.8h43.3m-7.9-7.9H1863m0-7.8h27.6m-4.8-7.9H1863m0-7.8h21m0-7.9h-21m0-7.8h21m0-7.9h-21m0-7.8h21m0-7.9h-21m0-7.8h21m0-7.9h-21m0-7.8h21m0-7.9h-21m0-7.8h21m0-7.9h-21m0-7.8h21m0-7.9h-21m19.6-7.8h1.4m-122.4-102.1H1296m0-7.8h473.5m7.8-7.9H1296m0-7.8h484.9M1753.8 2092.6H1296m0 7.8h449.9m-201.3-235.5h-144.2m7.8-7.8h128.6m-7.9-7.9h-112.8m7.8-7.8h97.2m-7.9-7.9h-81.4m-56.2-109.9h-4.6m-73.7 518.1h-2.3m297.9 251.2h44.2m-7.8 7.9h-28.6m7.9 7.8h12.8m71.5-15.7h28.4m.5 7.9h-21.1m7.9 7.8h16.4m6.2 7.9h-14.8m1.6 7.8h21.1m7.8 7.9H1718m0 7.8h36.8m7.8 7.9h-20.3m7.8 7.8h20.4m-4.3 7.9h-8.2m99.9 78.5h223.3m-7.9 7.8H1813m0 7.9h252.5m-7.9 7.8H1813m0 7.9h236.8m-7.9 7.8H1813m0 7.9h221.1m-7.9 7.8h-215.9m-5.6 7.9h213.7m-7.9 7.8h-213.6m-7.9 7.9h213.7m-7.9 7.8h-213.6m-7.9 7.9H1987m-7.9 7.8H1773m0 7.9h198.3m-168.4 7.8H1773m0 7.9h17.6m-7.9 7.8h-9.7m0 7.9h1.9M1882 2909h91.1m-16.8 7.8h-56m.8.3l5.9 3 5.4 3.9 4.6 4.6 3.9 5.4 3 5.9 2.1 6.3 1 6.5v13.3h-38v8h-8v51.9l-5.8-.9-6.3-2.1-5.9-3-5.4-3.9-4.6-4.6-3.9-5.4-3-5.9-2.1-6.3-1-6.5V2974h38v-8h8v-51.9l5.8.9 6.3 2.1m-12.1-.3h-7m-1 7.9h8m0 7.8h-8m0 7.9h8m0 7.8h-8m0 7.9h8m0 7.8h-8m0 7.9h-48m0 7.8h10m0 7.9h-10m-.7 7.8h12.2m3.1 7.9H1829m-3.2 7.8h26.9m8.8 7.9H1818m-10.7 7.8h155.4m-10.7-7.8h-43.5m-1.5 1l-5.9 3-6.3 2.1-5.8.9V2974h38v13.3l-1 6.5-2.1 6.3-3 5.9-3.9 5.4-4.6 4.6-5.4 3.9m10.3-8.9h26.9m-3.2-7.8h-18.6m3.1-7.9h12.2m-.7-7.8h-10m0-7.9h10m0-7.8h-48m0 7.8h-8m0 7.9h8m0 7.8h-8m0 7.9h8m0 7.8h-8m0 7.9h8m38-55h10m0-7.8h-10m-.7-7.9h10.7m2.5-7.8h-15.4m-4.3-7.9h23m5.7-7.8h-35.4m-69.4 23.5H1833m0 7.9h10m0 7.8h-10m-92 39.3h-12m-3.2 7.8h18.4m7.8 7.9h-34m-10.7 7.8h55.4m-25-31.4h-5.4m.7-7.8h4m0-7.9h-4m0-7.8h4m-100 0h-4m0 7.8h4m0 7.9h-4m-.7 7.8h5.4m3.3 7.9h-12m-3.2 7.8h18.4m7.8 7.9h-34m-10.7 7.8h55.4m-25.7-62.8h-4m.7-7.8h3.3m-102.5-157h-.1m-7.8-7.9h15.8m-5.5-7.8h-18.2m-7.8-7.9h18.2m-7.9-7.8h-19.8m6.7-7.9h6.4m0-7.8h-5m0-7.9h5m-45.5-23.5h-8m0-7.9h8m0-7.8h-8m0-7.9h8m-24 0h-150m0 7.9h142.2m-7.9 7.8H1295m0 7.9h126.5m-1 7.8H1295m26-117.7h8m0-7.9h-8m0-7.8h8m0-7.9h-8m0-7.8h8m0-7.9h192.5m-192.5-7.8h-8m0-7.9h8m0-7.8h-8m0-7.9h8m0-7.8h-8m675.9 376.8h4.5m32.1 47.1h3.5m0 7.8h-4m0 7.9h4m0 7.8h-4m0 7.9h4m.7 7.8h-5.4m-3.3 7.9h12m3.2 7.8h-18.4m-7.8 7.9h34m10.7 7.8h-55.4m100 0h55.4m-10.7-7.8h-34m7.8-7.9h18.4m-3.2-7.8h-12m3.3-7.9h5.4m-.7-7.8h-4m0-7.9h4m0-7.8h-4m0-7.9h4m0-7.8h-4m1.6-7.9h2.4m96 0h4m0 7.9h-4m0 7.8h4m0 7.9h-4m0 7.8h4m0 7.9h-4m-.7 7.8h5.4m3.3 7.9h-12m-3.2 7.8h18.4m7.8 7.9h-34m-10.7 7.8h55.4m44.6 0h55.4m-10.7-7.8h-34m7.8-7.9h18.4m-3.2-7.8h-12m3.3-7.9h5.4m-.7-7.8h-4m0-7.9h4m0-7.8h-4m0-7.9h4m0-7.8h-4m0-7.9h4m2.2-7.8h.3m-100 0h-.3m168.1 86.3h55.4m-10.7-7.8h-34m7.8-7.9h18.4m-3.2-7.8h-12m3.3-7.9h5.4m-.7-7.8h-4m0-7.9h4m0-7.8h-4m0-7.9h4m0-7.8h-4m3.4-7.9h.6m86-23.5h85.5m-5.7 7.8h-75.6m3.3 7.9h69m-2.5 7.8h-64m0 7.9h64m0 7.8h-64m0 7.9h64m0 7.8h-64m0 7.9h64m.7 7.8h-65.4m-3.3 7.9h72m3.2 7.8h-78.4m-7.8 7.9h94m10.7 7.8h-115.4m15.7-109.9h93.3m16.8-7.8H2523m264.2 23.5h.7m2.6 7.9h5.3m271.5 86.3h55.4m-10.7-7.8h-34m7.8-7.9h18.4m-3.2-7.8h-12m3.3-7.9h5.4m-.7-7.8h-4m0-7.9h4m0-7.8h-4m0-7.9h4m70.3 62.8h55.4m-10.7-7.8h-34m7.8-7.9h18.4m-3.2-7.8h-12m3.3-7.9h5.4m-.7-7.8h-4m0-7.9h4m0-7.8h-4m0-7.9h4m96 0h4m0 7.9h-4m0 7.8h4m0 7.9h-4m-.7 7.8h5.4m3.3 7.9h-12m-3.2 7.8h18.4m7.8 7.9h-34m-10.7 7.8h55.4"/><path fill="none" stroke-width="16" d="M3345 2970l-45-45h-5l-60-60h-10l-50-50h-40l-75-75v-305l65-65v-50l40-40h75l15-15v-35l-75-75h-105l-30-30v-190l170-170h5m100 0v45l-135 135m75-20v160l83 83 7 2m0-100l-60-60v-65l115-115v-175l-80-80h-650l-35-35h-160l-60-60v-15m0 15v40l-50 50h-275l-60 60h-35l-60 60v70l-35 35v40l75 75v20l235 235h30l40 40v460l-300 300v5m100 0v-10l240-255v-510l-65-65h-25l-165-165v-100l-35-35h-45l-20-20v-100l50-50h40l45-45h265l45-45h200l40 40h660l60 60v140l-115 115m140-46l35-34v-205l-100-100h-640l-25-25v-105l-20-20h-55l-20-20h-255l-100 95m120 75h-280l-50 50h-20l-85 85v75l-45 45v40l85 85v20l260 260h15l30 30v420l-230 230h-155l-25 25m-105-100l10-10v-70l40-40v-50l20-20h45l20-20v-45l-80-80v-310l85-85v-126l-13-13m158-166l135 135h100l240 240v815l-10-10v20m-40-70l-60 60v10m-100 0v-15l115-115v-690l-120-120h-80l-35-35m-45-45h130l195 195v755m-80-125v-585l-90-90v-15m-410 60l-30 30v275m350 505l180-180m280 165v30m0-30l25-25v-645l-400-400h-50l-100-100v-5m100 0v5l495 495v655l30 30v20m100 0v-20l-85-85v-605l-440-440v-55m10-150l5-10v5m5-70l30-30v-90l20-20h165l65 65m200 300v260l-15 15v775l135 135 5 20m100 0v-80l-90-90v-485l5-5v-125l-15-15v-360l-25-25v-20m100 0v65l-40 40v275l25 25v140l-15 15v455l105 105v35l50 50m55-45l45 45m-45-45v-30l-45-45h-40l-90-90v-425l40-40v-90l-2-2 2-8v-5l-49-49v-237l104-104v-35m280 251l50.5 49.5-.5 4.5m-1430-300v-5m-295-70l-55 55h-285l-72.5 72.5M2185 2955v15"/><path fill="none" stroke-width="10" d="M1815 2815l-99 98h-75l-56 57m-39-79h158l81-81m-120 10v20m0-20l-50-50v-55l25-25h50l30-30v-75m-230 205h-50l-95 95h-104.4l-6 1-39.6-39.6m295-56.4l25 25v45l31 31"/><path fill="none" stroke-width="15" d="M3400 2016v-137"/></g><mask id="_bottom_mech-mask" fill="#fff" fill-rule="evenodd" stroke="#fff"><path d="M1332 1070l.2-5 .6-5 1-4.9 1.4-4.8 1.7-4.7 2.1-4.5 2.5-4.4 2.8-4.1 3.2-3.9 3.4-3.7 3.7-3.4 4-3 4.2-2.7 4.4-2.4 4.6-2.1 4.7-1.6 4.8-1.3 5-.9 4.9-.5 5.1-.1 5 .3 4.9.7 4.9 1.1 4.8 1.5 4.6 1.8 4.5 2.2 4.3 2.6 4.1 2.9 3.9 3.2 3.6 3.5 3.2 3.8 3 4 2.7 4.3 2.3 4.4 1.9 4.6 1.6 4.8 1.2 4.9.8 4.9.4 5v5l-.4 5-.8 4.9-1.2 4.9-1.6 4.8-1.9 4.6-2.3 4.4-2.7 4.3-3 4-3.2 3.8-3.6 3.5-3.9 3.2-4.1 2.9-4.3 2.6-4.5 2.2-4.6 1.8-4.8 1.5-4.9 1.1-4.9.7-5 .3-5.1-.1-4.9-.5-5-.9-4.8-1.3-4.7-1.6-4.6-2.1-4.4-2.4-4.2-2.7-4-3-3.7-3.4-3.4-3.7-3.2-3.9-2.8-4.1-2.5-4.4-2.1-4.5-1.7-4.7-1.4-4.8-1-4.9-.6-5zm2050 200l.2-5 .6-5 1-4.9 1.4-4.8 1.7-4.7 2.1-4.5 2.5-4.4 2.8-4.1 3.2-3.9 3.4-3.7 3.7-3.4 4-3 4.2-2.7 4.4-2.4 4.6-2.1 4.7-1.6 4.8-1.3 5-.9 4.9-.5 5.1-.1 5 .3 4.9.7 4.9 1.1 4.8 1.5 4.6 1.8 4.5 2.2 4.3 2.6 4.1 2.9 3.9 3.2 3.6 3.5 3.2 3.8 3 4 2.7 4.3 2.3 4.4 1.9 4.6 1.6 4.8 1.2 4.9.8 4.9.4 5v5l-.4 5-.8 4.9-1.2 4.9-1.6 4.8-1.9 4.6-2.3 4.4-2.7 4.3-3 4-3.2 3.8-3.6 3.5-3.9 3.2-4.1 2.9-4.3 2.6-4.5 2.2-4.6 1.8-4.8 1.5-4.9 1.1-4.9.7-5 .3-5.1-.1-4.9-.5-5-.9-4.8-1.3-4.7-1.6-4.6-2.1-4.4-2.4-4.2-2.7-4-3-3.7-3.4-3.4-3.7-3.2-3.9-2.8-4.1-2.5-4.4-2.1-4.5-1.7-4.7-1.4-4.8-1-4.9-.6-5zm0 1100l.2-5 .6-5 1-4.9 1.4-4.8 1.7-4.7 2.1-4.5 2.5-4.4 2.8-4.1 3.2-3.9 3.4-3.7 3.7-3.4 4-3 4.2-2.7 4.4-2.4 4.6-2.1 4.7-1.6 4.8-1.3 5-.9 4.9-.5 5.1-.1 5 .3 4.9.7 4.9 1.1 4.8 1.5 4.6 1.8 4.5 2.2 4.3 2.6 4.1 2.9 3.9 3.2 3.6 3.5 3.2 3.8 3 4 2.7 4.3 2.3 4.4 1.9 4.6 1.6 4.8 1.2 4.9.8 4.9.4 5v5l-.4 5-.8 4.9-1.2 4.9-1.6 4.8-1.9 4.6-2.3 4.4-2.7 4.3-3 4-3.2 3.8-3.6 3.5-3.9 3.2-4.1 2.9-4.3 2.6-4.5 2.2-4.6 1.8-4.8 1.5-4.9 1.1-4.9.7-5 .3-5.1-.1-4.9-.5-5-.9-4.8-1.3-4.7-1.6-4.6-2.1-4.4-2.4-4.2-2.7-4-3-3.7-3.4-3.4-3.7-3.2-3.9-2.8-4.1-2.5-4.4-2.1-4.5-1.7-4.7-1.4-4.8-1-4.9-.6-5zm-2000 600l.2-5 .6-5 1-4.9 1.4-4.8 1.7-4.7 2.1-4.5 2.5-4.4 2.8-4.1 3.2-3.9 3.4-3.7 3.7-3.4 4-3 4.2-2.7 4.4-2.4 4.6-2.1 4.7-1.6 4.8-1.3 5-.9 4.9-.5 5.1-.1 5 .3 4.9.7 4.9 1.1 4.8 1.5 4.6 1.8 4.5 2.2 4.3 2.6 4.1 2.9 3.9 3.2 3.6 3.5 3.2 3.8 3 4 2.7 4.3 2.3 4.4 1.9 4.6 1.6 4.8 1.2 4.9.8 4.9.4 5v5l-.4 5-.8 4.9-1.2 4.9-1.6 4.8-1.9 4.6-2.3 4.4-2.7 4.3-3 4-3.2 3.8-3.6 3.5-3.9 3.2-4.1 2.9-4.3 2.6-4.5 2.2-4.6 1.8-4.8 1.5-4.9 1.1-4.9.7-5 .3-5.1-.1-4.9-.5-5-.9-4.8-1.3-4.7-1.6-4.6-2.1-4.4-2.4-4.2-2.7-4-3-3.7-3.4-3.4-3.7-3.2-3.9-2.8-4.1-2.5-4.4-2.1-4.5-1.7-4.7-1.4-4.8-1-4.9-.6-5z"/><path d="M884.4 970l-3.9.2-3.8.6-3.7.9-3.7 1.3-3.5 1.7-3.3 1.9-3.1 2.3-2.9 2.6-2.6 2.9-2.3 3.1-1.9 3.3-1.7 3.5-1.3 3.7-.9 3.7-.6 3.8-.2 3.9v2021.2l.2 3.9.6 3.8.9 3.7 1.3 3.7 1.7 3.5 1.9 3.3 2.3 3.1 2.6 2.9 2.9 2.6 3.1 2.3 3.3 1.9 3.5 1.7 3.7 1.3 3.7.9 3.8.6 3.9.2H3385l60-60v-450l100-100V1170l-100-100v-60.6l-.2-3.9-.6-3.8-.9-3.7-1.3-3.7-1.7-3.5-1.9-3.3-2.3-3.1-2.6-2.9-2.9-2.6-3.1-2.3-3.3-1.9-3.5-1.7-3.7-1.3-3.7-.9-3.8-.6-3.9-.2z"/><g id="_bottom-drl" fill="#000" stroke="#000"><use x="1691" y="1081" xlink:href="#tool-T1-pad-1035"/><use x="1501" y="1241" xlink:href="#tool-T1-pad-1035"/><use x="1510" y="1430" xlink:href="#tool-T1-pad-1035"/><use x="1710" y="1425" xlink:href="#tool-T1-pad-1035"/><use x="1915" y="1530" xlink:href="#tool-T1-pad-1035"/><use x="2070" y="1385" xlink:href="#tool-T1-pad-1035"/><use x="1940" y="1285" xlink:href="#tool-T1-pad-1035"/><use x="1995" y="1215" xlink:href="#tool-T1-pad-1035"/><use x="2330" y="1615" xlink:href="#tool-T1-pad-1035"/><use x="2466" y="1676" xlink:href="#tool-T1-pad-1035"/><use x="2870" y="1820" xlink:href="#tool-T1-pad-1035"/><use x="2767.5" y="1982.5" xlink:href="#tool-T1-pad-1035"/><use x="2697.5" y="1977.5" xlink:href="#tool-T1-pad-1035"/><use x="2701" y="2121" xlink:href="#tool-T1-pad-1035"/><use x="2551" y="2211" xlink:href="#tool-T1-pad-1035"/><use x="2275" y="2085" xlink:href="#tool-T1-pad-1035"/><use x="2165" y="1995" xlink:href="#tool-T1-pad-1035"/><use x="2120" y="1950" xlink:href="#tool-T1-pad-1035"/><use x="1905" y="1815" xlink:href="#tool-T1-pad-1035"/><use x="1755" y="1825" xlink:href="#tool-T1-pad-1035"/><use x="1850" y="1730" xlink:href="#tool-T1-pad-1035"/><use x="1725" y="1695" xlink:href="#tool-T1-pad-1035"/><use x="1590" y="1800" xlink:href="#tool-T1-pad-1035"/><use x="1400" y="1645" xlink:href="#tool-T1-pad-1035"/><use x="1145" y="1570" xlink:href="#tool-T1-pad-1035"/><use x="1195" y="1495" xlink:href="#tool-T1-pad-1035"/><use x="1295" y="1470" xlink:href="#tool-T1-pad-1035"/><use x="1045" y="1545" xlink:href="#tool-T1-pad-1035"/><use x="945" y="1495" xlink:href="#tool-T1-pad-1035"/><use x="945" y="1655" xlink:href="#tool-T1-pad-1035"/><use x="1045" y="1770" xlink:href="#tool-T1-pad-1035"/><use x="1145" y="1745" xlink:href="#tool-T1-pad-1035"/><use x="1195" y="1820" xlink:href="#tool-T1-pad-1035"/><use x="1312.5" y="1822.5" xlink:href="#tool-T1-pad-1035"/><use x="1120" y="1920" xlink:href="#tool-T1-pad-1035"/><use x="945" y="1820" xlink:href="#tool-T1-pad-1035"/><use x="1320" y="1945" xlink:href="#tool-T1-pad-1035"/><use x="1120" y="2105" xlink:href="#tool-T1-pad-1035"/><use x="1320" y="2205" xlink:href="#tool-T1-pad-1035"/><use x="1583" y="2293" xlink:href="#tool-T1-pad-1035"/><use x="1835" y="2450" xlink:href="#tool-T1-pad-1035"/><use x="1830" y="2570" xlink:href="#tool-T1-pad-1035"/><use x="1720" y="2585" xlink:href="#tool-T1-pad-1035"/><use x="2040" y="2451" xlink:href="#tool-T1-pad-1035"/><use x="2051" y="2321" xlink:href="#tool-T1-pad-1035"/><use x="2025" y="2210" xlink:href="#tool-T1-pad-1035"/><use x="2100" y="2155" xlink:href="#tool-T1-pad-1035"/><use x="2140" y="2200" xlink:href="#tool-T1-pad-1035"/><use x="2035" y="2125" xlink:href="#tool-T1-pad-1035"/><use x="1865" y="2145" xlink:href="#tool-T1-pad-1035"/><use x="1825" y="2060" xlink:href="#tool-T1-pad-1035"/><use x="1862" y="1936" xlink:href="#tool-T1-pad-1035"/><use x="1590" y="2000" xlink:href="#tool-T1-pad-1035"/><use x="2060" y="2590" xlink:href="#tool-T1-pad-1035"/><use x="1735" y="2805" xlink:href="#tool-T1-pad-1035"/><use x="1840" y="2905" xlink:href="#tool-T1-pad-1035"/><use x="1255" y="2935" xlink:href="#tool-T1-pad-1035"/><use x="1195" y="2846.4" xlink:href="#tool-T1-pad-1035"/><use x="2565" y="2970" xlink:href="#tool-T1-pad-1035"/><use x="2995" y="2905" xlink:href="#tool-T1-pad-1035"/><use x="3391" y="2836" xlink:href="#tool-T1-pad-1035"/><use x="3391" y="2566" xlink:href="#tool-T1-pad-1035"/><use x="3255" y="2265" xlink:href="#tool-T1-pad-1035"/><use x="3063" y="2203" xlink:href="#tool-T1-pad-1035"/><use x="3185" y="2070" xlink:href="#tool-T1-pad-1035"/><use x="3185" y="1945" xlink:href="#tool-T1-pad-1035"/><use x="3180" y="1690" xlink:href="#tool-T1-pad-1035"/><use x="3280" y="1650" xlink:href="#tool-T1-pad-1035"/><use x="3492" y="1667" xlink:href="#tool-T1-pad-1035"/><use x="3491" y="1391" xlink:href="#tool-T1-pad-1035"/><use x="2745" y="1295" xlink:href="#tool-T1-pad-1035"/><use x="2745" y="1070" xlink:href="#tool-T1-pad-1035"/><use x="2645" y="1070" xlink:href="#tool-T2-pad-1036"/><use x="2545" y="1070" xlink:href="#tool-T2-pad-1036"/><use x="2445" y="1070" xlink:href="#tool-T2-pad-1036"/><use x="2345" y="1070" xlink:href="#tool-T2-pad-1036"/><use x="2245" y="1070" xlink:href="#tool-T2-pad-1036"/><use x="2145" y="1070" xlink:href="#tool-T2-pad-1036"/><use x="2045" y="1070" xlink:href="#tool-T2-pad-1036"/><use x="1945" y="1070" xlink:href="#tool-T2-pad-1036"/><use x="2020" y="1465" xlink:href="#tool-T2-pad-1036"/><use x="2120" y="1465" xlink:href="#tool-T2-pad-1036"/><use x="2220" y="1465" xlink:href="#tool-T2-pad-1036"/><use x="2320" y="1465" xlink:href="#tool-T2-pad-1036"/><use x="2420" y="1465" xlink:href="#tool-T2-pad-1036"/><use x="2520" y="1465" xlink:href="#tool-T2-pad-1036"/><use x="2620" y="1465" xlink:href="#tool-T2-pad-1036"/><use x="2720" y="1465" xlink:href="#tool-T2-pad-1036"/><use x="2820" y="1465" xlink:href="#tool-T2-pad-1036"/><use x="2920" y="1465" xlink:href="#tool-T2-pad-1036"/><use x="3020" y="1465" xlink:href="#tool-T2-pad-1036"/><use x="3120" y="1465" xlink:href="#tool-T2-pad-1036"/><use x="3220" y="1465" xlink:href="#tool-T2-pad-1036"/><use x="3320" y="1465" xlink:href="#tool-T2-pad-1036"/><use x="3320" y="1765" xlink:href="#tool-T2-pad-1036"/><use x="3220" y="1765" xlink:href="#tool-T2-pad-1036"/><use x="3120" y="1765" xlink:href="#tool-T2-pad-1036"/><use x="3020" y="1765" xlink:href="#tool-T2-pad-1036"/><use x="2920" y="1765" xlink:href="#tool-T2-pad-1036"/><use x="2820" y="1765" xlink:href="#tool-T2-pad-1036"/><use x="2720" y="1765" xlink:href="#tool-T2-pad-1036"/><use x="2620" y="1765" xlink:href="#tool-T2-pad-1036"/><use x="2520" y="1765" xlink:href="#tool-T2-pad-1036"/><use x="2420" y="1765" xlink:href="#tool-T2-pad-1036"/><use x="2320" y="1765" xlink:href="#tool-T2-pad-1036"/><use x="2220" y="1765" xlink:href="#tool-T2-pad-1036"/><use x="2120" y="1765" xlink:href="#tool-T2-pad-1036"/><use x="2020" y="1765" xlink:href="#tool-T2-pad-1036"/><use x="1690" y="2000" xlink:href="#tool-T2-pad-1036"/><use x="1490" y="2000" xlink:href="#tool-T2-pad-1036"/><use x="2845" y="1070" xlink:href="#tool-T2-pad-1036"/><use x="2945" y="1070" xlink:href="#tool-T2-pad-1036"/><use x="3045" y="1070" xlink:href="#tool-T2-pad-1036"/><use x="3145" y="1070" xlink:href="#tool-T2-pad-1036"/><use x="3245" y="1070" xlink:href="#tool-T2-pad-1036"/><use x="3345" y="1070" xlink:href="#tool-T2-pad-1036"/><use x="3345" y="2970" xlink:href="#tool-T2-pad-1036"/><use x="3245" y="2970" xlink:href="#tool-T2-pad-1036"/><use x="3145" y="2970" xlink:href="#tool-T2-pad-1036"/><use x="3045" y="2970" xlink:href="#tool-T2-pad-1036"/><use x="2945" y="2970" xlink:href="#tool-T2-pad-1036"/><use x="2845" y="2970" xlink:href="#tool-T2-pad-1036"/><use x="2745" y="2970" xlink:href="#tool-T2-pad-1036"/><use x="2645" y="2970" xlink:href="#tool-T2-pad-1036"/><use x="2485" y="2970" xlink:href="#tool-T2-pad-1036"/><use x="2385" y="2970" xlink:href="#tool-T2-pad-1036"/><use x="2285" y="2970" xlink:href="#tool-T2-pad-1036"/><use x="2185" y="2970" xlink:href="#tool-T2-pad-1036"/><use x="2085" y="2970" xlink:href="#tool-T2-pad-1036"/><use x="1985" y="2970" xlink:href="#tool-T2-pad-1036"/><use x="1885" y="2970" xlink:href="#tool-T2-pad-1036"/><use x="1785" y="2970" xlink:href="#tool-T2-pad-1036"/><use x="1685" y="2970" xlink:href="#tool-T2-pad-1036"/><use x="1585" y="2970" xlink:href="#tool-T2-pad-1036"/><use x="1565" y="2840" xlink:href="#tool-T3-pad-1037"/><use x="1665" y="2840" xlink:href="#tool-T3-pad-1037"/><use x="1665" y="2740" xlink:href="#tool-T3-pad-1037"/><use x="1565" y="2740" xlink:href="#tool-T3-pad-1037"/><use x="1465" y="2740" xlink:href="#tool-T3-pad-1037"/><use x="1465" y="2840" xlink:href="#tool-T3-pad-1037"/><use x="1565" y="2640" xlink:href="#tool-T3-pad-1037"/><use x="1665" y="2640" xlink:href="#tool-T3-pad-1037"/><use x="1665" y="2540" xlink:href="#tool-T3-pad-1037"/><use x="1565" y="2540" xlink:href="#tool-T3-pad-1037"/><use x="1180.4" y="2519.2" xlink:href="#tool-T3-pad-1037"/><use x="1101.7" y="2519.2" xlink:href="#tool-T3-pad-1037"/><use x="1101.7" y="2420.8" xlink:href="#tool-T3-pad-1037"/><use x="1180.4" y="2420.8" xlink:href="#tool-T3-pad-1037"/><use x="3350" y="2170" xlink:href="#tool-T3-pad-1037"/><use x="3450" y="2170" xlink:href="#tool-T3-pad-1037"/><use x="3450" y="2070" xlink:href="#tool-T3-pad-1037"/><use x="3350" y="2070" xlink:href="#tool-T3-pad-1037"/><use x="3350" y="1970" xlink:href="#tool-T3-pad-1037"/><use x="3450" y="1970" xlink:href="#tool-T3-pad-1037"/><use x="1305" y="1327" xlink:href="#tool-T4-pad-1038"/><use x="1305" y="1297" xlink:href="#tool-T4-pad-1038"/><use x="1305" y="1267" xlink:href="#tool-T4-pad-1038"/><use x="1069" y="1267" xlink:href="#tool-T4-pad-1038"/><use x="1069" y="1297" xlink:href="#tool-T4-pad-1038"/><use x="1069" y="1327" xlink:href="#tool-T4-pad-1038"/><use x="1157" y="1100" xlink:href="#tool-T4-pad-1038"/><use x="1187" y="1100" xlink:href="#tool-T4-pad-1038"/><use x="1217" y="1100" xlink:href="#tool-T4-pad-1038"/><use x="995" y="2233.8" xlink:href="#tool-T5-pad-1039"/><use x="995" y="2706.2" xlink:href="#tool-T5-pad-1039"/><use x="1395" y="1070" xlink:href="#tool-T6-pad-1040"/><use x="3445" y="1270" xlink:href="#tool-T6-pad-1040"/><use x="3445" y="2370" xlink:href="#tool-T6-pad-1040"/><use x="1445" y="2970" xlink:href="#tool-T6-pad-1040"/></g></mask></defs><g mask="url(#_bottom_mech-mask)" transform="rotate(180 2195 2020)"><path fill="currentColor" d="M840 965h2710v2110H840z" class="_board-fr4"/><use class="_board-cu" xlink:href="#_bottom-cu"/><defs><g id="_bottom-sm" fill="currentColor" stroke="currentColor"><use x="1395" y="1070" xlink:href="#tool-D10-pad-1104"/><use x="3445" y="1270" xlink:href="#tool-D10-pad-1104"/><use x="3445" y="2370" xlink:href="#tool-D10-pad-1104"/><use x="1445" y="2970" xlink:href="#tool-D10-pad-1104"/><path fill="none" stroke-width="60" d="M1585 2984v-28m100 0v28m100 0v-28m100 0v28m100 0v-28m100 0v28m100 0v-28m100 0v28m100 0v-28m100 0v28m160 0v-28m100 0v28m100 0v-28m100 0v28m100 0v-28m100 0v28m100 0v-28m100 0v28m-25-1205v-28m-100 0v28m-100 0v-28m-100 0v28m-100 0v-28m-100 0v28m-100 0v-28m-100 0v28m-100 0v-28m-100 0v28m-100 0v-28m-100 0v28m-100 0v-28m-100 0v28m0-300v-28m100 0v28m100 0v-28m100 0v28m100 0v-28m100 0v28m100 0v-28m100 0v28m100 0v-28m100 0v28m100 0v-28m100 0v28m100 0v-28m100 0v28m25-395v-28m-100 0v28m-100 0v-28m-100 0v28m-100 0v-28m-100 0v28m-200 0v-28m-100 0v28m-100 0v-28m-100 0v28m-100 0v-28m-100 0v28m-100 0v-28m-100 0v28"/><use x="3350" y="1970" xlink:href="#tool-D12-pad-1106"/><use x="3450" y="1970" xlink:href="#tool-D12-pad-1106"/><use x="3450" y="2070" xlink:href="#tool-D12-pad-1106"/><use x="3350" y="2070" xlink:href="#tool-D12-pad-1106"/><use x="3350" y="2170" xlink:href="#tool-D12-pad-1106"/><use x="3450" y="2170" xlink:href="#tool-D12-pad-1106"/><use x="1665" y="2740" xlink:href="#tool-D12-pad-1106"/><use x="1565" y="2740" xlink:href="#tool-D12-pad-1106"/><use x="1465" y="2740" xlink:href="#tool-D12-pad-1106"/><use x="1465" y="2840" xlink:href="#tool-D12-pad-1106"/><use x="1565" y="2840" xlink:href="#tool-D12-pad-1106"/><use x="1665" y="2840" xlink:href="#tool-D12-pad-1106"/><use x="1305" y="1297" xlink:href="#tool-D13-pad-1107"/><use x="1069" y="1297" xlink:href="#tool-D13-pad-1107"/><use x="1187" y="1100" xlink:href="#tool-D13-pad-1107"/><use x="1157" y="1100" xlink:href="#tool-D14-pad-1108"/><use x="1217" y="1100" xlink:href="#tool-D14-pad-1108"/><use x="1305" y="1267" xlink:href="#tool-D14-pad-1108"/><use x="1305" y="1327" xlink:href="#tool-D14-pad-1108"/><use x="1069" y="1327" xlink:href="#tool-D14-pad-1108"/><use x="1069" y="1267" xlink:href="#tool-D14-pad-1108"/><use x="1490" y="2000" xlink:href="#tool-D15-pad-1109"/><use x="1690" y="2000" xlink:href="#tool-D15-pad-1109"/><use x="1180.4" y="2420.8" xlink:href="#tool-D15-pad-1109"/><use x="1101.7" y="2420.8" xlink:href="#tool-D15-pad-1109"/><use x="1101.7" y="2519.2" xlink:href="#tool-D15-pad-1109"/><use x="1180.4" y="2519.2" xlink:href="#tool-D15-pad-1109"/><use x="1565" y="2540" xlink:href="#tool-D15-pad-1109"/><use x="1665" y="2540" xlink:href="#tool-D15-pad-1109"/><use x="1665" y="2640" xlink:href="#tool-D15-pad-1109"/><use x="1565" y="2640" xlink:href="#tool-D15-pad-1109"/><use x="995" y="2706.2" xlink:href="#tool-D16-pad-1110"/><use x="995" y="2233.8" xlink:href="#tool-D16-pad-1110"/><path fill="none" stroke-width="5" d="M1242.5 2601h45v-62h-45v62m0-57.1h45m0 4.9h-45m0 4.9h45m0 4.9h-45m0 4.9h45m0 4.9h-45m0 4.9h45m0 4.9h-45m0 4.9h45m0 4.9h-45m0 4.9h45m0 4.9h-45m60 3.2h45v-62h-45v62m0-57.1h45m0 4.9h-45m0 4.9h45m0 4.9h-45m0 4.9h45m0 4.9h-45m0 4.9h45m0 4.9h-45m0 4.9h45m0 4.9h-45m0 4.9h45m0 4.9h-45"/><use x="1295" y="2570" xlink:href="#tool-D18-pad-1112"/></g><mask id="_bottom-sm_mask" color="#000"><path fill="#fff" d="M840 965h2710v2110H840z"/><use xlink:href="#_bottom-sm"/></mask><mask id="_bottom-cu_finish-mask" color="#fff"><use xlink:href="#_bottom-cu"/></mask></defs><path fill="currentColor" d="M840 965h2710v2110H840z" class="_board-sm" mask="url(#_bottom-sm_mask)"/><use class="_board-cf" mask="url(#_bottom-cu_finish-mask)" xlink:href="#_bottom-sm"/></g><style>._board-fr4{color:#4d542c}._board-cu{color:#d3d3d3}._board-cf{color:silver}._board-sm{color:#001e68;opacity:.9}._board-ss{color:#fff}._board-sp{color:silver;opacity:0}._board-out{color:#000}</style></svg>