<svg xmlns="http://www.w3.org/2000/svg" id="_bottom" stroke-width="0" xmlns:xlink="http://www.w3.org/1999/xlink" stroke-linecap="round" stroke-linejoin="round" viewBox="96 256 3943 3148"><defs><circle id="tool-D140-pad-1009" r="71"/><circle id="tool-D141-pad-1008" r="51.85"/><circle id="tool-D146-pad-1003" r="13.9"/><circle id="tool-D168-pad-1026" r="77"/><circle id="tool-D169-pad-1025" r="56.85"/><circle id="tool-T153-pad-1072" r="6"/><circle id="tool-T152-pad-1073" r="39.5"/><circle id="tool-T151-pad-1074" r="63"/><g id="_bottom-cu" fill="currentColor" stroke="currentColor"><path d="M355 1115v70h630v-70H841.25l-.58.67-.95.82-1.08.66-1.16.48-1.22.3-1.26.07-51.26-.07-1.22-.3-1.16-.48-1.08-.66-.95-.82-.58-.67h-77.5l-.58.67-.95.82-1.08.66-1.16.48-1.22.3-1.26.07-51.26-.07-1.22-.3-1.16-.48-1.08-.66-.95-.82-.58-.67h-77.5l-.58.67-.95.82-1.08.66-1.16.48-1.22.3-1.26.07-51.26-.07-1.22-.3-1.16-.48-1.08-.66-.95-.82-.58-.67H355zM355 1795v70h630v-70H841.25l-.58.67-.95.82-1.08.66-1.16.48-1.22.3-1.26.07-51.26-.07-1.22-.3-1.16-.48-1.08-.66-.95-.82-.58-.67h-77.5l-.58.67-.95.82-1.08.66-1.16.48-1.22.3-1.26.07-51.26-.07-1.22-.3-1.16-.48-1.08-.66-.95-.82-.58-.67h-77.5l-.58.67-.95.82-1.08.66-1.16.48-1.22.3-1.26.07-51.26-.07-1.22-.3-1.16-.48-1.08-.66-.95-.82-.58-.67H355zM355 2475v70h630v-70H841.25l-.58.67-.95.82-1.08.66-1.16.48-1.22.3-1.26.07-51.26-.07-1.22-.3-1.16-.48-1.08-.66-.95-.82-.58-.67h-77.5l-.58.67-.95.82-1.08.66-1.16.48-1.22.3-1.26.07-51.26-.07-1.22-.3-1.16-.48-1.08-.66-.95-.82-.58-.67h-77.5l-.58.67-.95.82-1.08.66-1.16.48-1.22.3-1.26.07-51.26-.07-1.22-.3-1.16-.48-1.08-.66-.95-.82-.58-.67H355zM1035 2475v70h630v-70h-143.75l-.58.67-.95.82-1.08.66-1.16.48-1.22.3-1.26.07-51.26-.07-1.22-.3-1.16-.48-1.08-.66-.95-.82-.58-.67h-77.5l-.58.67-.95.82-1.08.66-1.16.48-1.22.3-1.26.07-51.26-.07-1.22-.3-1.16-.48-1.08-.66-.95-.82-.58-.67h-77.5l-.58.67-.95.82-1.08.66-1.16.48-1.22.3-1.26.07-51.26-.07-1.22-.3-1.16-.48-1.08-.66-.95-.82-.58-.67H1035zM1035 1115v70h630v-70h-143.75l-.58.67-.95.82-1.08.66-1.16.48-1.22.3-1.26.07-51.26-.07-1.22-.3-1.16-.48-1.08-.66-.95-.82-.58-.67h-77.5l-.58.67-.95.82-1.08.66-1.16.48-1.22.3-1.26.07-51.26-.07-1.22-.3-1.16-.48-1.08-.66-.95-.82-.58-.67h-77.5l-.58.67-.95.82-1.08.66-1.16.48-1.22.3-1.26.07-51.26-.07-1.22-.3-1.16-.48-1.08-.66-.95-.82-.58-.67H1035zM1035 1795v70h630v-70h-143.75l-.58.67-.95.82-1.08.66-1.16.48-1.22.3-1.26.07-51.26-.07-1.22-.3-1.16-.48-1.08-.66-.95-.82-.58-.67h-77.5l-.58.67-.95.82-1.08.66-1.16.48-1.22.3-1.26.07-51.26-.07-1.22-.3-1.16-.48-1.08-.66-.95-.82-.58-.67h-77.5l-.58.67-.95.82-1.08.66-1.16.48-1.22.3-1.26.07-51.26-.07-1.22-.3-1.16-.48-1.08-.66-.95-.82-.58-.67H1035zM3879.79 1467h29.5l.71-.06 2.82.23 2.76.66 2.62 1.08 2.41 1.48 2.16 1.84.46.54 53.77 53.77V1285l.21-3.61.85-3.52 1.38-3.34 1.9-3.09 2.35-2.75 2.75-2.35 3.09-1.9 3.34-1.38 3.52-.85 3.61-.28 3.61.28 3.52.85 3.34 1.38 3.09 1.9 2.75 2.35 2.35 2.75 1.9 3.09 1.38 3.34.85 3.52.21 3.61V361.42l-.08-1.42-.25-7.67-1.01-7.61-1.66-7.5-2.31-7.32-2.93-7.09-3.55-6.81-4.12-6.47-4.68-6.1-5.18-5.66-5.66-5.18-6.1-4.68-6.47-4.12-6.81-3.55-7.09-2.93-7.32-2.31-7.5-1.66-7.61-1.01-7.67-.33h-55.21v9.61l.21-.02 20.87 1.64 20.36 4.89 19.34 8.01 17.85 10.94 15.92 13.59 13.59 15.92 10.94 17.85 8.01 19.34 4.89 20.36L4013 415l-1.23 20.87-4.89 20.36-8.01 19.34-10.94 17.85-13.59 15.92-15.92 13.59-17.85 10.94-19.34 8.01-20.36 4.89-20.87 1.64-.21-.02V1467z"/><path d="M3645.01 1467H3752v-279.45l-1.58-2.57-1.32-3.19-.8-3.35-.27-3.44.27-3.44.8-3.35 1.32-3.19 1.8-2.94 2.24-2.62 2.62-2.24 2.94-1.8 3.19-1.32 3.35-.8 3.44-.27 3.44.27 3.35.8 3.19 1.32 2.94 1.8 2.62 2.24 2.24 2.62 1.8 2.94 1.32 3.19.8 3.35.2 3.44-.2 3.44-.8 3.35-1.32 3.19-1.58 2.57V1467h91.79V548.39l-20.66-1.62-20.36-4.89-19.34-8.01-17.85-10.94-15.92-13.59-13.59-15.92-10.94-17.85-8.01-19.34-4.89-20.36-1.64-20.87 1.64-20.87 4.89-20.36 8.01-19.34 10.94-17.85 13.59-15.92 15.92-13.59 17.85-10.94 19.34-8.01 20.36-4.89 20.66-1.62V272h-234.78v1195zM3832.67 2024.5h89.58l.96-.4 3.35-.8 3.44-.27 3.44.27 3.35.8 3.19 1.32 2.94 1.8 2.62 2.24 1.46 1.72v-483.72l-44.46-44.46h-69.87v373.97l.13.01.62.1.59.2.56.29.51.37.44.45.37.52.28.56.17.6.38 1.95.18 1.99v1.98l-.18 1.99-.35 1.95-.19.61-.28.56-.37.52-.44.45-.51.37-.56.29-.6.2-.62.11h-.13v131.46zM3815.01 2024.5h17.66v-131.46h-.5l-.63-.09-.6-.19-.57-.28-.51-.37-.45-.44-.38-.51-.29-.56-.2-.6-.11-.62v-.63l.1-.63.25-1.23.11-1.26v-1.26l-.11-1.26-.23-1.24-.11-.62.01-.63.1-.62.2-.6.29-.55.38-.51.45-.44.51-.37.56-.28.6-.19.63-.09h.5V1503h-17.66v360.1h.98l1.99.18 1.95.35.61.19.56.28.52.37.45.44.37.51.29.56.2.6.11.62v.63l-.09.63-.19.6-.28.57-.37.51-.44.45-.51.38-.56.29-.6.2-.62.11h-.63l-.63-.1-1.23-.25-1.26-.11h-.62v27.78h.62l1.26-.11 1.24-.23.62-.11.63.01.62.1.6.2.55.29.51.38.44.45.37.51.28.56.19.6.09.63-.01.63-.1.62-.2.59-.29.56-.37.51-.45.44-.52.37-.56.28-.6.17-1.95.38-1.99.18h-.98v117.6z"/><path d="M3797.33 2024.5h17.68v-117.6h-1l-1.99-.18-1.95-.35-.61-.19-.56-.28-.52-.37-.45-.44-.37-.51-.29-.56-.2-.6-.11-.62v-.63l.09-.63.19-.6.28-.57.37-.51.44-.45.51-.38.56-.29.6-.2.62-.11h.63l.63.1 1.23.25 1.26.11h.64v-27.78h-.64l-1.26.11-1.24.23-.62.11-.63-.01-.62-.1-.6-.2-.55-.29-.51-.38-.44-.45-.37-.51-.28-.56-.19-.6-.09-.63.01-.63.1-.62.2-.59.29-.56.37-.51.45-.44.52-.37.56-.28.6-.17 1.95-.38 1.99-.18h1V1503h-17.68v373.96h.5l.63.09.6.19.57.28.51.37.45.44.38.51.29.56.2.6.11.62v.63l-.1.63-.25 1.23-.11 1.26v1.26l.11 1.26.23 1.24.11.62-.01.63-.1.62-.2.6-.29.55-.38.51-.45.44-.51.37-.56.28-.6.19-.63.09h-.5v131.47zM3662.67 2024.5h134.66v-131.47l-.13-.01-.62-.1-.59-.2-.56-.29-.51-.37-.44-.45-.37-.52-.28-.56-.17-.6-.38-1.95-.18-1.99v-1.98l.18-1.99.35-1.95.19-.61.28-.56.37-.52.44-.45.51-.37.56-.29.6-.2.62-.11h.13V1503h-26.62l-.71.06-.71-.06h-106.62v398.97l.13.01.62.1.59.2.56.29.51.37.44.45.37.52.28.56.17.6.38 1.95.18 1.99v1.98l-.18 1.99-.35 1.95-.19.61-.28.56-.37.52-.44.45-.51.37-.56.29-.6.2-.62.11h-.13v106.46z"/><path d="M3645.01 2024.5h17.66v-106.46h-.5l-.63-.09-.6-.19-.57-.28-.51-.37-.45-.44-.38-.51-.29-.56-.2-.6-.11-.62v-.63l.1-.63.25-1.23.11-1.26v-1.26l-.11-1.26-.23-1.24-.11-.62.01-.63.1-.62.2-.6.29-.55.38-.51.45-.44.51-.37.56-.28.6-.19.63-.09h.5V1503h-17.66v385.1h.98l1.99.18 1.95.35.61.19.56.28.52.37.45.44.37.51.29.56.2.6.11.62v.63l-.09.63-.19.6-.28.57-.37.51-.44.45-.51.38-.56.29-.6.2-.62.11h-.63l-.63-.1-1.23-.25-1.26-.11h-.62v27.78h.62l1.26-.11 1.24-.23.62-.11.63.01.62.1.6.2.55.29.51.38.44.45.37.51.28.56.19.6.09.63-.01.63-.1.62-.2.59-.29.56-.37.51-.45.44-.52.37-.56.28-.6.17-1.95.38-1.99.18h-.98v92.6zM3817.67 2132H3947v-73.18l-1.46 1.72-2.62 2.24-2.94 1.8-3.19 1.32-3.35.8-3.44.27-3.44-.27-3.35-.8-.96-.4h-104.58v16.47l.13.01.62.1.59.2.56.29.51.37.44.45.37.52.28.56.17.6.38 1.95.18 1.99v1.98l-.18 1.99-.35 1.95-.19.61-.28.56-.37.52-.44.45-.51.37-.56.29-.6.2-.62.11h-.13V2132z"/><path d="M3800.01 2128.67l1.78.43 3.19 1.32 2.57 1.58h10.12v-33.96h-.5l-.63-.09-.6-.19-.57-.28-.51-.37-.45-.44-.38-.51-.29-.56-.2-.6-.11-.62v-.63l.1-.63.25-1.23.11-1.26v-1.26l-.11-1.26-.23-1.24-.11-.62.01-.63.1-.62.2-.6.29-.55.38-.51.45-.44.51-.37.56-.28.6-.19.63-.09h.5v-16.47h-17.66v2.6h.98l1.99.18 1.95.35.61.19.56.28.52.37.45.44.37.51.29.56.2.6.11.62v.63l-.09.63-.19.6-.28.57-.37.51-.44.45-.51.38-.56.29-.6.2-.62.11h-.63l-.63-.1-1.23-.25-1.26-.11h-.62v27.78h.62l1.26-.11 1.24-.23.62-.11.63.01.62.1.6.2.55.29.51.38.44.45.37.51.28.56.19.6.09.63-.01.63-.1.62-.2.59-.29.56-.37.51-.45.44-.52.37-.56.28-.6.17-1.95.38-1.99.19h-.98v16.76zM3897.67 2366.88l49.33-49.34V2168h-49.33v133.97l.13.01.62.1.59.2.56.29.51.37.44.45.37.52.28.56.17.6.38 1.95.18 1.99v1.98l-.18 1.99-.35 1.95-.19.61-.28.56-.37.52-.44.45-.51.37-.56.29-.6.2-.62.11h-.13v48.84z"/><path d="M3880.01 2367h17.53l.13-.12v-48.84h-.5l-.63-.09-.6-.19-.57-.28-.51-.37-.45-.44-.38-.51-.29-.56-.2-.6-.11-.62v-.63l.1-.63.25-1.23.11-1.26v-1.26l-.11-1.26-.23-1.24-.11-.62.01-.63.1-.62.2-.6.29-.55.38-.51.45-.44.51-.37.56-.28.6-.19.63-.09h.5V2168h-17.66v120.1h.98l1.99.18 1.95.35.61.19.56.28.52.37.45.44.37.51.29.56.2.6.11.62v.63l-.09.63-.19.6-.28.57-.37.51-.44.45-.51.38-.56.29-.6.2-.62.11h-.63l-.63-.1-1.23-.25-1.26-.11h-.62v27.78h.62l1.26-.11 1.24-.23.62-.11.63.01.62.1.6.2.55.29.51.38.44.45.37.51.28.56.19.6.09.63-.01.63-.1.62-.2.59-.29.56-.37.51-.45.44-.52.37-.56.28-.6.17-1.95.38-1.99.19h-.98V2367z"/><path d="M3862.33 2367h17.68v-35.09h-1l-1.99-.19-1.95-.35-.61-.19-.56-.28-.52-.37-.45-.44-.37-.51-.29-.56-.2-.6-.11-.62v-.63l.09-.63.19-.6.28-.57.37-.51.44-.45.51-.38.56-.29.6-.2.62-.11h.63l.63.1 1.23.25 1.26.11h.64v-27.78h-.64l-1.26.11-1.24.23-.62.11-.63-.01-.62-.1-.6-.2-.55-.29-.51-.38-.44-.45-.37-.51-.28-.56-.19-.6-.09-.63.01-.63.1-.62.2-.59.29-.56.37-.51.45-.44.52-.37.56-.28.6-.17 1.95-.38 1.99-.18h1V2168h-17.68v133.96h.5l.63.09.6.19.57.28.51.37.45.44.38.51.29.56.2.6.11.62v.63l-.1.63-.25 1.23-.11 1.26v1.26l.11 1.26.23 1.24.11.62-.01.63-.1.62-.2.6-.29.55-.38.51-.45.44-.51.37-.56.28-.6.19-.63.09h-.5V2367z"/><path d="M3800.01 2376.03l.41-1.01 1.8-2.94 2.24-2.62 2.62-2.24 2.94-1.8 3.19-1.32 3.35-.8 3.44-.27 3.44.27 3.35.8 3.19 1.32 2.57 1.58h29.78v-48.97l-.13-.01-.62-.1-.59-.2-.56-.29-.51-.37-.44-.45-.37-.52-.28-.56-.17-.6-.38-1.95-.18-1.99v-1.98l.18-1.99.35-1.95.19-.61.28-.56.37-.52.44-.45.51-.37.56-.29.6-.2.62-.11h.13V2168h-54.78l-2.57 1.58-3.19 1.32-1.78.43v204.7zM3800.01 2644.5H3977v-306.04l-58.77 58.77-.46.54-2.16 1.84-2.41 1.48-2.62 1.08-2.76.66-2.82.23-.71-.06h-71.74l-2.57 1.58-3.19 1.32-3.35.8-3.44.27-3.44-.27-3.35-.8-3.19-1.32-2.94-1.8-2.62-2.24-2.24-2.62-1.8-2.94-.41-1.01v250.53zM3782.33 2132.07l2.69-1.65 3.19-1.32 3.35-.8 3.44-.27 3.44.27 1.57.37v-16.76h-1l-1.99-.19-1.95-.35-.61-.19-.56-.28-.52-.37-.45-.44-.37-.51-.29-.56-.2-.6-.11-.62v-.63l.09-.63.19-.6.28-.57.37-.51.44-.45.51-.38.56-.29.6-.2.62-.11h.63l.63.1 1.23.25 1.26.11h.64v-27.78h-.64l-1.26.11-1.24.23-.62.11-.63-.01-.62-.1-.6-.2-.55-.29-.51-.38-.44-.45-.37-.51-.28-.56-.19-.6-.09-.63.01-.63.1-.62.2-.59.29-.56.37-.51.45-.44.52-.37.56-.28.6-.17 1.95-.38 1.99-.18h1v-2.6h-17.68v16.46h.5l.63.09.6.19.57.28.51.37.45.44.38.51.29.56.2.6.11.62v.63l-.1.63-.25 1.23-.11 1.26v1.26l.11 1.26.23 1.24.11.62-.01.63-.1.62-.2.6-.29.55-.38.51-.45.44-.51.37-.56.28-.6.19-.63.09h-.5v34.04z"/><path d="M3782.33 2644.5h17.68v-250.53l-.91-2.18-.8-3.35-.27-3.44.27-3.44.8-3.35.91-2.18v-204.7l-1.57.37-3.44.27-3.44-.27-3.35-.8-3.19-1.32-2.69-1.65v476.57z"/><path d="M3707.67 2644.5h9.58l.96-.4 3.35-.8 3.44-.27 3.44.27 3.35.8.96.4h49.58v-476.57l-.25-.15-2.62-2.24-2.24-2.62-1.8-2.94-1.32-3.19-.8-3.35-.27-3.44.27-3.44.8-3.35 1.32-3.19 1.8-2.94 2.24-2.62 2.62-2.24.25-.15v-34.04l-.13-.01-.62-.1-.59-.2-.56-.29-.51-.37-.44-.45-.37-.52-.28-.56-.17-.6-.38-1.95-.18-1.99v-1.98l.18-1.99.35-1.95.19-.61.28-.56.37-.52.44-.45.51-.37.56-.29.6-.2.62-.11h.13v-16.46h-74.66v46.47l.13.01.62.1.59.2.56.29.51.37.44.45.37.52.28.56.17.6.38 1.95.18 1.99v1.98l-.18 1.99-.35 1.95-.19.61-.28.56-.37.52-.44.45-.51.37-.56.29-.6.2-.62.11h-.13v516.46z"/><path d="M3690.01 2644.5h17.66v-516.46h-.5l-.63-.09-.6-.19-.57-.28-.51-.37-.45-.44-.38-.51-.29-.56-.2-.6-.11-.62v-.63l.1-.63.25-1.23.11-1.26v-1.26l-.11-1.26-.23-1.24-.11-.62.01-.63.1-.62.2-.6.29-.55.38-.51.45-.44.51-.37.56-.28.6-.19.63-.09h.5v-46.47h-17.66v32.6h.98l1.99.18 1.95.35.61.19.56.28.52.37.45.44.37.51.29.56.2.6.11.62v.63l-.09.63-.19.6-.28.57-.37.51-.44.45-.51.38-.56.29-.6.2-.62.11h-.63l-.63-.1-1.23-.25-1.26-.11h-.62v27.78h.62l1.26-.11 1.24-.23.62-.11.63.01.62.1.6.2.55.29.51.38.44.45.37.51.28.56.19.6.09.63-.01.63-.1.62-.2.59-.29.56-.37.51-.45.44-.52.37-.56.28-.6.17-1.95.38-1.99.19h-.98v502.59z"/><path d="M3672.33 2644.5h17.68v-502.59h-1l-1.99-.19-1.95-.35-.61-.19-.56-.28-.52-.37-.45-.44-.37-.51-.29-.56-.2-.6-.11-.62v-.63l.09-.63.19-.6.28-.57.37-.51.44-.45.51-.38.56-.29.6-.2.62-.11h.63l.63.1 1.23.25 1.26.11h.64v-27.78h-.64l-1.26.11-1.24.23-.62.11-.63-.01-.62-.1-.6-.2-.55-.29-.51-.38-.44-.45-.37-.51-.28-.56-.19-.6-.09-.63.01-.63.1-.62.2-.59.29-.56.37-.51.45-.44.52-.37.56-.28.6-.17 1.95-.38 1.99-.18h1v-32.6h-17.68v46.46h.5l.63.09.6.19.57.28.51.37.45.44.38.51.29.56.2.6.11.62v.63l-.1.63-.25 1.23-.11 1.26v1.26l.11 1.26.23 1.24.11.62-.01.63-.1.62-.2.6-.29.55-.38.51-.45.44-.51.37-.56.28-.6.19-.63.09h-.5v516.47z"/><path d="M3645.01 2644.5h27.32v-516.47l-.13-.01-.62-.1-.59-.2-.56-.29-.51-.37-.44-.45-.37-.52-.28-.56-.17-.6-.38-1.95-.18-1.99v-1.98l.18-1.99.35-1.95.19-.61.28-.56.37-.52.44-.45.51-.37.56-.29.6-.2.62-.11h.13v-46.46h-27.32v579zM3882.67 3388h50.91l1.42-.08 7.67-.25 7.61-1.01 7.5-1.66 7.32-2.31 7.09-2.93 6.81-3.55 6.47-4.12 6.1-4.68 5.66-5.18 5.18-5.66 4.68-6.1 4.12-6.47 3.55-6.81 2.93-7.09 2.31-7.32 1.66-7.5 1.01-7.61.33-7.67v-304.1l-.21 2.71-.85 3.52-1.38 3.34-1.9 3.09-2.35 2.75-.68.59-19.37 19.36-2.7 2.4-3.09 1.9-3.34 1.38-3.52.85-3.61.28-3.61-.28-3.52-.85-3.34-1.38-3.09-1.9-2.75-2.35-2.35-2.75-1.9-3.09-1.38-3.34-.85-3.52-.28-3.61.28-3.61.85-3.52 1.38-3.34 1.9-3.09 2.4-2.7 13.26-13.27V2685.5h-94.33v121.47l.13.01.62.1.59.2.56.29.51.37.44.45.37.52.28.56.17.6.38 1.95.18 1.99v1.98l-.18 1.99-.35 1.95-.19.61-.28.56-.37.52-.44.45-.51.37-.56.29-.6.2-.62.11h-.13v288.76l18.2 1.43 20.36 4.89 19.34 8.01 17.85 10.94 15.92 13.59 13.59 15.92 10.94 17.85 8.01 19.34 4.89 20.36L4013 3245l-1.23 20.87-4.89 20.36-8.01 19.34-10.94 17.85-13.59 15.92-15.92 13.59-17.85 10.94-19.34 8.01-20.36 4.89-18.2 1.43v9.8z"/><path d="M3882.67 2685.5h-17.66v107.6h.98l1.99.18 1.95.35.61.19.56.28.52.37.45.44.37.51.29.56.2.6.11.62v.63l-.09.63-.19.6-.28.57-.37.51-.44.45-.51.38-.56.29-.6.2-.62.11h-.63l-.63-.1-1.23-.25-1.26-.11h-.62v27.78h.62l1.26-.11 1.24-.23.62-.11.63.01.62.1.6.2.55.29.51.38.44.45.37.51.28.56.19.6.09.63-.01.63-.1.62-.2.59-.29.56-.37.51-.45.44-.52.37-.56.28-.6.17-1.95.38-1.99.18h-.98v275.87l14.99-1.18 2.67.21v-288.76h-.5l-.63-.09-.6-.19-.57-.28-.51-.37-.45-.44-.38-.51-.29-.56-.2-.6-.11-.62v-.63l.1-.63.25-1.23.11-1.26v-1.26l-.11-1.26-.23-1.24-.11-.62.01-.63.1-.62.2-.6.29-.55.38-.51.45-.44.51-.37.56-.28.6-.19.63-.09h.5V2685.5zM3865.01 3388h17.66v-9.8l-2.67.21-14.99-1.18V3388z"/><path d="M3847.33 3116.06l11.8-2.83 5.88-.46V2836.9h-1l-1.99-.18-1.95-.35-.61-.19-.56-.28-.52-.37-.45-.44-.37-.51-.29-.56-.2-.6-.11-.62v-.63l.09-.63.19-.6.28-.57.37-.51.44-.45.51-.38.56-.29.6-.2.62-.11h.63l.63.1 1.23.25 1.26.11h.64v-27.78h-.64l-1.26.11-1.24.23-.62.11-.63-.01-.62-.1-.6-.2-.55-.29-.51-.38-.44-.45-.37-.51-.28-.56-.19-.6-.09-.63.01-.63.1-.62.2-.59.29-.56.37-.51.45-.44.52-.37.56-.28.6-.17 1.95-.38 1.99-.18h1v-107.6h-17.68v121.46h.5l.63.09.6.19.57.28.51.37.45.44.38.51.29.56.2.6.11.62v.63l-.1.63-.25 1.23-.11 1.26v1.26l.11 1.26.23 1.24.11.62-.01.63-.1.62-.2.6-.29.55-.38.51-.45.44-.51.37-.56.28-.6.19-.63.09h-.5v293.03zM3847.33 3388h17.68v-10.77l-5.88-.46-11.8-2.83V3388zM3670.52 2751.45l-25.51 25.51v427.13l.45.18 1.62.99 1.43 1.23.31.36 16.7 16.7 1.04-.25 3.44-.27 3.44.27 3.35.8 3.19 1.32 2.94 1.8 2.62 2.24 2.24 2.62 1.8 2.94 1.32 3.19.8 3.35.2 3.44-.2 3.44-.8 3.35-1.32 3.19-1.8 2.94-2.24 2.62-2.62 2.24-2.94 1.8-3.19 1.32-3.35.8-3.44.27-3.44-.27-3.35-.8-3.19-1.32-2.94-1.8-2.62-2.24-2.24-2.62-1.8-2.94-1.32-3.19-.8-3.35-.27-3.44.27-3.44.25-1.04-3.54-3.54V3388h202.32v-14.06l-8.56-2.06-19.34-8.01-17.85-10.94-15.92-13.59-13.59-15.92-10.94-17.85-8.01-19.34-4.89-20.36-1.64-20.87 1.64-20.87 4.89-20.36 8.01-19.34 10.94-17.85 13.59-15.92 15.92-13.59 17.85-10.94 19.34-8.01 8.56-2.06v-293.03l-.13-.01-.62-.1-.59-.2-.56-.29-.51-.37-.44-.45-.37-.52-.28-.56-.17-.6-.38-1.95-.18-1.99v-1.98l.18-1.99.35-1.95.19-.61.28-.56.37-.52.44-.45.51-.37.56-.29.6-.2.62-.11h.13V2685.5h-114.58l-.96.4-3.35.8-3.44.27-3.44-.27-3.35-.8-.96-.4h-72.24v57.52l8.54-8.54-.25-1.04-.27-3.44.27-3.44.8-3.35 1.32-3.19 1.8-2.94 2.24-2.62 2.62-2.24 2.94-1.8 3.19-1.32 3.35-.8 3.44-.27 3.44.27 3.35.8 3.19 1.32 2.94 1.8 2.62 2.24 2.24 2.62 1.8 2.94 1.32 3.19.8 3.35.2 3.44-.2 3.44-.8 3.35-1.32 3.19-1.8 2.94-2.24 2.62-2.62 2.24-2.94 1.8-3.19 1.32-3.35.8-3.44.27-3.44-.27-1.04-.25zM3627.33 1467h17.68V272h-17.68v1195zM3627.33 2018.34l6.16 6.16h11.52v-92.6h-1l-1.99-.18-1.95-.35-.61-.19-.56-.28-.52-.37-.45-.44-.37-.51-.29-.56-.2-.6-.11-.62v-.63l.09-.63.19-.6.28-.57.37-.51.44-.45.51-.38.56-.29.6-.2.62-.11h.63l.63.1 1.23.25 1.26.11h.64v-27.78h-.64l-1.26.11-1.24.23-.62.11-.63-.01-.62-.1-.6-.2-.55-.29-.51-.38-.44-.45-.37-.51-.28-.56-.19-.6-.09-.63.01-.63.1-.62.2-.59.29-.56.37-.51.45-.44.52-.37.56-.28.6-.17 1.95-.38 1.99-.18h1V1503h-17.68v398.96h.5l.63.09.6.19.57.28.51.37.45.44.38.51.29.56.2.6.11.62v.63l-.1.63-.25 1.23-.11 1.26v1.26l.11 1.26.23 1.24.11.62-.01.63-.1.62-.2.6-.29.55-.38.51-.45.44-.51.37-.56.28-.6.19-.63.09h-.5v100.31zM3627.33 2644.5h17.68v-579h-17.68v579z"/><path d="M3645.01 2685.5h-17.68v75.2l17.68-17.68v-57.52zM3600.01 1463.03l3.43.27 3.35.8 3.19 1.32 2.57 1.58h14.78V272h-27.32v1191.03zM3617.67 2008.68l9.66 9.66v-100.31l-.13-.01-.62-.1-.59-.2-.56-.29-.51-.37-.44-.45-.37-.52-.28-.56-.17-.6-.38-1.95-.18-1.99v-1.98l.18-1.99.35-1.95.19-.61.28-.56.37-.52.44-.45.51-.37.56-.29.6-.2.62-.11h.13V1503h-9.66v168.97l.13.01.62.1.59.2.56.29.51.37.44.45.37.52.28.56.17.6.38 1.95.18 1.99v1.98l-.18 1.99-.35 1.95-.19.61-.28.56-.37.52-.44.45-.51.37-.56.29-.6.2-.62.11h-.13v320.64z"/><path d="M3600.01 1991.02l17.66 17.66v-320.64h-.5l-.63-.09-.6-.19-.57-.28-.51-.37-.45-.44-.38-.51-.29-.56-.2-.6-.11-.62v-.63l.1-.63.25-1.23.11-1.26v-1.26l-.11-1.26-.23-1.24-.11-.62.01-.63.1-.62.2-.6.29-.55.38-.51.45-.44.51-.37.56-.28.6-.19.63-.09h.5V1503h-5.12l-2.57 1.58-3.19 1.32-3.35.8-3.43.27v151.13h.98l1.99.18 1.95.35.61.19.56.28.52.37.45.44.37.51.29.56.2.6.11.62v.63l-.09.63-.19.6-.28.57-.37.51-.44.45-.51.38-.56.29-.6.2-.62.11h-.63l-.63-.1-1.23-.25-1.26-.11h-.62v27.78h.62l1.26-.11 1.24-.23.62-.11.63.01.62.1.6.2.55.29.51.38.44.45.37.51.28.56.19.6.09.63-.01.63-.1.62-.2.59-.29.56-.37.51-.45.44-.52.37-.56.28-.6.17-1.95.38-1.99.18h-.98v289.12zM3600.01 2644.5h7.24l.96-.4 3.35-.8 3.44-.27 3.44.27 3.35.8.96.4h4.58v-579h-1.53l-.8.06-3.22-.25-3.13-.75-2.99-1.24-2.75-1.68v-.01l-2.45-2.09-.52-.61-9.93-9.93v595.5zM3627.33 2685.5h-4.58l-.96.4-3.35.8-3.44.27-3.44-.27-3.35-.8-.96-.4h-7.24v102.52l27.32-27.32v-75.2zM3582.33 1471.96l2.13-2.5 2.62-2.24 2.94-1.8 3.19-1.32 3.35-.8 3.44-.27h.01V272h-17.68v1199.96z"/><path d="M3582.33 1973.34l17.68 17.68V1701.9h-1l-1.99-.18-1.95-.35-.61-.19-.56-.28-.52-.37-.45-.44-.37-.51-.29-.56-.2-.6-.11-.62v-.63l.09-.63.19-.6.28-.57.37-.51.44-.45.51-.38.56-.29.6-.2.62-.11h.63l.63.1 1.23.25 1.26.11h.64v-27.78h-.64l-1.26.11-1.24.23-.62.11-.63-.01-.62-.1-.6-.2-.55-.29-.51-.38-.44-.45-.37-.51-.28-.56-.19-.6-.09-.63.01-.63.1-.62.2-.59.29-.56.37-.51.45-.44.52-.37.56-.28.6-.17 1.95-.38 1.99-.18h1v-151.13h-.01l-3.44-.27-3.35-.8-3.19-1.32-2.94-1.8-2.62-2.24-2.13-2.5v173.92h.5l.63.09.6.19.57.28.51.37.45.44.38.51.29.56.2.6.11.62v.63l-.1.63-.25 1.23-.11 1.26v1.26l.11 1.26.23 1.24.11.62-.01.63-.1.62-.2.6-.29.55-.38.51-.45.44-.51.37-.56.28-.6.19-.63.09h-.5v285.31zM3582.33 2644.5h17.68V2049l-17.68-17.68v613.18zM3600.01 2685.5h-17.68v120.2l17.68-17.68V2685.5z"/><path d="M3577.67 1968.68l4.66 4.66v-285.31l-.13-.01-.62-.1-.59-.2-.56-.29-.51-.37-.44-.45-.37-.52-.28-.56-.17-.6-.38-1.95-.18-1.99v-1.98l.18-1.99.35-1.95.19-.61.28-.56.37-.52.44-.45.51-.37.56-.29.6-.2.62-.11h.13v-173.92l-.11-.12-1.8-2.94-1.32-3.19-.8-3.35-.27-3.44.27-3.44.8-3.35 1.32-3.19 1.8-2.94.11-.12V272h-4.66v1039.97l.13.01.62.1.59.2.56.29.51.37.44.45.37.52.28.56.17.6.38 1.95.18 1.99v1.98l-.18 1.99-.35 1.95-.19.61-.28.56-.37.52-.44.45-.51.37-.56.29-.6.2-.62.11h-.13v640.64z"/><path d="M3560.01 1951.02l17.66 17.66v-640.64h-.5l-.63-.09-.6-.19-.57-.28-.51-.37-.45-.44-.38-.51-.29-.56-.2-.6-.11-.62v-.63l.1-.63.25-1.23.11-1.26v-1.26l-.11-1.26-.23-1.24-.11-.62.01-.63.1-.62.2-.6.29-.55.38-.51.45-.44.51-.37.56-.28.6-.19.63-.09h.5V272h-17.66v1026.1h.98l1.99.18 1.95.35.61.19.56.28.52.37.45.44.37.51.29.56.2.6.11.62v.63l-.09.63-.19.6-.28.57-.37.51-.44.45-.51.38-.56.29-.6.2-.62.11h-.63l-.63-.1-1.23-.25-1.26-.11h-.62v27.78h.62l1.26-.11 1.24-.23.62-.11.63.01.62.1.6.2.55.29.51.38.44.45.37.51.28.56.19.6.09.63-.01.63-.1.62-.2.59-.29.56-.37.51-.45.44-.52.37-.56.28-.6.17-1.95.38-1.99.18h-.98v609.12z"/><path d="M3542.33 1814.33l2.65 1.09 2.94 1.8 2.62 2.24 2.24 2.62 1.8 2.94 1.32 3.19.8 3.35.2 3.44-.2 3.44-.8 3.35-.4.96v103.76l4.51 4.51V1341.9h-1l-1.99-.18-1.95-.35-.61-.19-.56-.28-.52-.37-.45-.44-.37-.51-.29-.56-.2-.6-.11-.62v-.63l.09-.63.19-.6.28-.57.37-.51.44-.45.51-.38.56-.29.6-.2.62-.11h.63l.63.1 1.23.25 1.26.11h.64v-27.78h-.64l-1.26.11-1.24.23-.62.11-.63-.01-.62-.1-.6-.2-.55-.29-.51-.38-.44-.45-.37-.51-.28-.56-.19-.6-.09-.63.01-.63.1-.62.2-.59.29-.56.37-.51.45-.44.52-.37.56-.28.6-.17 1.95-.38 1.99-.18h1V272h-17.68v1039.96h.5l.63.09.6.19.57.28.51.37.45.44.38.51.29.56.2.6.11.62v.63l-.1.63-.25 1.23-.11 1.26v1.26l.11 1.26.23 1.24.11.62-.01.63-.1.62-.2.6-.29.55-.38.51-.45.44-.51.37-.56.28-.6.19-.63.09h-.5v486.3z"/><path d="M3520.01 1819l2.07-1.78 2.94-1.8 3.19-1.32 3.35-.8 3.44-.27 3.44.27 3.35.8.54.23v-486.3l-.13-.01-.62-.1-.59-.2-.56-.29-.51-.37-.44-.45-.37-.52-.28-.56-.17-.6-.38-1.95-.18-1.99v-1.98l.18-1.99.35-1.95.19-.61.28-.56.37-.52.44-.45.51-.37.56-.29.6-.2.62-.11h.13V272h-22.32v1547zM3537.67 2644.5h44.66v-613.18l-44.66-44.66v625.31l.13.01.62.1.59.2.56.29.51.37.44.45.37.52.28.56.17.6.38 1.95.18 1.99v1.98l-.18 1.99-.35 1.95-.19.61-.28.56-.37.52-.44.45-.51.37-.56.29-.6.2-.62.11h-.13v16.46zM3520.01 2644.5h17.66v-16.46h-.5l-.63-.09-.6-.19-.57-.28-.51-.37-.45-.44-.38-.51-.29-.56-.2-.6-.11-.62v-.63l.1-.63.25-1.23.11-1.26v-1.26l-.11-1.26-.23-1.24-.11-.62.01-.63.1-.62.2-.6.29-.55.38-.51.45-.44.51-.37.56-.28.6-.19.63-.09h.5v-625.31l-11.16-11.16h-6.5v622.6h.98l1.99.18 1.95.35.61.19.56.28.52.37.45.44.37.51.29.56.2.6.11.62v.63l-.09.63-.19.6-.28.57-.37.51-.44.45-.51.38-.56.29-.6.2-.62.11h-.63l-.63-.1-1.23-.25-1.26-.11h-.62v27.78h.62l1.26-.11 1.24-.23.62-.11.63.01.62.1.6.2.55.29.51.38.44.45.37.51.28.56.19.6.09.63-.01.63-.1.62-.2.59-.29.56-.37.51-.45.44-.52.37-.56.28-.6.17-1.95.38-1.99.18h-.98v2.6zM3582.33 2685.5h-14.66v86.47l.13.01.62.1.59.2.56.29.51.37.44.45.37.52.28.56.17.6.38 1.95.18 1.99v1.98l-.18 1.99-.35 1.95-.19.61-.28.56-.37.52-.44.45-.51.37-.56.29-.6.2-.62.11h-.13v32.32l14.66-14.66v-120.2zM3567.67 2685.5h-17.66v72.6h.98l1.99.18 1.95.35.61.19.56.28.52.37.45.44.37.51.29.56.2.6.11.62v.63l-.09.63-.19.6-.28.57-.37.51-.44.45-.51.38-.56.29-.6.2-.62.11h-.63l-.63-.1-1.23-.25-1.26-.11h-.62v27.78h.62l1.26-.11 1.24-.23.62-.11.63.01.62.1.6.2.55.29.51.38.44.45.37.51.28.56.19.6.09.63-.01.63-.1.62-.2.59-.29.56-.37.51-.45.44-.52.37-.56.28-.6.17-1.95.38-1.99.18h-.98v36.12l17.66-17.66v-32.32h-.5l-.63-.09-.6-.19-.57-.28-.51-.37-.45-.44-.38-.51-.29-.56-.2-.6-.11-.62v-.63l.1-.63.25-1.23.11-1.26v-1.26l-.11-1.26-.23-1.24-.11-.62.01-.63.1-.62.2-.6.29-.55.38-.51.45-.44.51-.37.56-.28.6-.19.63-.09h.5v-86.47z"/><path d="M3550.01 2685.5h-17.68v86.46h.5l.63.09.6.19.57.28.51.37.45.44.38.51.29.56.2.6.11.62v.63l-.1.63-.25 1.23-.11 1.26v1.26l.11 1.26.23 1.24.11.62-.01.63-.1.62-.2.6-.29.55-.38.51-.45.44-.51.37-.56.28-.6.19-.63.09h-.5v67.67l17.68-17.68v-36.12h-1l-1.99-.18-1.95-.35-.61-.19-.56-.28-.52-.37-.45-.44-.37-.51-.29-.56-.2-.6-.11-.62v-.63l.09-.63.19-.6.28-.57.37-.51.44-.45.51-.38.56-.29.6-.2.62-.11h.63l.63.1 1.23.25 1.26.11h.64v-27.78h-.64l-1.26.11-1.24.23-.62.11-.63-.01-.62-.1-.6-.2-.55-.29-.51-.38-.44-.45-.37-.51-.28-.56-.19-.6-.09-.63.01-.63.1-.62.2-.59.29-.56.37-.51.45-.44.52-.37.56-.28.6-.17 1.95-.38 1.99-.18h1v-72.6zM3532.33 2685.5h-12.32v182.52l12.32-12.32v-67.67l-.13-.01-.62-.1-.59-.2-.56-.29-.51-.37-.44-.45-.37-.52-.28-.56-.17-.6-.38-1.95-.18-1.99v-1.98l.18-1.99.35-1.95.19-.61.28-.56.37-.52.44-.45.51-.37.56-.29.6-.2.62-.11h.13v-86.46zM3502.33 1934.5h12.17v-91.75l-.4-.96-.8-3.35-.27-3.44.27-3.44.8-3.35 1.32-3.19 1.8-2.94 2.24-2.62.55-.46V272h-17.68v1662.5zM3502.33 2644.5h17.68v-2.6h-1l-1.99-.18-1.95-.35-.61-.19-.56-.28-.52-.37-.45-.44-.37-.51-.29-.56-.2-.6-.11-.62v-.63l.09-.63.19-.6.28-.57.37-.51.44-.45.51-.38.56-.29.6-.2.62-.11h.63l.63.1 1.23.25 1.26.11h.64v-27.78h-.64l-1.26.11-1.24.23-.62.11-.63-.01-.62-.1-.6-.2-.55-.29-.51-.38-.44-.45-.37-.51-.28-.56-.19-.6-.09-.63.01-.63.1-.62.2-.59.29-.56.37-.51.45-.44.52-.37.56-.28.6-.17 1.95-.38 1.99-.18h1v-622.6h-17.68v636.46h.5l.63.09.6.19.57.28.51.37.45.44.38.51.29.56.2.6.11.62v.63l-.1.63-.25 1.23-.11 1.26v1.26l.11 1.26.23 1.24.11.62-.01.63-.1.62-.2.6-.29.55-.38.51-.45.44-.51.37-.56.28-.6.19-.63.09h-.5v16.47z"/><path d="M3520.01 2685.5h-17.68v200.2l17.68-17.68V2685.5zM3387.67 1934.5h114.66V272h-114.66v1629.97l.13.01.62.1.59.2.56.29.51.37.44.45.37.52.28.56.17.6.38 1.95.18 1.99v1.98l-.18 1.99-.35 1.95-.19.61-.28.56-.37.52-.44.45-.51.37-.56.29-.6.2-.62.11h-.13v16.46zM3370.01 1934.5h17.66v-16.46h-.5l-.63-.09-.6-.19-.57-.28-.51-.37-.45-.44-.38-.51-.29-.56-.2-.6-.11-.62v-.63l.1-.63.25-1.23.11-1.26v-1.26l-.11-1.26-.23-1.24-.11-.62.01-.63.1-.62.2-.6.29-.55.38-.51.45-.44.51-.37.56-.28.6-.19.63-.09h.5V272h-17.66v1616.1h.98l1.99.18 1.95.35.61.19.56.28.52.37.45.44.37.51.29.56.2.6.11.62v.63l-.09.63-.19.6-.28.57-.37.51-.44.45-.51.38-.56.29-.6.2-.62.11h-.63l-.63-.1-1.23-.25-1.26-.11h-.62v27.78h.62l1.26-.11 1.24-.23.62-.11.63.01.62.1.6.2.55.29.51.38.44.45.37.51.28.56.19.6.09.63-.01.63-.1.62-.2.59-.29.56-.37.51-.45.44-.52.37-.56.28-.6.17-1.95.38-1.99.18h-.98v2.6zM3370.01 2644.5h132.32v-16.47l-.13-.01-.62-.1-.59-.2-.56-.29-.51-.37-.44-.45-.37-.52-.28-.56-.17-.6-.38-1.95-.18-1.99v-1.98l.18-1.99.35-1.95.19-.61.28-.56.37-.52.44-.45.51-.37.56-.29.6-.2.62-.11h.13V1975.5h-132.32V2113h11.65l.56-.92 2.24-2.62 2.62-2.24 2.94-1.8 3.19-1.32 3.35-.8 3.44-.27 3.44.27 3.35.8 3.19 1.32 2.94 1.8 2.62 2.24 2.24 2.62 1.8 2.94 1.32 3.19.8 3.35.2 3.44-.2 3.44-.8 3.35-1.32 3.19-1.8 2.94-2.24 2.62-2.62 2.24-2.94 1.8-3.19 1.32-3.35.8-3.44.27-3.44-.27-3.35-.8-3.19-1.32-2.94-1.8-2.62-2.24-2.24-2.62-.56-.92h-11.65v507.5z"/><path d="M3502.33 2685.5h-114.66v146.47l.13.01.62.1.59.2.56.29.51.37.44.45.37.52.28.56.17.6.38 1.95.18 1.99v1.98l-.18 1.99-.35 1.95-.19.61-.28.56-.37.52-.44.45-.51.37-.56.29-.6.2-.62.11h-.13V2938h62.36l52.3-52.3v-200.2zM3387.67 2685.5h-17.66v132.6h.98l1.99.18 1.95.35.61.19.56.28.52.37.45.44.37.51.29.56.2.6.11.62v.63l-.09.63-.19.6-.28.57-.37.51-.44.45-.51.38-.56.29-.6.2-.62.11h-.63l-.63-.1-1.23-.25-1.26-.11h-.62v27.78h.62l1.26-.11 1.24-.23.62-.11.63.01.62.1.6.2.55.29.51.38.44.45.37.51.28.56.19.6.09.63-.01.63-.1.62-.2.59-.29.56-.37.51-.45.44-.52.37-.56.28-.6.17-1.95.38-1.99.18h-.98v76.1h17.66v-89.96h-.5l-.63-.09-.6-.19-.57-.28-.51-.37-.45-.44-.38-.51-.29-.56-.2-.6-.11-.62v-.63l.1-.63.25-1.23.11-1.26v-1.26l-.11-1.26-.23-1.24-.11-.62.01-.63.1-.62.2-.6.29-.55.38-.51.45-.44.51-.37.56-.28.6-.19.63-.09h.5V2685.5zM3352.33 1934.5h17.68v-2.6h-1l-1.99-.18-1.95-.35-.61-.19-.56-.28-.52-.37-.45-.44-.37-.51-.29-.56-.2-.6-.11-.62v-.63l.09-.63.19-.6.28-.57.37-.51.44-.45.51-.38.56-.29.6-.2.62-.11h.63l.63.1 1.23.25 1.26.11h.64v-27.78h-.64l-1.26.11-1.24.23-.62.11-.63-.01-.62-.1-.6-.2-.55-.29-.51-.38-.44-.45-.37-.51-.28-.56-.19-.6-.09-.63.01-.63.1-.62.2-.59.29-.56.37-.51.45-.44.52-.37.56-.28.6-.17 1.95-.38 1.99-.18h1V272h-17.68v1629.96h.5l.63.09.6.19.57.28.51.37.45.44.38.51.29.56.2.6.11.62v.63l-.1.63-.25 1.23-.11 1.26v1.26l.11 1.26.23 1.24.11.62-.01.63-.1.62-.2.6-.29.55-.38.51-.45.44-.51.37-.56.28-.6.19-.63.09h-.5v16.47zM3370.01 1975.5h-17.68V2113h17.68v-137.5z"/><path d="M3352.33 1975.5h-16.53l-.8.06-3.22-.25-3.13-.75-2.99-1.24-2.75-1.68-2.45-2.1-.52-.61-23.87-23.87-.61-.52-2.1-2.45-1.68-2.75-1.24-2.99-.75-3.13v-.01l-.25-3.21.06-.8v-11.45l-.4-.96-.8-3.35-.27-3.44.27-3.44.8-3.35 1.32-3.19 1.8-2.94 2.24-2.62 2.62-2.24 2.94-1.8 3.19-1.32 3.35-.8 3.44-.27 3.44.27 3.35.8 3.19 1.32 2.94 1.8 2.62 2.24 2.24 2.62 1.8 2.94 1.32 3.19.8 3.35.2 3.44-.2 3.44-.8 3.35-.4.96v3.76l12.99 12.99h8.84v-16.47l-.13-.01-.62-.1-.59-.2-.56-.29-.51-.37-.44-.45-.37-.52-.28-.56-.17-.6-.38-1.95-.18-1.99v-1.98l.18-1.99.35-1.95.19-.61.28-.56.37-.52.44-.45.51-.37.56-.29.6-.2.62-.11h.13V272h-89.66v11.05l38.59.02 1.22.3 1.16.48 1.08.66.95.82.82.95.66 1.08.48 1.16.3 1.22.07 1.26-.07 49.26-.3 1.22-.48 1.16-.66 1.08-.82.95-.95.82-1.08.66-1.16.48-1.22.3-1.26.07-37.33-.02V2055.7l57.3 57.3h32.36v-137.5zM3352.33 2638.34l6.16 6.16h11.52V2137h-17.68v501.34zM3370.01 2685.5h-17.68v146.46h.5l.63.09.6.19.57.28.51.37.45.44.38.51.29.56.2.6.11.62v.63l-.1.63-.25 1.23-.11 1.26v1.26l.11 1.26.23 1.24.11.62-.01.63-.1.62-.2.6-.29.55-.38.51-.45.44-.51.37-.56.28-.6.19-.63.09h-.5v81.3l2.65 1.09 2.94 1.8 2.62 2.24 2.24 2.62.56.92h6.67v-76.1h-1l-1.99-.18-1.95-.35-.61-.19-.56-.28-.52-.37-.45-.44-.37-.51-.29-.56-.2-.6-.11-.62v-.63l.09-.63.19-.6.28-.57.37-.51.44-.45.51-.38.56-.29.6-.2.62-.11h.63l.63.1 1.23.25 1.26.11h.64v-27.78h-.64l-1.26.11-1.24.23-.62.11-.63-.01-.62-.1-.6-.2-.55-.29-.51-.38-.44-.45-.37-.51-.28-.56-.19-.6-.09-.63.01-.63.1-.62.2-.59.29-.56.37-.51.45-.44.52-.37.56-.28.6-.17 1.95-.38 1.99-.18h1v-132.6z"/><path d="M3352.33 2685.5h-1.53l-.8.06-3.22-.25-3.13-.75-2.99-1.24-2.75-1.68-2.45-2.1-.52-.61-53.96-53.96-.96-.39-2.94-1.8-2.62-2.24-2.24-2.62-1.8-2.94-1.32-3.19-.8-3.35-.27-3.44.27-3.44.8-3.35 1.32-3.19 1.8-2.94 2.24-2.62 2.62-2.24 2.94-1.8 3.19-1.32 3.35-.8 3.44-.27 3.44.27 3.35.8 3.19 1.32 2.94 1.8 2.62 2.24 2.24 2.62 1.8 2.94.39.96 42.36 42.36V2137h-36.86l-.47.04-1.88-.15-1.84-.44-1.74-.72-1.62-.99-1.43-1.23-.31-.36-43.51-43.51v457.33l.13.01.62.1.59.2.56.29.51.37.44.45.37.52.28.56.17.6.38 1.95.18 1.99v1.98l-.18 1.99-.35 1.95-.19.61-.28.56-.37.52-.44.45-.51.37-.56.29-.6.2-.62.11h-.13V2938h63.99l.56-.92 2.24-2.62 2.62-2.24 2.94-1.8 3.19-1.32 3.35-.8 3.44-.27 3.44.27 3.35.8.54.23v-81.3l-.13-.01-.62-.1-.59-.2-.56-.29-.51-.37-.44-.45-.37-.52-.28-.56-.17-.6-.38-1.95-.18-1.99v-1.98l.18-1.99.35-1.95.19-.61.28-.56.37-.52.44-.45.51-.37.56-.29.6-.2.62-.11h.13V2685.5zM3262.67 2089.64l-17.66-17.66v461.12h.98l1.99.18 1.95.35.61.19.56.28.52.37.45.44.37.51.29.56.2.6.11.62v.63l-.09.63-.19.6-.28.57-.37.51-.44.45-.51.38-.56.29-.6.2-.62.11h-.63l-.63-.1-1.23-.25-1.26-.11h-.62v27.78h.62l1.26-.11 1.24-.23.62-.11.63.01.62.1.6.2.55.29.51.38.44.45.37.51.28.56.19.6.09.63-.01.63-.1.62-.2.59-.29.56-.37.51-.45.44-.52.37-.56.28-.6.17-1.95.38-1.99.19h-.98V2938h17.66v-374.96h-.5l-.63-.09-.6-.19-.57-.28-.51-.37-.45-.44-.38-.51-.29-.56-.2-.6-.11-.62v-.63l.1-.63.25-1.23.11-1.26v-1.26l-.11-1.26-.23-1.24-.11-.62.01-.63.1-.62.2-.6.29-.55.38-.51.45-.44.51-.37.56-.28.6-.19.63-.09h.5v-457.33zM3262.67 346.98l-17.66-.01v1691.07l17.66 17.66V346.98zM3262.67 272h-17.66v11.04l17.66.01V272z"/><path d="M3245.01 2071.98l-12.01-12.01V2938h12.01v-361.09h-1l-1.99-.19-1.95-.35-.61-.19-.56-.28-.52-.37-.45-.44-.37-.51-.29-.56-.2-.6-.11-.62v-.63l.09-.63.19-.6.28-.57.37-.51.44-.45.51-.38.56-.29.6-.2.62-.11h.63l.63.1 1.23.25 1.26.11h.64v-27.78h-.64l-1.26.11-1.24.23-.62.11-.63-.01-.62-.1-.6-.2-.55-.29-.51-.38-.44-.45-.37-.51-.28-.56-.19-.6-.09-.63.01-.63.1-.62.2-.59.29-.56.37-.51.45-.44.52-.37.56-.28.6-.17 1.95-.38 1.99-.18h1v-461.12zM3245.01 346.97l-12.01-.01v1679.07l12.01 12.01V346.97zM3245.01 272H3233v11.04h12.01V272zM3645.01 3236.98l-9.98-9.98h-52.48l.37.22 2.62 2.24 2.24 2.62 1.8 2.94 1.32 3.19.8 3.35.2 3.44-.2 3.44-.8 3.35-1.32 3.19-1.8 2.94-2.24 2.62-2.62 2.24-2.94 1.8-3.19 1.32-3.35.8-3.44.27-3.44-.27-3.35-.8-3.19-1.32-2.94-1.8-2.62-2.24-2.24-2.62-.56-.92h-16.19l-.47.04-1.88-.15-1.84-.44-1.74-.72-1.62-.99-1.43-1.23-.31-.36-6.15-6.15H3233v141h412.01v-151.02zM3645.01 2776.96l-181.19 181.19-.31.36-1.43 1.23-1.62.99-1.74.72-1.84.44-1.88.15-.47-.04h-61.86v9.97l.13.01.62.1.59.2.56.29.51.37.44.45.37.52.28.56.17.6.38 1.95.18 1.99v1.98l-.18 1.99-.35 1.95-.19.61-.28.56-.37.52-.44.45-.51.37-.56.29-.6.2-.62.11h-.13V3116h50.48l1.31-1.54 2.62-2.24 2.94-1.8 3.19-1.32 3.35-.8 3.44-.27 3.44.27 3.35.8 3.19 1.32 2.94 1.8 2.62 2.24 2.24 2.62 1.8 2.94 1.32 3.19.8 3.35.2 3.44-.2 3.44-.8 3.35-1.32 3.19-1.8 2.94-2.24 2.62-2.62 2.24-2.94 1.8-3.19 1.32-3.35.8-3.44.27-3.44-.27-3.35-.8-3.19-1.32-2.94-1.8-2.62-2.24-1.31-1.54h-50.48v59h246.86l.47-.04 1.88.15 1.84.44 1.29.54v-427.13zM3392.67 3144h-.82l-1.31 1.54-2.62 2.24-2.94 1.8-3.19 1.32-3.35.8-3.44.27-3.44-.27-3.35-.8-3.19-1.32-2.94-1.8-2.62-2.24-1.31-1.54h-55.48v59h90v-59z"/><path d="M3392.67 2962h-9.66l.03.2v.63l-.09.63-.19.6-.28.57-.37.51-.44.45-.51.38-.56.29-.6.2-.62.11h-.63l-.63-.1-1.23-.25-1.26-.11h-.64v27.78h.64l1.26-.11 1.24-.23.62-.11.63.01.62.1.6.2.55.29.51.38.44.45.37.51.28.56.19.6.09.63-.01.63-.1.62-.2.59-.29.56-.37.51-.45.44-.52.37-.56.28-.6.17-1.95.38-1.99.18h-1v106.13h.01l3.44.27 3.35.8 3.19 1.32 2.94 1.8 2.62 2.24 1.31 1.54h.82v-127.96h-.5l-.63-.09-.6-.19-.57-.28-.51-.37-.45-.44-.38-.51-.29-.56-.2-.6-.11-.62v-.63l.1-.63.25-1.23.11-1.26v-1.26l-.11-1.26-.23-1.24-.11-.62.01-.63.1-.62.2-.6.29-.55.38-.51.45-.44.51-.37.56-.28.6-.19.63-.09h.5V2962z"/><path d="M3374.99 2966.11h-.62l-1.26.11-1.24.23-.62.11-.63-.01-.62-.1-.6-.2-.55-.29-.51-.38-.44-.45-.37-.51-.28-.56-.19-.6-.09-.63.01-.63.03-.2h-3.67l-.56.92-2.24 2.62-2.62 2.24-.59.35v3.83h.5l.63.09.6.19.57.28.51.37.45.44.38.51.29.56.2.6.11.62v.63l-.1.63-.25 1.23-.11 1.26v1.26l.11 1.26.23 1.24.11.62-.01.63-.1.62-.2.6-.29.55-.38.51-.45.44-.51.37-.56.28-.6.19-.63.09h-.5V3116h.82l1.31-1.54 2.62-2.24 2.94-1.8 3.19-1.32 3.35-.8 3.43-.27V3001.9h-.98l-1.99-.18-1.95-.35-.61-.19-.56-.28-.52-.37-.45-.44-.37-.51-.29-.56-.2-.6-.11-.62v-.63l.09-.63.19-.6.28-.57.37-.51.44-.45.51-.38.56-.29.6-.2.62-.11h.63l.63.1 1.23.25 1.26.11h.62v-27.78z"/><path d="M3357.33 2968.13l-2.35 1.45-3.19 1.32-3.35.8-3.44.27-3.44-.27-3.35-.8-3.19-1.32-2.94-1.8-2.62-2.24-2.24-2.62-.56-.92h-23.99v14.97l.13.01.62.1.59.2.56.29.51.37.44.45.37.52.28.56.17.6.38 1.95.18 1.99v1.98l-.18 1.99-.35 1.95-.19.61-.28.56-.37.52-.44.45-.51.37-.56.29-.6.2-.62.11h-.13V3116h54.66v-127.97l-.13-.01-.62-.1-.59-.2-.56-.29-.51-.37-.44-.45-.37-.52-.28-.56-.17-.6-.38-1.95-.18-1.99v-1.98l.18-1.99.35-1.95.19-.61.28-.56.37-.52.44-.45.51-.37.56-.29.6-.2.62-.11h.13v-3.83zM3302.67 3144h-.82l-1.31 1.54-2.62 2.24-2.94 1.8-3.19 1.32-3.35.8-3.43.27V3203h17.66v-59zM3302.67 2962h-17.66v1.1h.98l1.99.18 1.95.35.61.19.56.28.52.37.45.44.37.51.29.56.2.6.11.62v.63l-.09.63-.19.6-.28.57-.37.51-.44.45-.51.38-.56.29-.6.2-.62.11h-.63l-.63-.1-1.23-.25-1.26-.11h-.62v27.78h.62l1.26-.11 1.24-.23.62-.11.63.01.62.1.6.2.55.29.51.38.44.45.37.51.28.56.19.6.09.63-.01.63-.1.62-.2.59-.29.56-.37.51-.45.44-.52.37-.56.28-.6.17-1.95.38-1.99.18h-.98v101.13l3.43.27 3.35.8 3.19 1.32 2.94 1.8 2.62 2.24 1.31 1.54h.82v-122.96h-.5l-.63-.09-.6-.19-.57-.28-.51-.37-.45-.44-.38-.51-.29-.56-.2-.6-.11-.62v-.63l.1-.63.25-1.23.11-1.26v-1.26l-.11-1.26-.23-1.24-.11-.62.01-.63.1-.62.2-.6.29-.55.38-.51.45-.44.51-.37.56-.28.6-.19.63-.09h.5V2962zM3285.01 3151.97h-.01l-3.44-.27-3.35-.8-3.19-1.32-2.94-1.8-2.62-2.24-1.31-1.54H3233v59h52.01v-51.03z"/><path d="M3285.01 2962h-17.68v14.96h.5l.63.09.6.19.57.28.51.37.45.44.38.51.29.56.2.6.11.62v.63l-.1.63-.25 1.23-.11 1.26v1.26l.11 1.26.23 1.24.11.62-.01.63-.1.62-.2.6-.29.55-.38.51-.45.44-.51.37-.56.28-.6.19-.63.09h-.5V3116h.82l1.31-1.54 2.62-2.24 2.94-1.8 3.19-1.32 3.35-.8 3.44-.27h.01V3006.9h-1l-1.99-.18-1.95-.35-.61-.19-.56-.28-.52-.37-.45-.44-.37-.51-.29-.56-.2-.6-.11-.62v-.63l.09-.63.19-.6.28-.57.37-.51.44-.45.51-.38.56-.29.6-.2.62-.11h.63l.63.1 1.23.25 1.26.11h.64v-27.78h-.64l-1.26.11-1.24.23-.62.11-.63-.01-.62-.1-.6-.2-.55-.29-.51-.38-.44-.45-.37-.51-.28-.56-.19-.6-.09-.63.01-.63.1-.62.2-.59.29-.56.37-.51.45-.44.52-.37.56-.28.6-.17 1.95-.38 1.99-.18h1v-1.1zM3267.33 2962H3233v154h34.33v-122.97l-.13-.01-.62-.1-.59-.2-.56-.29-.51-.37-.44-.45-.37-.52-.28-.56-.17-.6-.38-1.95-.18-1.99v-1.98l.18-1.99.35-1.95.19-.61.28-.56.37-.52.44-.45.51-.37.56-.29.6-.2.62-.11h.13V2962zM3233 2059.97l-5.67-5.67v492.66h.5l.63.09.6.19.57.28.51.37.45.44.38.51.29.56.2.6.11.62v.63l-.1.63-.25 1.23-.11 1.26v1.26l.11 1.26.23 1.24.11.62-.01.63-.1.62-.2.6-.29.55-.38.51-.45.44-.51.37-.56.28-.6.19-.63.09h-.5V2938h5.67v-878.03zM3227.33 2054.3l-82.33-82.33v726.06l3.55-3.55-.25-1.04-.27-3.44.27-3.44.8-3.35 1.32-3.19 1.8-2.94 2.24-2.62 2.62-2.24 2.94-1.8 3.19-1.32 3.35-.8 3.44-.27 3.44.27 3.35.8 3.19 1.32 2.94 1.8 2.62 2.24 2.24 2.62 1.8 2.94 1.32 3.19.8 3.35.2 3.44-.2 3.44-.8 3.35-1.32 3.19-1.8 2.94-2.24 2.62-2.62 2.24-2.94 1.8-1.02.42 1.02.42 2.94 1.8 2.62 2.24 2.24 2.62 1.8 2.94 1.32 3.19.8 3.35.2 3.44-.2 3.44-.8 3.35-1.32 3.19-1.8 2.94-2.24 2.62-2.62 2.24-2.94 1.8-3.19 1.32-3.35.8-3.44.27-3.44-.27-1.04-.25-18.52 18.52v167.48l.22-.37 2.24-2.62 2.62-2.24 2.94-1.8 3.19-1.32 3.35-.8 3.44-.27 3.44.27 3.35.8 3.19 1.32 2.94 1.8 2.62 2.24 2.24 2.62.56.92h43.99v-374.97l-.13-.01-.62-.1-.59-.2-.56-.29-.51-.37-.44-.45-.37-.52-.28-.56-.17-.6-.38-1.95-.18-1.99v-1.98l.18-1.99.35-1.95.19-.61.28-.56.37-.52.44-.45.51-.37.56-.29.6-.2.62-.11h.13V2054.3zM3233 272h-88v756.03l3.44.27 3.35.8 3.19 1.32 2.94 1.8 2.62 2.24 2.24 2.62 1.8 2.94 1.32 3.19.8 3.35.2 3.44-.2 3.44-.8 3.35-1.32 3.19-1.8 2.94-2.24 2.62-2.62 2.24-.92.56v173.32l.92.56 2.62 2.24 2.24 2.62 1.8 2.94 1.32 3.19.8 3.35.2 3.44-.2 3.44-.8 3.35-1.32 3.19-1.8 2.94-2.24 2.62-2.62 2.24-.92.56v173.32l.92.56 2.62 2.24 2.24 2.62 1.8 2.94 1.32 3.19.8 3.35.2 3.44-.2 3.44-.8 3.35-1.32 3.19-1.8 2.94-2.24 2.62-2.62 2.24-.92.56v173.32l.92.56 2.62 2.24 2.24 2.62 1.8 2.94 1.32 3.19.8 3.35.2 3.44-.2 3.44-.8 3.35-1.32 3.19-1.8 2.94-2.24 2.62-2.62 2.24-.92.56v251.69l76 76V346.96l-68.26-.03-1.22-.3-1.16-.48-1.08-.66-.95-.82-.82-.95-.66-1.08-.48-1.16-.3-1.22-.07-1.26.07-49.26.3-1.22.48-1.16.66-1.08.82-.95.95-.82 1.08-.66 1.16-.48 1.22-.3 1.26-.07 67 .04V272zM3233 3247h-72.53l-.47.04-1.88-.15-1.84-.44-1.74-.72-1.62-.99-1.43-1.23-.31-.36-6.18-6.18V3388h88v-141zM3212.67 3203H3233v-59h-20.33v59zM3233 2962h-20.33v9.97l.13.01.62.1.59.2.56.29.51.37.44.45.37.52.28.56.17.6.38 1.95.18 1.99v1.98l-.18 1.99-.35 1.95-.19.61-.28.56-.37.52-.44.45-.51.37-.56.29-.6.2-.62.11h-.13V3116H3233v-154zM3194.99 3203h17.68v-59h-.82l-1.31 1.54-2.62 2.24-2.94 1.8-3.19 1.32-3.35.8-3.44.27h-.01V3203z"/><path d="M3212.67 2962h-9.66l.03.2v.63l-.09.63-.19.6-.28.57-.37.51-.44.45-.51.38-.56.29-.6.2-.62.11h-.63l-.63-.1-1.23-.25-1.26-.11h-.64v27.78h.64l1.26-.11 1.24-.23.62-.11.63.01.62.1.6.2.55.29.51.38.44.45.37.51.28.56.19.6.09.63-.01.63-.1.62-.2.59-.29.56-.37.51-.45.44-.52.37-.56.28-.6.17-1.95.38-1.99.18h-1v106.13h.01l3.44.27 3.35.8 3.19 1.32 2.94 1.8 2.62 2.24 1.31 1.54h.82v-127.96h-.5l-.63-.09-.6-.19-.57-.28-.51-.37-.45-.44-.38-.51-.29-.56-.2-.6-.11-.62v-.63l.1-.63.25-1.23.11-1.26v-1.26l-.11-1.26-.23-1.24-.11-.62.01-.63.1-.62.2-.6.29-.55.38-.51.45-.44.51-.37.56-.28.6-.19.63-.09h.5V2962zM3177.33 3203h17.66v-51.03l-3.43-.27-3.35-.8-3.19-1.32-2.94-1.8-2.62-2.24-2.13-2.5V3203z"/><path d="M3194.99 2966.11h-.62l-1.26.11-1.24.23-.62.11-.63-.01-.62-.1-.6-.2-.55-.29-.51-.38-.44-.45-.37-.51-.28-.56-.19-.6-.09-.63.01-.63.03-.2h-3.67l-.56.92-2.24 2.62-2.62 2.24-.59.35v3.83h.5l.63.09.6.19.57.28.51.37.45.44.38.51.29.56.2.6.11.62v.63l-.1.63-.25 1.23-.11 1.26v1.26l.11 1.26.23 1.24.11.62-.01.63-.1.62-.2.6-.29.55-.38.51-.45.44-.51.37-.56.28-.6.19-.63.09h-.5v128.93l2.13-2.5 2.62-2.24 2.94-1.8 3.19-1.32 3.35-.8 3.43-.27V3001.9h-.98l-1.99-.18-1.95-.35-.61-.19-.56-.28-.52-.37-.45-.44-.37-.51-.29-.56-.2-.6-.11-.62v-.63l.09-.63.19-.6.28-.57.37-.51.44-.45.51-.38.56-.29.6-.2.62-.11h.63l.63.1 1.23.25 1.26.11h.62v-27.78z"/><path d="M3177.33 2968.13l-2.35 1.45-3.19 1.32-3.35.8-3.44.27-3.44-.27-3.35-.8-3.19-1.32-2.94-1.8-2.62-2.24-2.24-2.62-.22-.37v212.48l27.97 27.97h2.36v-59.96l-.11-.12-1.8-2.94-1.32-3.19-.8-3.35-.27-3.44.27-3.44.8-3.35 1.32-3.19 1.8-2.94.11-.12v-128.93l-.13-.01-.62-.1-.59-.2-.56-.29-.51-.37-.44-.45-.37-.52-.28-.56-.17-.6-.38-1.95-.18-1.99v-1.98l.18-1.99.35-1.95.19-.61.28-.56.37-.52.44-.45.51-.37.56-.29.6-.2.62-.11h.13v-3.83zM1715 1795v70h630v-70h-143.75l-.58.67-.95.82-1.08.66-1.16.48-1.22.3-1.26.07-51.26-.07-1.22-.3-1.16-.48-1.08-.66-.95-.82-.58-.67h-77.5l-.58.67-.95.82-1.08.66-1.16.48-1.22.3-1.26.07-51.26-.07-1.22-.3-1.16-.48-1.08-.66-.95-.82-.58-.67h-77.5l-.58.67-.95.82-1.08.66-1.16.48-1.22.3-1.26.07-51.26-.07-1.22-.3-1.16-.48-1.08-.66-.95-.82-.58-.67H1715zM2345 2545v-70h-143.75l-.58.67-.95.82-1.08.66-1.16.48-1.22.3-1.26.07-51.26-.07-1.22-.3-1.16-.48-1.08-.66-.95-.82-.58-.67h-77.5l-.58.67-.95.82-1.08.66-1.16.48-1.22.3-1.26.07-51.26-.07-1.22-.3-1.16-.48-1.08-.66-.95-.82-.58-.67h-77.5l-.58.67-.95.82-1.08.66-1.16.48-1.22.3-1.26.07-51.26-.07-1.22-.3-1.16-.48-1.08-.66-.95-.82-.58-.67H1715v70h630zM1715 1115v70h630v-70h-143.75l-.58.67-.95.82-1.08.66-1.16.48-1.22.3-1.26.07-51.26-.07-1.22-.3-1.16-.48-1.08-.66-.95-.82-.58-.67h-77.5l-.58.67-.95.82-1.08.66-1.16.48-1.22.3-1.26.07-51.26-.07-1.22-.3-1.16-.48-1.08-.66-.95-.82-.58-.67h-77.5l-.58.67-.95.82-1.08.66-1.16.48-1.22.3-1.26.07-51.26-.07-1.22-.3-1.16-.48-1.08-.66-.95-.82-.58-.67H1715zM2395 1115v70h630v-70h-143.75l-.58.67-.95.82-1.08.66-1.16.48-1.22.3-1.26.07-51.26-.07-1.22-.3-1.16-.48-1.08-.66-.95-.82-.58-.67h-77.5l-.58.67-.95.82-1.08.66-1.16.48-1.22.3-1.26.07-51.26-.07-1.22-.3-1.16-.48-1.08-.66-.95-.82-.58-.67h-77.5l-.58.67-.95.82-1.08.66-1.16.48-1.22.3-1.26.07-51.26-.07-1.22-.3-1.16-.48-1.08-.66-.95-.82-.58-.67H2395zM2395 1795v70h630v-70h-143.75l-.58.67-.95.82-1.08.66-1.16.48-1.22.3-1.26.07-51.26-.07-1.22-.3-1.16-.48-1.08-.66-.95-.82-.58-.67h-77.5l-.58.67-.95.82-1.08.66-1.16.48-1.22.3-1.26.07-51.26-.07-1.22-.3-1.16-.48-1.08-.66-.95-.82-.58-.67h-77.5l-.58.67-.95.82-1.08.66-1.16.48-1.22.3-1.26.07-51.26-.07-1.22-.3-1.16-.48-1.08-.66-.95-.82-.58-.67H2395zM2395 2475v70h630v-70h-143.75l-.58.67-.95.82-1.08.66-1.16.48-1.22.3-1.26.07-51.26-.07-1.22-.3-1.16-.48-1.08-.66-.95-.82-.58-.67h-77.5l-.58.67-.95.82-1.08.66-1.16.48-1.22.3-1.26.07-51.26-.07-1.22-.3-1.16-.48-1.08-.66-.95-.82-.58-.67h-77.5l-.58.67-.95.82-1.08.66-1.16.48-1.22.3-1.26.07-51.26-.07-1.22-.3-1.16-.48-1.08-.66-.95-.82-.58-.67H2395z"/><path fill="none" stroke-width="8" d="M330 2740V570m0 2170v255m-230 305V360m910 175v2665m-280 50h-20l-40 40"/><path fill="none" stroke-width="30" d="M4000 2995v-330m-20 350l20-20"/><path fill="none" stroke-width="8" d="M3670 3245l-30-30"/><path fill="none" stroke-width="25" d="M3625 2045l-90-90v-120m-225 75v20l25 25h200"/><path fill="none" stroke-width="8" d="M3400 2125h-85"/><path fill="none" stroke-width="20" d="M3600 1485h310"/><path fill="none" stroke-width="30" d="M4000 1285v1380"/><path fill="none" stroke-width="25" d="M3930 2045h-305"/><path fill="none" stroke-width="8" d="M4035 3300V360"/><path fill="none" stroke-width="20" d="M3965 1540v785m-170-175h170m-145 235h85l60-60m-55-840l55 55m-195-55v-310"/><path fill="none" stroke-width="8" d="M1690 535v2665m680-2665v2665M200 260h3735m-620 1865l-170-170m-70-25v40l25 25m575 735l-220 220h-110m-175-220l-35 35v415m35-490l-55 55v445m50-240h180m-200-1900v905"/><path fill="none" stroke-width="25" d="M3350 2665h650m-710-60l60 60"/><path fill="none" stroke-width="8" d="M200 3400h3735m-820-210l45 45m10-20l-35-35"/><path fill="none" stroke-width="12" d="M3195 3130h265"/><path fill="none" stroke-width="8" d="M3535 3245l-10-10h-365m480-20h-470m400 30h-35M100 360a100 100 0 0 1 100-100m0 3140a100 100 0 0 1-100-100m3935 0a100 100 0 0 1-100 100m0-3140a100 100 0 0 1 100 100m-845-65l5 5m-20-5h15m-20 5l5-5m-5 5v10l5 5h15l5 5v10m-5 5l5-5m-20 5h15m-20-5l5 5m32-35v30m0-30l5-5h10l5 5v30m-5 5l5-5m-15 5h10m-15-5l5 5m27-40v40h20m17-40v40m13-40l7 7v26m-7 7l7-7m-25 7h18m-18-40h18"/><use x="3880" y="415" xlink:href="#tool-D140-pad-1009"/><use x="3880" y="3245" xlink:href="#tool-D140-pad-1009"/><use x="2710" y="2170" xlink:href="#tool-D141-pad-1008"/><use x="2710" y="1490" xlink:href="#tool-D141-pad-1008"/><use x="2710" y="810" xlink:href="#tool-D141-pad-1008"/><use x="2710" y="2850" xlink:href="#tool-D141-pad-1008"/><use x="255" y="415" xlink:href="#tool-D140-pad-1009"/><use x="670" y="1490" xlink:href="#tool-D141-pad-1008"/><use x="1350" y="1490" xlink:href="#tool-D141-pad-1008"/><use x="670" y="810" xlink:href="#tool-D141-pad-1008"/><use x="1350" y="810" xlink:href="#tool-D141-pad-1008"/><use x="255" y="3245" xlink:href="#tool-D140-pad-1009"/><use x="670" y="2170" xlink:href="#tool-D141-pad-1008"/><use x="670" y="2850" xlink:href="#tool-D141-pad-1008"/><use x="2030" y="1490" xlink:href="#tool-D141-pad-1008"/><use x="1350" y="2170" xlink:href="#tool-D141-pad-1008"/><use x="2030" y="2170" xlink:href="#tool-D141-pad-1008"/><use x="1350" y="2850" xlink:href="#tool-D141-pad-1008"/><use x="2030" y="2850" xlink:href="#tool-D141-pad-1008"/><use x="2030" y="810" xlink:href="#tool-D141-pad-1008"/><path d="M1825 1965h410v10h-410zm400 400v-400h10v410h-10z"/><path fill="none" stroke-width="10" d="M2100 2102.5V1970m0 132.5l17.5 17.5m0 100v-100m-17.5 117.5l17.5-17.5M1960 2102.5V1970m-17.5 250v-100l17.5-17.5"/><path d="M2005 2080v-75h50v125h-50z"/><path fill="none" stroke-width="20" d="M1980 2195v-50"/><path d="M1715 1855h630v80h-630zM1825 2365v-400h10v410h-10z"/><path fill="none" stroke-width="10" d="M1942.5 2220l17.5 17.5m0 132.5v-132.5"/><path d="M1715 2405v-550h80v630h-80zM1825 3045v-400h10v410h-10zM1715 3085v-550h80v630h-80z"/><path fill="none" stroke-width="10" d="M2100 2370v-132.5"/><path d="M1715 2405h630v80h-630zm0 130h630v80h-630zM2225 3045v-400h10v410h-10z"/><path fill="none" stroke-width="10" d="M2100 2782.5V2650m0 132.5l17.5 17.5"/><path d="M1825 2645h410v10h-410z"/><path fill="none" stroke-width="10" d="M1960 2782.5V2650m-17.5 250l17.5 17.5m-17.5-17.5v-100l17.5-17.5m0 267.5v-132.5m157.5-17.5v-100m-17.5 117.5l17.5-17.5m-17.5 150v-132.5"/><path d="M2145 3100v-410h50v460h-50zm-280 0v-410h50v460h-50zm140 0v-210h50v260h-50zM2265 2405v-550h80v630h-80zm0 680v-550h80v630h-80zM2005 2760v-75h50v125h-50z"/><path fill="none" stroke-width="20" d="M2005 2800h50l25 25m-100 0l25-25m-25 75v-50m100 50v-50m-75 75h50l25-25m-100 0l25 25"/><path d="M1715 3085h630v80h-630zM2005 2420v-210h50v260h-50zm-140 0v-410h50v460h-50z"/><path fill="none" stroke-width="20" d="M2005 2120h50m-75 25l25-25m75 75v-50m-25 75l25-25m-25-75l25 25m-75 75h50m-75-25l25 25"/><path d="M2145 2420v-410h50v460h-50zM2225 1685v-400h10v410h-10z"/><path fill="none" stroke-width="10" d="M2117.5 1540v-100m-17.5 117.5l17.5-17.5m-17.5 150v-132.5"/><path d="M2145 1740v-410h50v460h-50z"/><path fill="none" stroke-width="10" d="M1942.5 1540l17.5 17.5m-17.5-17.5v-100l17.5-17.5"/><path d="M1825 1285h410v10h-410z"/><path fill="none" stroke-width="10" d="M2100 1422.5V1290m-140 132.5V1290m140 132.5l17.5 17.5"/><path d="M2005 1400v-75h50v125h-50z"/><path fill="none" stroke-width="20" d="M2005 1440h50"/><path d="M1865 1740v-410h50v460h-50zM1825 1685v-400h10v410h-10z"/><path fill="none" stroke-width="10" d="M1960 1690v-132.5"/><path d="M1715 1725v-550h80v630h-80zM2005 1740v-210h50v260h-50z"/><path fill="none" stroke-width="20" d="M2005 1540h50"/><path d="M1715 1725h630v80h-630z"/><path fill="none" stroke-width="20" d="M1980 1515v-50m75 75l25-25m-25-75l25 25m-100 0l25-25m-25 75l25 25m75-25v-50"/><path d="M2265 1725v-550h80v630h-80zm-550-550h630v80h-630zM2225 1005V605h10v410h-10zM2145 1060V650h50v460h-50zM2265 1045V495h80v630h-80z"/><path fill="none" stroke-width="20" d="M2080 835v-50m-25 75l25-25m-25-75l25 25m-100 50l25 25h50"/><path d="M1715 1045h630v80h-630zM1825 1005V605h10v410h-10z"/><path d="M1865 1060V650h50v460h-50z"/><path fill="none" stroke-width="10" d="M2117.5 860V760M2100 877.5l17.5-17.5m-175 0V760l17.5-17.5m140 267.5V877.5M1942.5 860l17.5 17.5m0 132.5V877.5"/><path d="M2005 1060V850h50v260h-50zM1825 605h410v10h-410zM1715 495h630v80h-630z"/><path fill="none" stroke-width="10" d="M2100 742.5V610m0 132.5l17.5 17.5"/><path fill="none" stroke-width="20" d="M1980 835v-50"/><path d="M1715 1045V495h80v630h-80z"/><path fill="none" stroke-width="10" d="M1960 742.5V610"/><path d="M2005 720v-75h50v125h-50z"/><path fill="none" stroke-width="20" d="M2005 760h50m-75 25l25-25"/><path d="M1325 2420v-210h50v260h-50zm-140 0v-410h50v460h-50z"/><path fill="none" stroke-width="20" d="M1325 2120h50m-75 25l25-25m75 75v-50m-25 75l25-25m-25-75l25 25m-75 75h50m-75-25l25 25"/><path d="M1145 1965h410v10h-410zm400 400v-400h10v410h-10z"/><path fill="none" stroke-width="10" d="M1420 2102.5V1970m0 132.5l17.5 17.5m0 100v-100m-17.5 117.5l17.5-17.5M1280 2102.5V1970m-17.5 250v-100l17.5-17.5"/><path d="M1325 2080v-75h50v125h-50z"/><path fill="none" stroke-width="20" d="M1300 2195v-50"/><path d="M1035 1855h630v80h-630zM1145 2365v-400h10v410h-10z"/><path fill="none" stroke-width="10" d="M1262.5 2220l17.5 17.5m0 132.5v-132.5"/><path d="M1035 2405v-550h80v630h-80z"/><path fill="none" stroke-width="10" d="M1420 2370v-132.5"/><path d="M1035 2405h630v80h-630zm550 0v-550h80v630h-80zM1145 2645h410v10h-410zM1035 2535h630v80h-630z"/><path d="M1465 2420v-410h50v460h-50zM1545 1685v-400h10v410h-10z"/><path fill="none" stroke-width="10" d="M1437.5 1540v-100m-17.5 117.5l17.5-17.5m-17.5 150v-132.5"/><path d="M1465 1740v-410h50v460h-50z"/><path fill="none" stroke-width="10" d="M1262.5 1540l17.5 17.5m-17.5-17.5v-100l17.5-17.5m-540 815l17.5-17.5M740 2370v-132.5"/><path fill="none" stroke-width="20" d="M695 2220l25-25"/><path d="M645 2420v-210h50v260h-50zM865 2365v-400h10v410h-10z"/><path fill="none" stroke-width="20" d="M720 2195v-50m-25-25l25 25"/><path d="M465 1965h410v10H465z"/><path fill="none" stroke-width="10" d="M740 2102.5V1970m-140 132.5V1970m140 132.5l17.5 17.5m-175 0l17.5-17.5"/><path d="M905 2405v-550h80v630h-80zm-550-550h630v80H355z"/><path fill="none" stroke-width="10" d="M757.5 2220v-100"/><path d="M645 2080v-75h50v125h-50z"/><path fill="none" stroke-width="20" d="M620 2195v-50m25-25h50m-75 25l25-25m-25 75l25 25"/><path d="M465 2645h410v10H465zM355 2535h630v80H355zM465 2365v-400h10v410h-10z"/><path fill="none" stroke-width="10" d="M582.5 2220l17.5 17.5m-17.5-17.5v-100m17.5 250v-132.5"/><path d="M355 2405v-550h80v630h-80zM505 2420v-410h50v460h-50z"/><path fill="none" stroke-width="20" d="M645 2220h50"/><path d="M355 2405h630v80H355z"/><path fill="none" stroke-width="10" d="M740 1690v-132.5"/><path fill="none" stroke-width="20" d="M645 1540h50"/><path d="M355 1725h630v80H355zM465 1685v-400h10v410h-10z"/><path fill="none" stroke-width="10" d="M600 1422.5V1290m-17.5 250l17.5 17.5m-17.5-17.5v-100m17.5 250v-132.5"/><path d="M355 1725v-550h80v630h-80zM505 1740v-410h50v460h-50z"/><path fill="none" stroke-width="20" d="M620 1515v-50l25-25m-25 75l25 25"/><path d="M465 1285h410v10H465z"/><path fill="none" stroke-width="10" d="M740 1422.5V1290m0 132.5l17.5 17.5m-175 0l17.5-17.5"/><path d="M355 1175h630v80H355z"/><path fill="none" stroke-width="20" d="M645 1440h50"/><path fill="none" stroke-width="10" d="M757.5 1540v-100M740 1557.5l17.5-17.5"/><path d="M905 1725v-550h80v630h-80zM785 2420v-410h50v460h-50zM865 1685v-400h10v410h-10zM785 1740v-410h50v460h-50zM865 1005V605h10v410h-10zM785 1060V650h50v460h-50zm-140 340v-75h50v125h-50z"/><path fill="none" stroke-width="20" d="M720 1515v-50m-25 75l25-25m-25-75l25 25"/><path d="M645 1740v-210h50v260h-50z"/><path fill="none" stroke-width="20" d="M720 835v-50m-25 75l25-25m-25-75l25 25"/><path d="M465 605h410v10H465z"/><path fill="none" stroke-width="10" d="M600 742.5V610m140 132.5V610m0 132.5l17.5 17.5m-175 0l17.5-17.5"/><path d="M645 720v-75h50v125h-50z"/><path fill="none" stroke-width="20" d="M645 760h50"/><path d="M355 495h630v80H355zM465 1005V605h10v410h-10z"/><path fill="none" stroke-width="10" d="M582.5 860l17.5 17.5M582.5 860V760"/><path d="M505 1060V650h50v460h-50zM355 1045V495h80v630h-80zm550 0V495h80v630h-80z"/><path fill="none" stroke-width="10" d="M740 1010V877.5M600 1010V877.5"/><path d="M645 1060V850h50v260h-50z"/><path d="M355 1045h630v80H355z"/><path fill="none" stroke-width="10" d="M757.5 860V760M740 877.5l17.5-17.5"/><path fill="none" stroke-width="20" d="M620 835v-50m25 75h50m-75-75l25-25m-25 75l25 25"/><path d="M1145 1285h410v10h-410z"/><path fill="none" stroke-width="10" d="M1420 1422.5V1290m-140 132.5V1290m140 132.5l17.5 17.5"/><path d="M1325 1400v-75h50v125h-50z"/><path fill="none" stroke-width="20" d="M1325 1440h50"/><path d="M1185 1740v-410h50v460h-50zM1145 1685v-400h10v410h-10z"/><path fill="none" stroke-width="10" d="M1280 1690v-132.5"/><path d="M1035 1725v-550h80v630h-80zM1325 1740v-210h50v260h-50z"/><path fill="none" stroke-width="20" d="M1325 1540h50"/><path d="M1035 1725h630v80h-630z"/><path fill="none" stroke-width="20" d="M1300 1515v-50m75 75l25-25m-25-75l25 25m-100 0l25-25m-25 75l25 25m75-25v-50"/><path d="M1585 1725v-550h80v630h-80zm-550-550h630v80h-630zM1545 1005V605h10v410h-10zM1465 1060V650h50v460h-50zM1585 1045V495h80v630h-80z"/><path fill="none" stroke-width="20" d="M1400 835v-50m-25 75l25-25m-25-75l25 25m-100 50l25 25h50"/><path d="M1035 1045h630v80h-630zM1145 1005V605h10v410h-10z"/><path d="M1185 1060V650h50v460h-50z"/><path fill="none" stroke-width="10" d="M1437.5 860V760M1420 877.5l17.5-17.5m-175 0V760l17.5-17.5m140 267.5V877.5M1262.5 860l17.5 17.5m0 132.5V877.5"/><path d="M1325 1060V850h50v260h-50zM1145 605h410v10h-410zM1035 495h630v80h-630z"/><path fill="none" stroke-width="10" d="M1420 742.5V610m0 132.5l17.5 17.5"/><path fill="none" stroke-width="20" d="M1300 835v-50"/><path d="M1035 1045V495h80v630h-80z"/><path fill="none" stroke-width="10" d="M1280 742.5V610"/><path d="M1325 720v-75h50v125h-50z"/><path fill="none" stroke-width="20" d="M1325 760h50m-75 25l25-25M645 2900h50l25-25"/><path d="M355 3085h630v80H355zm550 0v-550h80v630h-80z"/><path fill="none" stroke-width="20" d="M620 2875l25 25"/><path d="M865 3045v-400h10v410h-10zM785 3100v-410h50v460h-50z"/><path fill="none" stroke-width="10" d="M757.5 2900v-100M740 2917.5l17.5-17.5M740 3050v-132.5"/><path d="M645 3100v-210h50v260h-50z"/><path fill="none" stroke-width="10" d="M740 2782.5V2650m0 132.5l17.5 17.5"/><path fill="none" stroke-width="20" d="M645 2800h50m25 75v-50"/><path fill="none" stroke-width="10" d="M600 2782.5V2650m-17.5 150l17.5-17.5"/><path d="M645 2760v-75h50v125h-50zM465 3045v-400h10v410h-10z"/><path fill="none" stroke-width="10" d="M582.5 2900l17.5 17.5m0 132.5v-132.5"/><path d="M505 3100v-410h50v460h-50zM355 3085v-550h80v630h-80z"/><path fill="none" stroke-width="10" d="M582.5 2900v-100"/><path fill="none" stroke-width="20" d="M620 2875v-50m75-25l25 25m-100 0l25-25"/><path d="M1145 3045v-400h10v410h-10z"/><path fill="none" stroke-width="10" d="M1280 2782.5V2650m-17.5 250l17.5 17.5m-17.5-17.5v-100l17.5-17.5m0 267.5v-132.5"/><path d="M1185 3100v-410h50v460h-50zM1035 3085v-550h80v630h-80zM1545 3045v-400h10v410h-10zM1585 3085v-550h80v630h-80z"/><path fill="none" stroke-width="10" d="M1420 2782.5V2650m0 132.5l17.5 17.5m0 100v-100m-17.5 117.5l17.5-17.5m-17.5 150v-132.5"/><path d="M1465 3100v-410h50v460h-50zm-140 0v-210h50v260h-50z"/><path fill="none" stroke-width="20" d="M1325 2900h50"/><path d="M1035 3085h630v80h-630zM1325 2760v-75h50v125h-50z"/><path fill="none" stroke-width="20" d="M1325 2800h50m-75 25l25-25m-25 75v-50m100 50v-50m-25 75l25-25m-25-75l25 25m-100 50l25 25"/><path d="M2685 2420v-210h50v260h-50zm-140 0v-410h50v460h-50z"/><path fill="none" stroke-width="20" d="M2685 2120h50m-75 25l25-25m75 75v-50m-25 75l25-25m-25-75l25 25m-75 75h50m-75-25l25 25"/><path d="M2505 1965h410v10h-410zm400 400v-400h10v410h-10z"/><path fill="none" stroke-width="10" d="M2780 2102.5V1970m0 132.5l17.5 17.5m0 100v-100m-17.5 117.5l17.5-17.5M2640 2102.5V1970m-17.5 250v-100l17.5-17.5"/><path d="M2685 2080v-75h50v125h-50z"/><path fill="none" stroke-width="20" d="M2660 2195v-50"/><path d="M2395 1855h630v80h-630zM2505 2365v-400h10v410h-10z"/><path fill="none" stroke-width="10" d="M2622.5 2220l17.5 17.5m0 132.5v-132.5"/><path d="M2395 2405v-550h80v630h-80z"/><path fill="none" stroke-width="10" d="M2780 2370v-132.5"/><path d="M2395 2405h630v80h-630zm550 0v-550h80v630h-80zM2505 2645h410v10h-410zM2395 2535h630v80h-630z"/><path d="M2825 2420v-410h50v460h-50zM2905 1685v-400h10v410h-10z"/><path fill="none" stroke-width="10" d="M2797.5 1540v-100m-17.5 117.5l17.5-17.5m-17.5 150v-132.5"/><path d="M2825 1740v-410h50v460h-50z"/><path fill="none" stroke-width="10" d="M2622.5 1540l17.5 17.5m-17.5-17.5v-100l17.5-17.5"/><path d="M2505 1285h410v10h-410z"/><path fill="none" stroke-width="10" d="M2780 1422.5V1290m-140 132.5V1290m140 132.5l17.5 17.5"/><path d="M2685 1400v-75h50v125h-50z"/><path fill="none" stroke-width="20" d="M2685 1440h50"/><path d="M2545 1740v-410h50v460h-50zM2505 1685v-400h10v410h-10z"/><path fill="none" stroke-width="10" d="M2640 1690v-132.5"/><path d="M2395 1725v-550h80v630h-80zM2685 1740v-210h50v260h-50z"/><path fill="none" stroke-width="20" d="M2685 1540h50"/><path d="M2395 1725h630v80h-630z"/><path fill="none" stroke-width="20" d="M2660 1515v-50m75 75l25-25m-25-75l25 25m-100 0l25-25m-25 75l25 25m75-25v-50"/><path d="M2945 1725v-550h80v630h-80zm-550-550h630v80h-630z"/><path fill="none" stroke-width="10" d="M2622.5 860V760"/><path fill="none" stroke-width="20" d="M2660 835v-50m25 75h50m-75-25l25 25"/><path d="M2505 1005V605h10v410h-10z"/><path fill="none" stroke-width="10" d="M2622.5 860l17.5 17.5m0 132.5V877.5"/><path d="M2545 1060V650h50v460h-50zM2395 1045V495h80v630h-80z"/><path fill="none" stroke-width="20" d="M2660 785l25-25"/><path d="M2905 1005V605h10v410h-10zM2825 1060V650h50v460h-50z"/><path fill="none" stroke-width="10" d="M2797.5 860V760M2780 877.5l17.5-17.5m-17.5 150V877.5"/><path d="M2685 1060V850h50v260h-50z"/><path fill="none" stroke-width="20" d="M2735 860l25-25"/><path d="M2945 1045V495h80v630h-80z"/><path fill="none" stroke-width="20" d="M2735 760l25 25"/><path fill="none" stroke-width="10" d="M2780 742.5V610m0 132.5l17.5 17.5"/><path d="M2505 605h410v10h-410z"/><path fill="none" stroke-width="20" d="M2685 760h50m25 75v-50"/><path fill="none" stroke-width="10" d="M2640 742.5V610m-17.5 150l17.5-17.5"/><path d="M2685 720v-75h50v125h-50zM2395 495h630v80h-630zm0 550h630v80h-630zM2505 3045v-400h10v410h-10z"/><path fill="none" stroke-width="10" d="M2640 2782.5V2650m-17.5 250l17.5 17.5m-17.5-17.5v-100l17.5-17.5m0 267.5v-132.5"/><path d="M2545 3100v-410h50v460h-50zM2395 3085v-550h80v630h-80zM2905 3045v-400h10v410h-10zM2945 3085v-550h80v630h-80z"/><path fill="none" stroke-width="10" d="M2780 2782.5V2650m0 132.5l17.5 17.5m0 100v-100m-17.5 117.5l17.5-17.5m-17.5 150v-132.5"/><path d="M2825 3100v-410h50v460h-50zm-140 0v-210h50v260h-50z"/><path fill="none" stroke-width="20" d="M2685 2900h50"/><path d="M2395 3085h630v80h-630zM2685 2760v-75h50v125h-50z"/><path fill="none" stroke-width="20" d="M2685 2800h50m-75 25l25-25m-25 75v-50m100 50v-50m-25 75l25-25m-25-75l25 25m-100 50l25 25"/><use x="3645" y="1910" xlink:href="#tool-D146-pad-1003"/><use x="3535" y="1835" xlink:href="#tool-D146-pad-1003"/><use x="3600" y="1680" xlink:href="#tool-D146-pad-1003"/><use x="3600" y="1485" xlink:href="#tool-D146-pad-1003"/><use x="3890" y="1380" xlink:href="#tool-D146-pad-1003"/><use x="3820" y="1570" xlink:href="#tool-D146-pad-1003"/><use x="3975" y="1005" xlink:href="#tool-D146-pad-1003"/><use x="4000" y="1285" xlink:href="#tool-D146-pad-1003"/><use x="4000" y="2045" xlink:href="#tool-D146-pad-1003"/><use x="3580" y="2185" xlink:href="#tool-D146-pad-1003"/><use x="3530" y="2985" xlink:href="#tool-D146-pad-1003"/><use x="3560" y="2715" xlink:href="#tool-D146-pad-1003"/><use x="3865" y="2815" xlink:href="#tool-D146-pad-1003"/><use x="3820" y="2385" xlink:href="#tool-D146-pad-1003"/><use x="3795" y="2150" xlink:href="#tool-D146-pad-1003"/><use x="3800" y="2090" xlink:href="#tool-D146-pad-1003"/><use x="3675" y="2730" xlink:href="#tool-D146-pad-1003"/><use x="3690" y="2120" xlink:href="#tool-D146-pad-1003"/><use x="3245" y="2555" xlink:href="#tool-D146-pad-1003"/><use x="3615" y="2665" xlink:href="#tool-D146-pad-1003"/><use x="3520" y="2620" xlink:href="#tool-D146-pad-1003"/><use x="3290" y="2605" xlink:href="#tool-D146-pad-1003"/><use x="3550" y="2780" xlink:href="#tool-D146-pad-1003"/><use x="3535" y="3160" xlink:href="#tool-D146-pad-1003"/><use x="3570" y="3245" xlink:href="#tool-D146-pad-1003"/><use x="3370" y="2840" xlink:href="#tool-D146-pad-1003"/><use x="3180" y="2845" xlink:href="#tool-D146-pad-1003"/><use x="3320" y="3315" xlink:href="#tool-D146-pad-1003"/><use x="3195" y="3130" xlink:href="#tool-D146-pad-1003"/><use x="3285" y="3130" xlink:href="#tool-D146-pad-1003"/><use x="3375" y="3130" xlink:href="#tool-D146-pad-1003"/><use x="3460" y="3130" xlink:href="#tool-D146-pad-1003"/><use x="3670" y="3245" xlink:href="#tool-D146-pad-1003"/><use x="2910" y="2650" xlink:href="#tool-D146-pad-1003"/><use x="3170" y="2690" xlink:href="#tool-D146-pad-1003"/><use x="3170" y="2730" xlink:href="#tool-D146-pad-1003"/><use x="3195" y="2980" xlink:href="#tool-D146-pad-1003"/><use x="3165" y="2950" xlink:href="#tool-D146-pad-1003"/><use x="3285" y="2985" xlink:href="#tool-D146-pad-1003"/><use x="3345" y="2950" xlink:href="#tool-D146-pad-1003"/><use x="3375" y="2980" xlink:href="#tool-D146-pad-1003"/><use x="3815" y="1885" xlink:href="#tool-D146-pad-1003"/><use x="3750" y="2585" xlink:href="#tool-D146-pad-1003"/><use x="3725" y="2665" xlink:href="#tool-D146-pad-1003"/><use x="3740" y="2000" xlink:href="#tool-D146-pad-1003"/><use x="3930" y="2045" xlink:href="#tool-D146-pad-1003"/><use x="3880" y="2310" xlink:href="#tool-D146-pad-1003"/><use x="3925" y="2440" xlink:href="#tool-D146-pad-1003"/><use x="3990" y="3100" xlink:href="#tool-D146-pad-1003"/><use x="3910" y="2725" xlink:href="#tool-D146-pad-1003"/><use x="3890" y="2600" xlink:href="#tool-D146-pad-1003"/><use x="3980" y="3015" xlink:href="#tool-D146-pad-1003"/><use x="3370" y="1910" xlink:href="#tool-D146-pad-1003"/><use x="3310" y="1910" xlink:href="#tool-D146-pad-1003"/><use x="3400" y="2125" xlink:href="#tool-D146-pad-1003"/><use x="3325" y="1860" xlink:href="#tool-D146-pad-1003"/><use x="3435" y="2355" xlink:href="#tool-D146-pad-1003"/><use x="3145" y="1050" xlink:href="#tool-D146-pad-1003"/><use x="3645" y="1760" xlink:href="#tool-D146-pad-1003"/><use x="3730" y="710" xlink:href="#tool-D146-pad-1003"/><use x="3770" y="1175" xlink:href="#tool-D146-pad-1003"/><use x="3495" y="490" xlink:href="#tool-D146-pad-1003"/><use x="3495" y="840" xlink:href="#tool-D146-pad-1003"/><use x="3560" y="1320" xlink:href="#tool-D146-pad-1003"/><use x="3515" y="1170" xlink:href="#tool-D146-pad-1003"/><use x="3145" y="1680" xlink:href="#tool-D146-pad-1003"/><use x="3145" y="1470" xlink:href="#tool-D146-pad-1003"/><use x="3145" y="1260" xlink:href="#tool-D146-pad-1003"/><use x="2910" y="1970" xlink:href="#tool-D146-pad-1003"/><use x="2985" y="2130" xlink:href="#tool-D146-pad-1003"/><use x="3075" y="1930" xlink:href="#tool-D146-pad-1003"/><use x="3100" y="1995" xlink:href="#tool-D146-pad-1003"/><use x="2510" y="810" xlink:href="#tool-D146-pad-1003"/><use x="2320" y="1865" xlink:href="#tool-D146-pad-1003"/><use x="2370" y="1215" xlink:href="#tool-D146-pad-1003"/><use x="1830" y="1490" xlink:href="#tool-D146-pad-1003"/><use x="2230" y="1490" xlink:href="#tool-D146-pad-1003"/><use x="2510" y="1490" xlink:href="#tool-D146-pad-1003"/><use x="870" y="1490" xlink:href="#tool-D146-pad-1003"/><use x="1150" y="1490" xlink:href="#tool-D146-pad-1003"/><use x="1150" y="810" xlink:href="#tool-D146-pad-1003"/><use x="1550" y="810" xlink:href="#tool-D146-pad-1003"/><use x="1550" y="1490" xlink:href="#tool-D146-pad-1003"/><use x="1010" y="1215" xlink:href="#tool-D146-pad-1003"/><use x="1830" y="810" xlink:href="#tool-D146-pad-1003"/><use x="2230" y="810" xlink:href="#tool-D146-pad-1003"/><use x="2910" y="1400" xlink:href="#tool-D146-pad-1003"/><use x="1690" y="1215" xlink:href="#tool-D146-pad-1003"/><use x="870" y="2170" xlink:href="#tool-D146-pad-1003"/><use x="1150" y="2170" xlink:href="#tool-D146-pad-1003"/><use x="1550" y="2170" xlink:href="#tool-D146-pad-1003"/><use x="1830" y="2170" xlink:href="#tool-D146-pad-1003"/><use x="2230" y="2170" xlink:href="#tool-D146-pad-1003"/><use x="2510" y="2170" xlink:href="#tool-D146-pad-1003"/><use x="870" y="2850" xlink:href="#tool-D146-pad-1003"/><use x="1010" y="3200" xlink:href="#tool-D146-pad-1003"/><use x="730" y="3250" xlink:href="#tool-D146-pad-1003"/><use x="670" y="3290" xlink:href="#tool-D146-pad-1003"/><use x="1150" y="2850" xlink:href="#tool-D146-pad-1003"/><use x="330" y="2995" xlink:href="#tool-D146-pad-1003"/><use x="1550" y="2850" xlink:href="#tool-D146-pad-1003"/><use x="1830" y="2850" xlink:href="#tool-D146-pad-1003"/><use x="1690" y="3200" xlink:href="#tool-D146-pad-1003"/><use x="1635" y="2495" xlink:href="#tool-D146-pad-1003"/><use x="1690" y="2575" xlink:href="#tool-D146-pad-1003"/><use x="1690" y="1895" xlink:href="#tool-D146-pad-1003"/><use x="2230" y="2850" xlink:href="#tool-D146-pad-1003"/><use x="2510" y="2850" xlink:href="#tool-D146-pad-1003"/><use x="2370" y="3200" xlink:href="#tool-D146-pad-1003"/><use x="2370" y="2575" xlink:href="#tool-D146-pad-1003"/><use x="2370" y="1900" xlink:href="#tool-D146-pad-1003"/><use x="955" y="2525" xlink:href="#tool-D146-pad-1003"/><use x="330" y="2575" xlink:href="#tool-D146-pad-1003"/><use x="1010" y="2575" xlink:href="#tool-D146-pad-1003"/><use x="330" y="1895" xlink:href="#tool-D146-pad-1003"/><use x="1010" y="1895" xlink:href="#tool-D146-pad-1003"/><use x="2910" y="1010" xlink:href="#tool-D146-pad-1003"/><use x="3230" y="680" xlink:href="#tool-D146-pad-1003"/><use x="3250" y="405" xlink:href="#tool-D146-pad-1003"/><use x="870" y="810" xlink:href="#tool-D146-pad-1003"/><use x="330" y="1215" xlink:href="#tool-D146-pad-1003"/><use x="2370" y="535" xlink:href="#tool-D146-pad-1003"/><use x="1690" y="535" xlink:href="#tool-D146-pad-1003"/><use x="1010" y="535" xlink:href="#tool-D146-pad-1003"/><use x="330" y="570" xlink:href="#tool-D146-pad-1003"/></g><mask id="_bottom_mech-mask"><path fill="#fff" d="M96 256h3943v3148H96z"/><g id="_bottom-drl" stroke="#000"><use x="3645" y="1910" xlink:href="#tool-T153-pad-1072"/><use x="3535" y="1835" xlink:href="#tool-T153-pad-1072"/><use x="3600" y="1680" xlink:href="#tool-T153-pad-1072"/><use x="3600" y="1485" xlink:href="#tool-T153-pad-1072"/><use x="3890" y="1380" xlink:href="#tool-T153-pad-1072"/><use x="3820" y="1570" xlink:href="#tool-T153-pad-1072"/><use x="3975" y="1005" xlink:href="#tool-T153-pad-1072"/><use x="4000" y="1285" xlink:href="#tool-T153-pad-1072"/><use x="4000" y="2045" xlink:href="#tool-T153-pad-1072"/><use x="3580" y="2185" xlink:href="#tool-T153-pad-1072"/><use x="3530" y="2985" xlink:href="#tool-T153-pad-1072"/><use x="3560" y="2715" xlink:href="#tool-T153-pad-1072"/><use x="3865" y="2815" xlink:href="#tool-T153-pad-1072"/><use x="3820" y="2385" xlink:href="#tool-T153-pad-1072"/><use x="3795" y="2150" xlink:href="#tool-T153-pad-1072"/><use x="3800" y="2090" xlink:href="#tool-T153-pad-1072"/><use x="3675" y="2730" xlink:href="#tool-T153-pad-1072"/><use x="3690" y="2120" xlink:href="#tool-T153-pad-1072"/><use x="3245" y="2555" xlink:href="#tool-T153-pad-1072"/><use x="3615" y="2665" xlink:href="#tool-T153-pad-1072"/><use x="3520" y="2620" xlink:href="#tool-T153-pad-1072"/><use x="3290" y="2605" xlink:href="#tool-T153-pad-1072"/><use x="3550" y="2780" xlink:href="#tool-T153-pad-1072"/><use x="3535" y="3160" xlink:href="#tool-T153-pad-1072"/><use x="3570" y="3245" xlink:href="#tool-T153-pad-1072"/><use x="3370" y="2840" xlink:href="#tool-T153-pad-1072"/><use x="3180" y="2845" xlink:href="#tool-T153-pad-1072"/><use x="3320" y="3315" xlink:href="#tool-T153-pad-1072"/><use x="3195" y="3130" xlink:href="#tool-T153-pad-1072"/><use x="3285" y="3130" xlink:href="#tool-T153-pad-1072"/><use x="3375" y="3130" xlink:href="#tool-T153-pad-1072"/><use x="3460" y="3130" xlink:href="#tool-T153-pad-1072"/><use x="3670" y="3245" xlink:href="#tool-T153-pad-1072"/><use x="2910" y="2650" xlink:href="#tool-T153-pad-1072"/><use x="3170" y="2690" xlink:href="#tool-T153-pad-1072"/><use x="3170" y="2730" xlink:href="#tool-T153-pad-1072"/><use x="3195" y="2980" xlink:href="#tool-T153-pad-1072"/><use x="3165" y="2950" xlink:href="#tool-T153-pad-1072"/><use x="3285" y="2985" xlink:href="#tool-T153-pad-1072"/><use x="3345" y="2950" xlink:href="#tool-T153-pad-1072"/><use x="3375" y="2980" xlink:href="#tool-T153-pad-1072"/><use x="3815" y="1885" xlink:href="#tool-T153-pad-1072"/><use x="3750" y="2585" xlink:href="#tool-T153-pad-1072"/><use x="3725" y="2665" xlink:href="#tool-T153-pad-1072"/><use x="3740" y="2000" xlink:href="#tool-T153-pad-1072"/><use x="3930" y="2045" xlink:href="#tool-T153-pad-1072"/><use x="3880" y="2310" xlink:href="#tool-T153-pad-1072"/><use x="3925" y="2440" xlink:href="#tool-T153-pad-1072"/><use x="3990" y="3100" xlink:href="#tool-T153-pad-1072"/><use x="3910" y="2725" xlink:href="#tool-T153-pad-1072"/><use x="3890" y="2600" xlink:href="#tool-T153-pad-1072"/><use x="3980" y="3015" xlink:href="#tool-T153-pad-1072"/><use x="3370" y="1910" xlink:href="#tool-T153-pad-1072"/><use x="3310" y="1910" xlink:href="#tool-T153-pad-1072"/><use x="3400" y="2125" xlink:href="#tool-T153-pad-1072"/><use x="3325" y="1860" xlink:href="#tool-T153-pad-1072"/><use x="3435" y="2355" xlink:href="#tool-T153-pad-1072"/><use x="3145" y="1050" xlink:href="#tool-T153-pad-1072"/><use x="3645" y="1760" xlink:href="#tool-T153-pad-1072"/><use x="3730" y="710" xlink:href="#tool-T153-pad-1072"/><use x="3770" y="1175" xlink:href="#tool-T153-pad-1072"/><use x="3495" y="490" xlink:href="#tool-T153-pad-1072"/><use x="3495" y="840" xlink:href="#tool-T153-pad-1072"/><use x="3560" y="1320" xlink:href="#tool-T153-pad-1072"/><use x="3515" y="1170" xlink:href="#tool-T153-pad-1072"/><use x="3145" y="1680" xlink:href="#tool-T153-pad-1072"/><use x="3145" y="1470" xlink:href="#tool-T153-pad-1072"/><use x="3145" y="1260" xlink:href="#tool-T153-pad-1072"/><use x="2910" y="1970" xlink:href="#tool-T153-pad-1072"/><use x="2985" y="2130" xlink:href="#tool-T153-pad-1072"/><use x="3075" y="1930" xlink:href="#tool-T153-pad-1072"/><use x="3100" y="1995" xlink:href="#tool-T153-pad-1072"/><use x="2510" y="810" xlink:href="#tool-T153-pad-1072"/><use x="2320" y="1865" xlink:href="#tool-T153-pad-1072"/><use x="2370" y="1215" xlink:href="#tool-T153-pad-1072"/><use x="1830" y="1490" xlink:href="#tool-T153-pad-1072"/><use x="2230" y="1490" xlink:href="#tool-T153-pad-1072"/><use x="2510" y="1490" xlink:href="#tool-T153-pad-1072"/><use x="870" y="1490" xlink:href="#tool-T153-pad-1072"/><use x="1150" y="1490" xlink:href="#tool-T153-pad-1072"/><use x="1150" y="810" xlink:href="#tool-T153-pad-1072"/><use x="1550" y="810" xlink:href="#tool-T153-pad-1072"/><use x="1550" y="1490" xlink:href="#tool-T153-pad-1072"/><use x="1010" y="1215" xlink:href="#tool-T153-pad-1072"/><use x="1830" y="810" xlink:href="#tool-T153-pad-1072"/><use x="2230" y="810" xlink:href="#tool-T153-pad-1072"/><use x="2910" y="1400" xlink:href="#tool-T153-pad-1072"/><use x="1690" y="1215" xlink:href="#tool-T153-pad-1072"/><use x="870" y="2170" xlink:href="#tool-T153-pad-1072"/><use x="1150" y="2170" xlink:href="#tool-T153-pad-1072"/><use x="1550" y="2170" xlink:href="#tool-T153-pad-1072"/><use x="1830" y="2170" xlink:href="#tool-T153-pad-1072"/><use x="2230" y="2170" xlink:href="#tool-T153-pad-1072"/><use x="2510" y="2170" xlink:href="#tool-T153-pad-1072"/><use x="870" y="2850" xlink:href="#tool-T153-pad-1072"/><use x="1010" y="3200" xlink:href="#tool-T153-pad-1072"/><use x="730" y="3250" xlink:href="#tool-T153-pad-1072"/><use x="670" y="3290" xlink:href="#tool-T153-pad-1072"/><use x="1150" y="2850" xlink:href="#tool-T153-pad-1072"/><use x="330" y="2995" xlink:href="#tool-T153-pad-1072"/><use x="1550" y="2850" xlink:href="#tool-T153-pad-1072"/><use x="1830" y="2850" xlink:href="#tool-T153-pad-1072"/><use x="1690" y="3200" xlink:href="#tool-T153-pad-1072"/><use x="1635" y="2495" xlink:href="#tool-T153-pad-1072"/><use x="1690" y="2575" xlink:href="#tool-T153-pad-1072"/><use x="1690" y="1895" xlink:href="#tool-T153-pad-1072"/><use x="2230" y="2850" xlink:href="#tool-T153-pad-1072"/><use x="2510" y="2850" xlink:href="#tool-T153-pad-1072"/><use x="2370" y="3200" xlink:href="#tool-T153-pad-1072"/><use x="2370" y="2575" xlink:href="#tool-T153-pad-1072"/><use x="2370" y="1900" xlink:href="#tool-T153-pad-1072"/><use x="955" y="2525" xlink:href="#tool-T153-pad-1072"/><use x="330" y="2575" xlink:href="#tool-T153-pad-1072"/><use x="1010" y="2575" xlink:href="#tool-T153-pad-1072"/><use x="330" y="1895" xlink:href="#tool-T153-pad-1072"/><use x="1010" y="1895" xlink:href="#tool-T153-pad-1072"/><use x="2910" y="1010" xlink:href="#tool-T153-pad-1072"/><use x="3230" y="680" xlink:href="#tool-T153-pad-1072"/><use x="3250" y="405" xlink:href="#tool-T153-pad-1072"/><use x="870" y="810" xlink:href="#tool-T153-pad-1072"/><use x="330" y="1215" xlink:href="#tool-T153-pad-1072"/><use x="2370" y="535" xlink:href="#tool-T153-pad-1072"/><use x="1690" y="535" xlink:href="#tool-T153-pad-1072"/><use x="1010" y="535" xlink:href="#tool-T153-pad-1072"/><use x="330" y="570" xlink:href="#tool-T153-pad-1072"/><use x="2710" y="2170" xlink:href="#tool-T152-pad-1073"/><use x="2710" y="1490" xlink:href="#tool-T152-pad-1073"/><use x="2710" y="810" xlink:href="#tool-T152-pad-1073"/><use x="2710" y="2850" xlink:href="#tool-T152-pad-1073"/><use x="670" y="1490" xlink:href="#tool-T152-pad-1073"/><use x="1350" y="1490" xlink:href="#tool-T152-pad-1073"/><use x="670" y="810" xlink:href="#tool-T152-pad-1073"/><use x="1350" y="810" xlink:href="#tool-T152-pad-1073"/><use x="670" y="2170" xlink:href="#tool-T152-pad-1073"/><use x="670" y="2850" xlink:href="#tool-T152-pad-1073"/><use x="2030" y="1490" xlink:href="#tool-T152-pad-1073"/><use x="1350" y="2170" xlink:href="#tool-T152-pad-1073"/><use x="2030" y="2170" xlink:href="#tool-T152-pad-1073"/><use x="1350" y="2850" xlink:href="#tool-T152-pad-1073"/><use x="2030" y="2850" xlink:href="#tool-T152-pad-1073"/><use x="2030" y="810" xlink:href="#tool-T152-pad-1073"/><use x="3880" y="415" xlink:href="#tool-T151-pad-1074"/><use x="3880" y="3245" xlink:href="#tool-T151-pad-1074"/><use x="255" y="415" xlink:href="#tool-T151-pad-1074"/><use x="255" y="3245" xlink:href="#tool-T151-pad-1074"/></g></mask></defs><g mask="url(#_bottom_mech-mask)" transform="rotate(180 2067.5 1830)"><path fill="currentColor" d="M96 256h3943v3148H96z" class="_board-fr4"/><use class="_board-cu" xlink:href="#_bottom-cu"/><defs><g id="_bottom-sm" fill="currentColor" stroke="currentColor"><use x="3880" y="415" xlink:href="#tool-D168-pad-1026"/><use x="3880" y="3245" xlink:href="#tool-D168-pad-1026"/><use x="2710" y="2170" xlink:href="#tool-D169-pad-1025"/><use x="2710" y="1490" xlink:href="#tool-D169-pad-1025"/><use x="2710" y="810" xlink:href="#tool-D169-pad-1025"/><use x="2710" y="2850" xlink:href="#tool-D169-pad-1025"/><use x="255" y="415" xlink:href="#tool-D168-pad-1026"/><use x="670" y="1490" xlink:href="#tool-D169-pad-1025"/><use x="1350" y="1490" xlink:href="#tool-D169-pad-1025"/><use x="670" y="810" xlink:href="#tool-D169-pad-1025"/><use x="1350" y="810" xlink:href="#tool-D169-pad-1025"/><use x="255" y="3245" xlink:href="#tool-D168-pad-1026"/><use x="670" y="2170" xlink:href="#tool-D169-pad-1025"/><use x="670" y="2850" xlink:href="#tool-D169-pad-1025"/><use x="2030" y="1490" xlink:href="#tool-D169-pad-1025"/><use x="1350" y="2170" xlink:href="#tool-D169-pad-1025"/><use x="2030" y="2170" xlink:href="#tool-D169-pad-1025"/><use x="1350" y="2850" xlink:href="#tool-D169-pad-1025"/><use x="2030" y="2850" xlink:href="#tool-D169-pad-1025"/><use x="2030" y="810" xlink:href="#tool-D169-pad-1025"/><path d="M1820 1960h420v20h-420zm400 400v-400h20v420h-20z"/><path fill="none" stroke-width="20" d="M2100 2102.5V1970m0 132.5l17.5 17.5m0 100v-100m-17.5 117.5l17.5-17.5M1960 2102.5V1970m-17.5 250v-100l17.5-17.5"/><path d="M2000 2075v-75h60v135h-60z"/><path fill="none" stroke-width="30" d="M1980 2195v-50"/><path d="M1710 1850h640v90h-640zM1820 2360v-400h20v420h-20z"/><path fill="none" stroke-width="20" d="M1942.5 2220l17.5 17.5m0 132.5v-132.5"/><path d="M1710 2400v-550h90v640h-90zM1820 3040v-400h20v420h-20zM1710 3080v-550h90v640h-90z"/><path fill="none" stroke-width="20" d="M2100 2370v-132.5"/><path d="M1710 2400h640v90h-640zm0 130h640v90h-640zM2220 3040v-400h20v420h-20z"/><path fill="none" stroke-width="20" d="M2100 2782.5V2650m0 132.5l17.5 17.5"/><path d="M1820 2640h420v20h-420z"/><path fill="none" stroke-width="20" d="M1960 2782.5V2650m-17.5 250l17.5 17.5m-17.5-17.5v-100l17.5-17.5m0 267.5v-132.5m157.5-17.5v-100m-17.5 117.5l17.5-17.5m-17.5 150v-132.5"/><path d="M2140 3095v-410h60v470h-60zm-280 0v-410h60v470h-60zm140 0v-210h60v270h-60zM2260 2400v-550h90v640h-90zm0 680v-550h90v640h-90zM2000 2755v-75h60v135h-60z"/><path fill="none" stroke-width="30" d="M2005 2800h50l25 25m-100 0l25-25m-25 75v-50m100 50v-50m-75 75h50l25-25m-100 0l25 25"/><path d="M1710 3080h640v90h-640zM2000 2415v-210h60v270h-60zm-140 0v-410h60v470h-60z"/><path fill="none" stroke-width="30" d="M2005 2120h50m-75 25l25-25m75 75v-50m-25 75l25-25m-25-75l25 25m-75 75h50m-75-25l25 25"/><path d="M2140 2415v-410h60v470h-60zM2220 1680v-400h20v420h-20z"/><path fill="none" stroke-width="20" d="M2117.5 1540v-100m-17.5 117.5l17.5-17.5m-17.5 150v-132.5"/><path d="M2140 1735v-410h60v470h-60z"/><path fill="none" stroke-width="20" d="M1942.5 1540l17.5 17.5m-17.5-17.5v-100l17.5-17.5"/><path d="M1820 1280h420v20h-420z"/><path fill="none" stroke-width="20" d="M2100 1422.5V1290m-140 132.5V1290m140 132.5l17.5 17.5"/><path d="M2000 1395v-75h60v135h-60z"/><path fill="none" stroke-width="30" d="M2005 1440h50"/><path d="M1860 1735v-410h60v470h-60zM1820 1680v-400h20v420h-20z"/><path fill="none" stroke-width="20" d="M1960 1690v-132.5"/><path d="M1710 1720v-550h90v640h-90zM2000 1735v-210h60v270h-60z"/><path fill="none" stroke-width="30" d="M2005 1540h50"/><path d="M1710 1720h640v90h-640z"/><path fill="none" stroke-width="30" d="M1980 1515v-50m75 75l25-25m-25-75l25 25m-100 0l25-25m-25 75l25 25m75-25v-50"/><path d="M2260 1720v-550h90v640h-90zm-550-550h640v90h-640zM2220 1000V600h20v420h-20zM2140 1055V645h60v470h-60zM2260 1040V490h90v640h-90z"/><path fill="none" stroke-width="30" d="M2080 835v-50m-25 75l25-25m-25-75l25 25m-100 50l25 25h50"/><path d="M1710 1040h640v90h-640zM1820 1000V600h20v420h-20z"/><path d="M1860 1055V645h60v470h-60z"/><path fill="none" stroke-width="20" d="M2117.5 860V760M2100 877.5l17.5-17.5m-175 0V760l17.5-17.5m140 267.5V877.5M1942.5 860l17.5 17.5m0 132.5V877.5"/><path d="M2000 1055V845h60v270h-60zM1820 600h420v20h-420zM1710 490h640v90h-640z"/><path fill="none" stroke-width="20" d="M2100 742.5V610m0 132.5l17.5 17.5"/><path fill="none" stroke-width="30" d="M1980 835v-50"/><path d="M1710 1040V490h90v640h-90z"/><path fill="none" stroke-width="20" d="M1960 742.5V610"/><path d="M2000 715v-75h60v135h-60z"/><path fill="none" stroke-width="30" d="M2005 760h50m-75 25l25-25"/><path d="M1320 2415v-210h60v270h-60zm-140 0v-410h60v470h-60z"/><path fill="none" stroke-width="30" d="M1325 2120h50m-75 25l25-25m75 75v-50m-25 75l25-25m-25-75l25 25m-75 75h50m-75-25l25 25"/><path d="M1140 1960h420v20h-420zm400 400v-400h20v420h-20z"/><path fill="none" stroke-width="20" d="M1420 2102.5V1970m0 132.5l17.5 17.5m0 100v-100m-17.5 117.5l17.5-17.5M1280 2102.5V1970m-17.5 250v-100l17.5-17.5"/><path d="M1320 2075v-75h60v135h-60z"/><path fill="none" stroke-width="30" d="M1300 2195v-50"/><path d="M1030 1850h640v90h-640zM1140 2360v-400h20v420h-20z"/><path fill="none" stroke-width="20" d="M1262.5 2220l17.5 17.5m0 132.5v-132.5"/><path d="M1030 2400v-550h90v640h-90z"/><path fill="none" stroke-width="20" d="M1420 2370v-132.5"/><path d="M1030 2400h640v90h-640zm550 0v-550h90v640h-90zM1140 2640h420v20h-420zM1030 2530h640v90h-640z"/><path d="M1460 2415v-410h60v470h-60zM1540 1680v-400h20v420h-20z"/><path fill="none" stroke-width="20" d="M1437.5 1540v-100m-17.5 117.5l17.5-17.5m-17.5 150v-132.5"/><path d="M1460 1735v-410h60v470h-60z"/><path fill="none" stroke-width="20" d="M1262.5 1540l17.5 17.5m-17.5-17.5v-100l17.5-17.5m-540 815l17.5-17.5M740 2370v-132.5"/><path fill="none" stroke-width="30" d="M695 2220l25-25"/><path d="M640 2415v-210h60v270h-60zM860 2360v-400h20v420h-20z"/><path fill="none" stroke-width="30" d="M720 2195v-50m-25-25l25 25"/><path d="M460 1960h420v20H460z"/><path fill="none" stroke-width="20" d="M740 2102.5V1970m-140 132.5V1970m140 132.5l17.5 17.5m-175 0l17.5-17.5"/><path d="M900 2400v-550h90v640h-90zm-550-550h640v90H350z"/><path fill="none" stroke-width="20" d="M757.5 2220v-100"/><path d="M640 2075v-75h60v135h-60z"/><path fill="none" stroke-width="30" d="M620 2195v-50m25-25h50m-75 25l25-25m-25 75l25 25"/><path d="M460 2640h420v20H460zM350 2530h640v90H350zM460 2360v-400h20v420h-20z"/><path fill="none" stroke-width="20" d="M582.5 2220l17.5 17.5m-17.5-17.5v-100m17.5 250v-132.5"/><path d="M350 2400v-550h90v640h-90zM500 2415v-410h60v470h-60z"/><path fill="none" stroke-width="30" d="M645 2220h50"/><path d="M350 2400h640v90H350z"/><path fill="none" stroke-width="20" d="M740 1690v-132.5"/><path fill="none" stroke-width="30" d="M645 1540h50"/><path d="M350 1720h640v90H350zM460 1680v-400h20v420h-20z"/><path fill="none" stroke-width="20" d="M600 1422.5V1290m-17.5 250l17.5 17.5m-17.5-17.5v-100m17.5 250v-132.5"/><path d="M350 1720v-550h90v640h-90zM500 1735v-410h60v470h-60z"/><path fill="none" stroke-width="30" d="M620 1515v-50l25-25m-25 75l25 25"/><path d="M460 1280h420v20H460z"/><path fill="none" stroke-width="20" d="M740 1422.5V1290m0 132.5l17.5 17.5m-175 0l17.5-17.5"/><path d="M350 1170h640v90H350z"/><path fill="none" stroke-width="30" d="M645 1440h50"/><path fill="none" stroke-width="20" d="M757.5 1540v-100M740 1557.5l17.5-17.5"/><path d="M900 1720v-550h90v640h-90zM780 2415v-410h60v470h-60zM860 1680v-400h20v420h-20zM780 1735v-410h60v470h-60zM860 1000V600h20v420h-20zM780 1055V645h60v470h-60zm-140 340v-75h60v135h-60z"/><path fill="none" stroke-width="30" d="M720 1515v-50m-25 75l25-25m-25-75l25 25"/><path d="M640 1735v-210h60v270h-60z"/><path fill="none" stroke-width="30" d="M720 835v-50m-25 75l25-25m-25-75l25 25"/><path d="M460 600h420v20H460z"/><path fill="none" stroke-width="20" d="M600 742.5V610m140 132.5V610m0 132.5l17.5 17.5m-175 0l17.5-17.5"/><path d="M640 715v-75h60v135h-60z"/><path fill="none" stroke-width="30" d="M645 760h50"/><path d="M350 490h640v90H350zM460 1000V600h20v420h-20z"/><path fill="none" stroke-width="20" d="M582.5 860l17.5 17.5M582.5 860V760"/><path d="M500 1055V645h60v470h-60zM350 1040V490h90v640h-90zm550 0V490h90v640h-90z"/><path fill="none" stroke-width="20" d="M740 1010V877.5M600 1010V877.5"/><path d="M640 1055V845h60v270h-60z"/><path d="M350 1040h640v90H350z"/><path fill="none" stroke-width="20" d="M757.5 860V760M740 877.5l17.5-17.5"/><path fill="none" stroke-width="30" d="M620 835v-50m25 75h50m-75-75l25-25m-25 75l25 25"/><path d="M1140 1280h420v20h-420z"/><path fill="none" stroke-width="20" d="M1420 1422.5V1290m-140 132.5V1290m140 132.5l17.5 17.5"/><path d="M1320 1395v-75h60v135h-60z"/><path fill="none" stroke-width="30" d="M1325 1440h50"/><path d="M1180 1735v-410h60v470h-60zM1140 1680v-400h20v420h-20z"/><path fill="none" stroke-width="20" d="M1280 1690v-132.5"/><path d="M1030 1720v-550h90v640h-90zM1320 1735v-210h60v270h-60z"/><path fill="none" stroke-width="30" d="M1325 1540h50"/><path d="M1030 1720h640v90h-640z"/><path fill="none" stroke-width="30" d="M1300 1515v-50m75 75l25-25m-25-75l25 25m-100 0l25-25m-25 75l25 25m75-25v-50"/><path d="M1580 1720v-550h90v640h-90zm-550-550h640v90h-640zM1540 1000V600h20v420h-20zM1460 1055V645h60v470h-60zM1580 1040V490h90v640h-90z"/><path fill="none" stroke-width="30" d="M1400 835v-50m-25 75l25-25m-25-75l25 25m-100 50l25 25h50"/><path d="M1030 1040h640v90h-640zM1140 1000V600h20v420h-20z"/><path d="M1180 1055V645h60v470h-60z"/><path fill="none" stroke-width="20" d="M1437.5 860V760M1420 877.5l17.5-17.5m-175 0V760l17.5-17.5m140 267.5V877.5M1262.5 860l17.5 17.5m0 132.5V877.5"/><path d="M1320 1055V845h60v270h-60zM1140 600h420v20h-420zM1030 490h640v90h-640z"/><path fill="none" stroke-width="20" d="M1420 742.5V610m0 132.5l17.5 17.5"/><path fill="none" stroke-width="30" d="M1300 835v-50"/><path d="M1030 1040V490h90v640h-90z"/><path fill="none" stroke-width="20" d="M1280 742.5V610"/><path d="M1320 715v-75h60v135h-60z"/><path fill="none" stroke-width="30" d="M1325 760h50m-75 25l25-25M645 2900h50l25-25"/><path d="M350 3080h640v90H350zm550 0v-550h90v640h-90z"/><path fill="none" stroke-width="30" d="M620 2875l25 25"/><path d="M860 3040v-400h20v420h-20zM780 3095v-410h60v470h-60z"/><path fill="none" stroke-width="20" d="M757.5 2900v-100M740 2917.5l17.5-17.5M740 3050v-132.5"/><path d="M640 3095v-210h60v270h-60z"/><path fill="none" stroke-width="20" d="M740 2782.5V2650m0 132.5l17.5 17.5"/><path fill="none" stroke-width="30" d="M645 2800h50m25 75v-50"/><path fill="none" stroke-width="20" d="M600 2782.5V2650m-17.5 150l17.5-17.5"/><path d="M640 2755v-75h60v135h-60zM460 3040v-400h20v420h-20z"/><path fill="none" stroke-width="20" d="M582.5 2900l17.5 17.5m0 132.5v-132.5"/><path d="M500 3095v-410h60v470h-60zM350 3080v-550h90v640h-90z"/><path fill="none" stroke-width="20" d="M582.5 2900v-100"/><path fill="none" stroke-width="30" d="M620 2875v-50m75-25l25 25m-100 0l25-25"/><path d="M1140 3040v-400h20v420h-20z"/><path fill="none" stroke-width="20" d="M1280 2782.5V2650m-17.5 250l17.5 17.5m-17.5-17.5v-100l17.5-17.5m0 267.5v-132.5"/><path d="M1180 3095v-410h60v470h-60zM1030 3080v-550h90v640h-90zM1540 3040v-400h20v420h-20zM1580 3080v-550h90v640h-90z"/><path fill="none" stroke-width="20" d="M1420 2782.5V2650m0 132.5l17.5 17.5m0 100v-100m-17.5 117.5l17.5-17.5m-17.5 150v-132.5"/><path d="M1460 3095v-410h60v470h-60zm-140 0v-210h60v270h-60z"/><path fill="none" stroke-width="30" d="M1325 2900h50"/><path d="M1030 3080h640v90h-640zM1320 2755v-75h60v135h-60z"/><path fill="none" stroke-width="30" d="M1325 2800h50m-75 25l25-25m-25 75v-50m100 50v-50m-25 75l25-25m-25-75l25 25m-100 50l25 25"/><path d="M2680 2415v-210h60v270h-60zm-140 0v-410h60v470h-60z"/><path fill="none" stroke-width="30" d="M2685 2120h50m-75 25l25-25m75 75v-50m-25 75l25-25m-25-75l25 25m-75 75h50m-75-25l25 25"/><path d="M2500 1960h420v20h-420zm400 400v-400h20v420h-20z"/><path fill="none" stroke-width="20" d="M2780 2102.5V1970m0 132.5l17.5 17.5m0 100v-100m-17.5 117.5l17.5-17.5M2640 2102.5V1970m-17.5 250v-100l17.5-17.5"/><path d="M2680 2075v-75h60v135h-60z"/><path fill="none" stroke-width="30" d="M2660 2195v-50"/><path d="M2390 1850h640v90h-640zM2500 2360v-400h20v420h-20z"/><path fill="none" stroke-width="20" d="M2622.5 2220l17.5 17.5m0 132.5v-132.5"/><path d="M2390 2400v-550h90v640h-90z"/><path fill="none" stroke-width="20" d="M2780 2370v-132.5"/><path d="M2390 2400h640v90h-640zm550 0v-550h90v640h-90zM2500 2640h420v20h-420zM2390 2530h640v90h-640z"/><path d="M2820 2415v-410h60v470h-60zM2900 1680v-400h20v420h-20z"/><path fill="none" stroke-width="20" d="M2797.5 1540v-100m-17.5 117.5l17.5-17.5m-17.5 150v-132.5"/><path d="M2820 1735v-410h60v470h-60z"/><path fill="none" stroke-width="20" d="M2622.5 1540l17.5 17.5m-17.5-17.5v-100l17.5-17.5"/><path d="M2500 1280h420v20h-420z"/><path fill="none" stroke-width="20" d="M2780 1422.5V1290m-140 132.5V1290m140 132.5l17.5 17.5"/><path d="M2680 1395v-75h60v135h-60z"/><path fill="none" stroke-width="30" d="M2685 1440h50"/><path d="M2540 1735v-410h60v470h-60zM2500 1680v-400h20v420h-20z"/><path fill="none" stroke-width="20" d="M2640 1690v-132.5"/><path d="M2390 1720v-550h90v640h-90zM2680 1735v-210h60v270h-60z"/><path fill="none" stroke-width="30" d="M2685 1540h50"/><path d="M2390 1720h640v90h-640z"/><path fill="none" stroke-width="30" d="M2660 1515v-50m75 75l25-25m-25-75l25 25m-100 0l25-25m-25 75l25 25m75-25v-50"/><path d="M2940 1720v-550h90v640h-90zm-550-550h640v90h-640z"/><path fill="none" stroke-width="20" d="M2622.5 860V760"/><path fill="none" stroke-width="30" d="M2660 835v-50m25 75h50m-75-25l25 25"/><path d="M2500 1000V600h20v420h-20z"/><path fill="none" stroke-width="20" d="M2622.5 860l17.5 17.5m0 132.5V877.5"/><path d="M2540 1055V645h60v470h-60zM2390 1040V490h90v640h-90z"/><path fill="none" stroke-width="30" d="M2660 785l25-25"/><path d="M2900 1000V600h20v420h-20zM2820 1055V645h60v470h-60z"/><path fill="none" stroke-width="20" d="M2797.5 860V760M2780 877.5l17.5-17.5m-17.5 150V877.5"/><path d="M2680 1055V845h60v270h-60z"/><path fill="none" stroke-width="30" d="M2735 860l25-25"/><path d="M2940 1040V490h90v640h-90z"/><path fill="none" stroke-width="30" d="M2735 760l25 25"/><path fill="none" stroke-width="20" d="M2780 742.5V610m0 132.5l17.5 17.5"/><path d="M2500 600h420v20h-420z"/><path fill="none" stroke-width="30" d="M2685 760h50m25 75v-50"/><path fill="none" stroke-width="20" d="M2640 742.5V610m-17.5 150l17.5-17.5"/><path d="M2680 715v-75h60v135h-60zM2390 490h640v90h-640zm0 550h640v90h-640zM2500 3040v-400h20v420h-20z"/><path fill="none" stroke-width="20" d="M2640 2782.5V2650m-17.5 250l17.5 17.5m-17.5-17.5v-100l17.5-17.5m0 267.5v-132.5"/><path d="M2540 3095v-410h60v470h-60zM2390 3080v-550h90v640h-90zM2900 3040v-400h20v420h-20zM2940 3080v-550h90v640h-90z"/><path fill="none" stroke-width="20" d="M2780 2782.5V2650m0 132.5l17.5 17.5m0 100v-100m-17.5 117.5l17.5-17.5m-17.5 150v-132.5"/><path d="M2820 3095v-410h60v470h-60zm-140 0v-210h60v270h-60z"/><path fill="none" stroke-width="30" d="M2685 2900h50"/><path d="M2390 3080h640v90h-640zM2680 2755v-75h60v135h-60z"/><path fill="none" stroke-width="30" d="M2685 2800h50m-75 25l25-25m-25 75v-50m100 50v-50m-25 75l25-25m-25-75l25 25m-100 50l25 25"/></g><mask id="_bottom-sm_mask" color="#000"><path fill="#fff" d="M96 256h3943v3148H96z"/><use xlink:href="#_bottom-sm"/></mask><mask id="_bottom-cu_finish-mask" color="#fff"><use xlink:href="#_bottom-cu"/></mask></defs><g mask="url(#_bottom-sm_mask)"><path fill="currentColor" d="M96 256h3943v3148H96z" class="_board-sm"/><g id="_bottom-ss" fill="currentColor" stroke="currentColor" class="_board-ss"><path fill="none" stroke-width="8" d="M200 3400h3735m100-100V360m-100-100H200M100 360v2940m0-2940a100 100 0 0 1 100-100m3735 0a100 100 0 0 1 100 100m0 2940a100 100 0 0 1-100 100m-3735 0a100 100 0 0 1-100-100"/><path fill="none" stroke-width="21" d="M3482.5 395h210l-210 131.25h210m-183.75 63h52.5l26.25 26.25V668l-26.25 26.25m-52.5 0h52.5M3482.5 668l26.25 26.25m-26.25-78.75V668m26.25-78.75l-26.25 26.25m0 141.75h210l-105 78.75 105 78.75m-210 0h210m-210 89.25v78.75m26.25-105L3482.5 1004m26.25-26.25h52.5l26.25 26.25v52.5l-26.25 26.25m-26.25-105v105h26.25m26.25 89.25v78.75m-26.25-105l26.25 26.25m-78.75-26.25h52.5m-52.5 0L3482.5 1172v78.75m0 63h210m-131.25 0l26.25 26.25v52.5l-26.25 26.25m-78.75 0h78.75m-78.75 157.5h210l-105 78.75 105 78.75m-210 0h210"/><path fill="none" stroke-width="26.2" d="M3634.75 1796.75h5.25"/><path fill="none" stroke-width="21" d="M3482.5 1796.75h78.75m-78.75 78.75h78.75l26.25 26.25V1928l-26.25 26.25m-78.75 0h78.75m26.25-105l-26.25 26.25"/><path fill="none" stroke-width="26.2" d="M3634.75 2017.25h5.25"/><path fill="none" stroke-width="21" d="M3482.5 2017.25h78.75"/><path fill="none" stroke-width="8" d="M3345 385v40l10 10h24m10-10l-10 10m10-40v30m-44-30h80m0-10v40l-10 10m-16 0h16m-26-10l10 10m-44 24h30m-30 0l-10 10m-20 30h60m-70-10l10 10m-10-30v20m10-30l-10 10m30 0v20l10 10m-10 60h80m-50 0l-30 30m30-30l20 20m-10 64l-10 10m10-30v20m-10-30l10 10m-30-10h20m-20 0l-10 10m10 30h30m-30 0l-10 10m0-40v20l10 10m-10 44v30l10 10m10-10l-10 10m10-40v30m10-40l-10 10m10-10l10 10v30l-10 10m-20-50l-10 10m0 64h80m-70 0l-10 10v20l10 10h20m10-10l-10 10m10-30v20m-10-30l10 10m0 84l-10 10m10-30v20m-10-30l10 10m-30-10h20m-20 0l-10 10m10 30h30m-30 0l-10 10m0-40v20l10 10m-10 34h80m-50 0l10 10v20l-10 10m-30 0h30"/><path fill="none" stroke-width="7" d="M3225 393.4V409m8.4-24l-8.4 8.4m8.4-8.4h31.2l8.4 8.4V409m-48 22.8v15.6m8.4-24l-8.4 8.4m8.4-8.4h31.2l8.4 8.4v15.6m-24 14.4v24m-24 14.4v24l6 6h14.4m6-6l-6 6m6-24v18m-26.4-18h48m0-6v24l-6 6m-9.6 0h9.6m-15.6-6l6 6m15.6 14.4l-24 12 24 12m-48-12h24m0 26.4v24m24 38.4l-6 6m6-24v18m-6-24l6 6m-18-6h12m-12 0l-6 6v18l-6 6m-12 0h12m-18-6l6 6m-6-24v18m6-24l-6 6m0 38.4h36l12 8.4v13.2l-12 8.4m-36 0h36m-12-30v30m0 14.4v24m18 14.4l6 6v12l-6 6m-42-6l6 6m-6-18v12m6-18l-6 6m26.4 0v12m6 6h9.6m-36 0h14.4l6-6m6 6l-6-6M3225 787v6m6 14.4l-6 6m6-6h36l6 6v12l-6 6m-36 0h36m-42-6l6 6m-6-18v12m12-18l24 24M2945 295l5 5m-20-5h15m-20 5l5-5m-5 5v10l5 5h15l5 5v10m-5 5l5-5m-20 5h15m-20-5l5 5m32-40h10m-5 0v40m-5 0h10m12-40v40h20m12-40v40m0-20l20-20m-20 20l20 20m12 0h20l5-5m0-12v12m-5-17l5 5m-20-5h15m-15-18v40m-5-40h20l5 5v8m-5 5l5-5m12-8v30m0-30l5-5h10l5 5v30m-5 5l5-5m-15 5h10m-15-5l5 5m27-40h20m-10 0v40m459 2331l11 22-100 32m-17-3l152 51m0 529v-529m0 529l-24 11-1-2 23-11v-526l-150-49v-3l112-37-8-14 2-1 11 23m-2-4l-105 35m167-12v-7m-49 7h49m-5 14l2 1 2 2 2 3 1 3m0 7v-7m0 7l-1 2-2 3-2 2-4 1m-5 0h5m-5 0l-3-1-6-6v-2l-4 6-3 3-3 1m-8 0h8m-8 0l-3-1-3-2-2-2-2-3v-9l1-3 4-4 3-2m-24 75h4l2 5 2 12m0 9v-9m0 9l-1 6-2 5-3 4-4 4-4 2-6 2-7 1m-41 0h41m-41 0v-6h46l5-1 4-2 4-4 2-3 2-4 1-5v-6l-1-8-1-4-2-7m-20 42v-22l-1-8-2-5-1-2-3-4-3-3-4-2-5-1m-8 0h8m-8 0l-5 2-3 2-3 3-2 4-2 8m0 6v-6m0 6l1 5 2 4 3 4 7 7 3 2m23 1v-20l-1-4-1-6-2-5-3-4-5-3-5-1m-4 0h4m-4 0l-4 1-3 2-3 3-2 3-1 3-1 4m0 5v-5m0 8v-8m0 8l1 4 2 4 3 4 4 3 4 2 4 1 5 2m35 255h4l2 5 2 12m0 9v-9m0 9l-1 6-2 5-3 4-4 4-4 2-6 2-7 1m-41 0h41m-41 0v-6h46l5-1 4-2 4-4 2-3 2-4 1-5v-6l-1-8-1-4-2-7m-20 42v-22l-1-8-2-5-1-2-3-4-3-3-4-2-5-1m-8 0h8m-8 0l-5 2-3 2-3 3-2 4-2 8m0 6v-6m0 6l1 5 2 4 3 4 7 7 3 2m23 1v-20l-1-4-1-6-2-5-3-4-5-3-5-1m-4 0h4m-4 0l-4 1-3 2-3 3-2 3-1 3-1 4m0 5v-5m0 8v-8m0 8l1 4 2 4 3 4 4 3 4 2 4 1 5 2m-28-209h70m-70 0l-4-1-5-2-4-2-3-2-3-3-3-5-2-7-1-5v-5l1-8 1-5 1-4h5l-2 4-1 6-1 4m0 6v-6m0 6l1 7 3 6 4 5 3 2 5 2 4 1h4l3 1h64m0 5v-5m-38-1l-9-1-7-3-4-4-3-4-2-6v-9l1-5 4-6 4-3 5-3 5-1 4-1h13l7 1 5 2 5 3 3 3 2 3 1 3 1 4m0 8v-8m0 8l-1 4-2 5-6 6-3 1-4 2-4 1m-3 0h3m-3 0l-4 1m18-4l9-9 2-3 2-8v-6l-1-4-2-5-3-4-8-6-4-2-7-2-7-1m-4 0h4m-4 0l-6 1-5 1-6 2-4 3-5 4-3 4-2 4-1 4m0 9v-9m0 9l1 4 2 4 3 4 7 5m-16 362h70m-70 0l-4-1-5-2-4-2-3-2-3-3-3-5-2-7-1-5v-5l1-8 1-5 1-4h5l-2 4-1 6-1 4m0 6v-6m0 6l1 7 3 6 4 5 3 2 5 2 4 1h4l3 1h64m0 5v-5m-38-1l-9-1-7-3-4-4-3-4-2-6v-9l1-5 4-6 4-3 5-3 5-1 4-1h13l7 1 5 2 5 3 3 3 2 3 1 3 1 4m0 8v-8m0 8l-1 4-2 5-6 6-3 1-4 2-4 1m-3 0h3m-3 0l-4 1m18-4l9-9 2-3 2-8v-6l-1-4-2-5-3-4-8-6-4-2-7-2-7-1m-4 0h4m-4 0l-6 1-5 1-6 2-4 3-5 4-3 4-2 4-1 4m0 9v-9m0 9l1 4 2 4 3 4 7 5m-13-311h66m-66 5v-5m0 5h66v-5m-4 36h6m-6 0l2-4v-6l-1-3-1-4-3-4-2-3-3-2-4-2-6-2-8-1m32 31v-6l-1-6-2-4-4-5-7-6m-54 206h66m-66 5v-5m0 5h66v-5m-4 36h6m-6 0l2-4v-6l-1-3-1-4-3-4-2-3-3-2-4-2-6-2-8-1m32 31v-6l-1-6-2-4-4-5-7-6m-18-122v-55m0 55h10l5-2 4-2 7-7 1-3 1-4v-10l-1-4-4-8-2-2-4-3-4-2-3-1m-10 0v-7m0 7h10m-3 53h2l4-1 5-2 5-3 4-4 4-8 1-4v-9l-1-7-3-7-3-4-5-4-4-3-4-2-4-1-5-1m-10 0h10m-10 0l-8 1-7 3-3 2-7 7-2 4-2 5-1 4-1 5m0 7v-7m0 7l1 8 3 12h5l-3-7-1-6-1-8v-8l2-7 3-5 4-5 4-2 5-2 6-2h8m0 54v-54m0 54h10m-162.13-564.38l10.79 10.85 3.41 3.47 14.32 14.32 3.81 3.75 1.8.82 1.94-.45 6.38-4.38 2.03-1.37 35.47-24.41 2.09-.67 2.15.35.97.37.22.17 18.67 8.89 19.86 6.57.21.05 1.42.55 1.76 1.22 1 1.87 8.03 43.03.49 2.4 1.36 7.68 1.05 1.66 1.88.68h55.98l1.85-.68 1.03-1.66 1.41-7.68.49-2.4 8.2-44.28.98-1.97 1.78-1.28 1.9-.87 17.95-6.5 16.93-8.42m80.25-103.3l1.94-1.03 48.67-9.02 7.6-1.45 1.68-1.02.7-1.86v-55.93m-140.84 173.61l2.12-.92 2.11-.34 2.06.66 37.76 25.82 4.07 2.84 4.35 3.02 1.94.45 1.85-.82 3.7-3.75 3.52-3.47 10.79-10.85 3.53-3.47 10.85-10.85m52.19-171.93l-.7-1.86-1.68-1.02-5.16-.97-2.44-.48-48.67-9.02-1.94-1.03-1.25-1.79-.93-2.27-5.93-17.12-7.68-16.2-.12-.16-.76-1.9-.35-2.18.68-2.06 26.48-38.62 1.38-1.99 4.37-6.41.48-1.92-.8-1.78-3.81-3.75-3.36-3.47m-293.78-26.96l-2.03-1.41-1.98-1.35-4.4-3.05-1.94-.44-1.8.82-3.81 3.75-14.32 14.32-3.41 3.47-10.79 10.85-3.53 3.47-3.7 3.75-.83 1.78.46 1.92 3.04 4.39 1.35 2.02 25.18 36.71.6 2.08-.45 2.1-4.01 7.21-1.16 2.15-1.12 2.2-3.9 7.48-.13 1.81 1.27 1.29 7.81 3.2 2.25.93 2.25.97 72.87 30.11 2.19.92 2.25.93 5.15 2.16 2 .04 1.59-1.18 2.87-4.77 1.07-1.52 1.26-1.53 9.71-11.7 12.25-9 14.29-5.78 15.84-2.04 12.47 1.26 11.63 3.6 10.52 5.71 9.18 7.57 7.57 9.15m118.17-109.39l-10.85-10.85-3.53-3.47-10.79-10.85-3.52-3.47-3.7-3.75-1.85-.82-1.94.44-4.35 3.05-2.04 1.4-2.03 1.42-37.76 25.82-2.06.69-2.11-.36-2.12-.93-16.93-8.42-17.95-6.5-1.9-.82-1.78-1.32-.98-1.93-8.2-44.32-.49-2.4-.44-2.43-.97-5.21-1.03-1.7-1.85-.69m-55.98 0h55.98m-55.98 0l-1.88.69-1.05 1.7-1.36 7.64-.49 2.4-8.03 43.02-1 1.89-1.76 1.21-1.47.59-19.85 6.6m115.87 121.07l5.71 10.51 3.63 11.63 1.25 12.47-1.25 12.47-3.63 11.61-5.71 10.5-7.57 9.16m-108.3-199.42l-18.67 8.86-1.36.54-2.15.38-2.09-.7-35.47-24.36m293.78 314.89l3.36-3.47 3.81-3.75.8-1.78-.48-1.9-2.99-4.41-1.38-2.02-1.38-1.99-26.48-38.57-.68-2.11.35-2.18.76-1.89.12-.11 7.68-16.26 5.93-17.12.93-2.27 1.25-1.79m-117.34 1.43l-9.18 7.55-10.52 5.7-11.63 3.61-12.47 1.25-15.84-2.04-14.29-5.78-12.25-9.02-10.97-13.22-1.07-1.53-2.87-4.76-1.59-1.18-2 .08-5.15 2.13-2.25.91-2.19.98-72.87 30.07-2.25.95-10.06 4.14-1.27 1.28.13 1.81 3.9 7.54 1.12 2.14 1.16 2.15 4.01 7.21.45 2.1-.6 2.08-25.18 36.71-1.35 2.02-3.04 4.41-.46 1.9.83 1.78 3.7 3.75 3.53 3.47"/></g></g><use class="_board-cf" mask="url(#_bottom-cu_finish-mask)" xlink:href="#_bottom-sm"/></g><style>._board-fr4{color:#4d542c}._board-cu{color:#d3d3d3}._board-cf{color:#daa520}._board-sm{color:#fff;opacity:.9}._board-ss{color:#000}._board-sp{color:silver;opacity:0}._board-out{color:#000}</style></svg>