<svg xmlns="http://www.w3.org/2000/svg" id="_bottom" stroke-width="0" xmlns:xlink="http://www.w3.org/1999/xlink" stroke-linecap="round" stroke-linejoin="round" viewBox="123444 -99316.441 12700 20830.441"><defs><circle id="tool-D11-pad-1001" r="875"/><circle id="tool-D12-pad-1002" r="342.9"/><circle id="tool-D11-pad-1006" r="925"/><circle id="tool-T1-pad-1056" r="165"/><circle id="tool-T2-pad-1057" r="500"/><g id="_bottom-cu" fill="currentColor" stroke="currentColor"><use x="129540" y="-97790" xlink:href="#tool-D11-pad-1001"/><use x="132080" y="-97790" xlink:href="#tool-D11-pad-1001"/><use x="127000" y="-80010" xlink:href="#tool-D11-pad-1001"/><use x="129540" y="-80010" xlink:href="#tool-D11-pad-1001"/><use x="132080" y="-80010" xlink:href="#tool-D11-pad-1001"/><use x="134620" y="-80010" xlink:href="#tool-D11-pad-1001"/><use x="128940" y="-88900" xlink:href="#tool-D12-pad-1002"/><use x="130140" y="-88900" xlink:href="#tool-D12-pad-1002"/><use x="129540" y="-88300" xlink:href="#tool-D12-pad-1002"/><use x="129540" y="-89500" xlink:href="#tool-D12-pad-1002"/><use x="129540" y="-88900" xlink:href="#tool-D12-pad-1002"/><use x="125100" y="-79700" xlink:href="#tool-D12-pad-1002"/><use x="124750" y="-90500" xlink:href="#tool-D12-pad-1002"/><use x="125900" y="-97600" xlink:href="#tool-D12-pad-1002"/><use x="131300" y="-82700" xlink:href="#tool-D12-pad-1002"/><use x="134392.885" y="-86393.047" xlink:href="#tool-D12-pad-1002"/><use x="126617.329" y="-90515.594" xlink:href="#tool-D12-pad-1002"/><use x="129504.189" y="-91474.7" xlink:href="#tool-D12-pad-1002"/><use x="132344.301" y="-90063.301" xlink:href="#tool-D12-pad-1002"/><use x="129035.615" y="-82625.705" xlink:href="#tool-D12-pad-1002"/><use x="132699.324" y="-87092.437" xlink:href="#tool-D12-pad-1002"/><path fill="none" stroke-width="225" d="M125100-80184.933V-79700m4440-310l-1190-1190m0 0h-2234.933m0 0L125100-80184.933M125900-97600v5950m0 0l-1150 1150m7330-7290l-1187.501 1187.501m0 0h-3994.998m0 0L125900-97600m4827.501 16402.499h678.65m0 0h2026.348M131300-82700v1396.348m0 0l106.151 106.151m2986.734-5195.546v6155.932m0 0L134620-80010m-5080 0l1187.501-1187.501m2704.998 0l312.502 312.502m0 0L134620-80010m-4737.101-8632.899L129540-88300m3144.853-342.899h-2801.954m4509.986 2249.852v-541.82m0 0l-1708.032-1708.032m-5582.591-1872.695h-484.933m1927.754 0h-1442.821m2401.927-959.106l-959.106 959.106m2370.505 452.293l-1068.5-1068.5m0 0l-342.899-342.899m2840.112 1411.399h-1428.713m-1879.973 6952.663v484.933m0-803.023v318.09m3663.709-3981.799l-3663.709 3663.709"/><path d="M135780.5-96114.207l-79.351-579.076-186.781-542.373-288.57-495.758-379.368-430.27-455.717-348.39-514.71-253.239-533.751-142.991v11876.907l-24.489 123.678-48.045 116.566-69.771 105.014-88.84 89.462-104.525 70.503-116.227 48.857-123.504 25.352-126.077.88-1.208-.23-3191.451 3191.451v137.167l76.527 72.875 72.676 103.025 51.281 115.179 27.933 122.946 2.011 144.007-24.489 123.678-48.045 116.566-69.771 105.014-88.84 89.462-104.525 70.503-116.227 48.857-123.504 25.352-126.077.88-123.846-23.625-116.898-47.23-105.499-69.036-90.08-88.213-71.231-104.03-49.668-115.884-26.213-123.324-1.76-126.067 22.759-124.008 46.413-117.225 68.298-105.978 87.582-90.694 6.193-4.304v-306.757l3.719-37.932 3.32-37.948.605-2.083.212-2.159 11.017-36.491 10.627-36.576.997-1.924.628-2.079 17.896-33.658 17.527-33.813 1.353-1.695 1.019-1.916 24.1-29.549 23.755-29.758 2.977-3.019.05-.062.056-.046.96-.974 3313.221-3313.221-1.575-112.863 22.759-124.008 46.413-117.225 68.298-105.978 87.582-90.694 103.53-71.955 115.535-50.476 123.138-27.074 126.051-2.64 124.164 21.893 117.547 45.594 106.452 67.556 91.303 86.947 72.676 103.025 51.281 115.179 27.933 122.946 2.011 144.007v-11876.907l-20.334-5.448-334.689-22.214v8933.705l-24.489 123.678-48.045 116.566-69.771 105.014-88.84 89.462-104.525 70.503-116.227 48.857-123.504 25.352-126.077.88-123.846-23.625-116.898-47.23-105.499-69.036-90.08-88.213-1.882-2.748h-931.958l-37.933-3.719-37.947-3.32-2.084-.605-2.158-.212-36.492-11.017-36.575-10.627-1.925-.997-2.078-.628-33.638-17.885-33.834-17.538-1.698-1.355-1.912-1.017-29.528-24.082-29.779-23.773-3.016-2.973-.065-.054-.051-.06-.969-.957-1060.551-1060.549-117.716.821-1.209-.23-607.665 607.666-29.478 24.213-29.155 24.464-1.901 1.045-1.676 1.377-33.578 18.005-33.393 18.357-2.069.657-1.911 1.024-36.429 11.138-36.328 11.524-2.156.242-2.074.634-37.926 3.853-37.849 4.245-4.235.03-.084.008-.079-.007-1.361.009h-1431.304l-84.667 85.26-104.525 70.503-116.227 48.857-123.504 25.352-126.077.88-123.846-23.625-116.898-47.23-105.499-69.036-90.08-88.213-71.231-104.03-49.668-115.884-26.213-123.324-1.76-126.067 22.759-124.008 46.413-117.225 68.298-105.978 87.582-90.694 103.53-71.955 115.535-50.476 123.138-27.074 126.051-2.64 124.164 21.893 117.547 45.594 106.452 67.556 91.303 86.947 6.784 9.617h1261.079l487.8-487.8-1.575-112.863 22.759-124.008 46.413-117.225 68.298-105.978 87.582-90.694 103.53-71.955 115.535-50.476 123.138-27.074 126.051-2.64 124.164 21.893 117.547 45.594 106.452 67.556 91.303 86.947 72.676 103.025 51.281 115.179 27.933 122.946 1.961 140.482 939.384 939.384h762.421l76.736-79.462 103.53-71.955 115.535-50.476 123.138-27.074 126.051-2.64 124.164 21.893 117.547 45.594 106.452 67.556 91.303 86.947 72.676 103.025 51.281 115.179 27.933 122.946 2.011 144.007v-8933.705l-254.878-16.918-4.651.162-3.818-.24-3.807.427-5.075.035h-2989.679l132.189 23.308 214.834 83.329 194.558 123.471 166.871 158.908 132.827 188.294 93.724 210.508 51.051 224.703 3.675 263.194-44.757 226.041-87.81 213.042-127.518 191.93-162.368 163.505-191.035 128.855-212.424 89.295-225.723 46.334-230.424 1.609-226.347-43.178-213.651-86.321-192.815-126.174-164.635-161.223-130.185-190.131-90.776-211.795-47.909-225.394-3.217-230.407 41.597-226.644 84.826-214.248 124.826-193.691 160.07-165.757 189.216-131.509 211.157-92.252 171.024-37.602h-2080.665l-670.737 42.494-626.373 165.788-582.24 284.293-515.93 391.967-429.972 484.716-327.637 559.002-212.817 611.991-92.286 658.742-.015.396v14707.335l43.16 440.186 122.677 406.328 199.26 374.754 268.259 328.917 327.034 270.546 373.356 201.873 405.458 125.51 439.206 46.162h826.739l-146.005-27.852-213.651-86.321-192.815-126.174-164.635-161.223-130.185-190.131-90.776-211.795-47.909-225.394-3.217-230.407 41.597-226.644 84.826-214.248 124.826-193.691 160.07-165.757 189.216-131.509 211.157-92.252 225.054-49.481 230.379-4.826 226.929 40.013 214.834 83.329 194.558 123.471 166.871 158.908 132.827 188.294 93.724 210.508 51.051 224.703 3.675 263.194-44.757 226.041-87.81 213.042-127.518 191.93-162.368 163.505-191.035 128.855-212.424 89.295-158.899 32.617h4702.41l-146.005-27.852-213.651-86.321-192.815-126.174-164.635-161.223-130.185-190.131-90.776-211.795-47.909-225.394-3.217-230.407 41.597-226.644 84.826-214.248 124.826-193.691 160.07-165.757 189.216-131.509 211.157-92.252 225.054-49.481 230.379-4.826 226.929 40.013 214.834 83.329 194.558 123.471 166.871 158.908 132.827 188.294 93.724 210.508 51.051 224.703 3.675 263.194-44.757 226.041-87.81 213.042-127.518 191.93-162.368 163.505-191.035 128.855-212.424 89.295-158.899 32.617h2331.985l242.846-23.811 216.498-65.365 199.68-106.172 175.252-142.932 144.153-174.252 107.562-198.931 66.874-216.033 25.411-241.768v-16095.443z"/><path fill="none" stroke-width="200" d="M135780.5-96114.207l-79.351-579.076-186.781-542.373-288.57-495.758-379.368-430.27-455.717-348.39-514.71-253.239-533.751-142.991v11876.907l-24.489 123.678-48.045 116.566-69.771 105.014-88.84 89.462-104.525 70.503-116.227 48.857-123.504 25.352-126.077.88-1.208-.23-3191.451 3191.451v137.167l76.527 72.875 72.676 103.025 51.281 115.179 27.933 122.946 2.011 144.007-24.489 123.678-48.045 116.566-69.771 105.014-88.84 89.462-104.525 70.503-116.227 48.857-123.504 25.352-126.077.88-123.846-23.625-116.898-47.23-105.499-69.036-90.08-88.213-71.231-104.03-49.668-115.884-26.213-123.324-1.76-126.067 22.759-124.008 46.413-117.225 68.298-105.978 87.582-90.694 6.193-4.304v-306.757l3.719-37.932 3.32-37.948.605-2.083.212-2.159 11.017-36.491 10.627-36.576.997-1.924.628-2.079 17.896-33.658 17.527-33.813 1.353-1.695 1.019-1.916 24.1-29.549 23.755-29.758 2.977-3.019.05-.062.056-.046.96-.974 3313.221-3313.221-1.575-112.863 22.759-124.008 46.413-117.225 68.298-105.978 87.582-90.694 103.53-71.955 115.535-50.476 123.138-27.074 126.051-2.64 124.164 21.893 117.547 45.594 106.452 67.556 91.303 86.947 72.676 103.025 51.281 115.179 27.933 122.946 2.011 144.007v-11876.907l-20.334-5.448-334.689-22.214v8933.705l-24.489 123.678-48.045 116.566-69.771 105.014-88.84 89.462-104.525 70.503-116.227 48.857-123.504 25.352-126.077.88-123.846-23.625-116.898-47.23-105.499-69.036-90.08-88.213-1.882-2.748h-931.958l-37.933-3.719-37.947-3.32-2.084-.605-2.158-.212-36.492-11.017-36.575-10.627-1.925-.997-2.078-.628-33.638-17.885-33.834-17.538-1.698-1.355-1.912-1.017-29.528-24.082-29.779-23.773-3.016-2.973-.065-.054-.051-.06-.969-.957-1060.551-1060.549-117.716.821-1.209-.23-607.665 607.666-29.478 24.213-29.155 24.464-1.901 1.045-1.676 1.377-33.578 18.005-33.393 18.357-2.069.657-1.911 1.024-36.429 11.138-36.328 11.524-2.156.242-2.074.634-37.926 3.853-37.849 4.245-4.235.03-.084.008-.079-.007-1.361.009h-1431.304l-84.667 85.26-104.525 70.503-116.227 48.857-123.504 25.352-126.077.88-123.846-23.625-116.898-47.23-105.499-69.036-90.08-88.213-71.231-104.03-49.668-115.884-26.213-123.324-1.76-126.067 22.759-124.008 46.413-117.225 68.298-105.978 87.582-90.694 103.53-71.955 115.535-50.476 123.138-27.074 126.051-2.64 124.164 21.893 117.547 45.594 106.452 67.556 91.303 86.947 6.784 9.617h1261.079l487.8-487.8-1.575-112.863 22.759-124.008 46.413-117.225 68.298-105.978 87.582-90.694 103.53-71.955 115.535-50.476 123.138-27.074 126.051-2.64 124.164 21.893 117.547 45.594 106.452 67.556 91.303 86.947 72.676 103.025 51.281 115.179 27.933 122.946 1.961 140.482 939.384 939.384h762.421l76.736-79.462 103.53-71.955 115.535-50.476 123.138-27.074 126.051-2.64 124.164 21.893 117.547 45.594 106.452 67.556 91.303 86.947 72.676 103.025 51.281 115.179 27.933 122.946 2.011 144.007v-8933.705l-254.878-16.918-4.651.162-3.818-.24-3.807.427-5.075.035h-2989.679l132.189 23.308 214.834 83.329 194.558 123.471 166.871 158.908 132.827 188.294 93.724 210.508 51.051 224.703 3.675 263.194-44.757 226.041-87.81 213.042-127.518 191.93-162.368 163.505-191.035 128.855-212.424 89.295-225.723 46.334-230.424 1.609-226.347-43.178-213.651-86.321-192.815-126.174-164.635-161.223-130.185-190.131-90.776-211.795-47.909-225.394-3.217-230.407 41.597-226.644 84.826-214.248 124.826-193.691 160.07-165.757 189.216-131.509 211.157-92.252 171.024-37.602h-2080.665l-670.737 42.494-626.373 165.788-582.24 284.293-515.93 391.967-429.972 484.716-327.637 559.002-212.817 611.991-92.286 658.742-.015.396v14707.335l43.16 440.186 122.677 406.328 199.26 374.754 268.259 328.917 327.034 270.546 373.356 201.873 405.458 125.51 439.206 46.162h826.739l-146.005-27.852-213.651-86.321-192.815-126.174-164.635-161.223-130.185-190.131-90.776-211.795-47.909-225.394-3.217-230.407 41.597-226.644 84.826-214.248 124.826-193.691 160.07-165.757 189.216-131.509 211.157-92.252 225.054-49.481 230.379-4.826 226.929 40.013 214.834 83.329 194.558 123.471 166.871 158.908 132.827 188.294 93.724 210.508 51.051 224.703 3.675 263.194-44.757 226.041-87.81 213.042-127.518 191.93-162.368 163.505-191.035 128.855-212.424 89.295-158.899 32.617h4702.41l-146.005-27.852-213.651-86.321-192.815-126.174-164.635-161.223-130.185-190.131-90.776-211.795-47.909-225.394-3.217-230.407 41.597-226.644 84.826-214.248 124.826-193.691 160.07-165.757 189.216-131.509 211.157-92.252 225.054-49.481 230.379-4.826 226.929 40.013 214.834 83.329 194.558 123.471 166.871 158.908 132.827 188.294 93.724 210.508 51.051 224.703 3.675 263.194-44.757 226.041-87.81 213.042-127.518 191.93-162.368 163.505-191.035 128.855-212.424 89.295-158.899 32.617h2331.985l242.846-23.811 216.498-65.365 199.68-106.172 175.252-142.932 144.153-174.252 107.562-198.931 66.874-216.033 25.411-241.768v-16095.443"/></g><mask id="_bottom_mech-mask" fill="#fff" fill-rule="evenodd" stroke="#fff"><path d="M123444-95758a3685.189 3685.189 0 0 1 3810-3556h5461a3304.441 3304.441 0 0 1 3429 3175v16129a1524 1524 0 0 1-1524 1524h-8636a2540 2540 0 0 1-2540-2540z"/><g id="_bottom-drl" fill="#000" stroke="#000"><use x="124750" y="-90500" xlink:href="#tool-T1-pad-1056"/><use x="125100" y="-79700" xlink:href="#tool-T1-pad-1056"/><use x="125900" y="-97600" xlink:href="#tool-T1-pad-1056"/><use x="126617" y="-90516" xlink:href="#tool-T1-pad-1056"/><use x="128940" y="-88900" xlink:href="#tool-T1-pad-1056"/><use x="129036" y="-82626" xlink:href="#tool-T1-pad-1056"/><use x="129504" y="-91475" xlink:href="#tool-T1-pad-1056"/><use x="129540" y="-88300" xlink:href="#tool-T1-pad-1056"/><use x="129540" y="-88900" xlink:href="#tool-T1-pad-1056"/><use x="129540" y="-89500" xlink:href="#tool-T1-pad-1056"/><use x="130140" y="-88900" xlink:href="#tool-T1-pad-1056"/><use x="131300" y="-82700" xlink:href="#tool-T1-pad-1056"/><use x="132344" y="-90063" xlink:href="#tool-T1-pad-1056"/><use x="132699" y="-87092" xlink:href="#tool-T1-pad-1056"/><use x="134393" y="-86393" xlink:href="#tool-T1-pad-1056"/><use x="127000" y="-80010" xlink:href="#tool-T2-pad-1057"/><use x="129540" y="-80010" xlink:href="#tool-T2-pad-1057"/><use x="129540" y="-97790" xlink:href="#tool-T2-pad-1057"/><use x="132080" y="-80010" xlink:href="#tool-T2-pad-1057"/><use x="132080" y="-97790" xlink:href="#tool-T2-pad-1057"/><use x="134620" y="-80010" xlink:href="#tool-T2-pad-1057"/></g></mask></defs><g mask="url(#_bottom_mech-mask)" transform="rotate(180 129794 -88901.22)"><path fill="currentColor" d="M123444-99316.441h12700V-78486h-12700z" class="_board-fr4"/><use class="_board-cu" xlink:href="#_bottom-cu"/><defs><g id="_bottom-sm" fill="currentColor" stroke="currentColor"><use x="129540" y="-97790" xlink:href="#tool-D11-pad-1006"/><use x="132080" y="-97790" xlink:href="#tool-D11-pad-1006"/><use x="127000" y="-80010" xlink:href="#tool-D11-pad-1006"/><use x="129540" y="-80010" xlink:href="#tool-D11-pad-1006"/><use x="132080" y="-80010" xlink:href="#tool-D11-pad-1006"/><use x="134620" y="-80010" xlink:href="#tool-D11-pad-1006"/></g><mask id="_bottom-sm_mask" color="#000"><path fill="#fff" d="M123444-99316.441h12700V-78486h-12700z"/><use xlink:href="#_bottom-sm"/></mask><mask id="_bottom-cu_finish-mask" color="#fff"><use xlink:href="#_bottom-cu"/></mask></defs><g mask="url(#_bottom-sm_mask)"><path fill="currentColor" d="M123444-99316.441h12700V-78486h-12700z" class="_board-sm"/><path id="_bottom-ss" fill="none" stroke="currentColor" stroke-width="127" d="M131419.571-80941.857h-457.143m228.571-228.572v457.143m-4851.428-228.571h-457.143m228.571-228.572v457.143m2768.572-18008.571h-457.143m228.571-228.572v457.143m5055.573 14801.357h-342.857m171.429-600v600m-371.429-600v600m-942.857-285.714l-85.714-28.571-28.572-28.572-28.571-57.143v-85.714l28.571-57.143 28.572-28.571 57.142-28.572h228.572v600h-200l-57.143-28.571-28.571-28.571-28.572-57.143v-57.143l28.572-57.143 28.571-28.571 57.143-28.572h200m-1000-371.428l57.143 28.571 57.143 57.143 85.714 85.714 57.143 28.572h57.143m-28.572-142.858l57.143 28.572 57.143 57.143 28.571 114.285v200l-28.571 114.286-57.143 57.143-57.143 28.571h-114.286l-57.142-28.571-57.143-57.143-28.572-114.286v-200l28.572-114.285 57.143-57.143 57.142-28.572h114.286m-485.714 542.858l-28.571 28.571-57.143 28.571h-142.857l-57.143-28.571-28.571-28.571-28.572-57.143v-57.143l28.572-85.714 342.857-342.858h-371.429m-542.857 600h285.714l28.571-285.714-28.571 28.572-57.143 28.571h-142.857l-57.143-28.571-28.571-28.572-28.572-57.143v-142.857l28.572-57.143 28.571-28.571 57.143-28.572h142.857l57.143 28.572 28.571 28.571m-885.714 542.857h285.714l28.571-285.714-28.571 28.572-57.143 28.571h-142.857l-57.143-28.571-28.571-28.572-28.572-57.143v-142.857l28.572-57.143 28.571-28.571 57.143-28.572h142.857l57.143 28.572 28.571 28.571m-542.857 542.857h-400l257.143-600m-600.001 600h-57.143l-57.143-28.571-28.571-28.571-28.571-57.143-28.572-114.286v-142.857l28.572-114.286 28.571-57.143 28.571-28.571 57.143-28.572h57.143l57.143 28.572 28.571 28.571 28.572 57.143 28.571 114.286v142.857l-28.571 114.286-28.572 57.143-28.571 28.571-57.143 28.571m-914.286-600v600m0-285.714h-342.857m0-314.286v600m-542.857-600v314.286l28.571 57.143 57.143 28.571h114.286l57.143-28.571m-257.143-342.857l57.143-28.572h142.857l57.143 28.572 28.571 57.143v57.143l-28.571 57.142-57.143 28.572h-142.857l-57.143 28.571m-285.714-257.143v400m0-114.285l-28.572 57.143-28.571 28.571-57.143 28.571h-57.143m-142.857 0l-142.857-400-142.858 400m-457.143-371.428l57.143-28.572h114.286l57.143 28.572 28.571 57.143v228.571l-28.571 57.143-57.143 28.571h-114.286l-57.143-28.571-28.571-57.143v-57.143l285.714-57.143m-514.286-171.428l-57.143-28.572h-114.285l-57.143 28.572-28.572 57.143v28.571l28.572 57.143 57.143 28.571h85.714l57.143 28.572 28.571 57.143v28.571l-28.571 57.143-57.143 28.571h-85.714l-57.143-28.571m-200 28.571h-228.571m142.857 200v-514.285l-28.572-57.143-57.142-28.572h-57.143m-428.572 28.572l57.143-28.572h114.286l57.143 28.572 28.571 57.143v228.571l-28.571 57.143-57.143 28.571h-114.286l-57.143-28.571-28.571-57.143v-57.143l285.714-57.143m-542.857-200v400m0-114.285l-28.572 57.143-28.571 28.571-57.143 28.571h-57.143m8342.859-1367l200 285.715m142.857-285.715v600h-228.572l-57.142-28.571-28.572-28.571-28.571-57.143v-85.715l28.571-57.142 28.572-28.572 57.142-28.571h228.572m-828.572-257.143l57.143-28.572H131878l57.143 28.572 28.571 57.143v228.571l-28.571 57.143-57.143 28.571h-114.286l-57.143-28.571-28.571-57.143v-57.143l285.714-57.143m-457.143 200H131278m142.857-400v514.286l-28.572 57.143-57.142 28.571H131278m-428.572-571.428l57.143-28.572h114.286l57.143 28.572 28.571 57.143v228.571l-28.571 57.143-57.143 28.571h-114.286l-57.143-28.571-28.571-57.143v-57.143l285.714-57.143m-542.857-200v400m0-114.285l-28.572 57.143-28.571 28.571-57.143 28.571h-57.143m-428.572-371.428l57.143-28.572h114.286l57.143 28.572 28.571 57.143v228.571l-28.571 57.143-57.143 28.571h-114.286l-57.143-28.571-28.571-57.143v-57.143l285.714-57.143m-542.857 200v-400m0 342.858l-28.572 28.571-57.142 28.571h-85.715l-57.143-28.571-28.571-57.143v-314.286m-542.857 28.572l57.143-28.572h114.286l57.142 28.572 28.572 28.571 28.571 57.143v171.429l-28.571 57.143-28.572 28.571-57.142 28.571h-114.286l-57.143-28.571m-485.715-342.857l57.143-28.572h114.286l57.143 28.572 28.571 57.143v228.571l-28.571 57.143-57.143 28.571h-114.286l-57.143-28.571-28.571-57.143v-57.143l285.714-57.143m-1257.143-200v600m0-571.428l57.143-28.572h114.286l57.142 28.572 28.572 28.571 28.571 57.143v171.429l-28.571 57.143-28.572 28.571-57.142 28.571h-114.286l-57.143-28.571m-514.286-342.857l57.143-28.572h114.286l57.143 28.572 28.571 57.143v228.571l-28.571 57.143-57.143 28.571h-114.286l-57.143-28.571-28.571-57.143v-57.143l285.714-57.143m-514.286-171.428l-57.143-28.572h-114.285l-57.143 28.572-28.572 57.143v28.571l28.572 57.143 57.143 28.571h85.714l57.143 28.572 28.571 57.143v28.571l-28.571 57.143-57.143 28.571h-85.714l-57.143-28.571m-285.714-371.429v400m0 200l28.571-28.571-28.571-28.571-28.572 28.571 28.572 28.571v-57.142m-542.857-142.858v-485.714l28.571-57.143 28.572-28.571 57.143-28.572h85.714l57.143 28.572m-257.143 200l57.143-28.572h114.286l57.142 28.572 28.572 28.571 28.571 57.143v171.429l-28.571 57.143-28.572 28.571-57.142 28.571h-114.286l-57.143-28.571m-285.714 28.571v-400m0 342.858l-28.572 28.571-57.142 28.571h-85.715l-57.143-28.571-28.571-57.143v-314.286m7642.857-938.428l-85.714-28.572h-142.857l-57.143 28.572-28.571 28.571-28.572 57.143v57.143l28.572 57.143 28.571 28.571 57.143 28.572 114.286 28.571 57.142 28.572 28.572 28.571 28.571 57.143v57.143l-28.571 57.143-28.572 28.571-57.142 28.571h-142.858l-85.714-28.571m-171.429-171.429h-228.571m142.857 200v-514.285l-28.572-57.143-57.142-28.572h-57.143m-428.572 28.572l57.143-28.572h114.286l57.143 28.572 28.571 57.143v228.571l-28.571 57.143-57.143 28.571h-114.286l-57.143-28.571-28.571-57.143v-57.143l285.714-57.143m-457.143 200h-228.571m142.857-400v514.286l-28.572 57.143-57.142 28.571h-57.143m-457.143-600v314.286l28.571 57.143 57.143 28.571h114.286l57.143-28.571m-257.143-342.857l57.143-28.572h142.857l57.143 28.572 28.571 57.143v57.143l-28.571 57.142-57.143 28.572h-142.857l-57.143 28.571m-285.714 142.857v-400m0 342.858l-28.572 28.571-57.142 28.571h-85.715l-57.143-28.571-28.571-57.143v-314.286m-742.857 0v600m0-285.714h-342.857m0-314.286v600m-542.857-600v314.286l28.571 57.143 57.143 28.571h114.286l57.143-28.571m-257.143-342.857l57.143-28.572h142.857l57.143 28.572 28.571 57.143v57.143l-28.571 57.142-57.143 28.572h-142.857l-57.143 28.571m-285.714-257.143v400m0-57.142l-28.572 28.571-57.142 28.571h-85.715l-57.143-28.571-28.571-57.143v-314.286m0 314.286l-28.571 57.143-57.143 28.571h-85.715l-57.142-28.571-28.572-57.143v-314.286m-285.714 0v400m0-57.142l-28.572 28.571-57.142 28.571h-85.715l-57.143-28.571-28.571-57.143v-314.286m0 314.286l-28.571 57.143-57.143 28.571h-85.715l-57.142-28.571-28.572-57.143v-314.286m-285.714 0v400m0 200l28.571-28.571-28.571-28.571-28.572 28.571 28.572 28.571v-57.142m-285.714-142.858v-400m0 342.858l-28.572 28.571-57.142 28.571h-85.715l-57.143-28.571-28.571-57.143v-314.286m-542.857 400v-485.714l28.571-57.143 28.572-28.571 57.143-28.572h85.714l57.143 28.572m-257.143 200l57.143-28.572h114.286l57.142 28.572 28.572 28.571 28.571 57.143v171.429l-28.571 57.143-28.572 28.571-57.142 28.571h-114.286l-57.143-28.571m-542.857-371.429v314.286l28.571 57.143 57.143 28.571h114.286l57.143-28.571m-257.143-342.857l57.143-28.572h142.857l57.143 28.572 28.571 57.143v57.143l-28.571 57.142-57.143 28.572H124978l-57.143 28.571m7257.143-824.143v-600m0 571.429l-57.143 28.571h-114.286l-57.143-28.571-28.571-28.571-28.571-57.143v-171.429l28.571-57.143 28.571-28.571 57.143-28.572h114.286l57.143 28.572m-542.857-28.572v400m0-114.285l-28.572 57.143-28.571 28.571-57.143 28.571h-57.143m-200 0v-514.285l28.571-57.143 57.143-28.572h28.572m-114.286 800l28.571-28.571-28.571-28.571-28.572 28.571 28.572 28.571v-57.142m-542.857-514.286l57.143-28.572h114.286l57.142 28.572 28.572 28.571 28.571 57.143v171.429l-28.571 57.143-28.572 28.571-57.142 28.571H130778l-57.143-28.571m-171.429 28.571h-228.571m142.857 200v-514.285l-28.572-57.143-57.142-28.572h-57.143m-200 57.143l-28.572-28.571 28.572-28.572 28.571 28.572-28.571 28.571v-57.143m-285.714 400v-400m0 342.858l-28.572 28.571-57.142 28.571h-85.715l-57.143-28.571-28.571-57.143v-314.286m-514.286 28.572l57.143-28.572h114.286l57.143 28.572 28.571 57.143v228.571l-28.571 57.143-57.143 28.571h-114.286l-57.143-28.571-28.571-57.143v-57.143l285.714-57.143m-457.143 200h-228.571m142.857 200v-514.285l-28.572-57.143-57.142-28.572h-57.143m-1000 0l200 285.715m142.857-285.715v600h-228.572l-57.142-28.571-28.572-28.571-28.571-57.143v-85.715l28.571-57.142 28.572-28.572 57.142-28.571H127978m-714.286 314.285h-57.143l-57.143-28.571-28.571-28.571-28.571-57.143-28.572-114.286v-142.857l28.572-114.286 28.571-57.143 28.571-28.571 57.143-28.572h57.143l57.143 28.572 28.571 28.571 28.572 57.143 28.571 114.286v142.857l-28.571 114.286-28.572 57.143-28.571 28.571-57.143 28.571m-457.143-542.857l-28.572-28.571 28.572-28.572 28.571 28.572-28.571 28.571v-57.143m-400 600h-57.143l-57.143-28.571-28.571-28.571-28.571-57.143-28.572-114.286v-142.857l28.572-114.286 28.571-57.143 28.571-28.571 57.143-28.572h57.143l57.143 28.572 28.571 28.571 28.572 57.143 28.571 114.286v142.857l-28.571 114.286-28.572 57.143-28.571 28.571-57.143 28.571m-457.143-542.857l-28.572-28.571 28.572-28.572 28.571 28.572-28.571 28.571v-57.143m-400 600h-57.143l-57.143-28.571-28.571-28.571-28.571-57.143-28.572-114.286v-142.857l28.572-114.286 28.571-57.143 28.571-28.571 57.143-28.572h57.143l57.143 28.572 28.571 28.571 28.572 57.143 28.571 114.286v142.857l-28.571 114.286-28.572 57.143-28.571 28.571-57.143 28.571m6417.714-9563.5v600m-285.714-600v600l-342.857-600v600m-285.714-600v600h-228.572l-57.142-28.571-28.572-28.571-28.571-57.143v-85.715l28.571-57.142 28.572-28.572 57.142-28.571h228.572m-600 314.285v-485.714l-28.572-57.143-28.571-28.571-57.143-28.572h-114.286l-57.142 28.572-28.572 28.571-28.571 57.143v485.714m-200 0h-342.857m171.429-600v600m-897.144 13370h285.714v600m-485.714-600v600m-285.714-600v600h-228.572L128070-81615l-28.572-28.571-28.571-57.143v-85.715l28.571-57.142 28.572-28.572 57.142-28.571h228.572m-714.286 314.285h-114.286L127470-81615l-57.143-57.143-28.572-114.286v-200l28.572-114.285 57.143-57.143 57.142-28.572h114.286l57.143 28.572 57.143 57.143 28.571 114.285v200l-28.571 114.286-57.143 57.143-57.143 28.571m6394.286-600h285.714v600m-600 0h-114.286L133550-81615l-57.143-57.143-28.572-114.286v-200l28.572-114.285 57.143-57.143 57.142-28.572h114.286l57.143 28.572 57.143 57.143 28.571 114.285v200l-28.571 114.286-57.143 57.143-57.143 28.571m-485.714-428.571H132950m342.857-171.429l-200 600-200-600m-200 0v600H132550l-85.715-28.571-57.142-57.143-28.572-57.143-28.571-114.285v-85.715l28.571-114.285 28.572-57.143 57.142-57.143 85.715-28.572h142.857" class="_board-ss"/></g><use class="_board-cf" mask="url(#_bottom-cu_finish-mask)" xlink:href="#_bottom-sm"/></g><style>._board-fr4{color:#4d542c}._board-cu{color:#d3d3d3}._board-cf{color:#daa520}._board-sm{color:#040;opacity:.9}._board-ss{color:#fff}._board-sp{color:silver;opacity:0}._board-out{color:#000}</style></svg>