<svg xmlns="http://www.w3.org/2000/svg" id="_bottom" stroke-width="0" xmlns:xlink="http://www.w3.org/1999/xlink" stroke-linecap="round" stroke-linejoin="round" viewBox="438.6 460.1 2362.3 1456.7"><defs><circle id="tool-T1-pad-1024" r="10"/><circle id="tool-T2-pad-1025" r="12.5"/><circle id="tool-T3-pad-1026" r="15"/><circle id="tool-T4-pad-1027" r="17.7"/><circle id="tool-T5-pad-1028" r="20"/><circle id="tool-T6-pad-1029" r="63"/><path id="tool-D10-pad-1334" d="M-23.6-23.6h47.2v47.2h-47.2z"/><path id="tool-D11-pad-1335" d="M-32-32h64v64h-64z"/><path id="tool-D12-pad-1336" d="M32 13.255L13.255 32h-26.51L-32 13.255v-26.51L-13.255-32h26.51L32-13.255z"/><circle id="tool-D13-pad-1337" r="20"/><circle id="tool-D14-pad-1338" r="22.5"/><circle id="tool-D18-pad-1342" r="25"/><path id="tool-D10-pad-1362" d="M-27.6-27.6h55.2v55.2h-55.2z"/><circle id="tool-D11-pad-1363" r="21.7"/><path id="tool-D12-pad-1364" d="M-36-36h72v72h-72z"/><path id="tool-D13-pad-1365" d="M36 14.912L14.912 36h-29.824L-36 14.912v-29.824L-14.912-36h29.824L36-14.912z"/><circle id="tool-D14-pad-1366" r="67"/><circle id="tool-D15-pad-1367" r="29"/><g id="_bottom-cu" fill="currentColor" stroke="currentColor"><use x="987.9" y="1818.4" xlink:href="#tool-D10-pad-1334"/><use x="1070.6" y="1818.4" xlink:href="#tool-D10-pad-1334"/><use x="1381.6" y="1818.4" xlink:href="#tool-D10-pad-1334"/><use x="1464.3" y="1818.4" xlink:href="#tool-D10-pad-1334"/><use x="1775.3" y="1818.4" xlink:href="#tool-D10-pad-1334"/><use x="1858" y="1818.4" xlink:href="#tool-D10-pad-1334"/><use x="2169" y="1818.4" xlink:href="#tool-D10-pad-1334"/><use x="2251.7" y="1818.4" xlink:href="#tool-D10-pad-1334"/><use x="2516.2" y="988.4" xlink:href="#tool-D11-pad-1335"/><use x="1419.8" y="597.9" xlink:href="#tool-D11-pad-1335"/><use x="1519.8" y="597.9" xlink:href="#tool-D12-pad-1336"/><use x="1619.8" y="597.9" xlink:href="#tool-D12-pad-1336"/><use x="1719.8" y="597.9" xlink:href="#tool-D12-pad-1336"/><use x="1819.8" y="597.9" xlink:href="#tool-D12-pad-1336"/><use x="2416.2" y="988.4" xlink:href="#tool-D12-pad-1336"/><use x="2416.2" y="1088.4" xlink:href="#tool-D12-pad-1336"/><use x="2516.2" y="1088.4" xlink:href="#tool-D12-pad-1336"/><use x="2516.2" y="1188.4" xlink:href="#tool-D12-pad-1336"/><use x="2416.2" y="1188.4" xlink:href="#tool-D12-pad-1336"/><use x="2416.2" y="1288.4" xlink:href="#tool-D12-pad-1336"/><use x="2516.2" y="1288.4" xlink:href="#tool-D12-pad-1336"/><use x="2516.2" y="1388.4" xlink:href="#tool-D12-pad-1336"/><use x="2416.2" y="1388.4" xlink:href="#tool-D12-pad-1336"/><use x="2236.5" y="1239.6" xlink:href="#tool-D13-pad-1337"/><use x="2159.3" y="1226.7" xlink:href="#tool-D13-pad-1337"/><use x="2271.2" y="1126.7" xlink:href="#tool-D13-pad-1337"/><use x="2341.6" y="1188.4" xlink:href="#tool-D13-pad-1337"/><use x="2664.4" y="1141.5" xlink:href="#tool-D13-pad-1337"/><use x="2666.4" y="1340.5" xlink:href="#tool-D13-pad-1337"/><use x="2668.4" y="1475.7" xlink:href="#tool-D13-pad-1337"/><use x="2761.5" y="1601.8" xlink:href="#tool-D13-pad-1337"/><use x="2387.6" y="1567.7" xlink:href="#tool-D13-pad-1337"/><use x="2188.7" y="1560.1" xlink:href="#tool-D13-pad-1337"/><use x="2111.9" y="1737.8" xlink:href="#tool-D13-pad-1337"/><use x="2111.9" y="1818.4" xlink:href="#tool-D13-pad-1337"/><use x="2348.7" y="1818.4" xlink:href="#tool-D13-pad-1337"/><use x="2485.9" y="1877.4" xlink:href="#tool-D13-pad-1337"/><use x="1876.2" y="1628.8" xlink:href="#tool-D13-pad-1337"/><use x="1663.7" y="1735.1" xlink:href="#tool-D13-pad-1337"/><use x="1718.2" y="1818.4" xlink:href="#tool-D13-pad-1337"/><use x="1371.2" y="1620.5" xlink:href="#tool-D13-pad-1337"/><use x="1252.4" y="1526.7" xlink:href="#tool-D13-pad-1337"/><use x="1371.2" y="1489.2" xlink:href="#tool-D13-pad-1337"/><use x="1502.4" y="1489.2" xlink:href="#tool-D13-pad-1337"/><use x="1472.4" y="1376.7" xlink:href="#tool-D13-pad-1337"/><use x="1392.4" y="1251.7" xlink:href="#tool-D13-pad-1337"/><use x="1347.4" y="1106.7" xlink:href="#tool-D13-pad-1337"/><use x="1177.4" y="1056.7" xlink:href="#tool-D13-pad-1337"/><use x="1057.4" y="1051.7" xlink:href="#tool-D13-pad-1337"/><use x="1047.4" y="1116.7" xlink:href="#tool-D13-pad-1337"/><use x="1167.4" y="1206.7" xlink:href="#tool-D13-pad-1337"/><use x="1000.4" y="1326.7" xlink:href="#tool-D13-pad-1337"/><use x="863.7" y="1385.1" xlink:href="#tool-D13-pad-1337"/><use x="782.4" y="1522.6" xlink:href="#tool-D13-pad-1337"/><use x="1022.4" y="1619.2" xlink:href="#tool-D13-pad-1337"/><use x="1138.7" y="1760.1" xlink:href="#tool-D13-pad-1337"/><use x="1324.5" y="1751.4" xlink:href="#tool-D13-pad-1337"/><use x="1324.5" y="1818.4" xlink:href="#tool-D13-pad-1337"/><use x="930.8" y="1818.4" xlink:href="#tool-D13-pad-1337"/><use x="753.6" y="1877.4" xlink:href="#tool-D13-pad-1337"/><use x="478" y="1601.8" xlink:href="#tool-D13-pad-1337"/><use x="1153.7" y="1426.7" xlink:href="#tool-D13-pad-1337"/><use x="635.5" y="1168.7" xlink:href="#tool-D13-pad-1337"/><use x="851.4" y="1077.7" xlink:href="#tool-D13-pad-1337"/><use x="1057.4" y="966.7" xlink:href="#tool-D13-pad-1337"/><use x="1137.4" y="861.7" xlink:href="#tool-D13-pad-1337"/><use x="1032.4" y="836.7" xlink:href="#tool-D13-pad-1337"/><use x="972.4" y="856.7" xlink:href="#tool-D13-pad-1337"/><use x="771.4" y="913.7" xlink:href="#tool-D13-pad-1337"/><use x="635.5" y="1031" xlink:href="#tool-D13-pad-1337"/><use x="478" y="775" xlink:href="#tool-D13-pad-1337"/><use x="753.6" y="499.5" xlink:href="#tool-D13-pad-1337"/><use x="970.2" y="656.9" xlink:href="#tool-D13-pad-1337"/><use x="1108" y="656.9" xlink:href="#tool-D13-pad-1337"/><use x="1288.7" y="828.8" xlink:href="#tool-D13-pad-1337"/><use x="1351.2" y="835.1" xlink:href="#tool-D13-pad-1337"/><use x="1697.4" y="1036.7" xlink:href="#tool-D13-pad-1337"/><use x="1547.4" y="1066.7" xlink:href="#tool-D13-pad-1337"/><use x="1692.4" y="1156.7" xlink:href="#tool-D13-pad-1337"/><use x="1971.4" y="1036.7" xlink:href="#tool-D13-pad-1337"/><use x="1952.4" y="947.7" xlink:href="#tool-D13-pad-1337"/><use x="1896.7" y="912.5" xlink:href="#tool-D13-pad-1337"/><use x="1842.4" y="871" xlink:href="#tool-D13-pad-1337"/><use x="1727.4" y="831.7" xlink:href="#tool-D13-pad-1337"/><use x="1712.4" y="886.7" xlink:href="#tool-D13-pad-1337"/><use x="1897.9" y="710.7" xlink:href="#tool-D13-pad-1337"/><use x="1972.4" y="716.7" xlink:href="#tool-D13-pad-1337"/><use x="1982.4" y="666.7" xlink:href="#tool-D13-pad-1337"/><use x="2162.4" y="666.7" xlink:href="#tool-D13-pad-1337"/><use x="2192.4" y="751.7" xlink:href="#tool-D13-pad-1337"/><use x="2303.7" y="816.7" xlink:href="#tool-D13-pad-1337"/><use x="2263.7" y="866.7" xlink:href="#tool-D13-pad-1337"/><use x="2213.7" y="916.7" xlink:href="#tool-D13-pad-1337"/><use x="2290.6" y="981.7" xlink:href="#tool-D13-pad-1337"/><use x="2525.4" y="815.7" xlink:href="#tool-D13-pad-1337"/><use x="2604.4" y="914.7" xlink:href="#tool-D13-pad-1337"/><use x="2761.5" y="775" xlink:href="#tool-D13-pad-1337"/><use x="2382.4" y="626.7" xlink:href="#tool-D13-pad-1337"/><use x="2342.4" y="676.7" xlink:href="#tool-D13-pad-1337"/><use x="2485.9" y="499.5" xlink:href="#tool-D13-pad-1337"/><use x="2038.7" y="560.1" xlink:href="#tool-D13-pad-1337"/><use x="1973.5" y="1383.2" xlink:href="#tool-D13-pad-1337"/><use x="1757.4" y="1422.6" xlink:href="#tool-D13-pad-1337"/><use x="2240.6" y="1426.7" xlink:href="#tool-D14-pad-1338"/><use x="1501.2" y="728.8" xlink:href="#tool-D14-pad-1338"/><path fill="none" stroke-width="12" d="M732.3 610.9V478.1h1775v132.8l-.5.5.5 6.8v6.8l.5.5.3 4.2-.8 1.2 1.3 6 .5 6.2 1.1 1 1 4.7-.6 1.3 2.1 5.8 1.4 6.1 1.2.7 1.7 4.6-.4 1.4 2.9 5.4 2.2 5.8 1.3.6 2.4 4.3-.3 1.4 3.7 5 3 5.4 1.4.4 2.9 3.9v1.5l4.4 4.3 3.7 5 1.4.2 3.5 3.4.2 1.5 4.9 3.7 4.4 4.3h1.4l3.9 2.9.5 1.5 5.4 2.9 4.9 3.7 1.5-.2 4.2 2.3.6 1.4 5.8 2.1 5.4 3 1.4-.4 4.6 1.7.8 1.2 6 1.3 5.8 2.2 1.3-.6 4.8 1 1 1.1 6.1.4 6 1.3 1.3-.7 4.1.3.5.5h6.8l6.8.5.6-.5h132.8v869.5h-132.8l-.6-.5-6.8.5h-6.8l-.5.5-4.1.3-1.3-.8-6 1.3-6.1.5-1 1.1-4.8 1-1.3-.6-5.8 2.2-6 1.3-.8 1.2-4.6 1.7-1.4-.4-5.4 2.9-5.8 2.2-.6 1.3-4.2 2.4-1.5-.2-4.9 3.7-5.4 2.9-.5 1.4-3.9 2.9h-1.4l-4.4 4.4-4.9 3.7-.2 1.4-3.5 3.5-1.4.2-3.7 4.9-4.4 4.4v1.5l-2.9 3.9-1.4.4-3 5.4-3.7 4.9.3 1.5-2.4 4.2-1.3.7-2.2 5.7-2.9 5.5.4 1.4-1.7 4.5-1.2.8-1.4 6-2.1 5.8.6 1.4-1 4.7-1.1 1-.5 6.1H1437.4m-8.8-8.8l45.7 45.6h21l10.6 10.6h189.6m1.2-1.2l13.9-5.7h15.1l10.5 4.3 8-8h62.2l10.5 10.6h3.3m-.8 1.3l2.1-3.7 3-3 3.7-2.1 4-1.1h19.9v33.8h11.7v11.7h-11.7v33.8h-19.9l-4-1.1-3.7-2.1-3-3-2.1-3.6-1.1-4.1v-19.9h33.8v-11.7h-33.8v-19.9l1.1-4m-2.5-1.3v62.1l-10.5 10.6h-62.2l-8-8-10.5 4.4h-15.1l-13.9-5.8-10.7-10.7-5.8-14v-15.1l5.8-14 10.7-10.7m-11.7 13h-179.1m0-11.8v62.1l-10.6 10.6h-62.1l-10.3-10.3-10.2 10.3h-62.2l-8-8-10.5 4.4h-15.1l-13.9-5.8-10.7-10.7-5.8-14v-15.1l5.8-14 10.7-10.7 3-1.2-3-1.3-8.3-8.2h-49.8l-8.8-3.6-6.8-6.8-142.2-142.2-3.7-8.8v-230.4l-34.5 34.5v133.1l.1.1-.1 5.1v5.1l-.3 30.2 6.1 6 5.7 14v15.1l-5.7 14-10.7 10.7-14 5.7h-15.1l-14-5.7-10.7-10.7-5.8-14v-15.1l5.8-14 6.4-6.4.3-35.1v-154l4-9.6 47-47v-165.5l-15.2-15.2-7.3-7.3-4-9.6v-3.5l-6.2-6.2-5.8-14v-15.1l5.8-14 10.7-10.7 7.5-3.1-8.2-8.1-5.8-14v-15.1l5.8-14 10.7-10.7 14-5.8h15.1l14 5.8 10.7 10.7 5.7 14v11.6l25.6 25.6 6.8 6.7h240.6m0-11.8h-252.5m-11.8-11.9h264.3m0-11.8h-273m-1.4-11.9h274.4m0-11.8h-280.1M1073 1017h295.4m0-11.8H606.9m0 11.8h435m-15.3 11.9H606.9m0 11.8h414m-1.5 11.9H606.9m0 11.8h414.7m6.6 11.9H670.3m-4.7-4.8l10 10.1 5.5 13.1v14.2l-5.5 13.2-10 10-13.1 5.4h-14.3l-13.1-5.4-10-10-5.5-13.2v-14.2l5.5-13.1 10-10.1 13.1-5.4h14.3l13.1 5.4m12.7 16.6h344m-9.1 11.9H681.1m-1.2 11.8h329.5m0 11.9H674m-16.7 11.8h356.8m7.3 11.9H606.9m0 11.8H1027m11.9 11.9h-432m0 11.8h441m0 11.9h-441m0 11.8h441m0 11.9h-441m0 11.8h441m0 11.9H659.4m6.2 2.6l10 10 5.5 13.1v14.3l-5.5 13.1-10 10-13.1 5.5h-14.3l-13.1-5.5-10-10-5.5-13.1v-14.3l5.5-13.1 10-10 13.1-5.5h14.3l13.1 5.5m9.3 9.2h373m0 11.9H680.2m.9 11.8h366.8m0 11.9H678m-8.5 11.8h378.4m0 11.9h-441m0 11.8h441m0 11.9h-441m0 11.8h437.7m-11.8 11.9H606.9m0 11.8h414m-11.8 11.9H606.9m0 11.8h392.5m-2.5 11.9h-390m0 11.8h390m0 11.9H608.1m-1.2-1.2l70.6 70.6h3.5l15.8 6.6 12.1 12.1 6.5 15.8v17.1l-6.5 15.8-12.1 12.1-15.8 6.5h-17.1l-15.8-6.5-12.1-12.1-6.6-15.8v-3.5l-75.7-75.8-9.6-9.5-5.2-12.5v-522l5.2-12.5 9.6-9.6 219.5-219.5 12.5-5.2H1426l54-53.9-10.2-10.2v-41.4l29.3-29.3h41.4l29.3 29.3v41.4l-16 16v9.2l-5.2 12.5-9.6 9.6-79.7 79.7-.4.1h488.8l-7.5-7.4-5.8-14v-15.1l5.8-14 9.1-9.1-4.9-11.8v-15.1l5.8-14 10.7-10.7 14-5.8h15.1l14 5.8 8.2 8.2h120.5l8.2-8.2 14-5.8h11.6l92.3-92.3 8.9-3.7h129l8.8 3.7 77.8 77.7 3.6 8.9v315.4h68.8l10.5 10.6v78.9l-10.5 10.5h-68.8v8.6l8.6-8.6h41.4l29.3 29.3v41.4l-29.3 29.3h-41.4l-8.6-8.6V1145.9l-.8 1.9 9.4-9.4h41.4l29.3 29.3v41.4l-29.3 29.3h-37.2 37.2l29.3 29.3v41.4l-29.3 29.3h-41.4l-29.3-29.3-29.3 29.3h-22.8l-2 2h.1v44h8v-44h15.9l28.1 28.2v15.8h2m-2 0h-96.3m.3 0v-.3l-24.3 24.2v87.3l-5.2 12.5-71.2 71.2-9.6 9.6-12.5 5.2h-39.5l-9.7 4h-15.1l-9.7-4h-774.7l-2.4 2.4-15.8 6.6h-17.1l-15.8-6.6-12.1-12.1-6.6-15.8v-17.1l6.6-15.8 12.1-12.1 15.8-6.5h17.1l15.8 6.5 2.4 2.5h774.7l9.7-4h15.1l9.7 4h18.7l51.3-51.3v-87.6l2.6-6.1 2.6-6.2v-.1l4.8-4.8 4.8-4.7 75.5-75.1v-22.5l3.7-3.6h-104.2l-7.7 7.7-14 5.8h-15.1l-14-5.8-10.7-10.7-5.7-13.9v-15.1l5.7-14 10.7-10.7 14-5.8h15.1l14 5.8 8.7 8.7h106.5l-7-7v-41.4l29.3-29.3-26-26h-281.1l-8.8-3.6-6.8-6.8-63.4-63.3v5.6l-5.7 14-10.7 10.7-14 5.7h-15.1l-14-5.7-8.2-8.3h-84l-8.9-3.6-132.3-132.4h-11.6l-14-5.7-10.7-10.7-5.8-14v-15.1l5.8-14 10.7-10.7 14-5.8h15.1l14 5.8 10.7 10.7 5.7 14v11.6l122 121.9h69.3l8.2-8.2 14-5.8h5.6l-13-13h-11.6l-14-5.8-10.7-10.7-5.8-13.9v-9l-10.1 4.2h-15.2l-13.9-5.8-10.7-10.7-5.8-14v-14.6l-8.7 3.6h-15.1l-14-5.8-10.7-10.7-5.8-13.9v-15.2l5.8-13.9 10.7-10.7 14-5.8h15.1l14 5.8 8.2 8.2h97.1l8.9 3.6 6.7 6.8 75.4 75.3h118.9l-3.5-8.4v-15.1l5.8-14 8.4-8.4v-36.2l3.7-8.9 6.7-6.7 10.6-10.6v-39.2l-10.9 4.5h-8.8l-4 4.1-9.6 3.9h-866.3l9.6 9.6 5.8 14v11.6l86.1 86.1 3.6 8.8V1222l8.3 8.2 5.7 14v15.1l-5.7 14-10.7 10.7-14 5.7h-15.1l-14-5.7-10.7-10.7-5.8-14v-15.1l5.8-14 8.2-8.2V942.6l-75.7-75.8h-11.6l-14-5.7-10.7-10.7-5.7-14v-15.1l5.7-14 9.6-9.6h-157.8l-37.8 37.8v8.8l-5.7 14L1054 869l-14 5.7h-15.1l-14-5.7-10.7-10.7-5.8-14v-15.1l5.8-14 10.7-10.7 14-5.8h8.8l41.7-41.7 6.3-6.3H806.5L606.9 950.4v480.2m13 13h377m0 11.9H631.8m11.8 11.8h353.3m0 11.9H655.5m11.8 11.8h329.6m0 11.9H685m18.8 11.8h293.1m0 11.9H711.7m3.7 11.8h281.5m0 11.9H715.4m-3.8 11.8h285.3m-.1 11.9H703.5m-19.1 11.8h312.3m-6.4 11.9H456.7m0 11.8h528.6m-.9 11.9H456.7m0 1.8h132.7l.6-.5 6.8.5h6.8l.5.5 4.2.3 1.2-.8 6 1.3 6.2.5.9 1.1 4.8 1 1.3-.6 5.8 2.2 6 1.3.8 1.2 4.6 1.7 1.4-.4 5.4 2.9 5.8 2.2.6 1.3 4.3 2.4 1.4-.2 5 3.7 5.4 2.9.4 1.4 3.9 2.9h1.4l4.4 4.4 4.9 3.7.3 1.4 3.4 3.5 1.4.2 3.7 4.9 4.4 4.4v1.5l2.9 3.9 1.4.4 3 5.4 3.7 4.9-.2 1.5 2.3 4.2 1.3.7 2.2 5.7 2.9 5.5-.4 1.4 1.7 4.5 1.3.8 1.3 6 2.1 5.8-.6 1.4 1.1 4.7 1.1 1 .4 6.1h473.3m11.9 11.8h-484m.2.1v6.9l.4 6.8-.4.5v132.8h1775V1766l-.5-.5.5-6.8v-6.9l.5-.5.3-4.1-.8-1.3 1.3-6m-1.2 11.8H1449.3m11.8 11.9h1045.8m.4 11.8H1473m-8.7 25.2v17.8m0-17.8l-49.3-49.2h-165.3l-142.3-142.2v-507.5l-50-50m70.4 36.4l3.6 8.9v502.2l128.2 128.2h35.1l8.3-8.2 13.9-5.8h15.1l14 5.8 8.2 8.2h65.6l8.8 3.7m-7.3-3.1h1089.9m2.6-11.8H1338.7m-28.4 0h-61.9m-11.9-11.9h1282.2m6.4-11.8H1224.7m-11.9-11.9h1318.8m9.9-11.8H1201m-11.9-11.9h1364.4m15.7-11.8H1177.3m-11.9-11.9h1425.5m192-11.8H1153.6m-11.9-11.9h1641.2m0-11.8h-585.7m-17.1 0h-788.6m-43.2 0h-216.9m0-11.9h203.5m-5.8-11.8h-197.7m0-11.9h195.5m.5-11.8h-196m0-11.9h200.9m10.3-11.8h-211.2m0-11.9h1104.5m11.9-11.8H1131.4m0-11.9h1128.2m11.9-11.8H1131.4m0-11.9h1144.5m0-11.8H1131.4m0-11.9h1144.5m0-11.8H1131.4m0-11.9h1144.5m0-11.8H1131.4m0-11.9h1144.5m1.2-11.8H1131.4m0-11.9h1152M2295.3 1360.7H1131.4m0-11.9h1175.8m11.9-11.8H1131.4m0-11.9h1199.7m11.9-11.8H1131.4m0-11.9h1223.5m11.3-11.8h-679.8m-.4.1h-17.1l-15.8-6.5-12.1-12.1-6.6-15.8v-9.1l-42.4-42.5-4.6-11v-188.5l-39.4-39.5h-9.1l-15.8-6.5-12.1-12.1-6.6-15.8v-17.1l6.6-15.8 12.1-12.1 15.8-6.6h17.1l15.8 6.6 12.1 12.1 6.5 15.8v9.1l44 44 8.5 8.4 4.5 11.1v188.5l29.5 29.4h9.1l15.8 6.6 12.1 12.1 6.5 15.8v17.1l-6.5 15.8-12.1 12.1-15.8 6.5m-17.5-.1h-268.1m-15.9 0h-253.1m0-11.9h233.3m-7.5-11.8h-225.8m0-11.9h223m.9-11.8h-223.9m0-11.9h228.8m8.2-11.8h-237m0-11.9h237m0-11.8h-237m0-11.9h237m0-11.8h-237m0-11.9h237m0-11.8h-237m0-11.9h237m0-11.8h-237m0-11.9h237m0-11.8h-237m237-106.7H606.9m0-11.8h761.5m0-11.9H606.9m0-11.8h761.5m0-11.9H611.3m11.9-11.8H1360m-11.9-11.9H635m11.9-11.8h689.4m-11.9-11.9H658.7m11.9-11.8h642m-11.9-11.9H682.4m11.9-11.8h310.6m-7.6-11.9H706.1m11.9-11.8h276.4m.8-11.9H729.8m11.9-11.8h258.4m12.7-11.9H753.5m11.9-11.8h275.1m11.9-11.9H777.2m11.9-11.8h275.1M1076.1 756.3H800.9m-60.6-35.5H685m.3-.3l-4.4 4.3h-1.4l-3.9 2.9-.4 1.5-5.4 2.9-5 3.7-1.4-.2-4.3 2.3-.6 1.4-5.8 2.1-5.4 3-1.4-.4-4.6 1.7-.8 1.2-6 1.3-5.8 2.2-1.3-.6-4.8 1-.9 1.1-6.2.4-6 1.3-1.2-.7-4.2.3-.5.5h-6.8l-6.8.5-.6-.5H456.7v869.5m0-37.4h203.8m-19.1-11.8H456.7m0-11.9h176.6m-3.9-11.8H456.7m0-11.9h161.9m-11.9-11.8h-150m0-11.9h138.2m-11.9-11.8H456.7m0-11.9h114.5m-11.9-11.8H456.7m0-11.9h90.8m-6.9-11.8h-83.9m0-11.9h82.2m0-11.8h-82.2m0-11.9h82.2m0-11.8h-82.2m0-11.9h82.2m0-11.8h-82.2m0-11.9h82.2m0-11.8h-82.2m0-11.9h82.2m0-11.8h-82.2m0-11.9h82.2m0-11.8h-82.2m0-11.9h82.2m0-11.8h-82.2m0-11.9h82.2m0-11.8h-82.2m0-11.9h82.2m0-11.8h-82.2m0-11.9h82.2m0-11.8h-82.2m0-11.9h82.2m0-11.8h-82.2m0-11.9h82.2m0-11.8h-82.2m0-11.9h82.2m0-11.8h-82.2m0-11.9h82.2m0-11.8h-82.2m0-11.9h82.2m0-11.8h-82.2m0-11.9h82.2m0-11.8h-82.2m0-11.9h82.2m0-11.8h-82.2m0-11.9h82.2m0-11.8h-82.2m0-11.9h82.2m0-11.8h-82.2m0-11.9h82.2m0-11.8h-82.2m0-11.9h82.2m0-11.8h-82.2m0-11.9h82.2m0-11.8h-82.2m0-11.9h85.2m8.8-11.8h-94m0-11.9h105.9m11.8-11.8H456.7m0-11.9h129.6m11.8-11.8H456.7m0-11.9H610m11.8-11.8H456.7m0-11.9h177m11.8-11.8H456.7m0-11.9h200.7m11.8-11.8H456.7m0-11.9h224.4m11.8-11.8H456.7m0-11.9h248.1m11.8-11.8h-72.1m24.5-11.9h59.5m23.7-23.7h-54.8m1.6-2.2l-3.7 5-1.4.2-3.4 3.4-.3 1.5-4.9 3.7m13.7-13.8l4.4-4.3v-1.5l2.9-3.9 1.4-.4 3-5.4 3.7-5-.2-1.4 2.3-4.3 1.3-.6 2.2-5.8 2.9-5.4-.4-1.4 1.7-4.6 1.3-.7 1.3-6.1 2.1-5.8-.6-1.3 1.1-4.7 1.1-1 .4-6.2 1.3-6-.8-1.2.3-4.2.6-.5v-6.8l.4-6.8-.4-.5m.2 3.2h637.3m0-11.8H732.3m0-11.9h637.5m0-11.8H732.3m0-11.9h637.5m0-8.3l10.5-10.5h78.9l10.6 10.5v78.9l-10.6 10.6h-78.9l-10.5-10.6v-78.9m3.5-3.5h-641m0-11.9h1519.9m-11.8 11.9h-392.9m-7-7l29.3 29.3v41.4l-29.3 29.3h-41.4l-29.3-29.3v-41.4l29.3-29.3h41.4m18.8 18.8h369.2m-11.8 11.9h-346.9m0 11.8h335m-11.8 11.9h-323.2m0 11.8h311.3m-11.8 11.9h-306.9m-11.9 11.8h107.1m-9.2 11.9h-397.1m2.5-11.9h38m8.1 8.1l-28.1-28.1v-15.9h44v44h-15.9m15.9-8.1h8m0 8.1v-44h44v15.9l-28.2 28.1h-15.8m0-19.9h-8m0-11.9h8m0-11.8h-8m0-.4h8v-8h44V578l-28.2-28.1h-15.8v44h-8v-44h-15.9l-28.1 28.1v15.9h44v8m0-11.5h8m0-11.8h-8m0-11.9h8m0-11.8h-8m-20.9 0h-47.4m11.8 11.8h23.7m-11.2 11.9h-2m0 11.8h2m0 11.9h-2m0 11.8h2m8.2 11.9h-17.6m-19 35.5h401m0 11.9h-412.9m-11.8 11.8H1949m-9.5 11.9h-431.7m-11.8 11.8h438.5m-.1 11.9h-450.3m-11.8 11.8h465.6m8.5 11.9h-486m-25.1-71.1H720.4m5.2-11.9h721.6m11.8-11.8H728.7m2.1-11.9h639.5m-.5-11.8H731.7m-17.5 59.2h65.4M764 697.1h-57.7m26-165.9h1775m0 11.8h-95.1m11.8 11.9h83.3m0 11.8h-71.4m11.8 11.9h59.6m0 11.8h-47.7m11.8 11.9h35.9m-.3 11.8h-23.7m3.6 11.9h20.9m.9 11.8h-21.8m0 11.9h23.9m3.2 11.8h-27.1m0 11.9h32.2m6.2 11.8h-38.4m0 11.9h46.4m8.8 11.8h-55.2m0 11.9h67.6m16 11.8h-83.6m0 11.9h108.2m-108.2 11.8h296m0 11.9h-296m0 11.8h296m0 11.9h-296m0 11.8h296m0 11.9h-296m0 11.8h296m0 11.9h-296m0 11.8h296m0 11.9h-296m0 11.8h296m0 11.9h-296m0 11.8h296m0 11.9h-296m0 11.8h296m0 11.9h-296m76.3 11.8h219.7m0 11.9h-216.7m0 11.8h216.7m0 11.9h-216.7m0 11.8h216.7m0 11.9h-216.7m0 11.8h216.7m0 11.9h-217.7m-14.1 23.7h231.8m0 11.8h-220m3.3 11.9h216.7m0 11.8h-216.7m0 11.9h216.7m0 11.8h-219.4m-11.8 11.9h231.2m0 11.8h-243.1m6.1 11.9h237m0 11.8h-225.2m8.5 11.9h216.7m0 11.8h-216.7m0 11.9h216.7m0 11.8h-216.7m-9.3 11.9h226m0 11.8H2545m-4.3 11.9h242.2m0 11.8h-230.4m11.9 11.9h218.5m0 11.8h-216.7m0 11.9h216.7m0 11.8h-216.7m-4.1 11.9h220.8m0 11.8h-232.7m-11.8 11.9h244.5m0 11.8h-235.6m-10.4-10.4h-41.4l-29.3 29.3v41.4l29.3 29.3h41.4l29.3-29.3v-41.4l-29.3-29.3m22.3 22.3h223.7m0 11.8h-216.7m0 11.9h216.7m0 11.8h-216.7m0 11.9h216.7m0 11.8h-227.5m-11.8 11.9h239.3m0 11.8h-439m0-11.8h47.8m4.6 4.6l-28.1-28.1v-15.9h44v-8m8 0v8h44v15.9l-28.1 28.1h-15.9v-44h-8v44h-15.9m15.9-4.6h8m0-11.9h-8m0-11.8h8m0-11.9h-8m0-23.7h8m0-11.8h-8m0-11.9h8m18.2-11.8h55.7m-9 11.8h-40.6m11.9 11.9h16.9m-7.1 11.8h-2m0 23.7h2m0 11.9h-2m-11.6 11.8h24.4m11.9 11.9h-48.2m-60.9-11.9h-35.9m.2-11.8h24.1m0-11.9H2356m-12.1 59.3h439m0 11.8h-439m0 11.9h439m0 11.8h-439m-3 11.9h442m0 11.8h-450.8m-11.9 11.9h462.7m0 11.8h-474.5m-11.9 11.9h486.4m0 11.8h-498.2m-11.9 11.9h510.1m0 11.8H2261m-3.5 192.9h19.9l4.1 1.1 3.6 2.1 3 3 2.1 3.7 1.1 4v19.9h-33.8v11.7h-11.7v-11.7h11.7v-33.8m0 8.6h-11.7m0-8.6v33.8H2212v-19.9l1.1-4 2.1-3.7 3-3 3.7-2.1 4-1.1h19.9m0 20.4h11.7m0 11.9h-11.7m0 11.8h-35.2m1.4 1.4v19.9l1.1 4.1 2.1 3.6 3 3 3.7 2.1 4 1.1h19.9v-33.8H2212m-1.4 10.5h1.4m-1.4 11.8h2.1m-2.1 2.9l-10.5 10.6h-62.2l-8-8-10.5 4.4h-15.1l-13.9-5.8-10.7-10.7-5.8-14v-15.1l5.8-14 10.7-10.7 13.9-5.7h15.1l10.5 4.3 8-8h62.2l10.5 10.6h3.3m-3.3 0v62.1m-9 9h305.7m0 11.8h-1775m0-11.8h222.9m1.6 1.6l-8-8-10.5 4.4h-15.1l-13.9-5.8-10.7-10.7-5.8-14v-15.1l5.8-14 10.7-10.7 13.9-5.7h15.1l10.5 4.3 8-8h62.2l10.5 10.6h3.3m-.8 1.3l2.1-3.7 3-3 3.7-2.1 4-1.1h19.9v33.8h11.7v11.7h-11.7v33.8h-19.9l-4-1.1-3.7-2.1-3-3-2.1-3.6-1.1-4.1v-19.9h33.8v-11.7h-33.8v-19.9l1.1-4m-2.5-1.3v62.1L1019 1860h-62.2m-26-41.6h57.1m41.6 4.4h35.2m11.7 0h210.1m0-11.8h-176.3m0 1.5h-33.8v-33.8h19.9l4 1.1 3.7 2.1 3 3 2.1 3.7 1.1 4v19.9m0 11.7h-33.8v33.8h19.9l4-1.1 3.7-2.1 3-3 2.1-3.6 1.1-4.1v-19.9m0 10.5h179.9m8.8 11.8h-189.4m-33.1 0h-11.7m0-11.8h11.7m0-23.7h-11.7m0-11.9h11.7m0-11.8h-11.7m-33.8 11.8h-1.4m0 11.9h1.4m-1.4 23.7h1.4m-1.4 11.8h2.1m-11.1 11.9h328.4m-24.4-40h57.1m32.6 40h17.4m65.3 0h245.7m-24.4-40h57.1m32.6 40h328.4m-24.4-40h57.1m41.6-7.4h1.4m-1.4-11.9h1.4m33.8 35.6h11.7m0-10.5v33.8h19.9l4.1-1.1 3.6-2.1 3-3 2.1-3.6 1.1-4.1v-19.9h-33.8m0-1.4h249.8m0-11.8h-216m0-11.9h216m0-11.8h-217.8m1.8 47.4h216m0 11.8h-216.7m-33.1 0h-11.7m-156.6-59.2h-193.4m.7 1.3l1.1 4v19.9h-33.8v-33.8h19.9l4.1 1.1 3.6 2.1 3 3 2.1 3.7m1.1 10.5h181.1m-4.8 11.9h-176.3m0 13.2h-33.8v33.8h19.9l4.1-1.1 3.6-2.1 3-3 2.1-3.6 1.1-4.1v-19.9m0 10.5h179.9m-3.6-11.9h-210.1m-11.7 0h-35.2m0-11.8h1.4m-1.4-11.9h1.4m33.8 0h11.7m0-11.8h-11.7m0 23.7h11.7m0 23.7h-11.7m0 11.8h11.7m33.1 0h189.4m-267.3 0h-2.1m0-11.8h1.4m-125.7 11.8h-186.7m0-11.8h177.9m-3.6-11.9h-174.3m0-11.8h174.3m-378.4-23.7h-193.4m1.8 11.8h181.1m3.5-23.7H732.3m.3-11.8h495.3m-35.5-35.6H728.3m-2.6-11.8h454.8m-11.8-11.9H720.9m-6.5-11.8h442.4m-11.8-11.9H707.9m-9.9-11.8h435.1m-11.8-11.9h-90.6m-16.5 0H686m-15.6-11.8h324.1m-7.4-11.9H648.7m82.2 106.7l1.3 6-.8 1.3.3 4.1.6.5m0 35.5h175.8m-10.5 11.8H732.3m0 11.9h160.5m0 11.8H732.3m0 11.9h164.1m8.8 11.8H732.3m0 35.6h1775m0 11.8h-1775m318-248.8h59.1m-11.8-11.9h-39.8m2.6-11.8h26.1m-3.1-11.9h-23.8m-5-11.8h28.8m0-11.9h-34.7m.1-11.8h34.6m0-11.9h-34.5m0-11.8h34.5m0-11.9h-34.5m0-11.8h34.5m0-11.9h-34.5m0-11.8h34.5m0-11.9h-34.5m0-11.8h34.5m0-11.9h-34.5m0-11.8h34.5m0-11.9h-34.5m0-11.8h34.5m0-11.9h-34.5m10-11.8h24.5m0-11.9h-12.6m11.8-11.8h.8m309-132.7V932.6l-103.7-103.8m35.6-13.2h886.6m0-11.9h-893.6m9.4 23.7h881.2m-11.9 11.9h-331.5m-22.1 31.7h122.2l85.7 85.7h185.3l30-30h88.3l62.3 61.7m70.7 52.3h6.3m46 0h243.7m-290.3 94.8h-5.7m-.6 11.9h.3m-23.7-6.3V627.7l-71-71h-119.5l-110 110h-180m24.9-28.9h130.3m71.7 68.9l25.6 25.6v102l-21 21v61.2l-.2.2m-33.6-18.2h-154m11.8 11.9h137.8m0 11.8h-125.9m-35.6-35.5h175.7m0-11.9h-187.5m-11.9-11.8h199.4m0-11.9h-211.2m-17.6 51.4h-54.4l-10 10m-38-2.1H1770m-11.8-11.9h58m-8.4-11.8h-57.4m-1.8-11.9h55.8m.2-11.8h-62.2m-16.6-11.9h83.7m10.9-11.8h-487.3m11.8 11.8h354.2m-16.6 11.9h-325.7m11.8 11.8h307.6m-1.8 11.9h-101.2m11.2 11.8h91.8m6.1 11.9h-93m1.1 11.8h108.4m27 11.9h-123.6m11.9 11.8h123.6m11.8 11.9h-123.6m11.9 11.8h123.6m11.8 11.9h-127.5m1.7 11.8h137.7m11.8 11.9h-149.5m0 11.8h161.4m11.8 11.9h-173.2m0 11.8h185.1m11.8 11.9h-196.9m0 11.8h298m26-27.7h-109l-150-150m69.5 35.5h77.7m5 11.9h-70.9m11.9 11.8h72.5m37.4 11.9h-98.1m11.9 11.8h91.3m14.1 11.9h-93.6m11.9 11.8h111.1m-14.8 11.9h-84.5m87.6-57.5l140.7 140.7h323.1m-35.4 35.3h-733.4m0 11.8h745.2m2.9 2.9h36.3-36.3m-8.9 9h-739.2m0 11.8h727.3m-8.5 11.9h-718.8m8.7 11.8h710.1m0 11.9h-698.3m25.1 11.8h523.8m-12.7 11.9H1710m7.2 11.8h482m-.7 11.9h-478.1m0 11.8h480.9m7.7 11.9h-492.9m-8.8 11.8h658.9m1.9-11.8h-104.2m-20-25.8l-7.4-.5m7.4.5h223.3l49 48.3m-50 20.7v-36.3 36.3m-4.1 4.2h8.3m11.8 11.8h-32m-34-136.7l46.7-47.3m-96.7 65.5h-110.1m-169.2-94.8h-439.5m0-11.8h423.4m-11.9-11.9h-411.5m0-11.8h399.7m-11.9-11.9h-37.7m8.5-11.8h17.4m-11.9-11.9h-2.1m30.9-59l-79.2-79.2m79.2 79.2h250.3m-26.9-115v-72.1l78.7-78.8v-39.1m40-50V738l-78.7 78.7m-92.8-24.8h-21.8m20.2-85.2h-226.9l-10 10M1789 637.8h-38.5m-10 10.1h-41.4l-29.3-29.3v-41.4l29.3-29.3h41.4l29.3 29.3v41.4l-29.3 29.3m21.9-21.9h14.8M1759.3 566.7h20.9m11.8-11.8h-44.5m-55.5 0h-47.3m11.8 11.8h23.7m-10.4 11.9h-2m0 11.8h2m0 11.9h-2m0 11.8h2m7.4 11.9h-17.7m-11.8 11.8h41.3M1477.2 626h-7.4m-.5 11.8h1.6M1469.8 566.7h10.4m11.8-11.8h-25.8M1260 803.7h-157.8m-11.8 11.9H1253m-2.3 11.8h-172.2m-8.1 11.9h181.5m5.3 11.8h-189.6m-7.7 11.9h211.9m108.7 23.7h141.2m-11.2 11.8h-118.2m11.9 11.9h101.4m-1.2 11.8h-90.3m2.3 11.9h89.6m4.9 11.8h-94.5m0 11.9h106.3m30.2 11.8h-136.5m0 11.9h148.4m11.8 11.8h-160.2m0 11.9h171m0 11.8h-171m0 11.9h171m0 11.8h-171m0 11.9h171m0 11.8h-171m0 11.9h171m0 11.8h-171m0 11.9h171m0 11.8h-171m0 11.9h171m0 11.8h-171m0 11.9h171m0 11.8h-171m0 11.9h171m0 11.8h-171m0 11.9h171.9m6.6 11.8h-178.5m0 11.9h190.4m11.8 11.8h-193.9m4.9 11.9h200.9m3.9 11.8h-204m-2.7 11.9h211.1m8.8 11.8h-227.4m-788.8-35.5h-24.5m0 11.8h9m-5.4 11.9h-3.6m0 11.8h2.7m-2.7 11.9h5.8m-5.8 11.8h14.3m12.2-165.9h-26.5m0-11.8h9.8m-5.9-11.9h-3.9m0-11.8h2.7m-2.7-11.9h5.5m-5.5-11.8h13.5m111.9-557h1775m0-11.8h-1775m0-11.9h1775m0-11.8h-1775"/><path fill="none" stroke-width="24" d="M1547.4 921.7l70 70v195l60 60"/><path fill="none" stroke-width="32" d="M1369.9 1560.1h868.8l71.2-71.3v-94.7l106.3-105.7m-896.4-651.3l-79.7 79.6H792.4L572.9 936.3v508.4l99.5 99.5m847.4-907.1v-39.2"/><use x="1547.4" y="921.7" xlink:href="#tool-D18-pad-1342"/><use x="1677.4" y="1246.7" xlink:href="#tool-D18-pad-1342"/><use x="1369.9" y="1560.1" xlink:href="#tool-D18-pad-1342"/><use x="672.4" y="1544.2" xlink:href="#tool-D18-pad-1342"/><path fill="none" stroke-width="16" d="M1022.9 1556.3v-149l51-51v-187l-26.5-26.4v-26.2m-15-280l65-65h1075l20-20m-1169.5 804.6l-.5 62.9"/></g><mask id="_bottom_mech-mask"><path fill="#fff" d="M438.6 460.1h2362.3v1456.7H438.6z"/><g id="_bottom-drl" stroke="#000"><use x="753.6" y="499.5" xlink:href="#tool-T1-pad-1024"/><use x="970.2" y="656.9" xlink:href="#tool-T1-pad-1024"/><use x="1108" y="656.9" xlink:href="#tool-T1-pad-1024"/><use x="1288.7" y="828.8" xlink:href="#tool-T1-pad-1024"/><use x="1351.2" y="835.1" xlink:href="#tool-T1-pad-1024"/><use x="1137.4" y="861.7" xlink:href="#tool-T1-pad-1024"/><use x="1032.4" y="836.7" xlink:href="#tool-T1-pad-1024"/><use x="972.4" y="856.7" xlink:href="#tool-T1-pad-1024"/><use x="1057.4" y="966.7" xlink:href="#tool-T1-pad-1024"/><use x="1057.4" y="1051.7" xlink:href="#tool-T1-pad-1024"/><use x="1047.4" y="1116.7" xlink:href="#tool-T1-pad-1024"/><use x="1177.4" y="1056.7" xlink:href="#tool-T1-pad-1024"/><use x="1347.4" y="1106.7" xlink:href="#tool-T1-pad-1024"/><use x="1167.4" y="1206.7" xlink:href="#tool-T1-pad-1024"/><use x="1000.4" y="1326.7" xlink:href="#tool-T1-pad-1024"/><use x="863.7" y="1385.1" xlink:href="#tool-T1-pad-1024"/><use x="782.4" y="1522.6" xlink:href="#tool-T1-pad-1024"/><use x="1022.4" y="1619.2" xlink:href="#tool-T1-pad-1024"/><use x="1138.7" y="1760.1" xlink:href="#tool-T1-pad-1024"/><use x="1324.5" y="1751.4" xlink:href="#tool-T1-pad-1024"/><use x="1324.5" y="1818.4" xlink:href="#tool-T1-pad-1024"/><use x="1371.2" y="1620.5" xlink:href="#tool-T1-pad-1024"/><use x="1252.4" y="1526.7" xlink:href="#tool-T1-pad-1024"/><use x="1371.2" y="1489.2" xlink:href="#tool-T1-pad-1024"/><use x="1502.4" y="1489.2" xlink:href="#tool-T1-pad-1024"/><use x="1472.4" y="1376.7" xlink:href="#tool-T1-pad-1024"/><use x="1392.4" y="1251.7" xlink:href="#tool-T1-pad-1024"/><use x="1692.4" y="1156.7" xlink:href="#tool-T1-pad-1024"/><use x="1547.4" y="1066.7" xlink:href="#tool-T1-pad-1024"/><use x="1697.4" y="1036.7" xlink:href="#tool-T1-pad-1024"/><use x="1896.7" y="912.5" xlink:href="#tool-T1-pad-1024"/><use x="1952.4" y="947.7" xlink:href="#tool-T1-pad-1024"/><use x="1971.4" y="1036.7" xlink:href="#tool-T1-pad-1024"/><use x="2213.7" y="916.7" xlink:href="#tool-T1-pad-1024"/><use x="2263.7" y="866.7" xlink:href="#tool-T1-pad-1024"/><use x="2303.7" y="816.7" xlink:href="#tool-T1-pad-1024"/><use x="2192.4" y="751.7" xlink:href="#tool-T1-pad-1024"/><use x="2162.4" y="666.7" xlink:href="#tool-T1-pad-1024"/><use x="1982.4" y="666.7" xlink:href="#tool-T1-pad-1024"/><use x="1972.4" y="716.7" xlink:href="#tool-T1-pad-1024"/><use x="1897.9" y="710.7" xlink:href="#tool-T1-pad-1024"/><use x="1727.4" y="831.7" xlink:href="#tool-T1-pad-1024"/><use x="1712.4" y="886.7" xlink:href="#tool-T1-pad-1024"/><use x="1842.4" y="871" xlink:href="#tool-T1-pad-1024"/><use x="2290.6" y="981.7" xlink:href="#tool-T1-pad-1024"/><use x="2271.2" y="1126.7" xlink:href="#tool-T1-pad-1024"/><use x="2341.6" y="1188.4" xlink:href="#tool-T1-pad-1024"/><use x="2236.5" y="1239.6" xlink:href="#tool-T1-pad-1024"/><use x="2159.3" y="1226.7" xlink:href="#tool-T1-pad-1024"/><use x="1973.5" y="1383.2" xlink:href="#tool-T1-pad-1024"/><use x="1757.4" y="1422.6" xlink:href="#tool-T1-pad-1024"/><use x="1876.2" y="1628.8" xlink:href="#tool-T1-pad-1024"/><use x="1663.7" y="1735.1" xlink:href="#tool-T1-pad-1024"/><use x="1718.2" y="1818.4" xlink:href="#tool-T1-pad-1024"/><use x="2111.9" y="1818.4" xlink:href="#tool-T1-pad-1024"/><use x="2111.9" y="1737.8" xlink:href="#tool-T1-pad-1024"/><use x="2348.7" y="1818.4" xlink:href="#tool-T1-pad-1024"/><use x="2485.9" y="1877.4" xlink:href="#tool-T1-pad-1024"/><use x="2761.5" y="1601.8" xlink:href="#tool-T1-pad-1024"/><use x="2668.4" y="1475.7" xlink:href="#tool-T1-pad-1024"/><use x="2666.4" y="1340.5" xlink:href="#tool-T1-pad-1024"/><use x="2664.4" y="1141.5" xlink:href="#tool-T1-pad-1024"/><use x="2604.4" y="914.7" xlink:href="#tool-T1-pad-1024"/><use x="2525.4" y="815.7" xlink:href="#tool-T1-pad-1024"/><use x="2342.4" y="676.7" xlink:href="#tool-T1-pad-1024"/><use x="2382.4" y="626.7" xlink:href="#tool-T1-pad-1024"/><use x="2485.9" y="499.5" xlink:href="#tool-T1-pad-1024"/><use x="2761.5" y="775" xlink:href="#tool-T1-pad-1024"/><use x="2038.7" y="560.1" xlink:href="#tool-T1-pad-1024"/><use x="851.4" y="1077.7" xlink:href="#tool-T1-pad-1024"/><use x="635.5" y="1031" xlink:href="#tool-T1-pad-1024"/><use x="771.4" y="913.7" xlink:href="#tool-T1-pad-1024"/><use x="478" y="775" xlink:href="#tool-T1-pad-1024"/><use x="635.5" y="1168.7" xlink:href="#tool-T1-pad-1024"/><use x="1153.7" y="1426.7" xlink:href="#tool-T1-pad-1024"/><use x="478" y="1601.8" xlink:href="#tool-T1-pad-1024"/><use x="753.6" y="1877.4" xlink:href="#tool-T1-pad-1024"/><use x="930.8" y="1818.4" xlink:href="#tool-T1-pad-1024"/><use x="2188.7" y="1560.1" xlink:href="#tool-T1-pad-1024"/><use x="2387.6" y="1567.7" xlink:href="#tool-T1-pad-1024"/><use x="2240.6" y="1426.7" xlink:href="#tool-T2-pad-1025"/><use x="1501.2" y="728.8" xlink:href="#tool-T2-pad-1025"/><use x="1547.4" y="921.7" xlink:href="#tool-T3-pad-1026"/><use x="1677.4" y="1246.7" xlink:href="#tool-T3-pad-1026"/><use x="1369.9" y="1560.1" xlink:href="#tool-T3-pad-1026"/><use x="672.4" y="1544.2" xlink:href="#tool-T3-pad-1026"/><use x="645.4" y="1275" xlink:href="#tool-T4-pad-1027"/><use x="645.4" y="1101.8" xlink:href="#tool-T4-pad-1027"/><use x="1419.8" y="597.9" xlink:href="#tool-T5-pad-1028"/><use x="1519.8" y="597.9" xlink:href="#tool-T5-pad-1028"/><use x="1619.8" y="597.9" xlink:href="#tool-T5-pad-1028"/><use x="1719.8" y="597.9" xlink:href="#tool-T5-pad-1028"/><use x="1819.8" y="597.9" xlink:href="#tool-T5-pad-1028"/><use x="2416.2" y="988.4" xlink:href="#tool-T5-pad-1028"/><use x="2516.2" y="988.4" xlink:href="#tool-T5-pad-1028"/><use x="2516.2" y="1088.4" xlink:href="#tool-T5-pad-1028"/><use x="2416.2" y="1088.4" xlink:href="#tool-T5-pad-1028"/><use x="2416.2" y="1188.4" xlink:href="#tool-T5-pad-1028"/><use x="2516.2" y="1188.4" xlink:href="#tool-T5-pad-1028"/><use x="2516.2" y="1288.4" xlink:href="#tool-T5-pad-1028"/><use x="2416.2" y="1288.4" xlink:href="#tool-T5-pad-1028"/><use x="2416.2" y="1388.4" xlink:href="#tool-T5-pad-1028"/><use x="2516.2" y="1388.4" xlink:href="#tool-T5-pad-1028"/><use x="2643.4" y="1759.3" xlink:href="#tool-T6-pad-1029"/><use x="2643.4" y="617.6" xlink:href="#tool-T6-pad-1029"/><use x="596.1" y="617.6" xlink:href="#tool-T6-pad-1029"/><use x="596.1" y="1759.3" xlink:href="#tool-T6-pad-1029"/></g></mask></defs><g mask="url(#_bottom_mech-mask)" transform="rotate(180 1619.75 1188.45)"><path fill="currentColor" d="M438.6 460.1h2362.3v1456.7H438.6z" class="_board-fr4"/><use class="_board-cu" xlink:href="#_bottom-cu"/><defs><g id="_bottom-sm" fill="currentColor" stroke="currentColor"><use x="987.9" y="1818.4" xlink:href="#tool-D10-pad-1362"/><use x="1070.6" y="1818.4" xlink:href="#tool-D10-pad-1362"/><use x="1381.6" y="1818.4" xlink:href="#tool-D10-pad-1362"/><use x="1464.3" y="1818.4" xlink:href="#tool-D10-pad-1362"/><use x="1775.3" y="1818.4" xlink:href="#tool-D10-pad-1362"/><use x="1858" y="1818.4" xlink:href="#tool-D10-pad-1362"/><use x="2169" y="1818.4" xlink:href="#tool-D10-pad-1362"/><use x="2251.7" y="1818.4" xlink:href="#tool-D10-pad-1362"/><use x="645.4" y="1275" xlink:href="#tool-D11-pad-1363"/><use x="645.4" y="1101.8" xlink:href="#tool-D11-pad-1363"/><use x="1419.8" y="597.9" xlink:href="#tool-D12-pad-1364"/><use x="2516.2" y="988.4" xlink:href="#tool-D12-pad-1364"/><use x="2416.2" y="988.4" xlink:href="#tool-D13-pad-1365"/><use x="2416.2" y="1088.4" xlink:href="#tool-D13-pad-1365"/><use x="2516.2" y="1088.4" xlink:href="#tool-D13-pad-1365"/><use x="2516.2" y="1188.4" xlink:href="#tool-D13-pad-1365"/><use x="2416.2" y="1188.4" xlink:href="#tool-D13-pad-1365"/><use x="2416.2" y="1288.4" xlink:href="#tool-D13-pad-1365"/><use x="2516.2" y="1288.4" xlink:href="#tool-D13-pad-1365"/><use x="2516.2" y="1388.4" xlink:href="#tool-D13-pad-1365"/><use x="2416.2" y="1388.4" xlink:href="#tool-D13-pad-1365"/><use x="1819.8" y="597.9" xlink:href="#tool-D13-pad-1365"/><use x="1719.8" y="597.9" xlink:href="#tool-D13-pad-1365"/><use x="1619.8" y="597.9" xlink:href="#tool-D13-pad-1365"/><use x="1519.8" y="597.9" xlink:href="#tool-D13-pad-1365"/><use x="596.1" y="617.6" xlink:href="#tool-D14-pad-1366"/><use x="596.1" y="1759.3" xlink:href="#tool-D14-pad-1366"/><use x="2643.4" y="1759.3" xlink:href="#tool-D14-pad-1366"/><use x="2643.4" y="617.6" xlink:href="#tool-D14-pad-1366"/><use x="1547.4" y="921.7" xlink:href="#tool-D15-pad-1367"/><use x="1677.4" y="1246.7" xlink:href="#tool-D15-pad-1367"/><use x="1369.9" y="1560.1" xlink:href="#tool-D15-pad-1367"/><use x="672.4" y="1544.2" xlink:href="#tool-D15-pad-1367"/></g><mask id="_bottom-sm_mask" color="#000"><path fill="#fff" d="M450.7 472.1h2338.2v1432.7H450.7z"/><use xlink:href="#_bottom-sm"/></mask><mask id="_bottom-cu_finish-mask" color="#fff"><use xlink:href="#_bottom-cu"/></mask></defs><path fill="currentColor" d="M450.7 472.1h2338.2v1432.7H450.7z" class="_board-sm" mask="url(#_bottom-sm_mask)"/><use class="_board-cf" mask="url(#_bottom-cu_finish-mask)" xlink:href="#_bottom-sm"/><g id="_bottom-out" fill="currentColor" stroke="currentColor" class="_board-out"><path fill="none" d="M596.1 460.1l-7.7.2-7.7.6-7.7.9-7.6 1.3-7.6 1.7-7.4 2.1-7.4 2.4-7.2 2.8-7 3.1-6.9 3.5-6.8 3.8-6.5 4.1-6.3 4.5-6.1 4.8-5.9 5-5.6 5.3-5.3 5.6-5 5.9-4.8 6.1-4.5 6.3-4.1 6.5-3.8 6.8-3.5 6.9-3.1 7-2.8 7.2-2.4 7.4-2.1 7.4-1.7 7.6-1.3 7.6-.9 7.7-.6 7.7-.2 7.7m157.5-157.5h2047.3l7.7.2 7.7.6 7.7.9 7.6 1.3 7.6 1.7 7.4 2.1 7.4 2.4 7.2 2.8 7 3.1 6.9 3.5 6.8 3.8 6.5 4.1 6.3 4.5 6.1 4.8 5.9 5 5.6 5.3 5.3 5.6 5 5.9 4.8 6.1 4.5 6.3 4.1 6.5 3.8 6.8 3.5 6.9 3.1 7 2.8 7.2 2.4 7.4 2.1 7.4 1.7 7.6 1.3 7.6.9 7.7.6 7.7.2 7.7v1141.7l-.2 7.7-.6 7.7-.9 7.7-1.3 7.6-1.7 7.6-2.1 7.4-2.4 7.4-2.8 7.2-3.1 7-3.5 6.9-3.8 6.8-4.1 6.5-4.5 6.3-4.8 6.1-5 5.9-5.3 5.6-5.6 5.3-5.9 5-6.1 4.8-6.3 4.5-6.5 4.1-6.8 3.8-6.9 3.5-7 3.1-7.2 2.8-7.4 2.4-7.4 2.1-7.6 1.7-7.6 1.3-7.7.9-7.7.6-7.7.2H596.1l-7.7-.2-7.7-.6-7.7-.9-7.6-1.3-7.6-1.7-7.4-2.1-7.4-2.4-7.2-2.8-7-3.1-6.9-3.5-6.8-3.8-6.5-4.1-6.3-4.5-6.1-4.8-5.9-5-5.6-5.3-5.3-5.6-5-5.9-4.8-6.1-4.5-6.3-4.1-6.5-3.8-6.8-3.5-6.9-3.1-7-2.8-7.2-2.4-7.4-2.1-7.4-1.7-7.6-1.3-7.6-.9-7.7-.6-7.7-.2-7.7M2580.4 617.6l.2-5 .6-5 1-4.9 1.4-4.8 1.7-4.7 2.1-4.5 2.5-4.4 2.8-4.1 3.2-3.9 3.4-3.7 3.7-3.4 4-3 4.2-2.7 4.4-2.4 4.6-2.1 4.7-1.6 4.8-1.3 5-.9 4.9-.5 5.1-.1 5 .3 4.9.7 4.9 1.1 4.8 1.5 4.6 1.8 4.5 2.2 4.3 2.6 4.1 2.9 3.9 3.2 3.6 3.5 3.2 3.8 3 4 2.7 4.3 2.3 4.4 1.9 4.6 1.6 4.8 1.2 4.9.8 4.9.4 5v5l-.4 5-.8 4.9-1.2 4.9-1.6 4.8-1.9 4.6-2.3 4.4-2.7 4.3-3 4-3.2 3.8-3.6 3.5-3.9 3.2-4.1 2.9-4.3 2.6-4.5 2.2-4.6 1.8-4.8 1.5-4.9 1.1-4.9.7-5 .3-5.1-.1-4.9-.5-5-.9-4.8-1.3-4.7-1.6-4.6-2.1-4.4-2.4-4.2-2.7-4-3-3.7-3.4-3.4-3.7-3.2-3.9-2.8-4.1-2.5-4.4-2.1-4.5-1.7-4.7-1.4-4.8-1-4.9-.6-5zm0 1141.7l.2-5 .6-5 1-4.9 1.4-4.8 1.7-4.7 2.1-4.5 2.5-4.4 2.8-4.1 3.2-3.9 3.4-3.7 3.7-3.4 4-3 4.2-2.7 4.4-2.4 4.6-2.1 4.7-1.6 4.8-1.3 5-.9 4.9-.5 5.1-.1 5 .3 4.9.7 4.9 1.1 4.8 1.5 4.6 1.8 4.5 2.2 4.3 2.6 4.1 2.9 3.9 3.2 3.6 3.5 3.2 3.8 3 4 2.7 4.3 2.3 4.4 1.9 4.6 1.6 4.8 1.2 4.9.8 4.9.4 5v5l-.4 5-.8 4.9-1.2 4.9-1.6 4.8-1.9 4.6-2.3 4.4-2.7 4.3-3 4-3.2 3.8-3.6 3.5-3.9 3.2-4.1 2.9-4.3 2.6-4.5 2.2-4.6 1.8-4.8 1.5-4.9 1.1-4.9.7-5 .3-5.1-.1-4.9-.5-5-.9-4.8-1.3-4.7-1.6-4.6-2.1-4.4-2.4-4.2-2.7-4-3-3.7-3.4-3.4-3.7-3.2-3.9-2.8-4.1-2.5-4.4-2.1-4.5-1.7-4.7-1.4-4.8-1-4.9-.6-5zm-2047.3 0l.2-5 .6-5 1-4.9 1.4-4.8 1.7-4.7 2.1-4.5 2.5-4.4 2.8-4.1 3.2-3.9 3.4-3.7 3.7-3.4 4-3 4.2-2.7 4.4-2.4 4.6-2.1 4.7-1.6 4.8-1.3 5-.9 4.9-.5 5.1-.1 5 .3 4.9.7 4.9 1.1 4.8 1.5 4.6 1.8 4.5 2.2 4.3 2.6 4.1 2.9 3.9 3.2 3.6 3.5 3.2 3.8 3 4 2.7 4.3 2.3 4.4 1.9 4.6 1.6 4.8 1.2 4.9.8 4.9.4 5v5l-.4 5-.8 4.9-1.2 4.9-1.6 4.8-1.9 4.6-2.3 4.4-2.7 4.3-3 4-3.2 3.8-3.6 3.5-3.9 3.2-4.1 2.9-4.3 2.6-4.5 2.2-4.6 1.8-4.8 1.5-4.9 1.1-4.9.7-5 .3-5.1-.1-4.9-.5-5-.9-4.8-1.3-4.7-1.6-4.6-2.1-4.4-2.4-4.2-2.7-4-3-3.7-3.4-3.4-3.7-3.2-3.9-2.8-4.1-2.5-4.4-2.1-4.5-1.7-4.7-1.4-4.8-1-4.9-.6-5zm-94.4 0V617.6m94.4 0l.2-5 .6-5 1-4.9 1.4-4.8 1.7-4.7 2.1-4.5 2.5-4.4 2.8-4.1 3.2-3.9 3.4-3.7 3.7-3.4 4-3 4.2-2.7 4.4-2.4 4.6-2.1 4.7-1.6 4.8-1.3 5-.9 4.9-.5 5.1-.1 5 .3 4.9.7 4.9 1.1 4.8 1.5 4.6 1.8 4.5 2.2 4.3 2.6 4.1 2.9 3.9 3.2 3.6 3.5 3.2 3.8 3 4 2.7 4.3 2.3 4.4 1.9 4.6 1.6 4.8 1.2 4.9.8 4.9.4 5v5l-.4 5-.8 4.9-1.2 4.9-1.6 4.8-1.9 4.6-2.3 4.4-2.7 4.3-3 4-3.2 3.8-3.6 3.5-3.9 3.2-4.1 2.9-4.3 2.6-4.5 2.2-4.6 1.8-4.8 1.5-4.9 1.1-4.9.7-5 .3-5.1-.1-4.9-.5-5-.9-4.8-1.3-4.7-1.6-4.6-2.1-4.4-2.4-4.2-2.7-4-3-3.7-3.4-3.4-3.7-3.2-3.9-2.8-4.1-2.5-4.4-2.1-4.5-1.7-4.7-1.4-4.8-1-4.9-.6-5zm94.6 484.2l.2-2.6.6-2.6 1-2.5 1.3-2.3 1.6-2 2-1.8 2.1-1.5 2.4-1.2 2.6-.8 2.6-.4h2.6l2.6.4 2.6.8 2.3 1.2 2.2 1.5 2 1.8 1.6 2 1.3 2.3 1 2.5.6 2.6.2 2.6-.2 2.6-.6 2.6-1 2.5-1.3 2.3-1.6 2-2 1.8-2.1 1.5-2.4 1.2-2.6.8-2.6.4h-2.6l-2.6-.4-2.6-.8-2.3-1.2-2.2-1.5-2-1.8-1.6-2-1.3-2.3-1-2.5-.6-2.6zm0 173.2l.2-2.6.6-2.6 1-2.5 1.3-2.3 1.6-2 2-1.8 2.1-1.5 2.4-1.2 2.6-.8 2.6-.4h2.6l2.6.4 2.6.8 2.3 1.2 2.2 1.5 2 1.8 1.6 2 1.3 2.3 1 2.5.6 2.6.2 2.6-.2 2.6-.6 2.6-1 2.5-1.3 2.3-1.6 2-2 1.8-2.1 1.5-2.4 1.2-2.6.8-2.6.4h-2.6l-2.6-.4-2.6-.8-2.3-1.2-2.2-1.5-2-1.8-1.6-2-1.3-2.3-1-2.5-.6-2.6z"/></g></g><style>._board-fr4{color:#4d542c}._board-cu{color:#d3d3d3}._board-cf{color:#daa520}._board-sm{color:#8b0000;opacity:.9}._board-ss{color:#fff}._board-sp{color:silver;opacity:0}._board-out{color:#000}</style></svg>